<svg xmlns="http://www.w3.org/2000/svg" width="100" height="100" viewBox="0 0 100 100">
  <g id="Grupo_1199931" data-name="Grupo 1199931" transform="translate(-180 -896)">
    <g id="Grupo_1198222" data-name="Grupo 1198222" transform="translate(0 -78)">
      <g id="Grupo_1112424" data-name="Grupo 1112424" transform="translate(16445.764 9993.525)">
        <g id="Grupo_1112415" data-name="Grupo 1112415" transform="translate(-16265.764 -9019.525)">
          <g id="Grupo_1098742" data-name="Grupo 1098742" transform="translate(0 0)">
            <g id="Rectángulo_400898" data-name="Rectángulo 400898" transform="translate(0.001 0)" fill="#fdf4e9" stroke="#ef8c1a" stroke-width="3">
              <rect width="100" height="100" rx="50" stroke="none"/>
              <rect x="1.5" y="1.5" width="97" height="97" rx="48.5" fill="none"/>
            </g>
            <g id="Rectángulo_400907" data-name="Rectángulo 400907" transform="translate(0 0)" fill="none" stroke="#ef8c1a" stroke-width="3">
              <rect width="100" height="100" rx="50" stroke="none"/>
              <rect x="1.5" y="1.5" width="97" height="97" rx="48.5" fill="none"/>
            </g>
          </g>
        </g>
      </g>
    </g>
    <g id="eco-technology_9092436" transform="translate(190.146 885.807)">
      <path id="Trazado_1032452" data-name="Trazado 1032452" d="M65.553,62.351V56.584a1.922,1.922,0,0,0-1.922-1.922H61a1.924,1.924,0,0,1-1.854-1.42,23.3,23.3,0,0,0-2.222-5.36,1.926,1.926,0,0,1,.305-2.318L59.09,43.7a1.922,1.922,0,0,0,0-2.719L55.013,36.9a1.922,1.922,0,0,0-2.719,0L50.43,38.769a1.926,1.926,0,0,1-2.318.305,23.307,23.307,0,0,0-5.36-2.222A1.924,1.924,0,0,1,41.332,35V32.363a1.922,1.922,0,0,0-1.922-1.922H33.643a1.922,1.922,0,0,0-1.922,1.922V35a1.924,1.924,0,0,1-1.42,1.854,23.3,23.3,0,0,0-5.36,2.222,1.926,1.926,0,0,1-2.318-.305L20.759,36.9a1.922,1.922,0,0,0-2.719,0l-4.078,4.078a1.922,1.922,0,0,0,0,2.719l1.865,1.865a1.926,1.926,0,0,1,.305,2.318,23.307,23.307,0,0,0-2.222,5.36,1.924,1.924,0,0,1-1.854,1.42H9.422A1.922,1.922,0,0,0,7.5,56.584v5.767a1.922,1.922,0,0,0,1.922,1.922h2.635a1.924,1.924,0,0,1,1.854,1.42,23.3,23.3,0,0,0,2.222,5.36,1.926,1.926,0,0,1-.305,2.318l-1.865,1.865a1.922,1.922,0,0,0,0,2.719l4.078,4.078a1.922,1.922,0,0,0,2.719,0l1.865-1.865a1.926,1.926,0,0,1,2.318-.305,23.308,23.308,0,0,0,5.36,2.222,1.924,1.924,0,0,1,1.42,1.854v2.635a1.922,1.922,0,0,0,1.922,1.922H39.41a1.922,1.922,0,0,0,1.922-1.922V83.937a1.924,1.924,0,0,1,1.42-1.854,23.305,23.305,0,0,0,5.36-2.222,1.926,1.926,0,0,1,2.318.305l1.865,1.865a1.922,1.922,0,0,0,2.719,0l4.078-4.078a1.922,1.922,0,0,0,0-2.719L57.226,73.37a1.926,1.926,0,0,1-.305-2.318,23.307,23.307,0,0,0,2.222-5.36A1.924,1.924,0,0,1,61,64.273h2.635A1.922,1.922,0,0,0,65.553,62.351Z" transform="translate(0 0)" fill="#cecece"/>
      <g id="Grupo_1199923" data-name="Grupo 1199923" transform="translate(31.721 30.441)">
        <path id="Trazado_1032453" data-name="Trazado 1032453" d="M208.366,45.473a15.368,15.368,0,0,1,10.8-.035L220.9,43.7a1.922,1.922,0,0,0,0-2.719L216.825,36.9a1.922,1.922,0,0,0-2.719,0l-1.865,1.865a1.926,1.926,0,0,1-2.318.305,23.308,23.308,0,0,0-5.36-2.222A1.924,1.924,0,0,1,203.144,35V32.363a1.922,1.922,0,0,0-1.922-1.922h-5.767a1.922,1.922,0,0,0-1.922,1.922V34.02A26.675,26.675,0,0,1,208.366,45.473Z" transform="translate(-193.533 -30.441)" fill="#bfbfbf"/>
        <path id="Trazado_1032454" data-name="Trazado 1032454" d="M392.663,207.184a15.255,15.255,0,0,1-1.8,5.7h1.395a.876.876,0,0,1,.876.876v1.571a.879.879,0,0,0,.657.847,12.049,12.049,0,0,1,2.918,1.21.88.88,0,0,0,1.065-.134l1.111-1.112a.88.88,0,0,1,.118-.1v-5.733a1.922,1.922,0,0,0-1.922-1.922h-2.635A1.921,1.921,0,0,1,392.663,207.184Z" transform="translate(-365.169 -184.173)" fill="#bfbfbf"/>
        <path id="Trazado_1032455" data-name="Trazado 1032455" d="M208.505,388.938a12.054,12.054,0,0,1-1.21-2.918.879.879,0,0,0-.847-.657h-.4a26.636,26.636,0,0,1-12.516,8.264v1.657a1.922,1.922,0,0,0,1.922,1.922h5.767a1.922,1.922,0,0,0,1.922-1.922v-2.635a1.924,1.924,0,0,1,1.42-1.854,23.278,23.278,0,0,0,4.051-1.531A.9.9,0,0,0,208.505,388.938Z" transform="translate(-193.533 -339.153)" fill="#bfbfbf"/>
      </g>
      <g id="Grupo_1199924" data-name="Grupo 1199924" transform="translate(7.5 30.441)">
        <path id="Trazado_1032456" data-name="Trazado 1032456" d="M392.661,207.154a15.264,15.264,0,0,1-1.8,5.708h1.395a.876.876,0,0,1,.876.876v1.571a.879.879,0,0,0,.657.847,12.05,12.05,0,0,1,2.918,1.21.88.88,0,0,0,1.065-.134l1.111-1.112a.887.887,0,0,1,.118-.1v-5.733a1.922,1.922,0,0,0-1.922-1.922h-2.635A1.921,1.921,0,0,1,392.661,207.154Z" transform="translate(-340.948 -184.146)" fill="none" stroke="#000" stroke-linecap="round" stroke-linejoin="round" stroke-miterlimit="10" stroke-width="1.3"/>
        <path id="Trazado_1032457" data-name="Trazado 1032457" d="M96.769,45.437,98.506,43.7a1.922,1.922,0,0,0,0-2.719L94.428,36.9a1.922,1.922,0,0,0-2.719,0l-1.865,1.865a1.926,1.926,0,0,1-2.318.305,23.307,23.307,0,0,0-5.36-2.222A1.924,1.924,0,0,1,80.748,35V32.363a1.922,1.922,0,0,0-1.922-1.922H73.059a1.922,1.922,0,0,0-1.922,1.922V35a1.924,1.924,0,0,1-1.419,1.854,23.3,23.3,0,0,0-5.36,2.222,1.926,1.926,0,0,1-2.318-.305L60.175,36.9a1.922,1.922,0,0,0-2.719,0l-4.078,4.078a1.922,1.922,0,0,0,0,2.719l1.737,1.737" transform="translate(-46.916 -30.441)" fill="none" stroke="#000" stroke-linecap="round" stroke-linejoin="round" stroke-miterlimit="10" stroke-width="1.3"/>
        <path id="Trazado_1032458" data-name="Trazado 1032458" d="M13.838,207.184a1.921,1.921,0,0,1-1.781,1.209H9.422A1.922,1.922,0,0,0,7.5,210.316v5.767A1.922,1.922,0,0,0,9.422,218h2.635a1.924,1.924,0,0,1,1.854,1.42,23.3,23.3,0,0,0,2.222,5.36,1.926,1.926,0,0,1-.305,2.318l-1.865,1.865a1.922,1.922,0,0,0,0,2.718l4.078,4.078a1.922,1.922,0,0,0,2.719,0l1.865-1.865a1.926,1.926,0,0,1,2.318-.305,23.309,23.309,0,0,0,5.36,2.222,1.924,1.924,0,0,1,1.419,1.854V240.3a1.922,1.922,0,0,0,1.922,1.922H39.41a1.922,1.922,0,0,0,1.922-1.922v-2.635a1.924,1.924,0,0,1,1.42-1.854,23.274,23.274,0,0,0,4.051-1.531" transform="translate(-7.5 -184.173)" fill="none" stroke="#000" stroke-linecap="round" stroke-linejoin="round" stroke-miterlimit="10" stroke-width="1.3"/>
      </g>
      <circle id="Elipse_12183" data-name="Elipse 12183" cx="15.859" cy="15.859" r="15.859" transform="translate(20.668 43.609)" fill="#fff"/>
      <path id="Trazado_1032459" data-name="Trazado 1032459" d="M116.922,297.617a15.874,15.874,0,0,0,20.443,9.058" transform="translate(-95.176 -232.39)" fill="none" stroke="#000" stroke-linecap="round" stroke-linejoin="round" stroke-miterlimit="10" stroke-width="1.3"/>
      <path id="Trazado_1032460" data-name="Trazado 1032460" d="M255.15,135.32A15.763,15.763,0,0,0,249,132.994" transform="translate(-210.057 -89.201)" fill="none" stroke="#000" stroke-linecap="round" stroke-linejoin="round" stroke-miterlimit="10" stroke-width="1.3"/>
      <path id="Trazado_1032461" data-name="Trazado 1032461" d="M171.073,132.7a15.761,15.761,0,0,0-6.426,2.365" transform="translate(-136.687 -88.942)" fill="none" stroke="#000" stroke-linecap="round" stroke-linejoin="round" stroke-miterlimit="10" stroke-width="1.3"/>
      <g id="Grupo_1199925" data-name="Grupo 1199925" transform="translate(36.702 44.474)">
        <path id="Trazado_1032462" data-name="Trazado 1032462" d="M303.078,263.518h-1.571a.869.869,0,0,1-.842-.639,12.05,12.05,0,0,0-1.224-2.952.87.87,0,0,1,.143-1.049l1.111-1.112a.876.876,0,0,0,0-1.239l-2.275-2.275a.876.876,0,0,0-1.239,0l-1.112,1.111a.87.87,0,0,1-1.049.143,12.054,12.054,0,0,0-2.952-1.224.869.869,0,0,1-.639-.842V251.87a.876.876,0,0,0-.876-.876H289.01a15.194,15.194,0,0,1-10.969,7.621l.263.263a.87.87,0,0,1,.143,1.049,12.05,12.05,0,0,0-1.224,2.952.869.869,0,0,1-.842.639h-1.571a.876.876,0,0,0-.876.876v3.218a.876.876,0,0,0,.876.876h1.571a.869.869,0,0,1,.842.639,12.049,12.049,0,0,0,1.224,2.952.87.87,0,0,1-.143,1.049l-1.112,1.112a.876.876,0,0,0,0,1.239l2.275,2.275a.876.876,0,0,0,1.239,0l1.112-1.112a.87.87,0,0,1,1.049-.143,12.058,12.058,0,0,0,2.952,1.224.869.869,0,0,1,.639.842v1.571a.876.876,0,0,0,.876.876h3.218a.876.876,0,0,0,.876-.876v-1.571a.869.869,0,0,1,.639-.842,12.057,12.057,0,0,0,2.952-1.224.87.87,0,0,1,1.049.143l1.112,1.112a.876.876,0,0,0,1.239,0l2.275-2.275a.876.876,0,0,0,0-1.239l-1.111-1.112a.87.87,0,0,1-.143-1.049,12.05,12.05,0,0,0,1.224-2.952.869.869,0,0,1,.842-.639h1.571a.876.876,0,0,0,.876-.876v-3.218A.876.876,0,0,0,303.078,263.518Z" transform="translate(-268.448 -236.311)" fill="#ffd15b"/>
        <path id="Trazado_1032463" data-name="Trazado 1032463" d="M386.749,263.518h-1.571a.879.879,0,0,1-.847-.657,12.053,12.053,0,0,0-1.21-2.918.88.88,0,0,1,.134-1.065l1.112-1.112a.876.876,0,0,0,0-1.239l-2.275-2.275a.876.876,0,0,0-1.239,0l-1.112,1.111a.88.88,0,0,1-1.065.134,12.049,12.049,0,0,0-2.918-1.21.879.879,0,0,1-.657-.847V251.87a.876.876,0,0,0-.876-.876h-1.543a15.1,15.1,0,0,1-1.323,1.987,14.165,14.165,0,0,1-1.228,26.507v.649a.876.876,0,0,0,.876.876h3.218a.876.876,0,0,0,.876-.876v-1.571a.879.879,0,0,1,.657-.847,12.048,12.048,0,0,0,2.918-1.21.88.88,0,0,1,1.065.134l1.112,1.111a.876.876,0,0,0,1.239,0l2.275-2.275a.876.876,0,0,0,0-1.239l-1.111-1.112a.88.88,0,0,1-.134-1.065,12.053,12.053,0,0,0,1.21-2.918.879.879,0,0,1,.847-.657h1.571a.876.876,0,0,0,.876-.876v-3.218A.876.876,0,0,0,386.749,263.518Z" transform="translate(-352.119 -236.311)" fill="#ffc344"/>
        <path id="Trazado_1032464" data-name="Trazado 1032464" d="M278.152,258.726l.153.153a.87.87,0,0,1,.143,1.049,12.05,12.05,0,0,0-1.224,2.952.869.869,0,0,1-.842.639h-1.571a.876.876,0,0,0-.876.876v3.218a.876.876,0,0,0,.876.876h1.571a.869.869,0,0,1,.842.639,12.049,12.049,0,0,0,1.224,2.952.87.87,0,0,1-.143,1.049l-1.112,1.112a.876.876,0,0,0,0,1.239l2.275,2.275a.876.876,0,0,0,1.239,0l1.112-1.112a.87.87,0,0,1,1.049-.143,12.058,12.058,0,0,0,2.952,1.224.869.869,0,0,1,.639.842v1.571a.876.876,0,0,0,.876.876h3.218a.876.876,0,0,0,.876-.876v-1.571a.869.869,0,0,1,.639-.842,12.057,12.057,0,0,0,2.952-1.224.87.87,0,0,1,1.049.143l1.112,1.112a.876.876,0,0,0,1.239,0l2.275-2.275a.876.876,0,0,0,0-1.239l-1.111-1.112a.87.87,0,0,1-.143-1.049,12.05,12.05,0,0,0,1.224-2.952.869.869,0,0,1,.842-.639h1.571a.876.876,0,0,0,.876-.876v-3.218a.876.876,0,0,0-.876-.876h-1.571a.868.868,0,0,1-.842-.639,12.051,12.051,0,0,0-1.224-2.952.87.87,0,0,1,.143-1.049l1.111-1.112a.876.876,0,0,0,0-1.239l-2.275-2.275a.876.876,0,0,0-1.239,0l-1.112,1.111a.87.87,0,0,1-1.049.143,12.055,12.055,0,0,0-2.952-1.224.869.869,0,0,1-.639-.842V251.87a.876.876,0,0,0-.876-.876h-1.395" transform="translate(-268.448 -236.311)" fill="none" stroke="#000" stroke-linecap="round" stroke-linejoin="round" stroke-miterlimit="10" stroke-width="1.3"/>
        <path id="Trazado_1032465" data-name="Trazado 1032465" d="M253.148,139.466a15.309,15.309,0,0,1-20.115,20.115,15.309,15.309,0,0,1,20.115-20.115Z" transform="translate(-231.788 -138.221)" fill="#a2e62e"/>
        <circle id="Elipse_12184" data-name="Elipse 12184" cx="5.52" cy="5.52" r="5.52" transform="translate(14.977 24.172)" fill="#cecece"/>
        <path id="Trazado_1032466" data-name="Trazado 1032466" d="M375.469,323.882a5.5,5.5,0,0,0-2.058.4,5.519,5.519,0,0,1,0,10.243,5.52,5.52,0,1,0,2.058-10.641Z" transform="translate(-354.972 -299.709)" fill="#bfbfbf"/>
        <path id="Trazado_1032467" data-name="Trazado 1032467" d="M349.934,331.969a5.52,5.52,0,1,0-.263-4.557" transform="translate(-334.323 -299.709)" fill="none" stroke="#000" stroke-linecap="round" stroke-linejoin="round" stroke-miterlimit="10" stroke-width="1.3"/>
      </g>
      <g id="Grupo_1199930" data-name="Grupo 1199930" transform="translate(13.747 44.474)">
        <g id="Grupo_1199927" data-name="Grupo 1199927" transform="translate(0 0)">
          <g id="Grupo_1199926" data-name="Grupo 1199926">
            <path id="Trazado_1032468" data-name="Trazado 1032468" d="M56.724,139.466a15.309,15.309,0,0,0,20.115,20.115,15.309,15.309,0,0,0-20.115-20.115Z" transform="translate(-55.479 -138.221)" fill="#a2e62e"/>
            <path id="Trazado_1032469" data-name="Trazado 1032469" d="M77.851,142.7a15.311,15.311,0,0,0-16.879-3.236,15.25,15.25,0,0,0-.609,1.687A15.3,15.3,0,0,1,77.647,160.6a15.292,15.292,0,0,0,3.44-1.018A15.311,15.311,0,0,0,77.851,142.7Z" transform="translate(-59.727 -138.221)" fill="#97d729"/>
            <path id="Trazado_1032470" data-name="Trazado 1032470" d="M60.53,156.877a15.313,15.313,0,0,0,16.315,2.7A15.309,15.309,0,0,0,56.73,139.465a15.341,15.341,0,0,0,.9,13.87" transform="translate(-55.485 -138.22)" fill="none" stroke="#000" stroke-linecap="round" stroke-linejoin="round" stroke-miterlimit="10" stroke-width="1.3"/>
            <line id="Línea_876" data-name="Línea 876" x2="15.068" y2="15.068" transform="translate(7.712 7.712)" fill="none" stroke="#000" stroke-linecap="round" stroke-linejoin="round" stroke-miterlimit="10" stroke-width="1.3"/>
          </g>
        </g>
        <g id="Grupo_1199929" data-name="Grupo 1199929" transform="translate(22.78 0)">
          <g id="Grupo_1199928" data-name="Grupo 1199928">
            <path id="Trazado_1032471" data-name="Trazado 1032471" d="M253.148,139.466a15.309,15.309,0,0,1-20.115,20.115,15.309,15.309,0,0,1,20.115-20.115Z" transform="translate(-231.613 -138.221)" fill="#a2e62e"/>
            <path id="Trazado_1032472" data-name="Trazado 1032472" d="M255.075,141.353a15.279,15.279,0,0,0-3.133-.963A15.3,15.3,0,0,1,234,158.365a15.275,15.275,0,0,0,.956,3.1,15.309,15.309,0,0,0,20.115-20.115Z" transform="translate(-233.54 -140.108)" fill="#97d729"/>
            <path id="Trazado_1032473" data-name="Trazado 1032473" d="M253.148,139.466a15.309,15.309,0,0,1-20.115,20.115,15.309,15.309,0,0,1,20.115-20.115Z" transform="translate(-231.613 -138.221)" fill="none" stroke="#000" stroke-linecap="round" stroke-linejoin="round" stroke-miterlimit="10" stroke-width="1.3"/>
            <line id="Línea_877" data-name="Línea 877" x1="15.068" y2="15.068" transform="translate(0 7.712)" fill="none" stroke="#000" stroke-linecap="round" stroke-linejoin="round" stroke-miterlimit="10" stroke-width="1.3"/>
          </g>
        </g>
        <line id="Línea_878" data-name="Línea 878" y2="8.073" transform="translate(22.78 22.78)" fill="none" stroke="#000" stroke-linecap="round" stroke-linejoin="round" stroke-miterlimit="10" stroke-width="1.3"/>
      </g>
    </g>
  </g>
</svg>
