<svg xmlns="http://www.w3.org/2000/svg" width="127" height="180.381" viewBox="0 0 127 180.381">
  <g id="Grupo_1199984" data-name="Grupo 1199984" transform="translate(-180.051 -8255)">
    <rect id="Rectángulo_408645" data-name="Rectángulo 408645" width="127" height="180.381" rx="8" transform="translate(180.051 8255)" fill="#ef8c1a"/>
    <g id="settings_8091272" transform="translate(180.536 8298.99)">
      <path id="Trazado_1032083" data-name="Trazado 1032083" d="M97.253,58.3,91.395,53.32a29.809,29.809,0,0,0-.064-13.568l5.922-5.032a3.725,3.725,0,0,0,.814-4.7l-3.481-6.03a3.725,3.725,0,0,0-4.478-1.646L82.7,24.989a29.565,29.565,0,0,0-11.588-6.662l-1.42-7.772A3.725,3.725,0,0,0,66.024,7.5H59.062A3.725,3.725,0,0,0,55.4,10.555l-1.42,7.772A29.563,29.563,0,0,0,42.39,24.99l-7.411-2.645A3.725,3.725,0,0,0,30.5,23.99l-3.481,6.03a3.724,3.724,0,0,0,.814,4.7l5.922,5.032a29.809,29.809,0,0,0-.064,13.568L27.834,58.3A3.725,3.725,0,0,0,27.02,63l3.481,6.03a3.725,3.725,0,0,0,4.478,1.646l7.162-2.557a29.573,29.573,0,0,0,11.9,6.912L55.4,82.463a3.725,3.725,0,0,0,3.664,3.055h6.962a3.725,3.725,0,0,0,3.664-3.055l1.358-7.433a29.57,29.57,0,0,0,11.9-6.912l7.162,2.557a3.725,3.725,0,0,0,4.478-1.646L98.067,63A3.725,3.725,0,0,0,97.253,58.3Z" transform="translate(-0.005 0)" fill="#7a8c98"/>
      <path id="Trazado_1032084" data-name="Trazado 1032084" d="M54.035,133.174a29.582,29.582,0,0,1-11.9-6.913l-7.162,2.557a3.723,3.723,0,0,1-4.478-1.646l-3.48-6.029a3.723,3.723,0,0,1,.813-4.7l5.857-4.978A29.808,29.808,0,0,1,33.75,97.9l-5.922-5.033a3.722,3.722,0,0,1-.813-4.7l3.48-6.029a3.723,3.723,0,0,1,4.478-1.646l7.411,2.645a29.566,29.566,0,0,1,11.588-6.663C42.385,83.134,28.927,109.563,54.035,133.174Z" transform="translate(0 -58.145)" fill="#596c76"/>
      <path id="Trazado_1032085" data-name="Trazado 1032085" d="M168.849,149.932a19.941,19.941,0,0,1-18.541,19.892q-.693.05-1.4.049c-.495,0-.987-.017-1.472-.053a19.941,19.941,0,1,1,12.6-36.44l0,0a20.086,20.086,0,0,1,5.361,5.332A19.844,19.844,0,0,1,168.849,149.932Z" transform="translate(-86.37 -103.263)" fill="#fea95c"/>
      <path id="Trazado_1032086" data-name="Trazado 1032086" d="M92.856,22.439a3.72,3.72,0,0,1,1.731,1.549L98.07,30.02a3.722,3.722,0,0,1-.815,4.7l-5.921,5.033A29.808,29.808,0,0,1,91.4,53.32L97.255,58.3A3.722,3.722,0,0,1,98.07,63l-3.482,6.031a3.725,3.725,0,0,1-4.477,1.645l-7.163-2.557a29.545,29.545,0,0,1-11.9,6.912l-1.358,7.434a3.724,3.724,0,0,1-3.664,3.055H59.065A3.726,3.726,0,0,1,55.4,82.463l-1.358-7.434a29.556,29.556,0,0,1-11.9-6.912l-7.161,2.557A3.727,3.727,0,0,1,30.5,69.029L27.023,63a3.724,3.724,0,0,1,.813-4.7l5.858-4.978a29.808,29.808,0,0,1,.064-13.568L27.837,34.72a3.724,3.724,0,0,1-.813-4.7l3.48-6.031a3.727,3.727,0,0,1,4.479-1.645l7.411,2.645a29.572,29.572,0,0,1,11.588-6.662L55.4,10.555A3.726,3.726,0,0,1,59.065,7.5h6.962a3.724,3.724,0,0,1,3.664,3.055l1.421,7.772A29.583,29.583,0,0,1,82.7,24.989l4.822-1.722" transform="translate(-0.008 0)" fill="none" stroke="#000" stroke-linecap="round" stroke-linejoin="round" stroke-miterlimit="10" stroke-width="1.2"/>
      <g id="Grupo_1199876" data-name="Grupo 1199876" transform="translate(46.049 30.115)">
        <path id="Trazado_1032087" data-name="Trazado 1032087" d="M168.844,172.51H163.81a12.856,12.856,0,0,1-12.856-12.856V154.62a3.053,3.053,0,0,1,3.053-3.053h5.034A12.856,12.856,0,0,1,171.9,164.423v5.034A3.053,3.053,0,0,1,168.844,172.51Z" transform="translate(-150.954 -151.567)" fill="#9be69d"/>
        <path id="Trazado_1032088" data-name="Trazado 1032088" d="M167.732,172.506h-3.923a12.855,12.855,0,0,1-12.855-12.855v-5.035a3.053,3.053,0,0,1,3.053-3.053h3.923a3.052,3.052,0,0,0-3.053,3.053v5.035A12.855,12.855,0,0,0,167.732,172.506Z" transform="translate(-150.954 -151.564)" fill="#6fd7a3"/>
        <path id="Trazado_1032089" data-name="Trazado 1032089" d="M162.992,172.482a12.855,12.855,0,0,1-12.034-12.829v-5.034a3.052,3.052,0,0,1,3.051-3.053h5.034a12.8,12.8,0,0,1,8.4,3.127s0,0,0,0" transform="translate(-150.957 -151.566)" fill="none" stroke="#000" stroke-linecap="round" stroke-linejoin="round" stroke-miterlimit="10" stroke-width="1.2"/>
        <path id="Trazado_1032090" data-name="Trazado 1032090" d="M248.564,154.621v5.033a12.856,12.856,0,0,1-12.856,12.855h-2.233v15.5q-.693.05-1.4.049a20.025,20.025,0,0,1-4.454-.5V164.425a12.857,12.857,0,0,1,12.857-12.857h5.034A3.052,3.052,0,0,1,248.564,154.621Z" transform="translate(-215.586 -151.567)" fill="#9be69d"/>
        <path id="Trazado_1032091" data-name="Trazado 1032091" d="M243.459,151.568c-.085,0-.172,0-.257,0a12.854,12.854,0,0,0-12.6,12.852v23.585a19.913,19.913,0,0,1-2.982-.446V164.424a12.854,12.854,0,0,1,12.854-12.856h2.985Z" transform="translate(-215.585 -151.567)" fill="#6fd7a3"/>
        <path id="Trazado_1032092" data-name="Trazado 1032092" d="M264.915,298.915v-15.5h2.234a12.866,12.866,0,0,0,2.724-.29" transform="translate(-247.026 -262.469)" fill="none" stroke="#000" stroke-linecap="round" stroke-linejoin="round" stroke-miterlimit="10" stroke-width="1.2"/>
        <path id="Trazado_1032093" data-name="Trazado 1032093" d="M227.625,187.565V164.426a12.857,12.857,0,0,1,12.856-12.856h5.034a3.051,3.051,0,0,1,3.052,3.053v5.033a12.831,12.831,0,0,1-5.147,10.287" transform="translate(-215.589 -151.569)" fill="none" stroke="#000" stroke-linecap="round" stroke-linejoin="round" stroke-miterlimit="10" stroke-width="1.2"/>
      </g>
      <path id="Trazado_1032094" data-name="Trazado 1032094" d="M208.92,185.56a19.944,19.944,0,0,1-15.089,31.11c-.461.033-.929.049-1.4.049a20.084,20.084,0,0,1-4.453-.5,19.861,19.861,0,0,1-7.383-3.392" transform="translate(-129.893 -150.109)" fill="none" stroke="#000" stroke-linecap="round" stroke-linejoin="round" stroke-miterlimit="10" stroke-width="1.2"/>
      <path id="Trazado_1032095" data-name="Trazado 1032095" d="M133.142,208.99a19.947,19.947,0,0,1-.725-23.43" transform="translate(-86.368 -150.109)" fill="none" stroke="#000" stroke-linecap="round" stroke-linejoin="round" stroke-miterlimit="10" stroke-width="1.2"/>
      <path id="Trazado_1032096" data-name="Trazado 1032096" d="M185.147,133.378a19.955,19.955,0,0,1,22.245,0" transform="translate(-133.73 -103.263)" fill="none" stroke="#000" stroke-linecap="round" stroke-linejoin="round" stroke-miterlimit="10" stroke-width="1.2"/>
    </g>
  </g>
</svg>
