<svg xmlns="http://www.w3.org/2000/svg" width="127" height="212.13" viewBox="0 0 127 212.13">
  <g id="Grupo_1199997" data-name="Grupo 1199997" transform="translate(-600.051 -8795)">
    <rect id="Rectángulo_408647" data-name="Rectángulo 408647" width="127" height="212.13" rx="8" transform="translate(600.051 8795)" fill="#9ad354"/>
    <g id="leaf_8107707_1_" data-name="leaf_8107707 (1)" transform="translate(621.55 8859.068)">
      <path id="Trazado_1032097" data-name="Trazado 1032097" d="M92.386,21.114A14.743,14.743,0,0,0,78.863,8.045a39.409,39.409,0,0,0-42.3,41.982,15.689,15.689,0,0,0,1.59,5.883l.254.254,2.786.31a51.251,51.251,0,0,0,35.157-9.018l14.457-10.17A39.583,39.583,0,0,0,92.386,21.114Z" transform="translate(-24.979)" fill="#00d476"/>
      <path id="Trazado_1032098" data-name="Trazado 1032098" d="M163.984,134.577a22.166,22.166,0,0,0-11.663-11.922c-17.853-7.768-36.18,9.65-29.631,27.79l39.22-10.624A39.121,39.121,0,0,0,163.984,134.577Z" transform="translate(-98.157 -97.289)" fill="#00c16d"/>
      <path id="Trazado_1032099" data-name="Trazado 1032099" d="M97.469,354.759c-3.8.246-5.878,2.646-6.658,6.658.106.069.214.135.324.2a15.963,15.963,0,0,0,7.726,2.277,39.7,39.7,0,0,0,6.675-.362A26.21,26.21,0,0,0,97.469,354.759Z" transform="translate(-71.838 -299.069)" fill="#00d476"/>
      <path id="Trazado_1032100" data-name="Trazado 1032100" d="M141.061,335.722c-2.2-.216-3.027.68-2.594,2.594a22.232,22.232,0,0,0,8.067,8.773,39.5,39.5,0,0,0,5.512-1.171A21.054,21.054,0,0,0,141.061,335.722Z" transform="translate(-112.836 -282.627)" fill="#00c16d"/>
      <path id="Trazado_1032101" data-name="Trazado 1032101" d="M296.717,83.634l1.716-1.716a4.147,4.147,0,1,0-5.865-5.865l-5.191,5.191C290.207,82.553,293.212,83.745,296.717,83.634Z" transform="translate(-241.337 -57.694)" fill="#00c16d"/>
      <path id="Trazado_1032102" data-name="Trazado 1032102" d="M271.055,126.344l2.6-2.6a21.933,21.933,0,0,0-9.34-2.39l-3.684,3.684C263.125,127.249,266.426,128.63,271.055,126.344Z" transform="translate(-218.27 -97.809)" fill="#00a95b"/>
      <path id="Trazado_1032103" data-name="Trazado 1032103" d="M23.244,286.94,8.721,301.463a4.147,4.147,0,0,0,5.865,5.865l11.049-11.049A13.442,13.442,0,0,0,23.244,286.94Z" transform="translate(-0.004 -240.589)" fill="#00c16d"/>
      <path id="Trazado_1032104" data-name="Trazado 1032104" d="M125.484,260.184l-3.684,3.684a21.905,21.905,0,0,0,2.391,9.339l2.594-2.594C128.983,265.983,127.869,262.594,125.484,260.184Z" transform="translate(-98.56 -217.517)" fill="#00a95b"/>
      <path id="Trazado_1032105" data-name="Trazado 1032105" d="M388.283,352.788l-11.221-8.977c-3.451.729-4.457,2.714-4.058,5.288l7,12.01c2.195,2.744,6.863,3.41,10.323.575A7.354,7.354,0,0,0,388.283,352.788Z" transform="translate(-315.102 -289.629)" fill="#7e88d1"/>
      <path id="Trazado_1032106" data-name="Trazado 1032106" d="M356.712,391.357l-8.43-10.538c-2.327-.689-3.7.217-4.03,2.8l8.977,11.221a7.352,7.352,0,0,0,12.379-1.436A7.353,7.353,0,0,1,356.712,391.357Z" transform="translate(-290.38 -321.349)" fill="#5f71b8"/>
      <path id="Trazado_1032107" data-name="Trazado 1032107" d="M234.6,165.052a18.663,18.663,0,0,0-18.522-18.663c-13.008,8.452-14.108,24.09-3.866,36.956A18.678,18.678,0,0,0,234.6,165.052Z" transform="translate(-170.581 -119.392)" fill="#60dafd"/>
      <path id="Trazado_1032108" data-name="Trazado 1032108" d="M165.614,146.386a18.58,18.58,0,0,0-11.957,4.212h0a18.664,18.664,0,0,0,8.091,32.742C155.24,172.224,157.077,156.937,165.614,146.386Z" transform="translate(-120.122 -119.389)" fill="#00c8fb"/>
      <path id="Trazado_1032109" data-name="Trazado 1032109" d="M258.4,211.2a11.411,11.411,0,0,0-9.8-11.294l-2.648,2.648c-5.547,6.661-6.814,16.135.3,20.026A11.4,11.4,0,0,0,258.4,211.2Z" transform="translate(-201.647 -165.535)" fill="#efedff"/>
      <path id="Trazado_1032110" data-name="Trazado 1032110" d="M210.894,239.155a11.411,11.411,0,0,1-10.552-9.775,20.594,20.594,0,0,1,10.252-10.252A15.954,15.954,0,0,0,210.894,239.155Z" transform="translate(-166.287 -182.115)" fill="#d4d4ff"/>
      <path id="Trazado_1032111" data-name="Trazado 1032111" d="M212.532,199.187l-12.9,12.9A11.413,11.413,0,0,1,212.532,199.187Z" transform="translate(-165.577 -164.821)" fill="#00c16d"/>
      <path id="Trazado_1032112" data-name="Trazado 1032112" d="M247.55,9.317a39.606,39.606,0,0,1,13.328-1.263A14.741,14.741,0,0,1,274.4,21.122a39.467,39.467,0,0,1-3.655,21.418" transform="translate(-206.994 -0.009)" fill="none" stroke="#000" stroke-linecap="round" stroke-linejoin="round" stroke-miterlimit="10" stroke-width="1.2"/>
      <path id="Trazado_1032113" data-name="Trazado 1032113" d="M38.159,74.187a15.666,15.666,0,0,1-1.59-5.883A39.442,39.442,0,0,1,60.977,29.128" transform="translate(-24.986 -18.278)" fill="none" stroke="#000" stroke-linecap="round" stroke-linejoin="round" stroke-miterlimit="10" stroke-width="1.2"/>
      <path id="Trazado_1032114" data-name="Trazado 1032114" d="M90.805,403.1c.106.069.214.136.324.2a15.963,15.963,0,0,0,7.726,2.277,39.614,39.614,0,0,0,12.187-1.533" transform="translate(-71.833 -340.754)" fill="none" stroke="#000" stroke-linecap="round" stroke-linejoin="round" stroke-miterlimit="10" stroke-width="1.2"/>
      <path id="Trazado_1032115" data-name="Trazado 1032115" d="M153.629,150.58a18.664,18.664,0,1,1-6.611,11.458,18.672,18.672,0,0,1,6.611-11.458" transform="translate(-120.095 -119.372)" fill="none" stroke="#000" stroke-linecap="round" stroke-linejoin="round" stroke-miterlimit="10" stroke-width="1.2"/>
      <path id="Trazado_1032116" data-name="Trazado 1032116" d="M212.535,199.192a11.416,11.416,0,1,1-1.605-.112A11.591,11.591,0,0,1,212.535,199.192Z" transform="translate(-165.581 -164.827)" fill="none" stroke="#000" stroke-linecap="round" stroke-linejoin="round" stroke-miterlimit="10" stroke-width="1.2"/>
      <line id="Línea_848" data-name="Línea 848" x1="3.549" y1="4.435" transform="translate(53.872 62.269)" fill="none" stroke="#000" stroke-linecap="round" stroke-linejoin="round" stroke-miterlimit="10" stroke-width="1.2"/>
      <path id="Trazado_1032117" data-name="Trazado 1032117" d="M393.408,343.8l11.221,8.978A7.351,7.351,0,1,1,394.3,363.108l-2.418-3.023" transform="translate(-331.45 -289.618)" fill="none" stroke="#000" stroke-linecap="round" stroke-linejoin="round" stroke-miterlimit="10" stroke-width="1.2"/>
      <path id="Trazado_1032118" data-name="Trazado 1032118" d="M260.619,84.921l8.875-8.875a4.147,4.147,0,1,1,5.865,5.865l-4.311,4.311" transform="translate(-218.264 -57.688)" fill="none" stroke="#000" stroke-linecap="round" stroke-linejoin="round" stroke-miterlimit="10" stroke-width="1.2"/>
      <path id="Trazado_1032119" data-name="Trazado 1032119" d="M26.923,260.176,8.716,278.383a4.147,4.147,0,0,0,5.865,5.865L28.224,270.6" transform="translate(0 -217.51)" fill="none" stroke="#000" stroke-linecap="round" stroke-linejoin="round" stroke-miterlimit="10" stroke-width="1.2"/>
      <line id="Línea_849" data-name="Línea 849" x1="12.899" y2="12.899" transform="translate(34.054 34.364)" fill="none" stroke="#000" stroke-linecap="round" stroke-linejoin="round" stroke-miterlimit="10" stroke-width="1.2"/>
      <line id="Línea_850" data-name="Línea 850" x2="8.295" y2="1.037" transform="translate(39.646 42.029)" fill="none" stroke="#000" stroke-linecap="round" stroke-linejoin="round" stroke-miterlimit="10" stroke-width="1.2"/>
      <line id="Línea_851" data-name="Línea 851" x2="0.83" y2="8.295" transform="translate(42.86 17.143)" fill="none" stroke="#000" stroke-linecap="round" stroke-linejoin="round" stroke-miterlimit="10" stroke-width="1.2"/>
      <path id="Trazado_1032120" data-name="Trazado 1032120" d="M192.622,137.6c-.952-9.519-.5-5.04-.629-6.289" transform="translate(-159.087 -106.387)" fill="none" stroke="#000" stroke-linecap="round" stroke-linejoin="round" stroke-miterlimit="10" stroke-width="1.2"/>
      <line id="Línea_852" data-name="Línea 852" x2="1.037" y2="10.369" transform="translate(21.499 36.326)" fill="none" stroke="#000" stroke-linecap="round" stroke-linejoin="round" stroke-miterlimit="10" stroke-width="1.2"/>
    </g>
  </g>
</svg>
