<svg xmlns="http://www.w3.org/2000/svg" width="100" height="100" viewBox="0 0 100 100">
  <g id="Grupo_1199983" data-name="Grupo 1199983" transform="translate(-192 -6034)">
    <g id="Grupo_1199683" data-name="Grupo 1199683" transform="translate(12 5060)">
      <g id="Grupo_1112424" data-name="Grupo 1112424" transform="translate(16445.764 9993.525)">
        <g id="Grupo_1112415" data-name="Grupo 1112415" transform="translate(-16265.764 -9019.525)">
          <g id="Grupo_1098742" data-name="Grupo 1098742" transform="translate(0 0)">
            <g id="Rect치ngulo_400898" data-name="Rect치ngulo 400898" transform="translate(0.001 0)" fill="#f5fbee" stroke="#6b9339" stroke-width="3">
              <rect width="100" height="100" rx="50" stroke="none"/>
              <rect x="1.5" y="1.5" width="97" height="97" rx="48.5" fill="none"/>
            </g>
            <g id="Rect치ngulo_400907" data-name="Rect치ngulo 400907" transform="translate(0 0)" fill="none" stroke="#6b9339" stroke-width="3">
              <rect width="100" height="100" rx="50" stroke="none"/>
              <rect x="1.5" y="1.5" width="97" height="97" rx="48.5" fill="none"/>
            </g>
          </g>
        </g>
      </g>
    </g>
    <g id="environmental-control_18455612_2_" data-name="environmental-control_18455612 (2)" transform="translate(176.732 6051.791)">
      <g id="Grupo_1199982" data-name="Grupo 1199982" transform="translate(39.24 0.984)">
        <path id="Trazado_1032706" data-name="Trazado 1032706" d="M165.591,8c-1.051,2.527-4.886,9.97-4.622,13.385.277,3.593,2.407,4.94,4.622,5.172,2.213-.232,4.343-1.581,4.62-5.172.263-3.415-3.571-10.858-4.62-13.385Z" transform="translate(-146.723 -8)" fill="#70da40" fill-rule="evenodd"/>
        <path id="Trazado_1032707" data-name="Trazado 1032707" d="M280.271,8c-1.049,2.527-4.886,9.97-4.622,13.385.28,3.593,2.41,4.94,4.622,5.172,2.213-.232,4.347-1.581,4.622-5.172.264-3.415-3.57-10.858-4.622-13.385Z" transform="translate(-247.172 -8)" fill="#70da40" fill-rule="evenodd"/>
        <path id="Trazado_1032708" data-name="Trazado 1032708" d="M50.891,8c-1.049,2.527-4.886,9.97-4.622,13.385.28,3.593,2.411,4.94,4.622,5.172,2.213-.232,4.347-1.581,4.622-5.172C55.777,17.97,51.943,10.527,50.891,8Z" transform="translate(-46.256 -8)" fill="#70da40" fill-rule="evenodd"/>
        <path id="Trazado_1032709" data-name="Trazado 1032709" d="M84.567,226.71a18.773,18.773,0,1,1-37.547,0Z" transform="translate(-46.925 -199.57)" fill="#0593fc" fill-rule="evenodd"/>
        <path id="Trazado_1032710" data-name="Trazado 1032710" d="M67.775,271.156a18.851,18.851,0,0,1-8.5-9.2c4.2-4.663,4.6-3.54,10.418-2.768,8.5.751,5.767,5.681.546,9.024A6.074,6.074,0,0,0,67.775,271.156Z" transform="translate(-57.664 -227.405)" fill="#70da40" fill-rule="evenodd"/>
        <path id="Trazado_1032711" data-name="Trazado 1032711" d="M219.8,226.7a18.731,18.731,0,0,1-6.225,13.964,47.042,47.042,0,0,1-1.786-6.682c-.228-1.26.021-2.376-1.339-2.745-1.014-.273-1.626.526-2.626.9-1.355.505-6.692-3.018-6.4-5.439H219.8Z" transform="translate(-182.155 -199.561)" fill="#70da40" fill-rule="evenodd"/>
        <path id="Trazado_1032712" data-name="Trazado 1032712" d="M276.062,204.12h18.925a1.789,1.789,0,0,1,1.786,1.782V221.11a1.788,1.788,0,0,1-1.786,1.782H276.062a1.788,1.788,0,0,1-1.782-1.782V205.9A1.788,1.788,0,0,1,276.062,204.12Z" transform="translate(-245.984 -179.783)" fill="#daeafa" fill-rule="evenodd"/>
        <path id="Trazado_1032713" data-name="Trazado 1032713" d="M334.008,322.46a1.5,1.5,0,0,1,1.5,1.5v3.964a1.5,1.5,0,0,1,2.994,0v1.731a1.5,1.5,0,0,1,3,0v1.591a1.5,1.5,0,1,1,2.994,0v10.2l-1.737,3.54H332.432v-2l-4.856-8.406a1.983,1.983,0,1,1,3.435-1.984l1.5,2.6V323.959A1.5,1.5,0,0,1,334.008,322.46Z" transform="translate(-292.436 -283.438)" fill="#fbbd80" fill-rule="evenodd"/>
        <path id="Trazado_1032714" data-name="Trazado 1032714" d="M367.28,294.51h3.472v3.468H367.28Z" transform="translate(-327.443 -258.956)" fill="#ff4646" fill-rule="evenodd"/>
        <path id="Trazado_1032715" data-name="Trazado 1032715" d="M367.28,237.03h3.472V240.5H367.28Z" transform="translate(-327.443 -208.609)" fill="#ff4646" fill-rule="evenodd"/>
        <path id="Trazado_1032716" data-name="Trazado 1032716" d="M67.606,245.406c-.6.058-1.2.089-1.82.089A18.775,18.775,0,0,1,47.01,226.72h3.643A18.778,18.778,0,0,0,67.606,245.406Z" transform="translate(-46.916 -199.578)" fill="#0584e3" fill-rule="evenodd"/>
        <path id="Trazado_1032717" data-name="Trazado 1032717" d="M68.786,275.473a18.79,18.79,0,0,1-6.767-10.133,18.029,18.029,0,0,0-2.739,2.622,18.851,18.851,0,0,0,8.5,9.2A9.065,9.065,0,0,1,68.786,275.473Z" transform="translate(-57.664 -233.406)" fill="#65c43a" fill-rule="evenodd"/>
        <path id="Trazado_1032718" data-name="Trazado 1032718" d="M48.207,21.385c-.208-2.7,2.137-7.9,3.653-11.221-.4-.884-.748-1.636-.969-2.164-1.049,2.527-4.886,9.97-4.622,13.385.236,3.049,1.807,4.48,3.63,4.989V25.332A5.673,5.673,0,0,1,48.207,21.385Z" transform="translate(-46.256 -8)" fill="#65c43a" fill-rule="evenodd"/>
        <path id="Trazado_1032719" data-name="Trazado 1032719" d="M165.591,8c-1.051,2.527-4.886,9.97-4.622,13.385.236,3.049,1.807,4.48,3.63,4.989V25.332a5.664,5.664,0,0,1-1.694-3.947c-.208-2.7,2.141-7.9,3.653-11.219C166.155,9.281,165.81,8.529,165.591,8Z" transform="translate(-146.723 -8)" fill="#65c43a" fill-rule="evenodd"/>
        <path id="Trazado_1032720" data-name="Trazado 1032720" d="M280.271,8c-1.049,2.527-4.886,9.97-4.622,13.385.236,3.049,1.806,4.48,3.63,4.989V25.332a5.673,5.673,0,0,1-1.69-3.947c-.208-2.7,2.137-7.9,3.653-11.219C280.839,9.281,280.494,8.529,280.271,8Z" transform="translate(-247.172 -8)" fill="#65c43a" fill-rule="evenodd"/>
        <path id="Trazado_1032721" data-name="Trazado 1032721" d="M276.444,217.8V205.9a1.79,1.79,0,0,1,1.645-1.778c.048,0,.092,0,.14,0h-2.168a1.788,1.788,0,0,0-1.782,1.782v15.209a1.784,1.784,0,0,0,1.783,1.782h2.168a1.79,1.79,0,0,1-1.708-1.263,1.743,1.743,0,0,1-.078-.519V217.8Z" transform="translate(-245.984 -179.783)" fill="#c4d3e1" fill-rule="evenodd"/>
        <path id="Trazado_1032722" data-name="Trazado 1032722" d="M368.315,240.5V237.03H367.28V240.5Z" transform="translate(-327.443 -208.609)" fill="#e63f3f" fill-rule="evenodd"/>
        <path id="Trazado_1032723" data-name="Trazado 1032723" d="M368.315,294.51H367.28v3.468h1.035Z" transform="translate(-327.443 -258.956)" fill="#e63f3f" fill-rule="evenodd"/>
      </g>
      <path id="Trazado_1032724" data-name="Trazado 1032724" d="M89.8,46.309a2.456,2.456,0,0,0-.638.083,2.5,2.5,0,0,0-1.046-1.3h.128a2.782,2.782,0,0,0,2.781-2.777V27.106a2.782,2.782,0,0,0-2.781-2.777H73.333V20.383c2.705-.627,4.372-2.746,4.619-5.938.232-3-2.213-8.361-3.831-11.906-.357-.783-.666-1.461-.864-1.936a.993.993,0,0,0-1.834,0c-.2.47-.5,1.138-.854,1.911-1.623,3.552-4.074,8.92-3.842,11.932.247,3.193,1.914,5.312,4.619,5.938v3.945H69.319a2.78,2.78,0,0,0-2.777,2.777v.026H59.1V20.382c2.705-.627,4.373-2.746,4.619-5.938.232-3-2.213-8.361-3.831-11.906-.357-.783-.666-1.461-.864-1.936a.993.993,0,0,0-1.834,0c-.2.47-.5,1.138-.854,1.911-1.623,3.552-4.074,8.92-3.842,11.932.247,3.193,1.914,5.312,4.619,5.938v6.749H44.868V20.382c2.705-.627,4.372-2.746,4.619-5.939.23-3-2.215-8.363-3.833-11.908C45.3,1.755,44.99,1.078,44.793.6a.993.993,0,0,0-1.834,0c-.2.47-.5,1.138-.854,1.911-1.623,3.553-4.075,8.921-3.843,11.93.243,3.193,1.911,5.314,4.619,5.939V27.13H39.334a.994.994,0,0,0-.994.994,19.671,19.671,0,0,0,1.562,7.7.992.992,0,0,0,.1.23,19.891,19.891,0,0,0,8.812,9.513.992.992,0,0,0,.107.061l.035.015a19.748,19.748,0,0,0,19.519-.689,2.784,2.784,0,0,0,.843.132h9v4.064a2.976,2.976,0,0,0-4.8,3.47L78.24,60.8v1.736a.994.994,0,0,0,.994.994H89.558a1,1,0,0,0,.892-.556l1.737-3.539a1,1,0,0,0,.1-.438V48.8A2.5,2.5,0,0,0,89.8,46.309ZM68.708,14.292c-.191-2.477,2.273-7.9,3.631-10.871,1.351,2.961,3.823,8.395,3.632,10.871-.165,2.137-1.052,3.485-2.638,4.024V11.892a.994.994,0,1,0-1.988,0v6.424c-1.585-.541-2.472-1.887-2.637-4.024Zm-28.465,0c-.191-2.477,2.273-7.9,3.631-10.871,1.351,2.962,3.821,8.395,3.632,10.871-.165,2.137-1.052,3.485-2.638,4.024V11.892a.994.994,0,1,0-1.988,0v6.426c-1.586-.541-2.473-1.887-2.637-4.026Zm26.3,14.828v2.564a4.506,4.506,0,0,0-1.242.566,5.03,5.03,0,0,1-.706.371,8.311,8.311,0,0,1-3.929-2.361,5.682,5.682,0,0,1-.906-1.139ZM54.476,14.292c-.191-2.477,2.273-7.9,3.631-10.871,1.351,2.961,3.823,8.395,3.632,10.871-.165,2.137-1.052,3.485-2.638,4.024V11.892a.994.994,0,1,0-1.988,0v6.424c-1.583-.54-2.472-1.887-2.637-4.024ZM42.034,35.724c2.754-3,3.317-2.905,6.6-2.352.718.122,1.534.259,2.509.388l.043,0c2.632.232,4.276.911,4.51,1.864.311,1.272-1.488,3.452-4.379,5.311a6.218,6.218,0,0,0-2.363,2.424,17.9,17.9,0,0,1-6.919-7.64ZM50.713,44.3a4.128,4.128,0,0,1,1.567-1.618c.025-.014.048-.027.072-.042,3.847-2.461,5.817-5.257,5.271-7.479-.468-1.907-2.569-3.04-6.243-3.368-.932-.124-1.721-.258-2.419-.375-3.522-.594-4.843-.658-7.742,2.286a17.694,17.694,0,0,1-.867-4.579H57.608a7.689,7.689,0,0,0,2.719,3.493c.288.227,2.584,1.992,4.27,1.99a1.851,1.851,0,0,0,.654-.109,6.455,6.455,0,0,0,1.059-.536c.084-.051.16-.094.228-.133v8.485a2.762,2.762,0,0,0,.32,1.292,17.765,17.765,0,0,1-16.145.692Zm18.6-1.2a.79.79,0,0,1-.789-.789V27.106a.79.79,0,0,1,.789-.789H88.242a.8.8,0,0,1,.793.789V42.312a.8.8,0,0,1-.793.789H84.552a2.476,2.476,0,0,0-.747-.117,2.43,2.43,0,0,0-.505.052V41.505a2.488,2.488,0,0,0-.112-.737.992.992,0,0,0,.351-.757v-.745h3.174a.994.994,0,0,0,0-1.988H83.54v-.741a.994.994,0,0,0-.994-.994H79.073a.994.994,0,0,0-.994.994v.741H70.842a.994.994,0,0,0,0,1.988h7.237v.745a.988.988,0,0,0,.349.754,2.479,2.479,0,0,0-.113.741v1.6h-9ZM80.07,39.017V37.533h1.484v1.484ZM90.3,58.766l-1.364,2.776H80.228V60.534a.991.991,0,0,0-.133-.5l-4.853-8.406a.991.991,0,0,1,.361-1.353,1,1,0,0,1,1.35.361l1.5,2.6a.994.994,0,0,0,1.855-.5V44.167c0-.024,0-.046,0-.069s0-.047,0-.069V41.509a.51.51,0,0,1,.505-.5.5.5,0,0,1,.505.5v8.417a.994.994,0,1,0,1.988,0V45.481a.505.505,0,1,1,1.01,0v6.181a.994.994,0,1,0,1.988,0V47.209a.5.5,0,0,1,.505-.5.51.51,0,0,1,.505.5v6.043a.994.994,0,0,0,1.988,0V48.8a.5.5,0,1,1,1.006,0v9.96ZM70.845,32.138h7.237v.741a.994.994,0,0,0,.994.994h3.472a.994.994,0,0,0,.994-.994v-.741h3.174a.994.994,0,1,0,0-1.988H83.542v-.741a.994.994,0,0,0-.994-.994H79.076a.994.994,0,0,0-.994.994v.741H70.845a.994.994,0,1,0,0,1.988ZM80.07,30.4h1.484v1.48H80.07Z"/>
    </g>
  </g>
</svg>
