<svg xmlns="http://www.w3.org/2000/svg" xmlns:xlink="http://www.w3.org/1999/xlink" width="118" height="118" viewBox="0 0 118 118">
  <defs>
    <filter id="Trazado_874925" x="0" y="0" width="118" height="118" filterUnits="userSpaceOnUse">
      <feOffset dy="3" input="SourceAlpha"/>
      <feGaussianBlur stdDeviation="3" result="blur"/>
      <feFlood flood-opacity="0.161"/>
      <feComposite operator="in" in2="blur"/>
      <feComposite in="SourceGraphic"/>
    </filter>
    <clipPath id="clip-path">
      <path id="path5384" d="M0-682.665H62.235v62.235H0Z" transform="translate(0 682.665)"/>
    </clipPath>
  </defs>
  <g id="Grupo_1199912" data-name="Grupo 1199912" transform="translate(2530.122 9843.108)">
    <g id="Grupo_1199786" data-name="Grupo 1199786" transform="translate(-3329.622 -12354.266)">
      <g id="Grupo_1111316" data-name="Grupo 1111316" transform="translate(808.5 2517.157)">
        <g id="Grupo_1109835" data-name="Grupo 1109835" transform="translate(0 0)">
          <g id="Grupo_1107913" data-name="Grupo 1107913" transform="translate(0 0)">
            <g transform="matrix(1, 0, 0, 1, -9, -6)" filter="url(#Trazado_874925)">
              <g id="Trazado_874925-2" data-name="Trazado 874925" transform="translate(9 6)" fill="#9ad354" opacity="0.859">
                <path d="M 49.99972534179688 98.4998779296875 C 43.45164108276367 98.4998779296875 37.10022354125977 97.21776580810547 31.12189674377441 94.68914794921875 C 25.34676742553711 92.24647521972656 20.15985298156738 88.74925994873047 15.70523929595947 84.29464721679688 C 11.25062561035156 79.84004974365234 7.753411293029785 74.65313720703125 5.310725212097168 68.87800598144531 C 2.782111167907715 62.89969253540039 1.499996781349182 56.54829406738281 1.499996781349182 50.00022125244141 C 1.499996781349182 43.45157623291016 2.782111167907715 37.10017776489258 5.310725212097168 31.12186431884766 C 7.753411293029785 25.34673500061035 11.25062561035156 20.15983581542969 15.70523929595947 15.70522117614746 C 20.15985298156738 11.25062084197998 25.34676742553711 7.753406524658203 31.12189674377441 5.31073522567749 C 37.10022354125977 2.782120943069458 43.45164108276367 1.500006556510925 49.99972534179688 1.500006556510925 C 56.54780960083008 1.500006556510925 62.89922714233398 2.782120943069458 68.87755584716797 5.31073522567749 C 74.65267944335938 7.753406524658203 79.839599609375 11.25062084197998 84.29421234130859 15.70522117614746 C 88.74882507324219 20.15983581542969 92.24604034423828 25.34673500061035 94.68872833251953 31.12186431884766 C 97.21733856201172 37.10017776489258 98.49945068359375 43.45157623291016 98.49945068359375 49.99964904785156 C 98.49945068359375 56.54829406738281 97.21733856201172 62.89969253540039 94.68872833251953 68.87800598144531 C 92.24604034423828 74.65313720703125 88.74882507324219 79.84004974365234 84.29421234130859 84.29464721679688 C 79.839599609375 88.74925994873047 74.65267944335938 92.24647521972656 68.87755584716797 94.68914794921875 C 62.89922714233398 97.21776580810547 56.54780960083008 98.4998779296875 49.99972534179688 98.4998779296875 Z" stroke="none"/>
                <path d="M 49.99972534179688 3 C 43.65348052978516 3 37.49866485595703 4.242240905761719 31.70623016357422 6.692230224609375 C 26.10989379882812 9.059272766113281 21.08323669433594 12.44853210449219 16.76589202880859 16.76587677001953 C 12.44855499267578 21.08321380615234 9.059295654296875 26.10985565185547 6.692230224609375 31.70618438720703 C 4.24224853515625 37.49859619140625 3 43.65341186523438 3 50.00022888183594 C 3 56.34645843505859 4.24224853515625 62.50127410888672 6.692230224609375 68.29368591308594 C 9.059295654296875 73.8900146484375 12.44855499267578 78.91665649414062 16.76589202880859 83.23399353027344 C 21.08323669433594 87.55132293701172 26.10989379882812 90.94059753417969 31.70623016357422 93.30764007568359 C 37.49866485595703 95.75762939453125 43.65348052978516 96.99987030029297 49.99972534179688 96.99987030029297 C 56.34597015380859 96.99987030029297 62.50078582763672 95.75762939453125 68.293212890625 93.30764007568359 C 73.88955688476562 90.94059753417969 78.91621398925781 87.55132293701172 83.23355865478516 83.23399353027344 C 87.55089569091797 78.91665649414062 90.94015502929688 73.8900146484375 93.30722045898438 68.29368591308594 C 95.7572021484375 62.50127410888672 96.99945068359375 56.34645843505859 96.99945068359375 49.99964141845703 C 96.99945068359375 43.65341186523438 95.7572021484375 37.49859619140625 93.30722045898438 31.70618438720703 C 90.94015502929688 26.10985565185547 87.55089569091797 21.08321380615234 83.23355865478516 16.76587677001953 C 78.91621398925781 12.44853210449219 73.88955688476562 9.059272766113281 68.293212890625 6.692230224609375 C 62.50078582763672 4.242240905761719 56.34597015380859 3 49.99972534179688 3 M 49.99972534179688 0 C 77.61381530761719 0 99.99945068359375 22.38559722900391 99.99945068359375 49.99964141845703 L 99.99945068359375 50.00022888183594 C 99.99945068359375 77.6142578125 77.61381530761719 99.99987030029297 49.99972534179688 99.99987030029297 C 22.38563537597656 99.99987030029297 0 77.6142578125 0 50.00022888183594 L 0 49.99964141845703 C 0 22.38559722900391 22.38563537597656 0 49.99972534179688 0 Z" stroke="none" fill="#fff"/>
              </g>
            </g>
            <g id="Trazado_874923" data-name="Trazado 874923" transform="translate(0 0)" fill="none">
              <path d="M50,0a50,50,0,0,1,50,50h0A50,50,0,0,1,0,50H0A50,50,0,0,1,50,0Z" stroke="none"/>
              <path d="M 49.99972534179688 3 C 43.65348052978516 3 37.49866485595703 4.242240905761719 31.70623016357422 6.692230224609375 C 26.10989379882812 9.059272766113281 21.08323669433594 12.44853210449219 16.76589202880859 16.76587677001953 C 12.44855499267578 21.08321380615234 9.059295654296875 26.10985565185547 6.692230224609375 31.70618438720703 C 4.24224853515625 37.49859619140625 3 43.65341186523438 3 50.00022888183594 C 3 56.34645843505859 4.24224853515625 62.50127410888672 6.692230224609375 68.29368591308594 C 9.059295654296875 73.8900146484375 12.44855499267578 78.91665649414062 16.76589202880859 83.23399353027344 C 21.08323669433594 87.55132293701172 26.10989379882812 90.94059753417969 31.70623016357422 93.30764007568359 C 37.49866485595703 95.75762939453125 43.65348052978516 96.99987030029297 49.99972534179688 96.99987030029297 C 56.34597015380859 96.99987030029297 62.50078582763672 95.75762939453125 68.293212890625 93.30764007568359 C 73.88955688476562 90.94059753417969 78.91621398925781 87.55132293701172 83.23355865478516 83.23399353027344 C 87.55089569091797 78.91665649414062 90.94015502929688 73.8900146484375 93.30722045898438 68.29368591308594 C 95.7572021484375 62.50127410888672 96.99945068359375 56.34645843505859 96.99945068359375 49.99964141845703 C 96.99945068359375 43.65341186523438 95.7572021484375 37.49859619140625 93.30722045898438 31.70618438720703 C 90.94015502929688 26.10985565185547 87.55089569091797 21.08321380615234 83.23355865478516 16.76587677001953 C 78.91621398925781 12.44853210449219 73.88955688476562 9.059272766113281 68.293212890625 6.692230224609375 C 62.50078582763672 4.242240905761719 56.34597015380859 3 49.99972534179688 3 M 49.99972534179688 0 C 77.61381530761719 0 99.99945068359375 22.38559722900391 99.99945068359375 49.99964141845703 L 99.99945068359375 50.00022888183594 C 99.99945068359375 77.6142578125 77.61381530761719 99.99987030029297 49.99972534179688 99.99987030029297 C 22.38563537597656 99.99987030029297 0 77.6142578125 0 50.00022888183594 L 0 49.99964141845703 C 0 22.38559722900391 22.38563537597656 0 49.99972534179688 0 Z" stroke="none" fill="#fff"/>
            </g>
          </g>
        </g>
      </g>
    </g>
    <g id="g5370" transform="translate(-2502.24 -9135.562)">
      <path id="path5372" d="M134.25-85.442H141.8v-7.551H134.25Z" transform="translate(-122.011 -535.915)" fill="#50c5ff"/>
      <path id="path5374" d="M134.25-85.442H137.9v-7.551H134.25Z" transform="translate(-122.011 -535.915)" fill="#45b3f6"/>
      <path id="path5376" d="M465.582-664.952h7.551V-672.5h-7.551Z" transform="translate(-423.137 -9.235)" fill="#50c5ff"/>
      <path id="path5378" d="M465.582-664.952h3.647V-672.5h-3.647Z" transform="translate(-423.137 -9.235)" fill="#45b3f6"/>
      <g id="g5380" transform="translate(0 -682.665)">
        <g id="g5382" clip-path="url(#clip-path)">
          <g id="g5388" transform="translate(0.912 27.327)">
            <path id="path5390" d="M-75.282-37.64a3.776,3.776,0,0,1-3.776,3.776,3.776,3.776,0,0,1-3.776-3.776,3.776,3.776,0,0,1,3.776-3.776,3.776,3.776,0,0,1,3.776,3.776" transform="translate(82.833 41.416)" fill="#497e9b"/>
          </g>
          <g id="g5392" transform="translate(0.912 27.327)">
            <path id="path5394" d="M-36.353-37.64A3.774,3.774,0,0,1-34.4-40.947a3.757,3.757,0,0,0-1.823-.469A3.776,3.776,0,0,0-40-37.64a3.776,3.776,0,0,0,3.776,3.776,3.757,3.757,0,0,0,1.823-.469,3.774,3.774,0,0,1-1.952-3.306" transform="translate(40 41.416)" fill="#396f8e"/>
          </g>
          <g id="g5396" transform="translate(53.772 27.327)">
            <path id="path5398" d="M-75.28-37.64a3.776,3.776,0,0,1-3.776,3.776,3.776,3.776,0,0,1-3.776-3.776,3.776,3.776,0,0,1,3.776-3.776A3.776,3.776,0,0,1-75.28-37.64" transform="translate(82.832 41.416)" fill="#497e9b"/>
          </g>
          <g id="g5400" transform="translate(53.772 27.327)">
            <path id="path5402" d="M-36.353-37.64A3.774,3.774,0,0,1-34.4-40.947a3.758,3.758,0,0,0-1.823-.469A3.776,3.776,0,0,0-40-37.64a3.776,3.776,0,0,0,3.776,3.776,3.758,3.758,0,0,0,1.823-.469,3.774,3.774,0,0,1-1.952-3.306" transform="translate(40 41.416)" fill="#396f8e"/>
          </g>
          <g id="g5404" transform="translate(0.912 27.327)">
            <path id="path5406" d="M-75.282-37.64a3.776,3.776,0,0,1-3.776,3.776,3.776,3.776,0,0,1-3.776-3.776,3.776,3.776,0,0,1,3.776-3.776A3.776,3.776,0,0,1-75.282-37.64Z" transform="translate(82.833 41.416)" fill="none" stroke="#000" stroke-linecap="round" stroke-linejoin="round" stroke-miterlimit="10" stroke-width="1.2"/>
          </g>
          <g id="g5408" transform="translate(53.772 27.327)">
            <path id="path5410" d="M-75.28-37.64a3.776,3.776,0,0,1-3.776,3.776,3.776,3.776,0,0,1-3.776-3.776,3.776,3.776,0,0,1,3.776-3.776A3.776,3.776,0,0,1-75.28-37.64Z" transform="translate(82.832 41.416)" fill="none" stroke="#000" stroke-linecap="round" stroke-linejoin="round" stroke-miterlimit="10" stroke-width="1.2"/>
          </g>
          <g id="g5412" transform="translate(48.207 31.103)">
            <path id="path5414" d="M-55.475,0H-61.04" transform="translate(61.04)" fill="none" stroke="#000" stroke-linecap="round" stroke-linejoin="round" stroke-miterlimit="10" stroke-width="1.2"/>
          </g>
          <g id="g5416" transform="translate(8.464 31.103)">
            <path id="path5418" d="M-55.475,0H-61.04" transform="translate(61.04)" fill="none" stroke="#000" stroke-linecap="round" stroke-linejoin="round" stroke-miterlimit="10" stroke-width="1.2"/>
          </g>
          <g id="g5420" transform="translate(18.001 31.103)">
            <path id="path5422" d="M-93.126,0h-9.341" transform="translate(102.468)" fill="none" stroke="#000" stroke-linecap="round" stroke-linejoin="round" stroke-miterlimit="10" stroke-width="1.2"/>
          </g>
          <g id="g5424" transform="translate(34.893 31.103)">
            <path id="path5426" d="M-93.126,0h-9.341" transform="translate(102.468)" fill="none" stroke="#000" stroke-linecap="round" stroke-linejoin="round" stroke-miterlimit="10" stroke-width="1.2"/>
          </g>
          <path id="path5428" d="M134.25-85.442H141.8v-7.551H134.25Z" transform="translate(-122.011 146.75)" fill="none" stroke="#000" stroke-linecap="round" stroke-linejoin="round" stroke-miterlimit="10" stroke-width="1.2"/>
          <path id="path5430" d="M465.582-664.952h7.551V-672.5h-7.551Z" transform="translate(-423.137 673.43)" fill="none" stroke="#000" stroke-linecap="round" stroke-linejoin="round" stroke-miterlimit="10" stroke-width="1.2"/>
          <g id="g5432" transform="translate(34.893 15.752)">
            <path id="path5434" d="M-112.926,0V.248a15.06,15.06,0,0,1-4.423,10.68,15.1,15.1,0,0,1-6.9,3.948" transform="translate(124.253)" fill="none" stroke="#000" stroke-linecap="round" stroke-linejoin="round" stroke-miterlimit="10" stroke-width="1.2"/>
          </g>
          <g id="g5436" transform="translate(46.22 8.449)">
            <path id="path5438" d="M0-33.2v-3.331" transform="translate(0 36.533)" fill="none" stroke="#000" stroke-linecap="round" stroke-linejoin="round" stroke-miterlimit="10" stroke-width="1.2"/>
          </g>
          <g id="g5440" transform="translate(16.015 31.578)">
            <path id="path5442" d="M0-221.1v-7.551a15.111,15.111,0,0,1,11.327-14.628" transform="translate(0 243.279)" fill="none" stroke="#000" stroke-linecap="round" stroke-linejoin="round" stroke-miterlimit="10" stroke-width="1.2"/>
          </g>
          <path id="path5444" d="M299.915-375.356h7.551v-7.551h-7.551Z" transform="translate(-272.574 410.234)" fill="#50c5ff"/>
          <path id="path5446" d="M299.915-375.356h3.647v-7.551h-3.647Z" transform="translate(-272.574 410.234)" fill="#45b3f6"/>
          <path id="path5448" d="M299.915-375.356h7.551v-7.551h-7.551Z" transform="translate(-272.574 410.234)" fill="none" stroke="#000" stroke-linecap="round" stroke-linejoin="round" stroke-miterlimit="10" stroke-width="1.2"/>
        </g>
      </g>
    </g>
  </g>
</svg>
