<svg xmlns="http://www.w3.org/2000/svg" xmlns:xlink="http://www.w3.org/1999/xlink" width="118" height="118" viewBox="0 0 118 118">
  <defs>
    <filter id="Trazado_874925" x="0" y="0" width="118" height="118" filterUnits="userSpaceOnUse">
      <feOffset dy="3" input="SourceAlpha"/>
      <feGaussianBlur stdDeviation="3" result="blur"/>
      <feFlood flood-opacity="0.161"/>
      <feComposite operator="in" in2="blur"/>
      <feComposite in="SourceGraphic"/>
    </filter>
  </defs>
  <g id="Grupo_1199913" data-name="Grupo 1199913" transform="translate(2889.269 9449.108)">
    <g id="Grupo_1199787" data-name="Grupo 1199787" transform="translate(-3688.77 -11960.266)">
      <g id="Grupo_1111316" data-name="Grupo 1111316" transform="translate(808.5 2517.157)">
        <g id="Grupo_1109835" data-name="Grupo 1109835" transform="translate(0 0)">
          <g id="Grupo_1107913" data-name="Grupo 1107913" transform="translate(0 0)">
            <g transform="matrix(1, 0, 0, 1, -9, -6)" filter="url(#Trazado_874925)">
              <g id="Trazado_874925-2" data-name="Trazado 874925" transform="translate(9 6)" fill="#9ad354" opacity="0.859">
                <path d="M 49.99972534179688 98.4998779296875 C 43.45164108276367 98.4998779296875 37.10022354125977 97.21776580810547 31.12189674377441 94.68914794921875 C 25.34676742553711 92.24647521972656 20.15985298156738 88.74925994873047 15.70523929595947 84.29464721679688 C 11.25062561035156 79.84004974365234 7.753411293029785 74.65313720703125 5.310725212097168 68.87800598144531 C 2.782111167907715 62.89969253540039 1.499996781349182 56.54829406738281 1.499996781349182 50.00022125244141 C 1.499996781349182 43.45157623291016 2.782111167907715 37.10017776489258 5.310725212097168 31.12186431884766 C 7.753411293029785 25.34673500061035 11.25062561035156 20.15983581542969 15.70523929595947 15.70522117614746 C 20.15985298156738 11.25062084197998 25.34676742553711 7.753406524658203 31.12189674377441 5.31073522567749 C 37.10022354125977 2.782120943069458 43.45164108276367 1.500006556510925 49.99972534179688 1.500006556510925 C 56.54780960083008 1.500006556510925 62.89922714233398 2.782120943069458 68.87755584716797 5.31073522567749 C 74.65267944335938 7.753406524658203 79.839599609375 11.25062084197998 84.29421234130859 15.70522117614746 C 88.74882507324219 20.15983581542969 92.24604034423828 25.34673500061035 94.68872833251953 31.12186431884766 C 97.21733856201172 37.10017776489258 98.49945068359375 43.45157623291016 98.49945068359375 49.99964904785156 C 98.49945068359375 56.54829406738281 97.21733856201172 62.89969253540039 94.68872833251953 68.87800598144531 C 92.24604034423828 74.65313720703125 88.74882507324219 79.84004974365234 84.29421234130859 84.29464721679688 C 79.839599609375 88.74925994873047 74.65267944335938 92.24647521972656 68.87755584716797 94.68914794921875 C 62.89922714233398 97.21776580810547 56.54780960083008 98.4998779296875 49.99972534179688 98.4998779296875 Z" stroke="none"/>
                <path d="M 49.99972534179688 3 C 43.65348052978516 3 37.49866485595703 4.242240905761719 31.70623016357422 6.692230224609375 C 26.10989379882812 9.059272766113281 21.08323669433594 12.44853210449219 16.76589202880859 16.76587677001953 C 12.44855499267578 21.08321380615234 9.059295654296875 26.10985565185547 6.692230224609375 31.70618438720703 C 4.24224853515625 37.49859619140625 3 43.65341186523438 3 50.00022888183594 C 3 56.34645843505859 4.24224853515625 62.50127410888672 6.692230224609375 68.29368591308594 C 9.059295654296875 73.8900146484375 12.44855499267578 78.91665649414062 16.76589202880859 83.23399353027344 C 21.08323669433594 87.55132293701172 26.10989379882812 90.94059753417969 31.70623016357422 93.30764007568359 C 37.49866485595703 95.75762939453125 43.65348052978516 96.99987030029297 49.99972534179688 96.99987030029297 C 56.34597015380859 96.99987030029297 62.50078582763672 95.75762939453125 68.293212890625 93.30764007568359 C 73.88955688476562 90.94059753417969 78.91621398925781 87.55132293701172 83.23355865478516 83.23399353027344 C 87.55089569091797 78.91665649414062 90.94015502929688 73.8900146484375 93.30722045898438 68.29368591308594 C 95.7572021484375 62.50127410888672 96.99945068359375 56.34645843505859 96.99945068359375 49.99964141845703 C 96.99945068359375 43.65341186523438 95.7572021484375 37.49859619140625 93.30722045898438 31.70618438720703 C 90.94015502929688 26.10985565185547 87.55089569091797 21.08321380615234 83.23355865478516 16.76587677001953 C 78.91621398925781 12.44853210449219 73.88955688476562 9.059272766113281 68.293212890625 6.692230224609375 C 62.50078582763672 4.242240905761719 56.34597015380859 3 49.99972534179688 3 M 49.99972534179688 0 C 77.61381530761719 0 99.99945068359375 22.38559722900391 99.99945068359375 49.99964141845703 L 99.99945068359375 50.00022888183594 C 99.99945068359375 77.6142578125 77.61381530761719 99.99987030029297 49.99972534179688 99.99987030029297 C 22.38563537597656 99.99987030029297 0 77.6142578125 0 50.00022888183594 L 0 49.99964141845703 C 0 22.38559722900391 22.38563537597656 0 49.99972534179688 0 Z" stroke="none" fill="#fff"/>
              </g>
            </g>
            <g id="Trazado_874923" data-name="Trazado 874923" transform="translate(0 0)" fill="none">
              <path d="M50,0a50,50,0,0,1,50,50h0A50,50,0,0,1,0,50H0A50,50,0,0,1,50,0Z" stroke="none"/>
              <path d="M 49.99972534179688 3 C 43.65348052978516 3 37.49866485595703 4.242240905761719 31.70623016357422 6.692230224609375 C 26.10989379882812 9.059272766113281 21.08323669433594 12.44853210449219 16.76589202880859 16.76587677001953 C 12.44855499267578 21.08321380615234 9.059295654296875 26.10985565185547 6.692230224609375 31.70618438720703 C 4.24224853515625 37.49859619140625 3 43.65341186523438 3 50.00022888183594 C 3 56.34645843505859 4.24224853515625 62.50127410888672 6.692230224609375 68.29368591308594 C 9.059295654296875 73.8900146484375 12.44855499267578 78.91665649414062 16.76589202880859 83.23399353027344 C 21.08323669433594 87.55132293701172 26.10989379882812 90.94059753417969 31.70623016357422 93.30764007568359 C 37.49866485595703 95.75762939453125 43.65348052978516 96.99987030029297 49.99972534179688 96.99987030029297 C 56.34597015380859 96.99987030029297 62.50078582763672 95.75762939453125 68.293212890625 93.30764007568359 C 73.88955688476562 90.94059753417969 78.91621398925781 87.55132293701172 83.23355865478516 83.23399353027344 C 87.55089569091797 78.91665649414062 90.94015502929688 73.8900146484375 93.30722045898438 68.29368591308594 C 95.7572021484375 62.50127410888672 96.99945068359375 56.34645843505859 96.99945068359375 49.99964141845703 C 96.99945068359375 43.65341186523438 95.7572021484375 37.49859619140625 93.30722045898438 31.70618438720703 C 90.94015502929688 26.10985565185547 87.55089569091797 21.08321380615234 83.23355865478516 16.76587677001953 C 78.91621398925781 12.44853210449219 73.88955688476562 9.059272766113281 68.293212890625 6.692230224609375 C 62.50078582763672 4.242240905761719 56.34597015380859 3 49.99972534179688 3 M 49.99972534179688 0 C 77.61381530761719 0 99.99945068359375 22.38559722900391 99.99945068359375 49.99964141845703 L 99.99945068359375 50.00022888183594 C 99.99945068359375 77.6142578125 77.61381530761719 99.99987030029297 49.99972534179688 99.99987030029297 C 22.38563537597656 99.99987030029297 0 77.6142578125 0 50.00022888183594 L 0 49.99964141845703 C 0 22.38559722900391 22.38563537597656 0 49.99972534179688 0 Z" stroke="none" fill="#fff"/>
            </g>
          </g>
        </g>
      </g>
    </g>
    <g id="FILLED_OUTLINE" transform="translate(-2872.862 -9434.242)">
      <path id="Trazado_1032364" data-name="Trazado 1032364" d="M26.659,24A2.659,2.659,0,0,0,24,26.659V72.752h5.318V26.659A2.659,2.659,0,0,0,26.659,24Z" transform="translate(-7.114 -7.116)" fill="#dfdfdf"/>
      <path id="Trazado_1032365" data-name="Trazado 1032365" d="M26.659,440a2.659,2.659,0,0,0,0,5.318H68.32V440Z" transform="translate(-7.114 -377.023)" fill="#bebebe"/>
      <path id="Trazado_1032366" data-name="Trazado 1032366" d="M72,40h46.093V84.32H72Z" transform="translate(-49.795 -21.343)" fill="#ededed"/>
      <path id="Trazado_1032367" data-name="Trazado 1032367" d="M103.091,111.978v-4.432a3.546,3.546,0,1,0-7.091,0h1.773a1.773,1.773,0,1,1,3.546,0v.886H99.1a3.1,3.1,0,0,0,0,6.2h.886a3.09,3.09,0,0,0,2.084-.806,2.651,2.651,0,0,0,1.9.806v-1.773A.887.887,0,0,1,103.091,111.978Zm-3.1.886H99.1a1.33,1.33,0,1,1,0-2.659h2.216v1.33A1.331,1.331,0,0,1,99.989,112.864Z" transform="translate(-71.136 -78.252)" fill="#31c292"/>
      <path id="Trazado_1032368" data-name="Trazado 1032368" d="M189.733,80a.886.886,0,0,0-.835.588L184.466,93l1.669.6,1.373-3.844h4.449l1.373,3.844L195,93l-4.432-12.41a.886.886,0,0,0-.835-.588Zm-1.591,7.978,1.591-4.456,1.591,4.456Z" transform="translate(-149.8 -56.911)" fill="#31c292"/>
      <path id="Trazado_1032369" data-name="Trazado 1032369" d="M296,96h18.614v1.773H296Z" transform="translate(-248.976 -71.139)" fill="#bebebe"/>
      <path id="Trazado_1032370" data-name="Trazado 1032370" d="M296,128h4.432v1.773H296Z" transform="translate(-248.976 -99.593)" fill="#bebebe"/>
      <path id="Trazado_1032371" data-name="Trazado 1032371" d="M352,128h12.41v1.773H352Z" transform="translate(-298.771 -99.593)" fill="#bebebe"/>
      <path id="Trazado_1032372" data-name="Trazado 1032372" d="M296,160h9.75v1.773H296Z" transform="translate(-248.976 -128.047)" fill="#bebebe"/>
      <path id="Trazado_1032373" data-name="Trazado 1032373" d="M0,0H8.775V11.282H0Z" transform="translate(29.291 49.679) rotate(-45)" fill="#00a16c"/>
      <path id="Trazado_1032374" data-name="Trazado 1032374" d="M105.773,344l1.475,2.213a1.773,1.773,0,0,1,.3.983v.35a1.773,1.773,0,1,1-3.546,0v-.35a1.773,1.773,0,0,1,.3-.983Z" transform="translate(-78.25 -291.66)" fill="#338dbf"/>
      <path id="Trazado_1032375" data-name="Trazado 1032375" d="M164.7,228.375l-.955,3.5-.817,2.993-1.711-.465,1.084-3.971.688-2.524a1.691,1.691,0,0,0-3.258-.91l-.8,2.8-2.582,2.582,1.678-5.87a3.464,3.464,0,0,1,6.672,1.864Z" transform="translate(-124.799 -184.956)" fill="#70d6b1"/>
      <g id="Grupo_1199914" data-name="Grupo 1199914" transform="translate(56.775 49.681)">
        <path id="Trazado_1032376" data-name="Trazado 1032376" d="M384,320h1.773v1.773H384Z" transform="translate(-384 -320)" fill="#bebebe"/>
        <path id="Trazado_1032377" data-name="Trazado 1032377" d="M416,320h5.318v1.773H416Z" transform="translate(-412.454 -320)" fill="#bebebe"/>
        <path id="Trazado_1032378" data-name="Trazado 1032378" d="M384,352h1.773v1.773H384Z" transform="translate(-384 -348.454)" fill="#bebebe"/>
        <path id="Trazado_1032379" data-name="Trazado 1032379" d="M416,352h5.318v1.773H416Z" transform="translate(-412.454 -348.454)" fill="#bebebe"/>
        <path id="Trazado_1032380" data-name="Trazado 1032380" d="M384,384h1.773v1.773H384Z" transform="translate(-384 -376.909)" fill="#bebebe"/>
        <path id="Trazado_1032381" data-name="Trazado 1032381" d="M416,384h5.318v1.773H416Z" transform="translate(-412.454 -376.909)" fill="#bebebe"/>
      </g>
      <path id="Trazado_1032382" data-name="Trazado 1032382" d="M392,232h7.091v7.091H392Z" transform="translate(-334.339 -192.07)" fill="#5ca4cc"/>
      <path id="Trazado_1032383" data-name="Trazado 1032383" d="M288,320h1.773v1.773H288Z" transform="translate(-241.862 -270.319)" fill="#bebebe"/>
      <path id="Trazado_1032384" data-name="Trazado 1032384" d="M320,320h5.318v1.773H320Z" transform="translate(-270.317 -270.319)" fill="#bebebe"/>
      <path id="Trazado_1032385" data-name="Trazado 1032385" d="M288,352h1.773v1.773H288Z" transform="translate(-241.862 -298.774)" fill="#bebebe"/>
      <path id="Trazado_1032386" data-name="Trazado 1032386" d="M320,352h5.318v1.773H320Z" transform="translate(-270.317 -298.774)" fill="#bebebe"/>
      <path id="Trazado_1032387" data-name="Trazado 1032387" d="M288,384h1.773v1.773H288Z" transform="translate(-241.862 -327.228)" fill="#bebebe"/>
      <path id="Trazado_1032388" data-name="Trazado 1032388" d="M320,384h5.318v1.773H320Z" transform="translate(-270.317 -327.228)" fill="#bebebe"/>
      <path id="Trazado_1032389" data-name="Trazado 1032389" d="M296,232h7.091v7.091H296Z" transform="translate(-248.976 -192.07)" fill="#5ca4cc"/>
      <path id="Trazado_1032390" data-name="Trazado 1032390" d="M68.3,17.77H22.614A3.544,3.544,0,0,0,16,19.543V65.636a3.55,3.55,0,0,0,3.546,3.546H61.207a.886.886,0,0,0,.886-.886V63.863h6.2a.886.886,0,0,0,.886-.886V18.657a.886.886,0,0,0-.886-.886Zm-48.752,0a1.775,1.775,0,0,1,1.773,1.773V62.09H19.546a3.523,3.523,0,0,0-1.773.477V19.543a1.775,1.775,0,0,1,1.773-1.773ZM60.32,67.409H19.546a1.773,1.773,0,0,1,0-3.546H60.32Zm7.091-5.318H23.091V19.543h44.32Z"/>
      <path id="Trazado_1032391" data-name="Trazado 1032391" d="M99.1,108.432a3.1,3.1,0,0,0,0,6.2h.886a3.09,3.09,0,0,0,2.084-.806,2.651,2.651,0,0,0,1.9.806v-1.773a.887.887,0,0,1-.886-.886v-4.432a3.546,3.546,0,1,0-7.091,0h1.773a1.773,1.773,0,1,1,3.546,0v.886Zm.886,4.432H99.1a1.33,1.33,0,1,1,0-2.659h2.216v1.33A1.331,1.331,0,0,1,99.989,112.864Z" transform="translate(-71.136 -78.252)"/>
      <path id="Trazado_1032392" data-name="Trazado 1032392" d="M187.508,89.75h4.449l1.373,3.844L195,93l-4.432-12.41a.886.886,0,0,0-1.669,0L184.466,93l1.669.6Zm2.225-6.229,1.591,4.456h-3.183Z" transform="translate(-149.8 -56.911)"/>
      <path id="Trazado_1032393" data-name="Trazado 1032393" d="M296,96h18.614v1.773H296Z" transform="translate(-248.976 -71.139)"/>
      <path id="Trazado_1032394" data-name="Trazado 1032394" d="M296,128h4.432v1.773H296Z" transform="translate(-248.976 -99.593)"/>
      <path id="Trazado_1032395" data-name="Trazado 1032395" d="M352,128h12.41v1.773H352Z" transform="translate(-298.771 -99.593)"/>
      <path id="Trazado_1032396" data-name="Trazado 1032396" d="M296,160h9.75v1.773H296Z" transform="translate(-248.976 -128.047)"/>
      <path id="Trazado_1032397" data-name="Trazado 1032397" d="M128.259,234.01a.886.886,0,0,0,0,1.254l7.978,7.978a.886.886,0,0,0,1.254,0l6.2-6.2a.886.886,0,0,0,0-1.254l-4.891-4.891.686-2.516a3.464,3.464,0,0,0-6.672-1.863l-1.176,4.115Zm13.556,2.4-4.951,4.951-6.724-6.724,4.951-4.951,1.732,1.732-.814,2.986,1.71.466.548-2.009ZM134.523,227a1.691,1.691,0,0,1,3.257.909l-.42,1.539-1.642-1.642a.886.886,0,0,0-1.254,0l-.24.24Z" transform="translate(-99.59 -184.956)"/>
      <path id="Trazado_1032398" data-name="Trazado 1032398" d="M98.659,343.091a2.662,2.662,0,0,0,2.659-2.659v-.35a2.651,2.651,0,0,0-.447-1.475L99.4,336.395a.886.886,0,0,0-1.475,0l-1.475,2.213A2.651,2.651,0,0,0,96,340.082v.35a2.662,2.662,0,0,0,2.659,2.659Zm-.886-3.009a.884.884,0,0,1,.149-.492l.738-1.106.738,1.106a.884.884,0,0,1,.149.492v.35a.886.886,0,1,1-1.773,0Z" transform="translate(-71.136 -284.546)"/>
      <path id="Trazado_1032399" data-name="Trazado 1032399" d="M384,320h1.773v1.773H384Z" transform="translate(-327.225 -270.319)"/>
      <path id="Trazado_1032400" data-name="Trazado 1032400" d="M416,320h5.318v1.773H416Z" transform="translate(-355.68 -270.319)"/>
      <path id="Trazado_1032401" data-name="Trazado 1032401" d="M384,352h1.773v1.773H384Z" transform="translate(-327.225 -298.774)"/>
      <path id="Trazado_1032402" data-name="Trazado 1032402" d="M416,352h5.318v1.773H416Z" transform="translate(-355.68 -298.774)"/>
      <path id="Trazado_1032403" data-name="Trazado 1032403" d="M384,384h1.773v1.773H384Z" transform="translate(-327.225 -327.228)"/>
      <path id="Trazado_1032404" data-name="Trazado 1032404" d="M416,384h5.318v1.773H416Z" transform="translate(-355.68 -327.228)"/>
      <path id="Trazado_1032405" data-name="Trazado 1032405" d="M391.978,224h-7.091a.886.886,0,0,0-.886.886v7.091a.886.886,0,0,0,.886.886h7.091a.886.886,0,0,0,.886-.886v-7.091a.886.886,0,0,0-.886-.886Zm-.886,7.091h-5.318v-5.318h5.318Z" transform="translate(-327.225 -184.956)"/>
      <path id="Trazado_1032406" data-name="Trazado 1032406" d="M288,320h1.773v1.773H288Z" transform="translate(-241.862 -270.319)"/>
      <path id="Trazado_1032407" data-name="Trazado 1032407" d="M320,320h5.318v1.773H320Z" transform="translate(-270.317 -270.319)"/>
      <path id="Trazado_1032408" data-name="Trazado 1032408" d="M288,352h1.773v1.773H288Z" transform="translate(-241.862 -298.774)"/>
      <path id="Trazado_1032409" data-name="Trazado 1032409" d="M320,352h5.318v1.773H320Z" transform="translate(-270.317 -298.774)"/>
      <path id="Trazado_1032410" data-name="Trazado 1032410" d="M288,384h1.773v1.773H288Z" transform="translate(-241.862 -327.228)"/>
      <path id="Trazado_1032411" data-name="Trazado 1032411" d="M320,384h5.318v1.773H320Z" transform="translate(-270.317 -327.228)"/>
      <path id="Trazado_1032412" data-name="Trazado 1032412" d="M288.886,232.864h7.091a.886.886,0,0,0,.886-.886v-7.091a.886.886,0,0,0-.886-.886h-7.091a.886.886,0,0,0-.886.886v7.091a.886.886,0,0,0,.886.886Zm.886-7.091h5.318v5.318h-5.318Z" transform="translate(-241.862 -184.956)"/>
    </g>
  </g>
</svg>
