<svg xmlns="http://www.w3.org/2000/svg" xmlns:xlink="http://www.w3.org/1999/xlink" width="138" height="138" viewBox="0 0 138 138">
  <defs>
    <filter id="Trazado_896985" x="0" y="0" width="138" height="138" filterUnits="userSpaceOnUse">
      <feOffset dy="3" input="SourceAlpha"/>
      <feGaussianBlur stdDeviation="3" result="blur"/>
      <feFlood flood-opacity="0.161"/>
      <feComposite operator="in" in2="blur"/>
      <feComposite in="SourceGraphic"/>
    </filter>
  </defs>
  <g id="Grupo_1199881" data-name="Grupo 1199881" transform="translate(-258.051 -898.944)">
    <g id="Grupo_1199693" data-name="Grupo 1199693" transform="translate(-53.059 -9449.52)">
      <g id="Grupo_1199549" data-name="Grupo 1199549" transform="translate(-14.781 6502.464)">
        <g id="Grupo_1111318" data-name="Grupo 1111318" transform="translate(334.891 3852)">
          <g id="Grupo_1109826" data-name="Grupo 1109826" transform="translate(0 0)">
            <g id="Grupo_1098742" data-name="Grupo 1098742" transform="translate(0)">
              <g transform="matrix(1, 0, 0, 1, -9, -6)" filter="url(#Trazado_896985)">
                <g id="Trazado_896985-2" data-name="Trazado 896985" transform="translate(9 6)" fill="#f1963d" opacity="0.859">
                  <path d="M 59.99993896484375 118.5 C 52.10183715820312 118.5 44.44078826904297 116.9534759521484 37.22958755493164 113.9033966064453 C 33.7635383605957 112.4373931884766 30.42043876647949 110.6227951049805 27.29312324523926 108.510009765625 C 24.19512176513672 106.4170608520508 21.28185653686523 104.0133819580078 18.63423919677734 101.3657760620117 C 15.98662185668945 98.71816253662109 13.5829553604126 95.80489349365234 11.48998928070068 92.70689392089844 C 9.377205848693848 89.57958221435547 7.5626220703125 86.23646545410156 6.096605777740479 82.77043151855469 C 3.046522378921509 75.55922698974609 1.500005602836609 67.89817810058594 1.500005602836609 60.00008010864258 C 1.500005602836609 52.10181427001953 3.046522378921509 44.44076156616211 6.096605777740479 37.22956466674805 C 7.5626220703125 33.76353073120117 9.377205848693848 30.42041206359863 11.48998928070068 27.2930965423584 C 13.5829553604126 24.19511222839355 15.98662185668945 21.28184700012207 18.63423919677734 18.63422966003418 C 21.28185653686523 15.98661327362061 24.19512176513672 13.58294582366943 27.29312324523926 11.48997974395752 C 30.42043876647949 9.377196311950684 33.7635383605957 7.562613010406494 37.22958755493164 6.096596240997314 C 44.44078826904297 3.046512842178345 52.10183715820312 1.499996185302734 59.99993896484375 1.499996185302734 C 67.89804077148438 1.499996185302734 75.55908966064453 3.046512842178345 82.77028656005859 6.096596240997314 C 86.23633575439453 7.562613010406494 89.57943725585938 9.377196311950684 92.70675659179688 11.48997974395752 C 95.80475616455078 13.58294582366943 98.71802520751953 15.98661327362061 101.3656387329102 18.63422966003418 C 104.0132522583008 21.28184700012207 106.4169235229492 24.19511222839355 108.5098876953125 27.2930965423584 C 110.622673034668 30.42041206359863 112.437255859375 33.76353073120117 113.9032745361328 37.22956466674805 C 116.9533538818359 44.44076156616211 118.499870300293 52.10181427001953 118.499870300293 59.99991226196289 C 118.499870300293 67.89817810058594 116.9533538818359 75.55922698974609 113.9032745361328 82.77043151855469 C 112.437255859375 86.23646545410156 110.622673034668 89.57958221435547 108.5098876953125 92.70689392089844 C 106.4169235229492 95.80489349365234 104.0132522583008 98.71816253662109 101.3656387329102 101.3657760620117 C 98.71802520751953 104.0133819580078 95.80475616455078 106.4170608520508 92.70675659179688 108.510009765625 C 89.57943725585938 110.6227951049805 86.23633575439453 112.4373931884766 82.77028656005859 113.9033966064453 C 75.55908966064453 116.9534759521484 67.89804077148438 118.5 59.99993896484375 118.5 Z" stroke="none"/>
                  <path d="M 59.99993896484375 2.999992370605469 C 52.30366516113281 2.999992370605469 44.83921051025391 4.50665283203125 37.81390380859375 7.478103637695312 C 34.43706512451172 8.906379699707031 31.17988586425781 10.67436218261719 28.1328125 12.73290252685547 C 25.11392211914062 14.77243041992188 22.27499389648438 17.11477661132812 19.69488525390625 19.69488525390625 C 17.11477661132812 22.27499389648438 14.77243041992188 25.11392211914062 12.73290252685547 28.1328125 C 10.67435455322266 31.17987060546875 8.9063720703125 34.43706512451172 7.478103637695312 37.81390380859375 C 4.506645202636719 44.83919525146484 2.999992370605469 52.30364990234375 2.999992370605469 60.00008773803711 C 2.999992370605469 67.69634246826172 4.506645202636719 75.16079711914062 7.478103637695312 82.18610382080078 C 8.9063720703125 85.56294250488281 10.67435455322266 88.82012176513672 12.73290252685547 91.86717987060547 C 14.77243041992188 94.88607025146484 17.11477661132812 97.72499847412109 19.69488525390625 100.3051071166992 C 22.27499389648438 102.8852157592773 25.11392211914062 105.2275619506836 28.1328125 107.26708984375 C 31.17988586425781 109.3256301879883 34.43706512451172 111.0936126708984 37.81390380859375 112.5218887329102 C 44.83921051025391 115.4933395385742 52.30366516113281 117 59.99993896484375 117 C 67.69621276855469 117 75.16066741943359 115.4933395385742 82.18597412109375 112.5218887329102 C 85.56281280517578 111.0936126708984 88.81999206542969 109.3256301879883 91.8670654296875 107.26708984375 C 94.88595581054688 105.2275619506836 97.72488403320312 102.8852157592773 100.3049926757812 100.3051071166992 C 102.8851013183594 97.72499847412109 105.2274475097656 94.88607025146484 107.266975402832 91.86717987060547 C 109.3255233764648 88.82012176513672 111.093505859375 85.56294250488281 112.5217742919922 82.18610382080078 C 115.4932327270508 75.16079711914062 116.999885559082 67.69634246826172 116.999885559082 59.99992370605469 C 116.999885559082 52.30364990234375 115.4932327270508 44.83919525146484 112.5217742919922 37.81390380859375 C 111.093505859375 34.43706512451172 109.3255233764648 31.17987060546875 107.266975402832 28.1328125 C 105.2274475097656 25.11392211914062 102.8851013183594 22.27499389648438 100.3049926757812 19.69488525390625 C 97.72488403320312 17.11477661132812 94.88595581054688 14.77243041992188 91.8670654296875 12.73290252685547 C 88.81999206542969 10.67436218261719 85.56281280517578 8.906379699707031 82.18597412109375 7.478103637695312 C 75.16066741943359 4.50665283203125 67.69621276855469 2.999992370605469 59.99993896484375 2.999992370605469 M 59.99993896484375 -7.62939453125e-06 C 93.13699340820312 -7.62939453125e-06 119.999885559082 26.86286926269531 119.999885559082 59.99992370605469 L 119.999885559082 60.00008773803711 C 119.999885559082 93.13712310791016 93.13699340820312 120 59.99993896484375 120 C 26.86288452148438 120 -7.62939453125e-06 93.13712310791016 -7.62939453125e-06 60.00008773803711 L -7.62939453125e-06 59.99992370605469 C -7.62939453125e-06 26.86286926269531 26.86288452148438 -7.62939453125e-06 59.99993896484375 -7.62939453125e-06 Z" stroke="none" fill="#fff"/>
                </g>
              </g>
              <g id="Rectángulo_400907" data-name="Rectángulo 400907" transform="translate(0)" fill="none" stroke="#fff" stroke-width="3">
                <rect width="120" height="120" rx="60" stroke="none"/>
                <rect x="1.5" y="1.5" width="117" height="117" rx="58.5" fill="none"/>
              </g>
            </g>
          </g>
        </g>
      </g>
    </g>
    <g id="Layer_1_14_" transform="translate(278.84 921.016)">
      <g id="Grupo_1199880" data-name="Grupo 1199880" transform="translate(18.2 16.5)">
        <path id="Trazado_1032138" data-name="Trazado 1032138" d="M31.51,39.11H84.972v40.1H31.51Z" transform="translate(-28.231 -33.539)" fill="#ebf4fd" fill-rule="evenodd"/>
        <path id="Trazado_1032139" data-name="Trazado 1032139" d="M57.321,201.85h7.453l-8.6,14.2H51.59Z" transform="translate(-43.363 -156.183)" fill="#fdd59a" fill-rule="evenodd"/>
        <path id="Trazado_1032140" data-name="Trazado 1032140" d="M182.353,201.85H174.9l8.6,14.2h4.585Z" transform="translate(-136.292 -156.183)" fill="#fdd59a" fill-rule="evenodd"/>
        <path id="Trazado_1032141" data-name="Trazado 1032141" d="M24.494,25.078H77.956a2.294,2.294,0,0,0,0-4.588H24.494a2.294,2.294,0,1,0,0,4.588Z" transform="translate(-21.214 -19.507)" fill="#a8e0f9" fill-rule="evenodd"/>
        <g id="Grupo_1199879" data-name="Grupo 1199879" transform="translate(20.418 19.92)">
          <path id="Trazado_1032142" data-name="Trazado 1032142" d="M103.29,130.22a2.22,2.22,0,1,0-2.22-2.22A2.225,2.225,0,0,0,103.29,130.22Z" transform="translate(-101.07 -118.775)" fill="#8fce9f" fill-rule="evenodd"/>
          <path id="Trazado_1032143" data-name="Trazado 1032143" d="M128.59,101.79a2.22,2.22,0,1,0-2.22-2.22A2.225,2.225,0,0,0,128.59,101.79Z" transform="translate(-120.137 -97.35)" fill="#8fce9f" fill-rule="evenodd"/>
          <path id="Trazado_1032144" data-name="Trazado 1032144" d="M160.22,122.68a2.22,2.22,0,1,0-2.22-2.22A2.225,2.225,0,0,0,160.22,122.68Z" transform="translate(-143.973 -113.093)" fill="#8fce9f" fill-rule="evenodd"/>
        </g>
        <path id="Trazado_1032145" data-name="Trazado 1032145" d="M21.479,21.085H74.942a1.306,1.306,0,0,0,0-2.612H21.479a1.306,1.306,0,0,0,0,2.612ZM42.143,42.72l2.178-2.432a3.205,3.205,0,1,1,5.955-1.646,3.146,3.146,0,0,1-.108.825l2.73,1.791a3.2,3.2,0,0,1,3.309-.377L60.925,35.5a.982.982,0,0,1-.473-1.9l3.092-.9a.984.984,0,0,1,1.311,1.089l-.547,3.193a.984.984,0,0,1-1.954-.123l-4.7,5.361a3.206,3.206,0,1,1-6,1.577,3.122,3.122,0,0,1,.131-.9L49.1,41.128a3.208,3.208,0,0,1-3.3.461L43.6,44.036a3.2,3.2,0,1,1-2.767-1.589,3.093,3.093,0,0,1,1.311.273Zm13.593.2a1.231,1.231,0,1,0,.362.872A1.229,1.229,0,0,0,55.736,42.917ZM47.943,37.77a1.231,1.231,0,1,0,.362.872A1.229,1.229,0,0,0,47.943,37.77Zm-6.233,7a1.231,1.231,0,1,0,.362.872A1.229,1.229,0,0,0,41.71,44.775Zm19.78,13.889,2.858-1.523a.981.981,0,0,0,.4-1.328.969.969,0,0,0-.411-.409l-2.851-1.518a.981.981,0,0,0-1.284,1.4H35.038V30.125a.981.981,0,0,0,1.4-1.284l-1.518-2.851a.969.969,0,0,0-.409-.411.981.981,0,0,0-1.328.4l-1.523,2.858a.981.981,0,0,0,1.4,1.284V56.276a.985.985,0,0,0,.986.986H60.2a.983.983,0,0,0,1.289,1.4ZM49.195,65.969a3.206,3.206,0,1,1-1.971,0V63.152H40.16L31.85,76.878a.978.978,0,0,1-.84.473l-4.585,0a.985.985,0,0,1-.986-.986,1,1,0,0,1,.1-.436L30.7,63.152h-9.22a.985.985,0,0,1-.986-.986V22.906a3.28,3.28,0,0,1,.986-6.406H74.942a3.28,3.28,0,0,1,.986,6.406V62.169a.985.985,0,0,1-.986.986H65.72l5.157,12.78a.987.987,0,0,1-.885,1.422l-4.585,0a.978.978,0,0,1-.84-.473l-8.31-13.726H49.195Zm-.113,2.178a1.231,1.231,0,1,0,.362.872A1.229,1.229,0,0,0,49.082,68.147ZM63.6,63.152H58.552l7.406,12.233h2.577Zm-25.732,0H32.82L27.885,75.385h2.577Zm36.088-40.1H22.465V61.181H73.956V23.056Z" transform="translate(-18.2 -16.5)" fill-rule="evenodd"/>
      </g>
    </g>
  </g>
</svg>
