<svg xmlns="http://www.w3.org/2000/svg" xmlns:xlink="http://www.w3.org/1999/xlink" width="138" height="138" viewBox="0 0 138 138">
  <defs>
    <filter id="Trazado_896985" x="0" y="0" width="138" height="138" filterUnits="userSpaceOnUse">
      <feOffset dy="3" input="SourceAlpha"/>
      <feGaussianBlur stdDeviation="3" result="blur"/>
      <feFlood flood-opacity="0.161"/>
      <feComposite operator="in" in2="blur"/>
      <feComposite in="SourceGraphic"/>
    </filter>
  </defs>
  <g id="Grupo_1199893" data-name="Grupo 1199893" transform="translate(-1203.051 -899)">
    <g id="Grupo_1199766" data-name="Grupo 1199766" transform="translate(1212.051 905)">
      <g id="Grupo_1199551" data-name="Grupo 1199551" transform="translate(0 0)">
        <g id="Grupo_1111318" data-name="Grupo 1111318" transform="translate(0)">
          <g id="Grupo_1109826" data-name="Grupo 1109826">
            <g id="Grupo_1098742" data-name="Grupo 1098742">
              <g transform="matrix(1, 0, 0, 1, -9, -6)" filter="url(#Trazado_896985)">
                <g id="Trazado_896985-2" data-name="Trazado 896985" transform="translate(9 6)" fill="#f1963d" opacity="0.859">
                  <path d="M 59.99993515014648 118.4999923706055 C 52.10183334350586 118.4999923706055 44.4407844543457 116.9534759521484 37.22958374023438 113.9033889770508 C 33.76353454589844 112.4373779296875 30.42043495178223 110.6227951049805 27.29311943054199 108.510009765625 C 24.19511795043945 106.4170455932617 21.28185272216797 104.0133743286133 18.63423538208008 101.3657608032227 C 15.98661804199219 98.7181396484375 13.58295154571533 95.80487823486328 11.48998546600342 92.70689392089844 C 9.377202033996582 89.57957458496094 7.562618255615234 86.23645782470703 6.096601963043213 82.77042388916016 C 3.046518564224243 75.55922698974609 1.500001788139343 67.89817810058594 1.500001788139343 60.00007629394531 C 1.500001788139343 52.10181045532227 3.046518564224243 44.44075775146484 6.096601963043213 37.22956085205078 C 7.562618255615234 33.76352691650391 9.377202033996582 30.42042541503906 11.48998546600342 27.29310989379883 C 13.58295154571533 24.19510841369629 15.98661804199219 21.2818431854248 18.63423538208008 18.63422584533691 C 21.28185272216797 15.98662567138672 24.19511795043945 13.58294200897217 27.29311943054199 11.48997592926025 C 30.42043495178223 9.377208709716797 33.76353454589844 7.562609195709229 37.22958374023438 6.096609115600586 C 44.4407844543457 3.046525716781616 52.10183334350586 1.500009059906006 59.99993515014648 1.500009059906006 C 67.89803314208984 1.500009059906006 75.55908203125 3.046525716781616 82.77028656005859 6.096609115600586 C 86.23633575439453 7.562609195709229 89.57943725585938 9.377208709716797 92.70674896240234 11.48997592926025 C 95.80474853515625 13.58294200897217 98.718017578125 15.98662567138672 101.3656387329102 18.63422584533691 C 104.0132522583008 21.2818431854248 106.4169158935547 24.19510841369629 108.5098876953125 27.29310989379883 C 110.6226654052734 30.42042541503906 112.4372482299805 33.76352691650391 113.9032669067383 37.22956085205078 C 116.9533538818359 44.44075775146484 118.499870300293 52.10181045532227 118.499870300293 59.99990844726562 C 118.499870300293 67.89817810058594 116.9533538818359 75.55922698974609 113.9032669067383 82.77042388916016 C 112.4372482299805 86.23645782470703 110.6226654052734 89.57957458496094 108.5098876953125 92.70689392089844 C 106.4169158935547 95.80487823486328 104.0132522583008 98.7181396484375 101.3656387329102 101.3657608032227 C 98.718017578125 104.0133743286133 95.80474853515625 106.4170455932617 92.70674896240234 108.510009765625 C 89.57943725585938 110.6227951049805 86.23633575439453 112.4373779296875 82.77028656005859 113.9033889770508 C 75.55908203125 116.9534759521484 67.89803314208984 118.4999923706055 59.99993515014648 118.4999923706055 Z" stroke="none"/>
                  <path d="M 59.99993515014648 2.999992370605469 C 52.30366516113281 2.999992370605469 44.83921051025391 4.506645202636719 37.81389617919922 7.478103637695312 C 34.43706512451172 8.9063720703125 31.17987823486328 10.67435455322266 28.13280487060547 12.73290252685547 C 25.11393737792969 14.77243041992188 22.27498626708984 17.11477661132812 19.69487762451172 19.69488525390625 C 17.11476898193359 22.27499389648438 14.77242279052734 25.11392211914062 12.73290252685547 28.1328125 C 10.67435455322266 31.17988586425781 8.9063720703125 34.43706512451172 7.478096008300781 37.81390380859375 C 4.506645202636719 44.83921051025391 2.999992370605469 52.30366516113281 2.999992370605469 60.00008392333984 C 2.999992370605469 67.69633483886719 4.506645202636719 75.16079711914062 7.478096008300781 82.18609619140625 C 8.9063720703125 85.56294250488281 10.67435455322266 88.82012176513672 12.73290252685547 91.86717224121094 C 14.77242279052734 94.88606262207031 17.11476898193359 97.72499084472656 19.69487762451172 100.3050994873047 C 22.27498626708984 102.8852081298828 25.11391448974609 105.2275543212891 28.13280487060547 107.2670669555664 C 31.17987823486328 109.3256301879883 34.43706512451172 111.0935897827148 37.81389617919922 112.5218658447266 C 44.83921051025391 115.4933166503906 52.30366516113281 116.9999771118164 59.99993515014648 116.9999771118164 C 67.69618988037109 116.9999771118164 75.16064453125 115.4933166503906 82.18595886230469 112.5218658447266 C 85.56278991699219 111.0935897827148 88.81996917724609 109.3256301879883 91.86704254150391 107.2670669555664 C 94.88593292236328 105.2275543212891 97.72486114501953 102.8852081298828 100.3049697875977 100.3050994873047 C 102.8850784301758 97.72499084472656 105.227424621582 94.88606262207031 107.2669525146484 91.86717224121094 C 109.3255004882812 88.82012176513672 111.0934829711914 85.56294250488281 112.5217514038086 82.18609619140625 C 115.4932098388672 75.16079711914062 116.9998626708984 67.69633483886719 116.9998626708984 59.99991989135742 C 116.9998626708984 52.30366516113281 115.4932098388672 44.83921051025391 112.5217514038086 37.81390380859375 C 111.0934829711914 34.43706512451172 109.3255004882812 31.17988586425781 107.2669525146484 28.1328125 C 105.227424621582 25.11392211914062 102.8850784301758 22.27499389648438 100.3049697875977 19.69488525390625 C 97.72486114501953 17.11477661132812 94.88593292236328 14.77243041992188 91.86704254150391 12.73290252685547 C 88.81996917724609 10.67435455322266 85.56278991699219 8.9063720703125 82.18595886230469 7.478103637695312 C 75.16064453125 4.506645202636719 67.69618988037109 2.999992370605469 59.99993515014648 2.999992370605469 M 59.99993515014648 -7.62939453125e-06 C 93.13697052001953 -7.62939453125e-06 119.9998626708984 26.86288452148438 119.9998626708984 59.99991989135742 L 119.9998626708984 60.00008392333984 C 119.9998626708984 93.13711547851562 93.13697052001953 119.9999771118164 59.99993515014648 119.9999771118164 C 26.86287689208984 119.9999771118164 -7.62939453125e-06 93.13711547851562 -7.62939453125e-06 60.00008392333984 L -7.62939453125e-06 59.99991989135742 C -7.62939453125e-06 26.86288452148438 26.86287689208984 -7.62939453125e-06 59.99993515014648 -7.62939453125e-06 Z" stroke="none" fill="#fff"/>
                </g>
              </g>
              <g id="Rect치ngulo_400907" data-name="Rect치ngulo 400907" transform="translate(0)" fill="none" stroke="#fff" stroke-width="3">
                <rect width="120" height="120" rx="60" stroke="none"/>
                <rect x="1.5" y="1.5" width="117" height="117" rx="58.5" fill="none"/>
              </g>
            </g>
          </g>
        </g>
      </g>
    </g>
    <g id="clipboards_792170" transform="translate(1240.238 933.188)">
      <path id="Trazado_1032209" data-name="Trazado 1032209" d="M18.913,64H15a5,5,0,0,0-5,5v44.769a5,5,0,0,0,5,5H53.018a5,5,0,0,0,5-5V69a5,5,0,0,0-5-5H49.173" transform="translate(-8.749 -55.997)" fill="#4dbaf6"/>
      <g id="Grupo_1199892" data-name="Grupo 1199892" transform="translate(7.251 1.251)">
        <path id="Trazado_1032210" data-name="Trazado 1032210" d="M61.989,98h-4v44.365H94V98H61.989Z" transform="translate(-57.986 -86.995)" fill="#edf2fa"/>
        <path id="Trazado_1032211" data-name="Trazado 1032211" d="M109.561,22.255h8.451V16.5a2.5,2.5,0,0,0-2.5-2.5h-7.5a4,4,0,1,0-8,0H92.5A2.5,2.5,0,0,0,90,16.5v5.752h19.561Z" transform="translate(-85.997 -10)" fill="#edf2fa"/>
      </g>
      <path id="Trazado_1032212" data-name="Trazado 1032212" d="M438.518,10h-4.283A2.235,2.235,0,0,0,432,12.235V61.021l4.377,10.5,4.377-10.5V12.235A2.235,2.235,0,0,0,438.518,10Z" transform="translate(-377.977 -8.749)" fill="#ffb954"/>
      <path id="Trazado_1032213" data-name="Trazado 1032213" d="M440.754,418H432l4.377,10.5Z" transform="translate(-377.977 -365.728)" fill="#b3b6c3"/>
      <rect id="Rect치ngulo_408709" data-name="Rect치ngulo 408709" width="8.508" height="4.581" transform="translate(54.264 9.108)" fill="#edf2fa"/>
      <path id="Trazado_1032214" data-name="Trazado 1032214" d="M438.518,10h-4.283A2.235,2.235,0,0,0,432,12.235V18h8.754V12.235A2.235,2.235,0,0,0,438.518,10Z" transform="translate(-377.977 -8.749)" fill="#ff5d5d"/>
      <path id="Trazado_1032215" data-name="Trazado 1032215" d="M44.269,6.753H40.424l-.043,0A3.758,3.758,0,0,0,36.765,4h-6.4a5.253,5.253,0,0,0-10.2,0h-6.4a3.758,3.758,0,0,0-3.615,2.751H6.253A6.26,6.26,0,0,0,0,13.005V57.774a6.26,6.26,0,0,0,6.253,6.253H44.269a6.26,6.26,0,0,0,6.253-6.253V13.005A6.26,6.26,0,0,0,44.269,6.753Zm-33.014,8H39.266a1.251,1.251,0,0,0,1.251-1.251h1.5V55.37H8.5V13.506H10A1.251,1.251,0,0,0,11.255,14.756Zm1.251-7A1.252,1.252,0,0,1,13.756,6.5h7.5a1.251,1.251,0,0,0,1.251-1.251,2.751,2.751,0,1,1,5.5,0A1.251,1.251,0,0,0,29.262,6.5h7.5a1.252,1.252,0,0,1,1.251,1.251v4.5H12.505ZM48.02,57.774a3.756,3.756,0,0,1-3.752,3.752H6.253A3.756,3.756,0,0,1,2.5,57.774V13.005A3.756,3.756,0,0,1,6.253,9.254H10V11H7.251A1.251,1.251,0,0,0,6,12.255V56.62a1.251,1.251,0,0,0,1.251,1.251H43.268a1.251,1.251,0,0,0,1.251-1.251V12.255A1.251,1.251,0,0,0,43.268,11H40.517V9.254h3.752a3.756,3.756,0,0,1,3.752,3.752Z"/>
      <path id="Trazado_1032216" data-name="Trazado 1032216" d="M429.769,0h-4.283A3.49,3.49,0,0,0,422,3.486V52.272a1.25,1.25,0,0,0,.1.481l4.377,10.5a1.25,1.25,0,0,0,2.309,0l4.377-10.5a1.25,1.25,0,0,0,.1-.481V3.486A3.49,3.49,0,0,0,429.769,0ZM424.5,51.021V14.756h1.876V27.595a1.251,1.251,0,0,0,2.5,0V14.756h1.876V51.021Zm0-38.766V10.5h6.253v1.751Zm.985-9.754h4.283a.986.986,0,0,1,.985.985V8H424.5V3.486A.986.986,0,0,1,425.486,2.5Zm2.142,57.024-2.5-6h5Z" transform="translate(-369.228)"/>
      <path id="Trazado_1032217" data-name="Trazado 1032217" d="M458.251,253.64a1.251,1.251,0,1,0,.884.366A1.26,1.26,0,0,0,458.251,253.64Z" transform="translate(-399.851 -221.922)"/>
      <path id="Trazado_1032218" data-name="Trazado 1032218" d="M114.032,204.5H133.79a1.251,1.251,0,0,0,0-2.5H114.032a1.251,1.251,0,0,0,0,2.5Z" transform="translate(-98.677 -176.739)"/>
      <path id="Trazado_1032219" data-name="Trazado 1032219" d="M114.032,256.5h19.811a1.251,1.251,0,1,0,0-2.5H114.032a1.251,1.251,0,0,0,0,2.5Z" transform="translate(-98.677 -222.237)"/>
      <path id="Trazado_1032220" data-name="Trazado 1032220" d="M114.032,152.5h19.705a1.251,1.251,0,0,0,0-2.5H114.032a1.251,1.251,0,0,0,0,2.5Z" transform="translate(-98.677 -131.242)"/>
      <path id="Trazado_1032221" data-name="Trazado 1032221" d="M203.1,368h-9.852a1.251,1.251,0,1,0,0,2.5H203.1a1.251,1.251,0,1,0,0-2.5Z" transform="translate(-167.99 -321.981)"/>
      <path id="Trazado_1032222" data-name="Trazado 1032222" d="M272.451,306a1.251,1.251,0,1,0,.885.366A1.254,1.254,0,0,0,272.451,306Z" transform="translate(-237.286 -267.734)"/>
      <path id="Trazado_1032223" data-name="Trazado 1032223" d="M114.032,308.5h14.112a1.251,1.251,0,1,0,0-2.5H114.032a1.251,1.251,0,1,0,0,2.5Z" transform="translate(-98.677 -267.734)"/>
      <path id="Trazado_1032224" data-name="Trazado 1032224" d="M193.251,65.17a1.251,1.251,0,1,0,.884.366A1.26,1.26,0,0,0,193.251,65.17Z" transform="translate(-167.99 -57.02)"/>
    </g>
  </g>
</svg>
