<svg xmlns="http://www.w3.org/2000/svg" xmlns:xlink="http://www.w3.org/1999/xlink" width="99.447" height="99.447" viewBox="0 0 99.447 99.447">
  <defs>
    <filter id="Trazado_896985" x="0" y="0" width="99.447" height="99.447" filterUnits="userSpaceOnUse">
      <feOffset dy="3" input="SourceAlpha"/>
      <feGaussianBlur stdDeviation="3" result="blur"/>
      <feFlood flood-opacity="0.161"/>
      <feComposite operator="in" in2="blur"/>
      <feComposite in="SourceGraphic"/>
    </filter>
  </defs>
  <g id="Grupo_1199941" data-name="Grupo 1199941" transform="translate(-194.553 -2757.228)">
    <g id="Grupo_1199734" data-name="Grupo 1199734" transform="translate(203.553 2763.228)">
      <g id="Grupo_1198723" data-name="Grupo 1198723" transform="translate(0 0)">
        <g id="Grupo_1198139" data-name="Grupo 1198139" transform="translate(0)">
          <g id="Grupo_1111318" data-name="Grupo 1111318" transform="translate(0)">
            <g id="Grupo_1109826" data-name="Grupo 1109826">
              <g id="Grupo_1098742" data-name="Grupo 1098742">
                <g transform="matrix(1, 0, 0, 1, -9, -6)" filter="url(#Trazado_896985)">
                  <g id="Trazado_896985-2" data-name="Trazado 896985" transform="translate(9 6)" fill="#ef8c1a" opacity="0.859">
                    <path d="M 40.72351455688477 80.94712829589844 C 35.29315948486328 80.94712829589844 30.02549171447754 79.88369750976562 25.06685829162598 77.786376953125 C 20.27713584899902 75.76048278808594 15.97541427612305 72.86015319824219 12.28119277954102 69.16593933105469 C 8.586980819702148 65.47171783447266 5.686647891998291 61.16999816894531 3.660758972167969 56.38027572631836 C 1.56343674659729 51.4216423034668 0.500003457069397 46.15397644042969 0.500003457069397 40.7236213684082 C 0.500003457069397 35.29315185546875 1.56343674659729 30.02549743652344 3.660758972167969 25.06686401367188 C 5.686647891998291 20.27713012695312 8.586980819702148 15.97540855407715 12.28119277954102 12.2811975479126 C 15.97541427612305 8.58697509765625 20.27713584899902 5.686641693115234 25.06685829162598 3.660753011703491 C 30.02549171447754 1.563430786132812 35.29315948486328 0.499997466802597 40.72351455688477 0.499997466802597 C 46.15386962890625 0.499997466802597 51.42153549194336 1.563430786132812 56.38016891479492 3.660753011703491 C 61.16989135742188 5.686641693115234 65.47161102294922 8.58697509765625 69.16584014892578 12.2811975479126 C 72.86004638671875 15.97540855407715 75.76038360595703 20.27713012695312 77.78627014160156 25.06686401367188 C 79.88359069824219 30.02549743652344 80.94702911376953 35.29315185546875 80.94702911376953 40.72350692749023 C 80.94702911376953 46.15397644042969 79.88359069824219 51.4216423034668 77.78627014160156 56.38027572631836 C 75.76038360595703 61.16999816894531 72.86004638671875 65.47171783447266 69.16584014892578 69.16593933105469 C 65.47161102294922 72.86015319824219 61.16989135742188 75.76048278808594 56.38016891479492 77.786376953125 C 51.42153549194336 79.88369750976562 46.15386962890625 80.94712829589844 40.72351455688477 80.94712829589844 Z" stroke="none"/>
                    <path d="M 40.72351455688477 1 C 35.36043548583984 1 30.15830230712891 2.050140380859375 25.26163864135742 4.121253967285156 C 20.53150177001953 6.121932983398438 16.28321075439453 8.986289978027344 12.63475036621094 12.63474273681641 C 8.986289978027344 16.28321075439453 6.121932983398438 20.53149795532227 4.121261596679688 25.26163101196289 C 2.050148010253906 30.15829849243164 1 35.36043167114258 1 40.7236213684082 C 1 46.08669662475586 2.050148010253906 51.28883361816406 4.121261596679688 56.18549728393555 C 6.121932983398438 60.91563034057617 8.986289978027344 65.16391754150391 12.63475036621094 68.81238555908203 C 16.28321075439453 72.46084594726562 20.53150177001953 75.3251953125 25.26163864135742 77.32587432861328 C 30.15830230712891 79.39698791503906 35.36043548583984 80.44712829589844 40.72351455688477 80.44712829589844 C 46.08659362792969 80.44712829589844 51.28872680664062 79.39698791503906 56.18539428710938 77.32587432861328 C 60.91552734375 75.3251953125 65.163818359375 72.46084594726562 68.81227874755859 68.81238555908203 C 72.46073913574219 65.16391754150391 75.32508850097656 60.91563034057617 77.32576751708984 56.18549728393555 C 79.39688110351562 51.28883361816406 80.44702911376953 46.08669662475586 80.44702911376953 40.72350692749023 C 80.44702911376953 35.36043167114258 79.39688110351562 30.15829849243164 77.32576751708984 25.26163101196289 C 75.32508850097656 20.53149795532227 72.46073913574219 16.28321075439453 68.81227874755859 12.63474273681641 C 65.163818359375 8.986289978027344 60.91552734375 6.121932983398438 56.18539428710938 4.121253967285156 C 51.28872680664062 2.050140380859375 46.08659362792969 1 40.72351455688477 1 M 40.72351455688477 0 C 63.21449279785156 0 81.44702911376953 18.2325325012207 81.44702911376953 40.72350692749023 L 81.44702911376953 40.7236213684082 C 81.44702911376953 63.214599609375 63.21449279785156 81.44712829589844 40.72351455688477 81.44712829589844 C 18.23253631591797 81.44712829589844 0 63.214599609375 0 40.7236213684082 L 0 40.72350692749023 C 0 18.2325325012207 18.23253631591797 0 40.72351455688477 0 Z" stroke="none" fill="#fff"/>
                  </g>
                </g>
                <g id="Rectángulo_400907" data-name="Rectángulo 400907" transform="translate(0)" fill="none" stroke="#fff" stroke-width="1">
                  <rect width="81.447" height="81.447" rx="40.724" stroke="none"/>
                  <rect x="0.5" y="0.5" width="80.447" height="80.447" rx="40.224" fill="none"/>
                </g>
              </g>
            </g>
          </g>
        </g>
      </g>
    </g>
    <g id="environmental-control_18455612_1_" data-name="environmental-control_18455612 (1)" transform="translate(183.915 2777.961)">
      <g id="Grupo_1199940" data-name="Grupo 1199940" transform="translate(39.06 0.804)">
        <path id="Trazado_1032520" data-name="Trazado 1032520" d="M164.75,8c-.86,2.068-4,8.159-3.783,10.954.226,2.94,1.97,4.043,3.783,4.233,1.811-.19,3.555-1.294,3.781-4.233.215-2.795-2.923-8.887-3.781-10.954Z" transform="translate(-149.307 -8)" fill="#70da40" fill-rule="evenodd"/>
        <path id="Trazado_1032521" data-name="Trazado 1032521" d="M279.43,8c-.858,2.068-4,8.159-3.783,10.954.23,2.94,1.972,4.043,3.783,4.233,1.811-.19,3.558-1.294,3.783-4.233.216-2.795-2.922-8.887-3.783-10.954Z" transform="translate(-252.34 -8)" fill="#70da40" fill-rule="evenodd"/>
        <path id="Trazado_1032522" data-name="Trazado 1032522" d="M50.05,8c-.858,2.068-4,8.159-3.783,10.954.23,2.94,1.973,4.043,3.783,4.233,1.811-.19,3.558-1.294,3.783-4.233C54.048,16.159,50.91,10.068,50.05,8Z" transform="translate(-46.256 -8)" fill="#70da40" fill-rule="evenodd"/>
        <path id="Trazado_1032523" data-name="Trazado 1032523" d="M77.749,226.71a15.365,15.365,0,1,1-30.729,0Z" transform="translate(-46.942 -204.497)" fill="#0593fc" fill-rule="evenodd"/>
        <path id="Trazado_1032524" data-name="Trazado 1032524" d="M66.233,268.856a15.428,15.428,0,0,1-6.953-7.526c3.44-3.817,3.761-2.9,8.526-2.266,6.953.614,4.72,4.65.447,7.386A4.971,4.971,0,0,0,66.233,268.856Z" transform="translate(-57.957 -233.049)" fill="#70da40" fill-rule="evenodd"/>
        <path id="Trazado_1032525" data-name="Trazado 1032525" d="M216.458,226.7a15.33,15.33,0,0,1-5.094,11.429,38.5,38.5,0,0,1-1.461-5.469c-.187-1.031.017-1.945-1.1-2.247-.83-.223-1.33.431-2.149.737-1.109.413-5.477-2.47-5.24-4.451h15.04Z" transform="translate(-185.651 -204.488)" fill="#70da40" fill-rule="evenodd"/>
        <path id="Trazado_1032526" data-name="Trazado 1032526" d="M275.738,204.12h15.489a1.464,1.464,0,0,1,1.461,1.458v12.446a1.464,1.464,0,0,1-1.461,1.458H275.738a1.463,1.463,0,0,1-1.458-1.458V205.578A1.464,1.464,0,0,1,275.738,204.12Z" transform="translate(-251.122 -184.202)" fill="#daeafa" fill-rule="evenodd"/>
        <path id="Trazado_1032527" data-name="Trazado 1032527" d="M332.792,322.46a1.23,1.23,0,0,1,1.227,1.227v3.244a1.225,1.225,0,0,1,2.451,0v1.417a1.227,1.227,0,0,1,2.454,0v1.3a1.225,1.225,0,0,1,2.451,0V338l-1.422,2.9H331.5v-1.64l-3.974-6.88a1.623,1.623,0,1,1,2.811-1.624l1.23,2.127v-9.193A1.227,1.227,0,0,1,332.792,322.46Z" transform="translate(-298.769 -290.523)" fill="#fbbd80" fill-rule="evenodd"/>
        <path id="Trazado_1032528" data-name="Trazado 1032528" d="M367.28,294.51h2.842v2.839H367.28Z" transform="translate(-334.676 -265.412)" fill="#ff4646" fill-rule="evenodd"/>
        <path id="Trazado_1032529" data-name="Trazado 1032529" d="M367.28,237.03h2.842v2.842H367.28Z" transform="translate(-334.676 -213.769)" fill="#ff4646" fill-rule="evenodd"/>
        <path id="Trazado_1032530" data-name="Trazado 1032530" d="M63.866,242.013c-.489.048-.986.073-1.49.073A15.366,15.366,0,0,1,47.01,226.72h2.982A15.368,15.368,0,0,0,63.866,242.013Z" transform="translate(-46.933 -204.506)" fill="#0584e3" fill-rule="evenodd"/>
        <path id="Trazado_1032531" data-name="Trazado 1032531" d="M67.06,273.634a15.378,15.378,0,0,1-5.538-8.294,14.755,14.755,0,0,0-2.241,2.146,15.428,15.428,0,0,0,6.953,7.526A7.42,7.42,0,0,1,67.06,273.634Z" transform="translate(-57.957 -239.204)" fill="#65c43a" fill-rule="evenodd"/>
        <path id="Trazado_1032532" data-name="Trazado 1032532" d="M47.853,18.954c-.171-2.208,1.749-6.469,2.99-9.183-.33-.723-.612-1.339-.793-1.771-.858,2.068-4,8.159-3.783,10.954.193,2.5,1.479,3.666,2.971,4.083v-.852A4.643,4.643,0,0,1,47.853,18.954Z" transform="translate(-46.256 -8)" fill="#65c43a" fill-rule="evenodd"/>
        <path id="Trazado_1032533" data-name="Trazado 1032533" d="M164.75,8c-.86,2.068-4,8.159-3.783,10.954.193,2.5,1.479,3.666,2.971,4.083v-.852a4.635,4.635,0,0,1-1.386-3.231c-.171-2.208,1.752-6.469,2.99-9.182-.33-.724-.612-1.34-.791-1.772Z" transform="translate(-149.307 -8)" fill="#65c43a" fill-rule="evenodd"/>
        <path id="Trazado_1032534" data-name="Trazado 1032534" d="M279.43,8c-.858,2.068-4,8.159-3.783,10.954.193,2.5,1.478,3.666,2.971,4.083v-.852a4.643,4.643,0,0,1-1.383-3.231c-.171-2.208,1.749-6.469,2.99-9.182-.33-.724-.612-1.34-.794-1.772Z" transform="translate(-252.34 -8)" fill="#65c43a" fill-rule="evenodd"/>
        <path id="Trazado_1032535" data-name="Trazado 1032535" d="M276.051,215.317v-9.739a1.465,1.465,0,0,1,1.347-1.455c.04,0,.075,0,.115,0h-1.774a1.463,1.463,0,0,0-1.458,1.458v12.447a1.46,1.46,0,0,0,1.459,1.458h1.774a1.465,1.465,0,0,1-1.4-1.034,1.426,1.426,0,0,1-.064-.425v-2.709Z" transform="translate(-251.122 -184.202)" fill="#c4d3e1" fill-rule="evenodd"/>
        <path id="Trazado_1032536" data-name="Trazado 1032536" d="M368.127,239.872V237.03h-.847v2.842Z" transform="translate(-334.676 -213.769)" fill="#e63f3f" fill-rule="evenodd"/>
        <path id="Trazado_1032537" data-name="Trazado 1032537" d="M368.127,294.51h-.847v2.839h.847Z" transform="translate(-334.676 -265.412)" fill="#e63f3f" fill-rule="evenodd"/>
      </g>
      <path id="Trazado_1032538" data-name="Trazado 1032538" d="M80.437,37.9a2.01,2.01,0,0,0-.522.068,2.042,2.042,0,0,0-.856-1.066h.1a2.277,2.277,0,0,0,2.276-2.273V22.182a2.277,2.277,0,0,0-2.276-2.273h-12.2V16.681c2.214-.513,3.578-2.248,3.78-4.86.19-2.459-1.811-6.843-3.135-9.744-.292-.641-.545-1.2-.707-1.584a.813.813,0,0,0-1.5,0c-.16.385-.409.931-.7,1.564-1.328,2.907-3.334,7.3-3.144,9.765.2,2.613,1.566,4.348,3.78,4.86v3.229h-1.66A2.276,2.276,0,0,0,61.4,22.182V22.2h-6.09V16.68c2.214-.513,3.579-2.248,3.78-4.86.19-2.459-1.811-6.843-3.135-9.744-.292-.641-.545-1.2-.707-1.584a.813.813,0,0,0-1.5,0c-.16.385-.409.931-.7,1.564-1.328,2.907-3.334,7.3-3.144,9.765.2,2.613,1.566,4.348,3.78,4.86V22.2H43.666V16.68c2.214-.513,3.578-2.248,3.78-4.861.188-2.459-1.813-6.844-3.137-9.746-.291-.639-.543-1.192-.7-1.581a.813.813,0,0,0-1.5,0c-.16.385-.409.931-.7,1.564-1.328,2.908-3.335,7.3-3.145,9.764.2,2.613,1.564,4.349,3.78,4.861V22.2h-2.9a.813.813,0,0,0-.814.814,16.1,16.1,0,0,0,1.279,6.3.813.813,0,0,0,.082.188A16.279,16.279,0,0,0,46.9,37.294a.811.811,0,0,0,.087.05l.028.012a16.162,16.162,0,0,0,15.975-.564,2.278,2.278,0,0,0,.69.108h7.365v3.326a2.436,2.436,0,0,0-3.927,2.84l3.864,6.692v1.421a.813.813,0,0,0,.814.814h8.45a.815.815,0,0,0,.73-.455l1.422-2.9a.814.814,0,0,0,.083-.359V39.938A2.042,2.042,0,0,0,80.437,37.9Zm-17.26-26.2c-.156-2.027,1.861-6.464,2.972-8.9,1.106,2.423,3.129,6.871,2.973,8.9-.135,1.749-.861,2.852-2.159,3.294V9.731a.814.814,0,1,0-1.627,0v5.258c-1.3-.443-2.023-1.545-2.158-3.294Zm-23.3,0c-.156-2.027,1.861-6.464,2.972-8.9,1.106,2.424,3.127,6.871,2.973,8.9-.135,1.749-.861,2.852-2.159,3.294V9.731a.814.814,0,1,0-1.627,0V14.99c-1.3-.443-2.024-1.545-2.158-3.295ZM61.4,23.831v2.1a3.688,3.688,0,0,0-1.017.463,4.116,4.116,0,0,1-.578.3,6.8,6.8,0,0,1-3.215-1.933,4.65,4.65,0,0,1-.741-.932ZM51.529,11.695C51.373,9.668,53.39,5.231,54.5,2.8c1.106,2.423,3.129,6.871,2.973,8.9-.135,1.749-.861,2.852-2.159,3.294V9.731a.814.814,0,1,0-1.627,0v5.258C52.391,14.547,51.664,13.444,51.529,11.695ZM41.346,29.236c2.254-2.453,2.715-2.378,5.4-1.925.588.1,1.255.212,2.054.318l.036,0c2.154.19,3.5.745,3.691,1.525.255,1.041-1.218,2.825-3.584,4.347a5.089,5.089,0,0,0-1.934,1.983,14.649,14.649,0,0,1-5.663-6.253Zm7.1,7.016a3.379,3.379,0,0,1,1.283-1.324l.059-.035c3.148-2.014,4.761-4.3,4.314-6.121-.383-1.561-2.1-2.488-5.11-2.756-.763-.1-1.409-.211-1.979-.307-2.882-.486-3.964-.538-6.336,1.871a14.482,14.482,0,0,1-.71-3.748H54.092a6.293,6.293,0,0,0,2.225,2.859c.236.186,2.115,1.63,3.495,1.629a1.515,1.515,0,0,0,.535-.089,5.283,5.283,0,0,0,.866-.439c.069-.042.131-.077.187-.109v6.945a2.26,2.26,0,0,0,.262,1.057,14.54,14.54,0,0,1-13.213.567Zm15.226-.978a.647.647,0,0,1-.646-.646V22.182a.646.646,0,0,1,.646-.646H79.164a.656.656,0,0,1,.649.646V34.628a.656.656,0,0,1-.649.646H76.144a2.027,2.027,0,0,0-.611-.1,1.989,1.989,0,0,0-.413.043V33.967a2.036,2.036,0,0,0-.091-.6.812.812,0,0,0,.287-.62v-.609h2.6a.814.814,0,1,0,0-1.627h-2.6V29.9a.813.813,0,0,0-.814-.814H71.66a.813.813,0,0,0-.814.814v.606H64.924a.814.814,0,0,0,0,1.627h5.923v.609a.809.809,0,0,0,.285.617,2.029,2.029,0,0,0-.092.606v1.306H63.676Zm8.8-3.342V30.716h1.215v1.215Zm8.375,16.162-1.116,2.272H72.6v-.825a.811.811,0,0,0-.109-.406l-3.972-6.88a.811.811,0,0,1,.3-1.107.82.82,0,0,1,1.1.3l1.227,2.128a.813.813,0,0,0,1.518-.406V36.146c0-.019,0-.038,0-.057s0-.039,0-.057V33.97a.417.417,0,0,1,.413-.41.412.412,0,0,1,.413.41v6.889a.814.814,0,0,0,1.627,0V37.221a.413.413,0,1,1,.827,0V42.28a.814.814,0,1,0,1.627,0V38.635a.412.412,0,0,1,.413-.41.417.417,0,0,1,.413.41v4.946a.814.814,0,1,0,1.627,0V39.939a.412.412,0,1,1,.824,0v8.151ZM64.926,26.3h5.923v.606a.813.813,0,0,0,.814.814H74.5a.813.813,0,0,0,.814-.814V26.3h2.6a.814.814,0,1,0,0-1.627h-2.6v-.606a.813.813,0,0,0-.814-.814H71.662a.813.813,0,0,0-.814.814v.606H64.926a.814.814,0,1,0,0,1.627Zm7.55-1.42h1.215v1.212H72.476Z" transform="translate(0 0)"/>
    </g>
  </g>
</svg>
