<svg xmlns="http://www.w3.org/2000/svg" xmlns:xlink="http://www.w3.org/1999/xlink" width="99.447" height="99.447" viewBox="0 0 99.447 99.447">
  <defs>
    <filter id="Trazado_896985" x="0" y="0" width="99.447" height="99.447" filterUnits="userSpaceOnUse">
      <feOffset dy="3" input="SourceAlpha"/>
      <feGaussianBlur stdDeviation="3" result="blur"/>
      <feFlood flood-opacity="0.161"/>
      <feComposite operator="in" in2="blur"/>
      <feComposite in="SourceGraphic"/>
    </filter>
  </defs>
  <g id="Grupo_1199958" data-name="Grupo 1199958" transform="translate(-1034.553 -2757.228)">
    <g id="Grupo_1199827" data-name="Grupo 1199827" transform="translate(1043.553 2763.228)">
      <g id="Grupo_1198723" data-name="Grupo 1198723" transform="translate(0 0)">
        <g id="Grupo_1198139" data-name="Grupo 1198139" transform="translate(0)">
          <g id="Grupo_1111318" data-name="Grupo 1111318" transform="translate(0)">
            <g id="Grupo_1109826" data-name="Grupo 1109826">
              <g id="Grupo_1098742" data-name="Grupo 1098742">
                <g transform="matrix(1, 0, 0, 1, -9, -6)" filter="url(#Trazado_896985)">
                  <g id="Trazado_896985-2" data-name="Trazado 896985" transform="translate(9 6)" fill="#ef8c1a" opacity="0.859">
                    <path d="M 40.72351455688477 80.94712829589844 C 35.29315948486328 80.94712829589844 30.02549171447754 79.88369750976562 25.06685829162598 77.786376953125 C 20.27713584899902 75.76048278808594 15.97541427612305 72.86015319824219 12.28119277954102 69.16593933105469 C 8.586980819702148 65.47171783447266 5.686647891998291 61.16999816894531 3.660758972167969 56.38027572631836 C 1.56343674659729 51.4216423034668 0.500003457069397 46.15397644042969 0.500003457069397 40.7236213684082 C 0.500003457069397 35.29315185546875 1.56343674659729 30.02549743652344 3.660758972167969 25.06686401367188 C 5.686647891998291 20.27713012695312 8.586980819702148 15.97540855407715 12.28119277954102 12.2811975479126 C 15.97541427612305 8.58697509765625 20.27713584899902 5.686641693115234 25.06685829162598 3.660753011703491 C 30.02549171447754 1.563430786132812 35.29315948486328 0.499997466802597 40.72351455688477 0.499997466802597 C 46.15386962890625 0.499997466802597 51.42153549194336 1.563430786132812 56.38016891479492 3.660753011703491 C 61.16989135742188 5.686641693115234 65.47161102294922 8.58697509765625 69.16584014892578 12.2811975479126 C 72.86004638671875 15.97540855407715 75.76038360595703 20.27713012695312 77.78627014160156 25.06686401367188 C 79.88359069824219 30.02549743652344 80.94702911376953 35.29315185546875 80.94702911376953 40.72350692749023 C 80.94702911376953 46.15397644042969 79.88359069824219 51.4216423034668 77.78627014160156 56.38027572631836 C 75.76038360595703 61.16999816894531 72.86004638671875 65.47171783447266 69.16584014892578 69.16593933105469 C 65.47161102294922 72.86015319824219 61.16989135742188 75.76048278808594 56.38016891479492 77.786376953125 C 51.42153549194336 79.88369750976562 46.15386962890625 80.94712829589844 40.72351455688477 80.94712829589844 Z" stroke="none"/>
                    <path d="M 40.72351455688477 1 C 35.36043548583984 1 30.15830230712891 2.050140380859375 25.26163864135742 4.121253967285156 C 20.53150177001953 6.121932983398438 16.28321075439453 8.986289978027344 12.63475036621094 12.63474273681641 C 8.986289978027344 16.28321075439453 6.121932983398438 20.53149795532227 4.121261596679688 25.26163101196289 C 2.050148010253906 30.15829849243164 1 35.36043167114258 1 40.7236213684082 C 1 46.08669662475586 2.050148010253906 51.28883361816406 4.121261596679688 56.18549728393555 C 6.121932983398438 60.91563034057617 8.986289978027344 65.16391754150391 12.63475036621094 68.81238555908203 C 16.28321075439453 72.46084594726562 20.53150177001953 75.3251953125 25.26163864135742 77.32587432861328 C 30.15830230712891 79.39698791503906 35.36043548583984 80.44712829589844 40.72351455688477 80.44712829589844 C 46.08659362792969 80.44712829589844 51.28872680664062 79.39698791503906 56.18539428710938 77.32587432861328 C 60.91552734375 75.3251953125 65.163818359375 72.46084594726562 68.81227874755859 68.81238555908203 C 72.46073913574219 65.16391754150391 75.32508850097656 60.91563034057617 77.32576751708984 56.18549728393555 C 79.39688110351562 51.28883361816406 80.44702911376953 46.08669662475586 80.44702911376953 40.72350692749023 C 80.44702911376953 35.36043167114258 79.39688110351562 30.15829849243164 77.32576751708984 25.26163101196289 C 75.32508850097656 20.53149795532227 72.46073913574219 16.28321075439453 68.81227874755859 12.63474273681641 C 65.163818359375 8.986289978027344 60.91552734375 6.121932983398438 56.18539428710938 4.121253967285156 C 51.28872680664062 2.050140380859375 46.08659362792969 1 40.72351455688477 1 M 40.72351455688477 0 C 63.21449279785156 0 81.44702911376953 18.2325325012207 81.44702911376953 40.72350692749023 L 81.44702911376953 40.7236213684082 C 81.44702911376953 63.214599609375 63.21449279785156 81.44712829589844 40.72351455688477 81.44712829589844 C 18.23253631591797 81.44712829589844 0 63.214599609375 0 40.7236213684082 L 0 40.72350692749023 C 0 18.2325325012207 18.23253631591797 0 40.72351455688477 0 Z" stroke="none" fill="#fff"/>
                  </g>
                </g>
                <g id="Rectángulo_400907" data-name="Rectángulo 400907" transform="translate(0)" fill="none" stroke="#fff" stroke-width="1">
                  <rect width="81.447" height="81.447" rx="40.724" stroke="none"/>
                  <rect x="0.5" y="0.5" width="80.447" height="80.447" rx="40.224" fill="none"/>
                </g>
              </g>
            </g>
          </g>
        </g>
      </g>
    </g>
    <g id="environment_3994361" transform="translate(1056.988 2776.433)">
      <g id="Grupo_1199956" data-name="Grupo 1199956" transform="translate(0.888 0.888)">
        <g id="Grupo_1199944" data-name="Grupo 1199944" transform="translate(32.339 46.16)">
          <path id="Trazado_1032562" data-name="Trazado 1032562" d="M50.87,53.1l-1.11,5.575A1.776,1.776,0,0,1,48.02,60.1H40.279a1.776,1.776,0,0,1-1.74-1.429l-.364-1.838L37.43,53.1l.506-.1H50.364Z" transform="translate(-37.43 -53)" fill="#ccd1d9"/>
        </g>
        <g id="Grupo_1199945" data-name="Grupo 1199945" transform="translate(31.957 42.609)">
          <path id="Trazado_1032563" data-name="Trazado 1032563" d="M37.036,50.935a1.307,1.307,0,0,1-.036-.32A1.61,1.61,0,0,1,38.616,49H49.588A1.61,1.61,0,0,1,51.2,50.616a1.307,1.307,0,0,1-.036.32l-.346,1.713-.506-.1H37.888l-.506.1Z" transform="translate(-37 -49)" fill="#aab2bd"/>
        </g>
        <g id="Grupo_1199946" data-name="Grupo 1199946" transform="translate(39.059 31.957)">
          <path id="Trazado_1032564" data-name="Trazado 1032564" d="M48.213,43.7,45,44.1V42.237a4.442,4.442,0,0,1,3.364-4.305L52.1,37v2.3a4.445,4.445,0,0,1-3.888,4.4Z" transform="translate(-45 -37)" fill="#b4dd7f"/>
        </g>
        <g id="Grupo_1199947" data-name="Grupo 1199947" transform="translate(31.957 31.957)">
          <path id="Trazado_1032565" data-name="Trazado 1032565" d="M44.1,42.237V44.1l-3.213-.4A4.445,4.445,0,0,1,37,39.3V37l3.737.932A4.442,4.442,0,0,1,44.1,42.237Z" transform="translate(-37 -37)" fill="#b4dd7f"/>
        </g>
        <g id="Grupo_1199948" data-name="Grupo 1199948" transform="translate(24.855)">
          <circle id="Elipse_12188" data-name="Elipse 12188" cx="14.5" cy="14.5" r="14.5" transform="translate(-0.225 -0.369)" fill="#69d6f4"/>
        </g>
        <g id="Grupo_1199949" data-name="Grupo 1199949" transform="translate(35.508 18.642)">
          <path id="Trazado_1032566" data-name="Trazado 1032566" d="M44.551,34.428,43.5,33.647a6.278,6.278,0,0,1-1.811-2.175c-.009-.018-.018-.027-.027-.044a6.151,6.151,0,0,1-.666-2.8,6.254,6.254,0,0,1,1.376-3.906L44.551,22l2.175,2.725a6.237,6.237,0,0,1,.692,6.746,6.4,6.4,0,0,1-1.82,2.175Z" transform="translate(-41 -22)" fill="#b4dd7f"/>
        </g>
        <g id="Grupo_1199950" data-name="Grupo 1199950" transform="translate(0 8.877)">
          <path id="Trazado_1032567" data-name="Trazado 1032567" d="M9.877,18.1a3.55,3.55,0,0,0-3.551,3.551v8.877A7.1,7.1,0,0,0,12.9,37.613v.036c-.124-.009-.24-.018-.364-.018a3.55,3.55,0,0,0-3.551,3.551v5.326A7.99,7.99,0,0,1,1,38.519V21.652A10.649,10.649,0,0,1,11.652,11h7.1a10.612,10.612,0,0,1,7.306,2.894V13.9a10.61,10.61,0,0,1,3.347,7.75V38.519a7.99,7.99,0,0,1-7.989,7.989h-.178l.444-.737a4.376,4.376,0,0,0-1.323-5.885l-3.382-2.255a7.1,7.1,0,0,0,7.1-7.1v-7.1a3.55,3.55,0,0,0-3.551-3.551H11.652A1.781,1.781,0,0,1,9.877,18.1Z" transform="translate(-1 -11)" fill="#656d78"/>
        </g>
        <g id="Grupo_1199951" data-name="Grupo 1199951" transform="translate(11.904 35.49)">
          <path id="Trazado_1032568" data-name="Trazado 1032568" d="M18.485,41l3.382,2.255a4.376,4.376,0,0,1,1.323,5.885l-.444.737-1.5,2.5L17.6,51.65v-7.1a3.573,3.573,0,0,0-1.039-2.512,4.1,4.1,0,0,0-2.148-1.021V40.98c.169.009.346.018.524.018Z" transform="translate(-14.41 -40.98)" fill="#ff826e"/>
        </g>
        <g id="Grupo_1199952" data-name="Grupo 1199952" transform="translate(7.989 35.508)">
          <path id="Trazado_1032569" data-name="Trazado 1032569" d="M17.1,44.551V48.1H10V44.551A3.55,3.55,0,0,1,13.551,41c.124,0,.24.009.364.018a4.1,4.1,0,0,1,2.148,1.021A3.573,3.573,0,0,1,17.1,44.551Z" transform="translate(-10 -41)" fill="#ff826e"/>
        </g>
        <g id="Grupo_1199953" data-name="Grupo 1199953" transform="translate(7.989 42.609)">
          <path id="Trazado_1032570" data-name="Trazado 1032570" d="M17.1,52.551l3.648.728,5.229,1.047L29.227,52.7A1.436,1.436,0,0,1,31.3,53.989v.337h.888a2.667,2.667,0,0,1,2.61,2.122,2.732,2.732,0,0,1,.053.541,2.667,2.667,0,0,1-2.663,2.663H17.1a7.1,7.1,0,0,1-7.1-7.1V49h7.1Z" transform="translate(-10 -49)" fill="#f0d0b4"/>
        </g>
        <g id="Grupo_1199954" data-name="Grupo 1199954" transform="translate(5.326 15.979)">
          <path id="Trazado_1032571" data-name="Trazado 1032571" d="M24.754,24.326v7.1a7.1,7.1,0,0,1-7.1,7.1H14.1c-.178,0-.355-.009-.524-.018A7.1,7.1,0,0,1,7,31.428V22.551A3.55,3.55,0,0,1,10.551,19a1.781,1.781,0,0,0,1.775,1.775H21.2A3.55,3.55,0,0,1,24.754,24.326Z" transform="translate(-7 -19)" fill="#f0d0b4"/>
        </g>
        <g id="Grupo_1199955" data-name="Grupo 1199955" transform="translate(10.652 28.406)">
          <path id="Trazado_1032572" data-name="Trazado 1032572" d="M13,33h7.1A3.551,3.551,0,0,1,13,33Z" transform="translate(-13 -33)" fill="#ff826e"/>
        </g>
      </g>
      <g id="Grupo_1199957" data-name="Grupo 1199957">
        <path id="Trazado_1032573" data-name="Trazado 1032573" d="M11.775,26.663a.888.888,0,0,1,1.775,0v.888h1.775v-.888a2.663,2.663,0,0,0-5.326,0v.888h1.775Z" transform="translate(-1.123 -2.695)"/>
        <path id="Trazado_1032574" data-name="Trazado 1032574" d="M23.326,27.551v-.888a2.663,2.663,0,0,0-5.326,0v.888h1.775v-.888a.888.888,0,0,1,1.775,0v.888Z" transform="translate(-2.021 -2.695)"/>
        <path id="Trazado_1032575" data-name="Trazado 1032575" d="M12,32.888a4.438,4.438,0,0,0,8.877,0V32H12Zm6.95.888a2.664,2.664,0,0,1-5.023,0Z" transform="translate(-1.348 -3.594)"/>
        <path id="Trazado_1032576" data-name="Trazado 1032576" d="M41.525,31.882a7.122,7.122,0,0,0,1.863-2.107A15.087,15.087,0,1,0,25.4,11.081a11.465,11.465,0,0,0-6.756-2.2h-7.1A11.553,11.553,0,0,0,0,20.417V37.283a8.889,8.889,0,0,0,7.989,8.832v.933a8,8,0,0,0,7.989,7.989H31.069a3.529,3.529,0,0,0,2.722-1.3,2.673,2.673,0,0,0,2.285,1.3h7.742a2.669,2.669,0,0,0,2.611-2.14L47.888,45.6a2.609,2.609,0,0,0,.048-.492,2.506,2.506,0,0,0-2.5-2.5h-4.6V40.73l2.436-.3a5.337,5.337,0,0,0,4.666-5.285V31.708l-4.842,1.21a5.305,5.305,0,0,0-2.259,1.2V32.4Zm-.691-1.737V24.855H39.059v5.29a5.36,5.36,0,0,1-.6-7.337l1.486-1.858,1.486,1.858a5.359,5.359,0,0,1-.6,7.336Zm-1.775,8.8-2.216-.277a3.556,3.556,0,0,1-3.11-3.523V33.981l2.637.659a3.548,3.548,0,0,1,2.689,3.446ZM39.946,2a17.459,17.459,0,0,1,5.016,6.873H34.93A17.466,17.466,0,0,1,39.946,2Zm5.621,8.648a16.719,16.719,0,0,1,.593,4.438,16.965,16.965,0,0,1-.588,4.438H41.083l-1.137-1.421-1.137,1.421H34.32a16.965,16.965,0,0,1-.588-4.438,16.719,16.719,0,0,1,.593-4.438ZM42.819,21.7,42.5,21.3h2.477a16.474,16.474,0,0,1-1.1,2.241A7.141,7.141,0,0,0,42.819,21.7ZM32.5,19.529H30.137a11.493,11.493,0,0,0-3.22-7.137,13.389,13.389,0,0,1,.474-1.74h5.1a18.7,18.7,0,0,0-.535,4.438A18.485,18.485,0,0,0,32.5,19.529ZM30.182,21.3H33.03a18.774,18.774,0,0,0,2.483,4.726c0,.044-.005.089-.005.133a7.069,7.069,0,0,0,.174,1.532,13.411,13.411,0,0,1-5.5-3.567Zm6.892.393a7.138,7.138,0,0,0-1.061,1.848,16.525,16.525,0,0,1-1.1-2.241h2.477Zm7.137,6a7.069,7.069,0,0,0,.174-1.532c0-.044,0-.088-.005-.132a18.774,18.774,0,0,0,2.483-4.726H51.7A13.346,13.346,0,0,1,44.211,27.7Zm8.281-8.167h-5.1a18.485,18.485,0,0,0,.548-4.438,18.751,18.751,0,0,0-.534-4.438h5.084a13.126,13.126,0,0,1,.007,8.877ZM51.714,8.877h-4.83a18.767,18.767,0,0,0-4.258-6.831,13.357,13.357,0,0,1,9.088,6.831ZM37.257,2.056a18.775,18.775,0,0,0-4.249,6.821H28.171A13.258,13.258,0,0,1,37.257,2.056ZM1.775,37.283V20.417a9.776,9.776,0,0,1,9.765-9.765h7.1a9.776,9.776,0,0,1,9.765,9.765V37.283a7.113,7.113,0,0,1-5.712,6.963,5.234,5.234,0,0,0-1.956-6.336l-1.486-.991a8,8,0,0,0,5.6-7.625v-7.1a4.444,4.444,0,0,0-4.438-4.438H11.54a.888.888,0,0,1-.888-.888V14.2H8.877v1.865a4.445,4.445,0,0,0-3.551,4.349v8.877a7.991,7.991,0,0,0,4.422,7.138,4.419,4.419,0,0,0-1.759,3.514v4.377A7.108,7.108,0,0,1,1.775,37.283Zm17.409,9.5-2.319-.463V39.946a4.393,4.393,0,0,0-.911-2.663H16.6l3.156,2.1a3.484,3.484,0,0,1,1.055,4.692ZM16.866,35.508H13.315A6.222,6.222,0,0,1,7.1,29.294V20.417a2.668,2.668,0,0,1,1.963-2.57,2.667,2.667,0,0,0,2.476,1.682h8.877a2.666,2.666,0,0,1,2.663,2.663v7.1A6.222,6.222,0,0,1,16.866,35.508Zm-4.438,1.775a2.666,2.666,0,0,1,2.663,2.663v2.663H9.765V39.946A2.666,2.666,0,0,1,12.428,37.283ZM31.069,53.262H15.979a6.222,6.222,0,0,1-6.214-6.214V44.385h5.326v2.3L13.576,48.2l1.255,1.255,1.44-1.44,8.71,1.743,3.52-1.759a.565.565,0,0,1,.794.49v1.227h1.775a1.775,1.775,0,1,1,0,3.551Zm12.747,0H36.076a.888.888,0,0,1-.87-.714l-.923-4.612H45.61l-.923,4.613A.888.888,0,0,1,43.817,53.262Zm2.344-8.15a.7.7,0,0,1-.014.143l-.181.905H33.928l-.181-.905a.691.691,0,0,1-.014-.143.727.727,0,0,1,.727-.727H45.432a.728.728,0,0,1,.728.727Zm-11.7-2.5a2.506,2.506,0,0,0-2.5,2.5,2.538,2.538,0,0,0,.049.492l.532,2.659a3.523,3.523,0,0,0-1.468-.327H31a2.326,2.326,0,0,0-3.3-1.53L24.73,47.893l-3.7-.739.606-1.011a8.88,8.88,0,0,0,8.542-8.859v-10.7A15.159,15.159,0,0,0,36.5,29.775a7.108,7.108,0,0,0,1.862,2.107l.692.519v1.72a5.315,5.315,0,0,0-2.259-1.2l-4.842-1.21V35.14a5.336,5.336,0,0,0,4.666,5.285l2.436.3v1.879Zm9.063-7.97,2.637-.659V35.14a3.558,3.558,0,0,1-3.11,3.524l-2.216.276v-.855A3.548,3.548,0,0,1,43.523,34.64Z"/>
      </g>
    </g>
  </g>
</svg>
