<svg xmlns="http://www.w3.org/2000/svg" width="127" height="201.496" viewBox="0 0 127 201.496">
  <g id="Grupo_1199959" data-name="Grupo 1199959" transform="translate(-180.506 -3878)">
    <rect id="Rectángulo_408692" data-name="Rectángulo 408692" width="127" height="201.496" rx="8" transform="translate(180.506 3878)" fill="#9ad354"/>
    <g id="certification_15864184" transform="translate(168.512 3926.708)">
      <path id="Trazado_1032577" data-name="Trazado 1032577" d="M108.4,69.3v11.29a1.07,1.07,0,0,1-1.8.784l-1.788-1.442V95.442a1.07,1.07,0,0,1-1.07,1.07H44.765a1.07,1.07,0,0,1-1.07-1.07V17.154a1.07,1.07,0,0,1,1.07-1.07h58.979a1.07,1.07,0,0,1,1.07,1.07V45.215c.238.019.507.016.776.012a4.373,4.373,0,0,1,2.412.435,4.325,4.325,0,0,1,1.554,1.888,4.278,4.278,0,0,0,.6.928,4.273,4.273,0,0,0,.928.6,4.325,4.325,0,0,1,1.888,1.554,4.371,4.371,0,0,1,.435,2.412,4.592,4.592,0,0,0,.071,1.147,4.776,4.776,0,0,0,.51,1.008,4.652,4.652,0,0,1,.88,2.426,4.652,4.652,0,0,1-.88,2.426,4.8,4.8,0,0,0-.51,1.008,4.6,4.6,0,0,0-.071,1.147,4.373,4.373,0,0,1-.435,2.412,4.325,4.325,0,0,1-1.888,1.554,2.6,2.6,0,0,0-1.525,1.525A5.161,5.161,0,0,1,108.4,69.3Z" fill="#231916" fill-rule="evenodd"/>
      <path id="Trazado_1032578" data-name="Trazado 1032578" d="M113.3,88.842,111.64,87.5l-1.65,1.33V96.8a1.07,1.07,0,0,1-1.07,1.07,2.762,2.762,0,0,0-2.751,2.751,1.07,1.07,0,0,1-1.07,1.07H64.673a1.07,1.07,0,0,1-1.07-1.07,2.762,2.762,0,0,0-2.751-2.751,1.07,1.07,0,0,1-1.07-1.07V37.062a1.07,1.07,0,0,1,1.07-1.07A2.762,2.762,0,0,0,63.6,33.241a1.07,1.07,0,0,1,1.07-1.07H105.1a1.07,1.07,0,0,1,1.07,1.07,2.762,2.762,0,0,0,2.751,2.751,1.07,1.07,0,0,1,1.07,1.07V54.837a3.317,3.317,0,0,1,3.314.008V28.856H56.467V105H113.3V88.842Z" transform="translate(-10.631 -10.631)" fill="#49ade3" fill-rule="evenodd"/>
      <path id="Trazado_1032579" data-name="Trazado 1032579" d="M134.939,117.644l-1.863,1.5a1.068,1.068,0,0,1-1.737-.832h0v-11.29a5.159,5.159,0,0,1-1.155-1.607,2.6,2.6,0,0,0-1.525-1.525,4.323,4.323,0,0,1-1.888-1.554,3.179,3.179,0,0,1-.408-1.318h-31.2a1.07,1.07,0,1,1,0-2.141h31.123c-.007-.035-.015-.069-.024-.1a4.779,4.779,0,0,0-.51-1.008,3.786,3.786,0,0,1,0-4.853,4.791,4.791,0,0,0,.51-1.008,4.591,4.591,0,0,0,.071-1.147,4.373,4.373,0,0,1,.435-2.412,4.326,4.326,0,0,1,1.888-1.554,2.6,2.6,0,0,0,1.525-1.525,4.324,4.324,0,0,1,1.554-1.888,4.373,4.373,0,0,1,2.412-.435c.274,0,.55.007.791-.013V65.1a4.917,4.917,0,0,1-3.7-3.7H92.714a4.917,4.917,0,0,1-3.7,3.7v57.832a4.917,4.917,0,0,1,3.7,3.7h38.523a4.916,4.916,0,0,1,3.7-3.7v-5.29Zm-39.777-.26a1.07,1.07,0,1,1,0-2.141h4.888a1.07,1.07,0,1,1,0,2.141Zm9.593,0a1.07,1.07,0,1,1,0-2.141h24.033a1.07,1.07,0,1,1,0,2.141ZM95.162,109.2a1.07,1.07,0,1,1,0-2.141h21.216a1.07,1.07,0,1,1,0,2.141Zm25.921,0a1.07,1.07,0,0,1,0-2.141h7.7a1.07,1.07,0,1,1,0,2.141ZM103.39,83.853c-.978-6.483,2.574-9.305,5.88-11.931,2.219-1.762,4.307-3.42,4.271-6.124a1.066,1.066,0,0,1,1.773-.811,15.537,15.537,0,0,1,4.385,5.907,9.445,9.445,0,0,1,.623,4.347,5.73,5.73,0,0,0,2.635-2.472,1.068,1.068,0,0,1,1.964.2c1.316,3.793,1.47,6.946.781,9.518a10.354,10.354,0,0,1-2.956,4.935,13.8,13.8,0,0,1-4.96,2.9,26.783,26.783,0,0,1-14.578.324q-.634.655-1.211,1.379a1.068,1.068,0,1,1-1.672-1.33,21.08,21.08,0,0,1,1.538-1.728,21.2,21.2,0,0,1,1.527-5.118Z" transform="translate(-37.72 -37.72)" fill="#fff" fill-rule="evenodd"/>
      <path id="Trazado_1032580" data-name="Trazado 1032580" d="M354.293,337.852v8.34l1.8-1.454a1.064,1.064,0,0,1,.119-.1l2.646-2.133a1.068,1.068,0,0,1,1.353-.012l2.676,2.157a1.065,1.065,0,0,1,.119.1l1.788,1.441v-8.34c-.223.007-.447,0-.671,0a4.591,4.591,0,0,0-1.147.071,4.785,4.785,0,0,0-1.008.51,3.786,3.786,0,0,1-4.853,0,4.784,4.784,0,0,0-1.008-.51,4.591,4.591,0,0,0-1.148-.071c-.224,0-.448.006-.671,0Z" transform="translate(-258.536 -267.832)" fill="#0091d1" fill-rule="evenodd"/>
      <path id="Trazado_1032581" data-name="Trazado 1032581" d="M195.238,107.5a1.066,1.066,0,1,1,1.43,1.58q-.256.232-.508.473l.808-.133c.96-.157,1.9-.311,2.794-.524a7.258,7.258,0,0,0-.322-4.369,11.734,11.734,0,0,0-2.347-3.636c-.743,2.384-2.7,3.942-4.761,5.575-2.256,1.792-4.647,3.69-5.131,7.057a11.345,11.345,0,0,1,5.325-3.179q.54-.665,1.152-1.317.719-.766,1.561-1.528Z" transform="translate(-119.452 -70.594)" fill="#59b332" fill-rule="evenodd"/>
      <path id="Trazado_1032582" data-name="Trazado 1032582" d="M191.445,153.265a1.068,1.068,0,1,1,.477,2.082,24.5,24.5,0,0,0-7.077,2.764,20.005,20.005,0,0,0-2.079,1.421,23.938,23.938,0,0,0,11.914-.576,11.694,11.694,0,0,0,4.2-2.441,8.248,8.248,0,0,0,2.354-3.932,12.63,12.63,0,0,0-.149-6.311c-2.044,2.071-4.9,2.539-7.909,3.03-4.25.694-8.83,1.445-10.943,7.965q.735-.523,1.516-.988a26.637,26.637,0,0,1,7.7-3.015Z" transform="translate(-115.317 -108.368)" fill="#74bb47" fill-rule="evenodd"/>
      <path id="Trazado_1032583" data-name="Trazado 1032583" d="M333.253,215.89a1.057,1.057,0,0,1,.107-.05,3,3,0,0,0,.748-1.058,4.527,4.527,0,0,1,2.395-2.395,2.968,2.968,0,0,0,1.06-.752,3.016,3.016,0,0,0,.143-1.309,6.05,6.05,0,0,1,.146-1.733,6.193,6.193,0,0,1,.736-1.543,1.838,1.838,0,0,0,0-2.662,6.192,6.192,0,0,1-.736-1.543,6.056,6.056,0,0,1-.146-1.733,3.017,3.017,0,0,0-.143-1.309,2.968,2.968,0,0,0-1.06-.752,4.527,4.527,0,0,1-2.395-2.395,2.967,2.967,0,0,0-.752-1.06,3.017,3.017,0,0,0-1.309-.143,6.05,6.05,0,0,1-1.733-.146,3.94,3.94,0,0,1-.482-.168,1.063,1.063,0,0,1-.181-.081c-.306-.144-.592-.315-.88-.487a1.838,1.838,0,0,0-2.662,0c-.282.169-.563.336-.861.478a1.078,1.078,0,0,1-.179.081,3.9,3.9,0,0,1-.5.177,6.05,6.05,0,0,1-1.733.147,3.017,3.017,0,0,0-1.309.143,2.967,2.967,0,0,0-.752,1.06,4.528,4.528,0,0,1-2.395,2.395,2.968,2.968,0,0,0-1.06.752,3.017,3.017,0,0,0-.143,1.309,6.053,6.053,0,0,1-.146,1.733,6.2,6.2,0,0,1-.736,1.543,1.838,1.838,0,0,0,0,2.662,6.192,6.192,0,0,1,.736,1.543,5.8,5.8,0,0,1,.147,1.651c0,.026,0,.053,0,.08s0,.072-.005.108a2.721,2.721,0,0,0,.144,1.2,2.967,2.967,0,0,0,1.06.752,4.528,4.528,0,0,1,2.395,2.395,3,3,0,0,0,.748,1.058,1.115,1.115,0,0,1,.107.05,3.838,3.838,0,0,0,1.206.095,6.055,6.055,0,0,1,1.733.146,6.2,6.2,0,0,1,1.543.736,1.838,1.838,0,0,0,2.662,0,6.186,6.186,0,0,1,1.543-.736,6.052,6.052,0,0,1,1.733-.146,3.834,3.834,0,0,0,1.206-.095Zm-5.812-16.548a6.379,6.379,0,1,1-4.51,1.868A6.359,6.359,0,0,1,327.44,199.342Z" transform="translate(-226.431 -148.097)" fill="#f7c977" fill-rule="evenodd"/>
      <path id="Trazado_1032584" data-name="Trazado 1032584" d="M367.581,239.866a4.238,4.238,0,1,0,1.241,3,4.225,4.225,0,0,0-1.241-3Z" transform="translate(-263.575 -185.239)" fill="#f5bd53" fill-rule="evenodd"/>
    </g>
  </g>
</svg>
