<svg xmlns="http://www.w3.org/2000/svg" width="127" height="163.07" viewBox="0 0 127 163.07">
  <g id="Grupo_1199937" data-name="Grupo 1199937" transform="translate(-180.051 -543)">
    <rect id="Rectángulo_408648" data-name="Rectángulo 408648" width="127" height="163.07" rx="8" transform="translate(180.051 543)" fill="#ef8c1a"/>
    <g id="environmental-regulations_18780449_7_" data-name="environmental-regulations_18780449 (7)" transform="translate(195.713 594.532)">
      <g id="Grupo_1199936" data-name="Grupo 1199936" transform="translate(14.935 1.125)">
        <path id="Trazado_1032500" data-name="Trazado 1032500" d="M51.5,8.01H29.215A7.413,7.413,0,0,0,21.82,15.4v9.823H51.5V8.01Z" transform="translate(-21.82 -8.01)" fill="#8bd7fa" fill-rule="evenodd"/>
        <path id="Trazado_1032501" data-name="Trazado 1032501" d="M125.463,8.01a7.412,7.412,0,0,1,7.392,7.392V77.7H81.832V15.4A7.412,7.412,0,0,0,74.44,8.01Z" transform="translate(-67.047 -8.01)" fill="#daeafa" fill-rule="evenodd"/>
        <path id="Trazado_1032502" data-name="Trazado 1032502" d="M259.046,191.53h11.5a1.421,1.421,0,0,1,1.415,1.415v3.472H257.63v-3.472A1.423,1.423,0,0,1,259.046,191.53Z" transform="translate(-224.498 -165.745)" fill="#223c55" fill-rule="evenodd"/>
        <path id="Trazado_1032503" data-name="Trazado 1032503" d="M287.356,37.51a3.477,3.477,0,1,1-3.476,3.476A3.479,3.479,0,0,1,287.356,37.51Z" transform="translate(-247.06 -33.365)" fill="#986b54" fill-rule="evenodd"/>
        <path id="Trazado_1032504" data-name="Trazado 1032504" d="M188.044,318.73a17.686,17.686,0,0,0,16.5,21.883c1.218-4.979,3.3-11.438-3.057-14.86C195.533,322.937,191.9,323.308,188.044,318.73Z" transform="translate(-164.252 -275.073)" fill="#70da40" fill-rule="evenodd"/>
        <path id="Trazado_1032505" data-name="Trazado 1032505" d="M284.421,389.294a18.23,18.23,0,0,0,2.377.252c1.11-4.542,2.938-10.31-1.569-13.886a9.993,9.993,0,0,0-1.983,5.768A27.549,27.549,0,0,0,284.421,389.294Z" transform="translate(-246.502 -324.004)" fill="#65c43a" fill-rule="evenodd"/>
        <path id="Trazado_1032506" data-name="Trazado 1032506" d="M317.054,318.73a17.686,17.686,0,0,1-16.506,21.883c-1.214-4.979-3.3-11.438,3.062-14.86C309.565,322.937,313.191,323.308,317.054,318.73Z" transform="translate(-260.249 -275.073)" fill="#70da40" fill-rule="evenodd"/>
        <path id="Trazado_1032507" data-name="Trazado 1032507" d="M307.373,415.059c-.426.046-.85.081-1.28.1-.132-.541-.274-1.1-.413-1.671a27.181,27.181,0,0,1,2.633-3.843,20.263,20.263,0,0,1,4.311-4,1.122,1.122,0,1,1,1.236,1.872,17.9,17.9,0,0,0-3.816,3.553A25.038,25.038,0,0,0,307.373,415.059Z" transform="translate(-265.797 -349.613)" fill="#70da40" fill-rule="evenodd"/>
        <path id="Trazado_1032508" data-name="Trazado 1032508" d="M389.678,41.33a2.938,2.938,0,1,1-2.938,2.938A2.938,2.938,0,0,1,389.678,41.33Z" transform="translate(-335.467 -36.648)" fill="#986b54" fill-rule="evenodd"/>
        <path id="Trazado_1032509" data-name="Trazado 1032509" d="M191.658,41.33a2.938,2.938,0,1,1-2.938,2.938A2.939,2.939,0,0,1,191.658,41.33Z" transform="translate(-165.27 -36.648)" fill="#986b54" fill-rule="evenodd"/>
        <path id="Trazado_1032510" data-name="Trazado 1032510" d="M377.524,138.51H365.76v2.358a2.37,2.37,0,0,0,2.362,2.362h7.043a2.368,2.368,0,0,0,2.358-2.362V138.51Z" transform="translate(-317.435 -120.174)" fill="#fea832" fill-rule="evenodd"/>
        <path id="Trazado_1032511" data-name="Trazado 1032511" d="M179.534,138.51H167.77v2.358a2.366,2.366,0,0,0,2.358,2.362h7.043a2.37,2.37,0,0,0,2.362-2.362V138.51Z" transform="translate(-147.263 -120.174)" fill="#fea832" fill-rule="evenodd"/>
        <path id="Trazado_1032512" data-name="Trazado 1032512" d="M70.405,15.4v9.823H73.22V15.4A7.409,7.409,0,0,0,65.863,8.01h-.035a7.371,7.371,0,0,0-1.408.135A7.422,7.422,0,0,1,70.405,15.4Z" transform="translate(-58.435 -8.01)" fill="#7dc2e1" fill-rule="evenodd"/>
        <path id="Trazado_1032513" data-name="Trazado 1032513" d="M169.97,139.756V138.52h-2.2v2.358a2.366,2.366,0,0,0,2.358,2.362h2.2a2.37,2.37,0,0,1-2.362-2.362v-1.121Z" transform="translate(-147.263 -120.183)" fill="#e5972d" fill-rule="evenodd"/>
        <path id="Trazado_1032514" data-name="Trazado 1032514" d="M365.77,138.51v2.358a2.37,2.37,0,0,0,2.362,2.362h2.2a2.37,2.37,0,0,1-2.362-2.362V138.51h-2.2Z" transform="translate(-317.444 -120.174)" fill="#e5972d" fill-rule="evenodd"/>
        <path id="Trazado_1032515" data-name="Trazado 1032515" d="M259.843,196.417v-3.472a1.418,1.418,0,0,1,1.415-1.415h-2.2a1.421,1.421,0,0,0-1.415,1.415v3.472Z" transform="translate(-224.506 -165.745)" fill="#1f364d" fill-rule="evenodd"/>
        <path id="Trazado_1032516" data-name="Trazado 1032516" d="M190.114,44.259a2.938,2.938,0,0,1,2.234-2.854,2.937,2.937,0,1,0-.7,5.79,2.736,2.736,0,0,0,.7-.086,2.934,2.934,0,0,1-2.235-2.851Z" transform="translate(-165.261 -36.64)" fill="#89604c" fill-rule="evenodd"/>
        <path id="Trazado_1032517" data-name="Trazado 1032517" d="M287.365,37.51a3.473,3.473,0,0,0-3.289,2.351,3.475,3.475,0,0,0,3.995,4.533,3.453,3.453,0,0,1-1.825-1.013,3.571,3.571,0,0,1-.77-1.267,3.476,3.476,0,0,1,2.594-4.531A3.334,3.334,0,0,0,287.365,37.51Z" transform="translate(-247.068 -33.365)" fill="#89604c" fill-rule="evenodd"/>
        <path id="Trazado_1032518" data-name="Trazado 1032518" d="M386.951,43.144a2.939,2.939,0,0,0,2.717,4.063,2.751,2.751,0,0,0,.7-.086,2.938,2.938,0,0,1-2.24-2.852,2.875,2.875,0,0,1,.225-1.125,2.934,2.934,0,0,1,2.013-1.728,2.934,2.934,0,0,0-3.416,1.728Z" transform="translate(-335.459 -36.648)" fill="#89604c" fill-rule="evenodd"/>
      </g>
      <path id="Trazado_1032519" data-name="Trazado 1032519" d="M73.348,0H22.329A8.529,8.529,0,0,0,13.81,8.52v9.821a1.123,1.123,0,0,0,1.123,1.123H28.6v51.35a1.122,1.122,0,0,0,1.123,1.123H80.745a1.122,1.122,0,0,0,1.123-1.123V8.52A8.529,8.529,0,0,0,73.348,0ZM16.057,17.219V8.52a6.271,6.271,0,1,1,12.543,0v8.7ZM79.621,69.691H30.845V8.52a8.5,8.5,0,0,0-2.759-6.273H73.348A6.279,6.279,0,0,1,79.621,8.52Zm-4.6-51.354H73.753l-2.242-6.3A4.06,4.06,0,1,0,65.24,7.624H59.693a4.6,4.6,0,0,0-8.922,0H45.224a4.059,4.059,0,1,0-6.266,4.417l-2.244,6.3H35.442a1.122,1.122,0,0,0-1.123,1.123v2.362A3.487,3.487,0,0,0,37.8,25.3h7.042a3.486,3.486,0,0,0,3.484-3.48V19.46a1.122,1.122,0,0,0-1.123-1.123H45.936l-2.244-6.3a4.063,4.063,0,0,0,1.531-2.171h5.548a4.618,4.618,0,0,0,3.337,3.338V25.789H49.485a2.54,2.54,0,0,0-2.537,2.537V31.8a1.122,1.122,0,0,0,1.123,1.123H62.4A1.122,1.122,0,0,0,63.519,31.8V28.326a2.54,2.54,0,0,0-2.537-2.537H56.353V13.207A4.613,4.613,0,0,0,59.69,9.869h5.548a4.073,4.073,0,0,0,1.536,2.172l-2.244,6.3H63.259a1.122,1.122,0,0,0-1.123,1.123v2.362a3.487,3.487,0,0,0,3.484,3.48h7.042a3.486,3.486,0,0,0,3.484-3.48V19.46a1.121,1.121,0,0,0-1.123-1.123ZM61.272,28.326v2.349H49.193V28.326a.3.3,0,0,1,.291-.291h11.5A.294.294,0,0,1,61.272,28.326Zm7.87-21.395a1.815,1.815,0,1,1-1.815,1.817A1.819,1.819,0,0,1,69.142,6.931Zm-27.82,0a1.815,1.815,0,1,1-1.815,1.817A1.817,1.817,0,0,1,41.322,6.931Zm4.76,14.891a1.238,1.238,0,0,1-1.239,1.235H37.8a1.239,1.239,0,0,1-1.239-1.235V20.582h9.519v1.239Zm-2.533-3.484H39.1l1.974-5.54c.083.006.167.008.251.008s.169,0,.252-.008ZM55.231,11.1a2.353,2.353,0,1,1,2.353-2.353A2.356,2.356,0,0,1,55.231,11.1Zm13.66,1.7c.083.006.167.008.252.008s.169,0,.252-.008l1.974,5.54H66.913ZM73.9,21.822a1.238,1.238,0,0,1-1.239,1.235H65.621a1.239,1.239,0,0,1-1.239-1.235V20.582H73.9v1.239Zm-.128,14.7a1.122,1.122,0,0,1-1.123,1.123H37.814a1.123,1.123,0,1,1,0-2.245H72.652A1.123,1.123,0,0,1,73.774,36.523ZM37.814,42.481a1.123,1.123,0,1,1,0-2.245H55.231a1.123,1.123,0,1,1,0,2.245ZM72,43.69a1.123,1.123,0,0,0-1.116.37c-2.384,2.83-4.621,3.59-7.719,4.645a47.56,47.56,0,0,0-5.349,2.089l-.052.025a10.513,10.513,0,0,0-2.535,1.862A10.382,10.382,0,0,0,52.7,50.817l-.051-.025A47.561,47.561,0,0,0,47.3,48.7c-3.1-1.054-5.335-1.815-7.719-4.645a1.123,1.123,0,0,0-1.95.458A18.816,18.816,0,0,0,55.186,67.79h.087A18.813,18.813,0,0,0,72.829,44.517,1.118,1.118,0,0,0,72,43.69ZM42.682,58.967a16.514,16.514,0,0,1-3.237-11.823C41.707,49.172,44,49.952,46.58,50.83a45.883,45.883,0,0,1,5.085,1.981,7.847,7.847,0,0,1,2.2,1.7c-1.827,3.365-.941,7.5-.1,10.9A16.5,16.5,0,0,1,42.682,58.967Zm25.1,0a16.506,16.506,0,0,1-10.567,6.376A19.2,19.2,0,0,1,63,59.026a1.123,1.123,0,0,0-1.243-1.87,21.158,21.158,0,0,0-6.119,6.46c-.975-4.232-1.354-8.359,3.161-10.8a45.883,45.883,0,0,1,5.085-1.981c2.58-.878,4.874-1.658,7.135-3.687a16.518,16.518,0,0,1-3.236,11.822Z" transform="translate(0)"/>
    </g>
  </g>
</svg>
