<svg xmlns="http://www.w3.org/2000/svg" xmlns:xlink="http://www.w3.org/1999/xlink" width="99.447" height="99.447" viewBox="0 0 99.447 99.447">
  <defs>
    <filter id="Trazado_896985" x="0" y="0" width="99.447" height="99.447" filterUnits="userSpaceOnUse">
      <feOffset dy="3" input="SourceAlpha"/>
      <feGaussianBlur stdDeviation="3" result="blur"/>
      <feFlood flood-opacity="0.161"/>
      <feComposite operator="in" in2="blur"/>
      <feComposite in="SourceGraphic"/>
    </filter>
  </defs>
  <g id="Grupo_1199963" data-name="Grupo 1199963" transform="translate(-194.553 -4195.05)">
    <g id="Grupo_1199830" data-name="Grupo 1199830" transform="translate(203.553 4201.05)">
      <g id="Grupo_1198723" data-name="Grupo 1198723" transform="translate(0 0)">
        <g id="Grupo_1198139" data-name="Grupo 1198139" transform="translate(0)">
          <g id="Grupo_1111318" data-name="Grupo 1111318" transform="translate(0)">
            <g id="Grupo_1109826" data-name="Grupo 1109826">
              <g id="Grupo_1098742" data-name="Grupo 1098742">
                <g transform="matrix(1, 0, 0, 1, -9, -6)" filter="url(#Trazado_896985)">
                  <g id="Trazado_896985-2" data-name="Trazado 896985" transform="translate(9 6)" fill="#ef8c1a" opacity="0.859">
                    <path d="M 40.72351455688477 80.94712829589844 C 35.29315948486328 80.94712829589844 30.02549171447754 79.88369750976562 25.06685829162598 77.786376953125 C 20.27713584899902 75.76048278808594 15.97541427612305 72.86015319824219 12.28119277954102 69.16593933105469 C 8.586980819702148 65.47171783447266 5.686647891998291 61.16999816894531 3.660758972167969 56.38027572631836 C 1.56343674659729 51.4216423034668 0.500003457069397 46.15397644042969 0.500003457069397 40.7236213684082 C 0.500003457069397 35.29315185546875 1.56343674659729 30.02549743652344 3.660758972167969 25.06686401367188 C 5.686647891998291 20.27713012695312 8.586980819702148 15.97540855407715 12.28119277954102 12.2811975479126 C 15.97541427612305 8.58697509765625 20.27713584899902 5.686641693115234 25.06685829162598 3.660753011703491 C 30.02549171447754 1.563430786132812 35.29315948486328 0.499997466802597 40.72351455688477 0.499997466802597 C 46.15386962890625 0.499997466802597 51.42153549194336 1.563430786132812 56.38016891479492 3.660753011703491 C 61.16989135742188 5.686641693115234 65.47161102294922 8.58697509765625 69.16584014892578 12.2811975479126 C 72.86004638671875 15.97540855407715 75.76038360595703 20.27713012695312 77.78627014160156 25.06686401367188 C 79.88359069824219 30.02549743652344 80.94702911376953 35.29315185546875 80.94702911376953 40.72350692749023 C 80.94702911376953 46.15397644042969 79.88359069824219 51.4216423034668 77.78627014160156 56.38027572631836 C 75.76038360595703 61.16999816894531 72.86004638671875 65.47171783447266 69.16584014892578 69.16593933105469 C 65.47161102294922 72.86015319824219 61.16989135742188 75.76048278808594 56.38016891479492 77.786376953125 C 51.42153549194336 79.88369750976562 46.15386962890625 80.94712829589844 40.72351455688477 80.94712829589844 Z" stroke="none"/>
                    <path d="M 40.72351455688477 1 C 35.36043548583984 1 30.15830230712891 2.050140380859375 25.26163864135742 4.121253967285156 C 20.53150177001953 6.121932983398438 16.28321075439453 8.986289978027344 12.63475036621094 12.63474273681641 C 8.986289978027344 16.28321075439453 6.121932983398438 20.53149795532227 4.121261596679688 25.26163101196289 C 2.050148010253906 30.15829849243164 1 35.36043167114258 1 40.7236213684082 C 1 46.08669662475586 2.050148010253906 51.28883361816406 4.121261596679688 56.18549728393555 C 6.121932983398438 60.91563034057617 8.986289978027344 65.16391754150391 12.63475036621094 68.81238555908203 C 16.28321075439453 72.46084594726562 20.53150177001953 75.3251953125 25.26163864135742 77.32587432861328 C 30.15830230712891 79.39698791503906 35.36043548583984 80.44712829589844 40.72351455688477 80.44712829589844 C 46.08659362792969 80.44712829589844 51.28872680664062 79.39698791503906 56.18539428710938 77.32587432861328 C 60.91552734375 75.3251953125 65.163818359375 72.46084594726562 68.81227874755859 68.81238555908203 C 72.46073913574219 65.16391754150391 75.32508850097656 60.91563034057617 77.32576751708984 56.18549728393555 C 79.39688110351562 51.28883361816406 80.44702911376953 46.08669662475586 80.44702911376953 40.72350692749023 C 80.44702911376953 35.36043167114258 79.39688110351562 30.15829849243164 77.32576751708984 25.26163101196289 C 75.32508850097656 20.53149795532227 72.46073913574219 16.28321075439453 68.81227874755859 12.63474273681641 C 65.163818359375 8.986289978027344 60.91552734375 6.121932983398438 56.18539428710938 4.121253967285156 C 51.28872680664062 2.050140380859375 46.08659362792969 1 40.72351455688477 1 M 40.72351455688477 0 C 63.21449279785156 0 81.44702911376953 18.2325325012207 81.44702911376953 40.72350692749023 L 81.44702911376953 40.7236213684082 C 81.44702911376953 63.214599609375 63.21449279785156 81.44712829589844 40.72351455688477 81.44712829589844 C 18.23253631591797 81.44712829589844 0 63.214599609375 0 40.7236213684082 L 0 40.72350692749023 C 0 18.2325325012207 18.23253631591797 0 40.72351455688477 0 Z" stroke="none" fill="#fff"/>
                  </g>
                </g>
                <g id="Rectángulo_400907" data-name="Rectángulo 400907" transform="translate(0)" fill="none" stroke="#fff" stroke-width="1">
                  <rect width="81.447" height="81.447" rx="40.724" stroke="none"/>
                  <rect x="0.5" y="0.5" width="80.447" height="80.447" rx="40.224" fill="none"/>
                </g>
              </g>
            </g>
          </g>
        </g>
      </g>
    </g>
    <g id="mother-earth-day_17217760" transform="translate(217.388 4190.754)">
      <g id="Grupo_1199962" data-name="Grupo 1199962" transform="translate(1.795 28.919)">
        <g id="Grupo_1199960" data-name="Grupo 1199960" transform="translate(0 0)">
          <path id="Trazado_1032585" data-name="Trazado 1032585" d="M10.012,64.689H44.78A1.517,1.517,0,0,1,46.292,66.2V99.714a1.517,1.517,0,0,1-1.512,1.512H10.012A1.517,1.517,0,0,1,8.5,99.714V66.2A1.517,1.517,0,0,1,10.012,64.689Z" transform="translate(-8.5 -61.478)" fill="#64dcfc" fill-rule="evenodd"/>
          <path id="Trazado_1032586" data-name="Trazado 1032586" d="M53.449,35.6h2.368a.383.383,0,0,1,.382.382v5.659a.383.383,0,0,1-.382.382H53.449a.383.383,0,0,1-.382-.382V35.978a.382.382,0,0,1,.382-.382Zm24.823,0h2.368a.383.383,0,0,1,.382.382v5.659a.383.383,0,0,1-.382.382H78.272a.383.383,0,0,1-.382-.382V35.978A.383.383,0,0,1,78.272,35.6ZM70,35.6h2.368a.383.383,0,0,1,.382.382v5.659a.383.383,0,0,1-.382.382H70a.383.383,0,0,1-.382-.382V35.978A.383.383,0,0,1,70,35.6Zm-8.274,0h2.368a.382.382,0,0,1,.382.382v5.659a.383.383,0,0,1-.382.382H61.723a.383.383,0,0,1-.382-.382V35.978A.383.383,0,0,1,61.723,35.6Z" transform="translate(-48.148 -35.596)" fill="#43a2ff" fill-rule="evenodd"/>
          <path id="Trazado_1032587" data-name="Trazado 1032587" d="M8.5,129.087H46.292V157a1.517,1.517,0,0,1-1.512,1.512H10.012A1.517,1.517,0,0,1,8.5,157Z" transform="translate(-8.5 -118.768)" fill="#e0dfe1" fill-rule="evenodd"/>
          <path id="Trazado_1032588" data-name="Trazado 1032588" d="M48.692,160.175h2.674a.6.6,0,0,1,.6.6v2.674a.6.6,0,0,1-.6.6H48.692a.6.6,0,0,1-.6-.6v-2.674A.6.6,0,0,1,48.692,160.175Zm-6.663,0H44.7a.6.6,0,0,1,.6.6v2.674a.6.6,0,0,1-.6.6H42.029a.6.6,0,0,1-.6-.6v-2.674A.6.6,0,0,1,42.029,160.175Zm0-6.663H44.7a.6.6,0,0,1,.6.6v2.673a.6.6,0,0,1-.6.6H42.029a.6.6,0,0,1-.6-.6v-2.673A.6.6,0,0,1,42.029,153.512Zm6.663,0h2.674a.6.6,0,0,1,.6.6v2.673a.6.6,0,0,1-.6.6H48.692a.6.6,0,0,1-.6-.6v-2.673A.6.6,0,0,1,48.692,153.512Zm6.663,0h2.673a.6.6,0,0,1,.6.6v2.673a.6.6,0,0,1-.6.6H55.355a.6.6,0,0,1-.6-.6v-2.673A.6.6,0,0,1,55.355,153.512Zm13.326,0h2.673a.6.6,0,0,1,.6.6v2.673a.6.6,0,0,1-.6.6H68.681a.6.6,0,0,1-.6-.6v-2.673A.6.6,0,0,1,68.681,153.512Zm-6.663,0h2.674a.6.6,0,0,1,.6.6v2.673a.6.6,0,0,1-.6.6H62.018a.6.6,0,0,1-.6-.6v-2.673a.6.6,0,0,1,.6-.6ZM42.029,166.838H44.7a.6.6,0,0,1,.6.6v2.674a.6.6,0,0,1-.6.6H42.029a.6.6,0,0,1-.6-.6v-2.674A.6.6,0,0,1,42.029,166.838Zm13.326-6.663h2.674a.6.6,0,0,1,.6.6v2.674a.6.6,0,0,1-.6.6H55.355a.6.6,0,0,1-.6-.6v-2.674A.6.6,0,0,1,55.355,160.175Z" transform="translate(-37.795 -140.497)" fill="#43a2ff" fill-rule="evenodd"/>
          <path id="Trazado_1032589" data-name="Trazado 1032589" d="M48.692,220.544h2.674a.6.6,0,0,1,.6.6v2.674a.6.6,0,0,1-.6.6H48.692a.6.6,0,0,1-.6-.6v-2.674A.6.6,0,0,1,48.692,220.544Zm19.989,6.663h2.673a.6.6,0,0,1,.6.6v2.674a.6.6,0,0,1-.6.6H68.681a.6.6,0,0,1-.6-.6v-2.674A.6.6,0,0,1,68.681,227.207Zm-6.663,0h2.674a.6.6,0,0,1,.6.6v2.674a.6.6,0,0,1-.6.6H62.018a.6.6,0,0,1-.6-.6v-2.674A.6.6,0,0,1,62.018,227.207Zm6.663-6.663h2.673a.6.6,0,0,1,.6.6v2.674a.6.6,0,0,1-.6.6H68.681a.6.6,0,0,1-.6-.6v-2.674A.6.6,0,0,1,68.681,220.544Zm-6.663,0h2.674a.6.6,0,0,1,.6.6v2.674a.6.6,0,0,1-.6.6H62.018a.6.6,0,0,1-.6-.6v-2.674A.6.6,0,0,1,62.018,220.544Zm6.663-6.663h2.673a.6.6,0,0,1,.6.6v2.674a.6.6,0,0,1-.6.6H68.681a.6.6,0,0,1-.6-.6V214.48A.6.6,0,0,1,68.681,213.881Zm-6.663,0h2.674a.6.6,0,0,1,.6.6v2.674a.6.6,0,0,1-.6.6H62.018a.6.6,0,0,1-.6-.6V214.48A.6.6,0,0,1,62.018,213.881Zm-6.663,13.326h2.674a.6.6,0,0,1,.6.6v2.674a.6.6,0,0,1-.6.6H55.355a.6.6,0,0,1-.6-.6v-2.674A.6.6,0,0,1,55.355,227.207Zm-6.663,0h2.674a.6.6,0,0,1,.6.6v2.674a.6.6,0,0,1-.6.6H48.692a.6.6,0,0,1-.6-.6v-2.674A.6.6,0,0,1,48.692,227.207Zm-6.663,0H44.7a.6.6,0,0,1,.6.6v2.674a.6.6,0,0,1-.6.6H42.029a.6.6,0,0,1-.6-.6v-2.674A.6.6,0,0,1,42.029,227.207Zm13.326-6.663h2.674a.6.6,0,0,1,.6.6v2.674a.6.6,0,0,1-.6.6H55.355a.6.6,0,0,1-.6-.6v-2.674A.6.6,0,0,1,55.355,220.544Z" transform="translate(-37.795 -194.203)" fill="#ff6372" fill-rule="evenodd"/>
        </g>
        <g id="Grupo_1199961" data-name="Grupo 1199961" transform="translate(16.818 18.337)">
          <circle id="Elipse_12189" data-name="Elipse 12189" cx="13.548" cy="13.548" r="13.548" fill="#43a2ff"/>
          <path id="Trazado_1032590" data-name="Trazado 1032590" d="M173.447,235.663c-3.489-2.362-5.437-1.108-5.516,1.846a13.6,13.6,0,0,0,9.875,1.227C177.242,233.275,175.045,236.744,173.447,235.663Zm10.88-12.393c-.253-3.689-7.058-2.667-4.146-9.923a13.552,13.552,0,0,1,2.069,23.325c-.2-2.71.146-3.785-2.012-6.328-4.873-5.958,4.885-.985,4.089-7.074Zm-13.406,1.794c-1.4-.1-1.2,2.288-2.591,2.153-1.3-.126-1.369-1.824-2.845-.651-2.2,1.746,2.512,3.618-.741,8.528a13.551,13.551,0,0,1,2.883-21.2c1.577,5.057,8.866.528,7.352,3.995-3.764,3.736,1.583,9.15-1.31,9.547-1.105.152-1.544-2.28-2.748-2.368Z" transform="translate(-160.874 -212.065)" fill="#6ce75a" fill-rule="evenodd"/>
          <path id="Trazado_1032591" data-name="Trazado 1032591" d="M415.628,278.492c-2.273,4.559-12.609,3.226-9.725,14.392C413.519,292.265,417.9,285.789,415.628,278.492Z" transform="translate(-378.41 -270.02)" fill="#4abe69" fill-rule="evenodd"/>
          <path id="Trazado_1032592" data-name="Trazado 1032592" d="M394.642,255.112c-.42,5.077-10.514,7.673-3.693,16.972C397.792,268.685,399.454,261.047,394.642,255.112Z" transform="translate(-363.456 -249.221)" fill="#58d561" fill-rule="evenodd"/>
        </g>
      </g>
      <path id="Trazado_1032593" data-name="Trazado 1032593" d="M53.987,64.965a9.512,9.512,0,0,1-3.842,3.265,11.16,11.16,0,0,0,2.983-5.469,10.952,10.952,0,0,0,.167-3.681A10.177,10.177,0,0,0,55.429,57.6,9.916,9.916,0,0,1,53.987,64.965ZM47.657,58.4c-2.4,2.719-4.669,5.3-1.593,10.192A15.838,15.838,0,0,0,48.1,60.8a.828.828,0,1,1,1.655,0,17.482,17.482,0,0,1-1.374,6.814,9.59,9.59,0,0,0,3.129-5.209,9.906,9.906,0,0,0-1.39-7.378,14.907,14.907,0,0,1-2.462,3.37ZM40.729,70.214A7.318,7.318,0,0,0,38.61,65a4.99,4.99,0,0,1-1.171-1.873,5.464,5.464,0,0,1,1.275-.282,6.7,6.7,0,0,0,2.874-.9,3.462,3.462,0,0,0,1.3-3.572c-.135-1.788-1.447-2.689-2.6-3.483-1.629-1.121-2.941-2.027-1.91-5.205a12.638,12.638,0,0,1,6.4,9.571,7.665,7.665,0,0,0-1.416,7.561A12.8,12.8,0,0,1,40.729,70.214Zm-14.2,2a2.045,2.045,0,0,1,.849-1.625c.7-.359,1.916-.011,3.337.953a2.8,2.8,0,0,0,2.426.17c.37-.095.744-.193.89-.095.094.066.385.372.593,1.671a12.871,12.871,0,0,1-2.467.239,12.65,12.65,0,0,1-5.627-1.313ZM24.987,50.3c1.327,2.389,4.081,2.258,5.8,2.174a9.525,9.525,0,0,1,1.27-.011c-.01.04-.031.089-.052.145-2.3,2.411-1.452,5.382-.9,7.359a5.787,5.787,0,0,1,.354,1.79.58.58,0,0,1-.141.038,3.6,3.6,0,0,1-.583-.75c-.458-.689-1.025-1.547-2.025-1.618a2.212,2.212,0,0,0-2.093,1.526c-.286.546-.375.64-.479.628-.229-.022-.385-.158-.651-.4a1.849,1.849,0,0,0-2.79-.078c-1.426,1.132-.885,2.44-.448,3.492a4.583,4.583,0,0,1,.078,4.275A12.7,12.7,0,0,1,24.987,50.3Zm11.89-1.327a12.807,12.807,0,0,0-4.716-.893,12.65,12.65,0,0,0-5.747,1.374c.76,1.413,2.291,1.464,4.295,1.365,1.218-.058,2.27-.11,2.8.66a2.042,2.042,0,0,1-.036,1.924.819.819,0,0,1-.172.256c-1.759,1.744-1.14,3.929-.593,5.854.359,1.263.672,2.352.141,3.162a1.784,1.784,0,0,1-1.327.764c-1.078.148-1.7-.793-2.155-1.48-.2-.3-.578-.869-.765-.882-.125-.009-.208.084-.5.645a2.175,2.175,0,0,1-2.108,1.505,2.7,2.7,0,0,1-1.6-.821,2.44,2.44,0,0,0-.276-.233,1.229,1.229,0,0,0-.37.227c-.39.311-.416.43.052,1.562a6.2,6.2,0,0,1-.255,6.181,13.519,13.519,0,0,0,1.484,1.179,3.259,3.259,0,0,1,1.609-2.214c.9-.462,2.5-.652,5.023,1.055.208.143.5.088,1.078-.062a2.593,2.593,0,0,1,2.249.148,3.749,3.749,0,0,1,1.255,2.607,12.448,12.448,0,0,0,2.9-1.406c-.016-.266-.026-.516-.036-.746a5.962,5.962,0,0,0-1.749-4.639c-.005,0-.005-.008-.01-.012-1.359-1.663-1.78-2.69-1.452-3.543.37-.968,1.494-1.138,2.582-1.3,1.957-.295,3.05-.564,2.78-2.645a.167.167,0,0,1-.005-.051c-.068-.959-.76-1.483-1.89-2.259-1.7-1.171-4-2.755-2.473-7.281ZM3.306,67.839H16.033q-.266-.6-.484-1.231a1.506,1.506,0,0,1-.187.013H12.686a1.428,1.428,0,0,1-1.421-1.427V62.521A1.427,1.427,0,0,1,12.686,61.1h1.879V60.8c0-.284.005-.565.021-.845h-1.9a1.428,1.428,0,0,1-1.421-1.427V55.858a1.427,1.427,0,0,1,1.421-1.426h2.676a1.437,1.437,0,0,1,.375.051,17.663,17.663,0,0,1,6.007-7.851H19.349a1.427,1.427,0,0,1-1.421-1.426V42.532a1.427,1.427,0,0,1,1.421-1.426h2.676a1.428,1.428,0,0,1,1.426,1.426v2.674a1.427,1.427,0,0,1-.042.335c.385-.221.776-.427,1.182-.62V42.532a1.424,1.424,0,0,1,1.421-1.426h2.676a1.428,1.428,0,0,1,1.426,1.426v.8c.375-.044.755-.078,1.14-.1v-.7a1.424,1.424,0,0,1,1.421-1.426h2.676a1.428,1.428,0,0,1,1.426,1.426v1.295a17.76,17.76,0,0,1,1.978.667V39.977H2.618V67.155a.686.686,0,0,0,.687.684Zm0-34.881H5.882v2A1.211,1.211,0,0,0,7.1,36.169H9.464a1.21,1.21,0,0,0,1.208-1.21v-2h3.488v2a1.21,1.21,0,0,0,1.208,1.21h2.369a1.21,1.21,0,0,0,1.208-1.21v-2h3.488v2a1.215,1.215,0,0,0,1.213,1.21h2.363a1.211,1.211,0,0,0,1.213-1.21v-2h3.488v2a1.21,1.21,0,0,0,1.208,1.21h2.369a1.21,1.21,0,0,0,1.208-1.21v-2h2.582a.684.684,0,0,1,.682.684v4.679H2.618V33.642a.685.685,0,0,1,.687-.684Zm4.232-3.212v4.767H9.016V29.746Zm8.277,0v4.767h1.473V29.746Zm8.272,0v4.767h1.478V29.746Zm8.277,0v4.767h1.473V29.746Zm2.759,13.715a17.519,17.519,0,0,0-2.212-.235v-.465h2.212Zm-6.663.139a17.158,17.158,0,0,0-2.212.631v-1.47h2.212ZM21.8,44.976H19.583V42.761H21.8ZM15.06,64.966H12.92V62.751h1.749A17.292,17.292,0,0,0,15.06,64.966Zm.073-8.613a17.263,17.263,0,0,0-.39,1.95H12.92V56.088h2.212Zm41.489-.871a.831.831,0,0,0-1.536-.124,5.187,5.187,0,0,1-2.134,2.011,13.3,13.3,0,0,0-2.514-4.743.826.826,0,0,0-.885-.27.837.837,0,0,0-.583.723c-.12,1.462-1.3,2.805-2.556,4.226-.078.092-.161.184-.245.277A14.39,14.39,0,1,0,44.19,68.67a16.808,16.808,0,0,0,.9,1.448,15.933,15.933,0,1,1,.265-18.263.828.828,0,0,0,1.369-.931,17.642,17.642,0,0,0-6.309-5.66V33.642A2.34,2.34,0,0,0,38.074,31.3H35.492v-2a1.21,1.21,0,0,0-1.208-1.209H31.916A1.21,1.21,0,0,0,30.708,29.3v2H27.22v-2a1.211,1.211,0,0,0-1.213-1.209H23.644A1.214,1.214,0,0,0,22.431,29.3v2H18.943v-2a1.21,1.21,0,0,0-1.208-1.209H15.367A1.21,1.21,0,0,0,14.159,29.3v2H10.672v-2a1.21,1.21,0,0,0-1.208-1.209H7.1A1.211,1.211,0,0,0,5.882,29.3v2H3.306A2.344,2.344,0,0,0,.963,33.642V67.154a2.344,2.344,0,0,0,2.343,2.34H16.861a17.583,17.583,0,0,0,29.693,1.414A11.473,11.473,0,0,0,56.621,55.482ZM6.257,42.761H8.47v2.215H6.257Zm-.229,3.871A1.428,1.428,0,0,1,4.6,45.206V42.532a1.428,1.428,0,0,1,1.426-1.426H8.7a1.428,1.428,0,0,1,1.426,1.426v2.674A1.428,1.428,0,0,1,8.7,46.632ZM8.47,51.639H6.257V49.425H8.47v2.215Zm.229-3.87a1.428,1.428,0,0,1,1.426,1.426v2.674A1.428,1.428,0,0,1,8.7,53.3H6.028A1.428,1.428,0,0,1,4.6,51.869V49.195a1.428,1.428,0,0,1,1.426-1.426ZM8.47,58.3H6.257V56.088H8.47V58.3ZM8.7,54.432a1.428,1.428,0,0,1,1.426,1.426v2.673A1.429,1.429,0,0,1,8.7,59.959H6.028A1.429,1.429,0,0,1,4.6,58.531V55.858a1.428,1.428,0,0,1,1.426-1.426H8.7Zm4.222-11.67h2.212v2.215H12.92Zm-.234,3.871a1.427,1.427,0,0,1-1.421-1.426V42.532a1.427,1.427,0,0,1,1.421-1.426h2.676a1.428,1.428,0,0,1,1.426,1.426v2.674a1.428,1.428,0,0,1-1.426,1.426Zm.234,2.792h2.212v2.215H12.92ZM12.686,53.3a1.427,1.427,0,0,1-1.421-1.426V49.195a1.427,1.427,0,0,1,1.421-1.426h2.676a1.428,1.428,0,0,1,1.426,1.426v2.674A1.428,1.428,0,0,1,15.362,53.3ZM8.47,64.966H6.257V62.751H8.47v2.215ZM8.7,61.1a1.428,1.428,0,0,1,1.426,1.426v2.673A1.429,1.429,0,0,1,8.7,66.621H6.028A1.429,1.429,0,0,1,4.6,65.194V62.521A1.428,1.428,0,0,1,6.028,61.1Z" transform="translate(0 0)" fill-rule="evenodd"/>
    </g>
  </g>
</svg>
