<svg xmlns="http://www.w3.org/2000/svg" xmlns:xlink="http://www.w3.org/1999/xlink" width="99.447" height="99.447" viewBox="0 0 99.447 99.447">
  <defs>
    <filter id="Trazado_896985" x="0" y="0" width="99.447" height="99.447" filterUnits="userSpaceOnUse">
      <feOffset dy="3" input="SourceAlpha"/>
      <feGaussianBlur stdDeviation="3" result="blur"/>
      <feFlood flood-opacity="0.161"/>
      <feComposite operator="in" in2="blur"/>
      <feComposite in="SourceGraphic"/>
    </filter>
  </defs>
  <g id="Grupo_1199964" data-name="Grupo 1199964" transform="translate(-614.553 -4195.05)">
    <g id="Grupo_1199831" data-name="Grupo 1199831" transform="translate(623.553 4201.05)">
      <g id="Grupo_1198723" data-name="Grupo 1198723" transform="translate(0 0)">
        <g id="Grupo_1198139" data-name="Grupo 1198139" transform="translate(0)">
          <g id="Grupo_1111318" data-name="Grupo 1111318" transform="translate(0)">
            <g id="Grupo_1109826" data-name="Grupo 1109826">
              <g id="Grupo_1098742" data-name="Grupo 1098742">
                <g transform="matrix(1, 0, 0, 1, -9, -6)" filter="url(#Trazado_896985)">
                  <g id="Trazado_896985-2" data-name="Trazado 896985" transform="translate(9 6)" fill="#ef8c1a" opacity="0.859">
                    <path d="M 40.72351455688477 80.94712829589844 C 35.29315948486328 80.94712829589844 30.02549171447754 79.88369750976562 25.06685829162598 77.786376953125 C 20.27713584899902 75.76048278808594 15.97541427612305 72.86015319824219 12.28119277954102 69.16593933105469 C 8.586980819702148 65.47171783447266 5.686647891998291 61.16999816894531 3.660758972167969 56.38027572631836 C 1.56343674659729 51.4216423034668 0.500003457069397 46.15397644042969 0.500003457069397 40.7236213684082 C 0.500003457069397 35.29315185546875 1.56343674659729 30.02549743652344 3.660758972167969 25.06686401367188 C 5.686647891998291 20.27713012695312 8.586980819702148 15.97540855407715 12.28119277954102 12.2811975479126 C 15.97541427612305 8.58697509765625 20.27713584899902 5.686641693115234 25.06685829162598 3.660753011703491 C 30.02549171447754 1.563430786132812 35.29315948486328 0.499997466802597 40.72351455688477 0.499997466802597 C 46.15386962890625 0.499997466802597 51.42153549194336 1.563430786132812 56.38016891479492 3.660753011703491 C 61.16989135742188 5.686641693115234 65.47161102294922 8.58697509765625 69.16584014892578 12.2811975479126 C 72.86004638671875 15.97540855407715 75.76038360595703 20.27713012695312 77.78627014160156 25.06686401367188 C 79.88359069824219 30.02549743652344 80.94702911376953 35.29315185546875 80.94702911376953 40.72350692749023 C 80.94702911376953 46.15397644042969 79.88359069824219 51.4216423034668 77.78627014160156 56.38027572631836 C 75.76038360595703 61.16999816894531 72.86004638671875 65.47171783447266 69.16584014892578 69.16593933105469 C 65.47161102294922 72.86015319824219 61.16989135742188 75.76048278808594 56.38016891479492 77.786376953125 C 51.42153549194336 79.88369750976562 46.15386962890625 80.94712829589844 40.72351455688477 80.94712829589844 Z" stroke="none"/>
                    <path d="M 40.72351455688477 1 C 35.36043548583984 1 30.15830230712891 2.050140380859375 25.26163864135742 4.121253967285156 C 20.53150177001953 6.121932983398438 16.28321075439453 8.986289978027344 12.63475036621094 12.63474273681641 C 8.986289978027344 16.28321075439453 6.121932983398438 20.53149795532227 4.121261596679688 25.26163101196289 C 2.050148010253906 30.15829849243164 1 35.36043167114258 1 40.7236213684082 C 1 46.08669662475586 2.050148010253906 51.28883361816406 4.121261596679688 56.18549728393555 C 6.121932983398438 60.91563034057617 8.986289978027344 65.16391754150391 12.63475036621094 68.81238555908203 C 16.28321075439453 72.46084594726562 20.53150177001953 75.3251953125 25.26163864135742 77.32587432861328 C 30.15830230712891 79.39698791503906 35.36043548583984 80.44712829589844 40.72351455688477 80.44712829589844 C 46.08659362792969 80.44712829589844 51.28872680664062 79.39698791503906 56.18539428710938 77.32587432861328 C 60.91552734375 75.3251953125 65.163818359375 72.46084594726562 68.81227874755859 68.81238555908203 C 72.46073913574219 65.16391754150391 75.32508850097656 60.91563034057617 77.32576751708984 56.18549728393555 C 79.39688110351562 51.28883361816406 80.44702911376953 46.08669662475586 80.44702911376953 40.72350692749023 C 80.44702911376953 35.36043167114258 79.39688110351562 30.15829849243164 77.32576751708984 25.26163101196289 C 75.32508850097656 20.53149795532227 72.46073913574219 16.28321075439453 68.81227874755859 12.63474273681641 C 65.163818359375 8.986289978027344 60.91552734375 6.121932983398438 56.18539428710938 4.121253967285156 C 51.28872680664062 2.050140380859375 46.08659362792969 1 40.72351455688477 1 M 40.72351455688477 0 C 63.21449279785156 0 81.44702911376953 18.2325325012207 81.44702911376953 40.72350692749023 L 81.44702911376953 40.7236213684082 C 81.44702911376953 63.214599609375 63.21449279785156 81.44712829589844 40.72351455688477 81.44712829589844 C 18.23253631591797 81.44712829589844 0 63.214599609375 0 40.7236213684082 L 0 40.72350692749023 C 0 18.2325325012207 18.23253631591797 0 40.72351455688477 0 Z" stroke="none" fill="#fff"/>
                  </g>
                </g>
                <g id="Rectángulo_400907" data-name="Rectángulo 400907" transform="translate(0)" fill="none" stroke="#fff" stroke-width="1">
                  <rect width="81.447" height="81.447" rx="40.724" stroke="none"/>
                  <rect x="0.5" y="0.5" width="80.447" height="80.447" rx="40.224" fill="none"/>
                </g>
              </g>
            </g>
          </g>
        </g>
      </g>
    </g>
    <g id="personal-development_2811202" transform="translate(624.155 4200.385)">
      <path id="Trazado_1032594" data-name="Trazado 1032594" d="M103.277,88H92.02A4.02,4.02,0,0,0,88,92.02v13.669a2.412,2.412,0,0,0,2.412,2.412H92.02v18.493h11.257V108.1h1.608a2.412,2.412,0,0,0,2.412-2.412V92.02A4.02,4.02,0,0,0,103.277,88Z" transform="translate(-64.764 -64.764)" fill="#ffceb6"/>
      <path id="Trazado_1032595" data-name="Trazado 1032595" d="M107.3,104.081V92.02a4.02,4.02,0,0,0-4.02-4.02H92.02A4.02,4.02,0,0,0,88,92.02v12.061h4.02v-1.608h11.257v1.608Z" transform="translate(-64.764 -64.764)" fill="#639aff"/>
      <path id="Trazado_1032596" data-name="Trazado 1032596" d="M166.955,96l-1.34,4.02.8,5.628-1.608,1.608-1.608-1.608.8-5.628L162.667,96Z" transform="translate(-131.926 -71.96)" fill="#ffc431"/>
      <path id="Trazado_1032597" data-name="Trazado 1032597" d="M145.648,88v4.824l-4.824-3.859L136,92.824V88Z" transform="translate(-107.939 -64.764)" fill="#548aff"/>
      <path id="Trazado_1032598" data-name="Trazado 1032598" d="M280,312h6.432v17.689H280Z" transform="translate(-237.467 -266.251)" fill="#ffa100"/>
      <path id="Trazado_1032599" data-name="Trazado 1032599" d="M344,200h6.432v28.945H344Z" transform="translate(-295.034 -165.507)" fill="#ffb401"/>
      <path id="Trazado_1032600" data-name="Trazado 1032600" d="M408,88h6.432v40.2H408Z" transform="translate(-352.602 -64.764)" fill="#ffc431"/>
      <path id="Trazado_1032601" data-name="Trazado 1032601" d="M128,232h11.257v24.121H128Z" transform="translate(-100.743 -194.291)" fill="#718799"/>
      <path id="Trazado_1032602" data-name="Trazado 1032602" d="M72,336h3.421a6.432,6.432,0,0,1,3.949,1.355l4.895,3.807a1.552,1.552,0,0,1,.6,1.226v.061a1.587,1.587,0,0,1-1.585,1.592h-.034a2.855,2.855,0,0,1-1.469-.407l-3.343-2.005a4.973,4.973,0,0,0,3.931,4.863l5.92,1.269a1.778,1.778,0,0,1-.373,3.517H72Z" transform="translate(-50.372 -287.839)" fill="#ffceb6"/>
      <path id="Trazado_1032603" data-name="Trazado 1032603" d="M160,56h4.824v2.412a2.412,2.412,0,0,1-4.824,0Z" transform="translate(-129.527 -35.98)" fill="#ffceb6"/>
      <path id="Trazado_1032604" data-name="Trazado 1032604" d="M160,27.216V25.608l1.946-1.3a1.852,1.852,0,0,1,2.879,1.541v1.365Z" transform="translate(-129.527 -7.196)" fill="#b1712c"/>
      <path id="Trazado_1032605" data-name="Trazado 1032605" d="M16,336h5.628v15.277H16Z" transform="translate(0 -287.839)" fill="#548aff"/>
      <path id="Trazado_1032606" data-name="Trazado 1032606" d="M83.216,44.141h.8v1.608h1.608V38.513h9.648v19.3h1.608V44.141h.8a3.22,3.22,0,0,0,3.216-3.216V27.256a4.83,4.83,0,0,0-4.824-4.824H93.669V18.656a2.655,2.655,0,0,0-4.129-2.21l-1.946,1.3a.8.8,0,0,0-.358.669v4.02H84.824A4.83,4.83,0,0,0,80,27.256V40.925a3.22,3.22,0,0,0,3.216,3.216Zm0-1.608a1.61,1.61,0,0,1-1.608-1.608v-.8H84.02v2.412Zm14.473,0h-.8V40.121H99.3v.8A1.61,1.61,0,0,1,97.689,42.533ZM94.473,24.04v2.347l-1.912-1.53a3.238,3.238,0,0,0,.675-.818ZM91.208,33.4l-.755.755L89.7,33.4l.649-4.54h.213Zm-.531-6.148h-.449L89.742,25.8l.233-.186a3.216,3.216,0,0,0,.955,0l.233.186Zm1.384-4.824a1.608,1.608,0,1,1-3.216,0V20.824h3.216Zm-1.628-4.648a1.047,1.047,0,0,1,1.628.872v.561H88.844v-.374ZM87.669,24.04a3.238,3.238,0,0,0,.675.818l-1.912,1.53V24.04Zm-2.845,0v4.02a.8.8,0,0,0,1.306.628L88.4,26.87l.422,1.265-.777,5.44a.8.8,0,0,0,.227.682l1.608,1.608a.8.8,0,0,0,1.137,0l1.608-1.608a.8.8,0,0,0,.227-.682l-.777-5.44L92.5,26.87l2.273,1.819a.8.8,0,0,0,1.306-.628V24.04A3.22,3.22,0,0,1,99.3,27.256V38.513H96.885v-8.04H95.277V36.9H85.628V30.473H84.02v8.04H81.608V27.256a3.22,3.22,0,0,1,3.216-3.216Z" transform="translate(-57.568)"/>
      <path id="Trazado_1032607" data-name="Trazado 1032607" d="M176,272h1.608v7.236H176Z" transform="translate(-143.919 -230.271)"/>
      <path id="Trazado_1032608" data-name="Trazado 1032608" d="M64.242,121.81V120.2H62.634V80.8a.8.8,0,0,0-.8-.8H55.4a.8.8,0,0,0-.8.8V91.257H48.966a.8.8,0,0,0-.8.8v10.452H42.533a.8.8,0,0,0-.8.8V120.2h-1.8a2.568,2.568,0,0,0,.191-.974A2.6,2.6,0,0,0,38.08,116.7l-5.92-1.269a4.191,4.191,0,0,1-2.964-2.458l1.794,1.076a3.662,3.662,0,0,0,1.883.521h.034a2.4,2.4,0,0,0,2.389-2.4v-.06a2.34,2.34,0,0,0-.909-1.862l-4.895-3.807a7.271,7.271,0,0,0-4.443-1.524H16v1.608h4.824V120.2H16v1.608Zm-8.04-40.2h4.824V120.2H56.2ZM49.77,92.865h4.824V120.2H49.77Zm-6.432,11.257h4.824V120.2H43.337ZM22.432,120.2V106.533h2.617a5.655,5.655,0,0,1,3.456,1.186l4.895,3.807a.753.753,0,0,1,.289.591v.06a.786.786,0,0,1-.781.788h-.034a2.054,2.054,0,0,1-1.056-.292l-3.342-2.005a.8.8,0,0,0-1.218.689,5.807,5.807,0,0,0,4.567,5.649l5.92,1.269a.974.974,0,0,1-.2,1.927Z" transform="translate(0 -57.568)"/>
    </g>
  </g>
</svg>
