<svg id="farmer_12058319_1_" data-name="farmer_12058319 (1)" xmlns="http://www.w3.org/2000/svg" width="71.614" height="72.231" viewBox="0 0 71.614 72.231">
  <g id="Grupo_1199428" data-name="Grupo 1199428" transform="translate(1.14 1.155)">
    <path id="Trazado_1031042" data-name="Trazado 1031042" d="M6.19,38.724a2.232,2.232,0,0,0,.4-1.972,6.519,6.519,0,0,1-.157-1.377,4.507,4.507,0,0,1,4.191-4.763,4.507,4.507,0,0,1,4.191,4.763,5.235,5.235,0,0,1-.585,2.427,6.942,6.942,0,0,1,2.189,5.156,7.325,7.325,0,0,1-.508,2.7,9.892,9.892,0,0,1,2.946,7.171c0,5.165-3.689,9.357-8.233,9.357S2.4,57.992,2.4,52.828A10.067,10.067,0,0,1,4.525,46.55,2.251,2.251,0,0,0,5,44.591a8.494,8.494,0,0,1-.165-1.633A7.118,7.118,0,0,1,6.19,38.724Z" transform="translate(-2.396 -8.862)" fill="#5b874e" fill-rule="evenodd"/>
    <path id="Trazado_1031043" data-name="Trazado 1031043" d="M15.585,35.11a2.27,2.27,0,0,0,.429-2.091,4.988,4.988,0,0,1-.242-1.579,5.278,5.278,0,0,1,5.114-5.423A5.278,5.278,0,0,1,26,31.44a5.719,5.719,0,0,1-.222,1.585A2.248,2.248,0,0,0,26.2,35.1a7.952,7.952,0,0,1,1.521,6.895,2.262,2.262,0,0,0,.526,2.092,10.908,10.908,0,0,1,2.682,7.228c0,5.879-4.5,10.653-10.046,10.653S10.839,57.189,10.839,51.31a10.972,10.972,0,0,1,2.674-7.234,2.252,2.252,0,0,0,.522-2.083,8.546,8.546,0,0,1-.222-1.919,7.734,7.734,0,0,1,1.772-4.964Z" transform="translate(-4.421 -7.76)" fill="#72a962" fill-rule="evenodd"/>
    <g id="Grupo_1199427" data-name="Grupo 1199427" transform="translate(12.315 27.626)">
      <path id="Trazado_1031044" data-name="Trazado 1031044" d="M22.556,39.482V56.513a1.14,1.14,0,0,0,2.28,0V39.482a1.14,1.14,0,1,0-2.28,0Z" transform="translate(-19.546 -38.342)" fill="#5b874e" fill-rule="evenodd"/>
      <path id="Trazado_1031045" data-name="Trazado 1031045" d="M24.254,45.376l3.01-1.691A1.14,1.14,0,1,0,26.148,41.7l-3.01,1.691a1.14,1.14,0,0,0,1.117,1.989Z" transform="translate(-19.546 -39.111)" fill="#5b874e" fill-rule="evenodd"/>
      <path id="Trazado_1031046" data-name="Trazado 1031046" d="M23.3,47.208l-3.009-1.691a1.141,1.141,0,1,0-1.117,1.989l3.01,1.691A1.14,1.14,0,0,0,23.3,47.208Z" transform="translate(-18.596 -40.028)" fill="#5b874e" fill-rule="evenodd"/>
    </g>
    <path id="Trazado_1031047" data-name="Trazado 1031047" d="M68.587,68.495c0-9.7-7.865-15.111-17.567-15.111-3.659,0-7.61-2.456-11.561-2.456s-7.9,2.456-11.561,2.456c-9.7,0-17.567,5.409-17.567,15.111V81.389a2.28,2.28,0,0,0,2.28,2.281H66.307a2.28,2.28,0,0,0,2.28-2.281Z" transform="translate(-4.299 -13.735)" fill="#4f4f4f" fill-rule="evenodd"/>
    <path id="Trazado_1031048" data-name="Trazado 1031048" d="M41.812,47.353a67.648,67.648,0,0,0,0-15.542h10.4a67.6,67.6,0,0,0,0,15.542Q47.01,51.186,41.812,47.353Z" transform="translate(-11.849 -9.15)" fill="#f9ab8e" fill-rule="evenodd"/>
    <path id="Trazado_1031049" data-name="Trazado 1031049" d="M55.782,14.8H34.943V26.37a10.42,10.42,0,0,0,3.051,7.368,24.828,24.828,0,0,0,4.623,3.15,5.2,5.2,0,0,0,5.462.007,24.791,24.791,0,0,0,4.651-3.157,10.418,10.418,0,0,0,3.052-7.368V14.8Z" transform="translate(-10.202 -5.069)" fill="#fac7a5" fill-rule="evenodd"/>
    <path id="Trazado_1031050" data-name="Trazado 1031050" d="M32.629,10.8s.007-.206.019-.536a7.839,7.839,0,0,1,4.986-7.028c4.049-1.669,6.783-1.639,10.823.057a7.814,7.814,0,0,1,4.965,7.01c.038.376.046.615.046.615l7.186,3.525a.38.38,0,0,1-.212.718c-9.33-.921-25.35-1.128-34.714-.059a.38.38,0,0,1-.225-.715L32.629,10.8Z" transform="translate(-7.888 -2)" fill="#f3ae24" fill-rule="evenodd"/>
    <path id="Trazado_1031051" data-name="Trazado 1031051" d="M34.573,11.7A41.451,41.451,0,0,1,55.26,11.69c.023.205.039.412.046.621.038.376.046.615.046.615l1.32.648a1.14,1.14,0,0,1-1.271.509,39.3,39.3,0,0,0-20.934,0,1.142,1.142,0,0,1-1.319-.588l1.364-.686s.007-.206.019-.536q.01-.291.041-.577Z" transform="translate(-9.771 -4.01)" fill="#c28b1d" fill-rule="evenodd"/>
    <path id="Trazado_1031052" data-name="Trazado 1031052" d="M44.234,37.026a6.691,6.691,0,0,0,6.4.008,1.14,1.14,0,0,0-1.02-2.04A4.528,4.528,0,0,1,45.284,35a1.14,1.14,0,0,0-1.051,2.024Z" transform="translate(-12.283 -9.884)" fill="#f8937b" fill-rule="evenodd"/>
    <path id="Trazado_1031053" data-name="Trazado 1031053" d="M34.053,62.477a6.469,6.469,0,0,0,6.469,6.469H44.9a6.47,6.47,0,0,0,6.469-6.469V53.619a12.059,12.059,0,0,0,2.9.41q1.154,0,2.271.1V71.112a6.281,6.281,0,0,0,3.563,3.647,2.266,2.266,0,0,1,1.415,2.1c.014,2.658.014,7.456.014,7.456H23.886V76.86a2.28,2.28,0,0,1,1.425-2.113,6.214,6.214,0,0,0,3.567-3.634V54.131q1.116-.1,2.271-.1a12.065,12.065,0,0,0,2.9-.41Z" transform="translate(-7.55 -14.38)" fill="#acce37" fill-rule="evenodd"/>
    <path id="Trazado_1031054" data-name="Trazado 1031054" d="M30.865,86.008v1.454a1.14,1.14,0,1,0,2.28,0V86.008a1.14,1.14,0,0,0-2.28,0Z" transform="translate(-9.224 -21.875)" fill="#cde187" fill-rule="evenodd"/>
    <path id="Trazado_1031055" data-name="Trazado 1031055" d="M63.435,86.008v1.454a1.14,1.14,0,1,0,2.28,0V86.008a1.14,1.14,0,0,0-2.28,0Z" transform="translate(-17.035 -21.875)" fill="#cde187" fill-rule="evenodd"/>
    <path id="Trazado_1031056" data-name="Trazado 1031056" d="M53.407,80.682a1.52,1.52,0,0,0-1.52-1.52H41.026a1.521,1.521,0,0,0-1.52,1.52v3.1a2.553,2.553,0,0,0,2.553,2.552h8.8a2.552,2.552,0,0,0,2.552-2.552Z" transform="translate(-11.296 -20.506)" fill="#cde187" fill-rule="evenodd"/>
    <path id="Trazado_1031057" data-name="Trazado 1031057" d="M63.741,43.632s3.869-2.9,6.553-3.182A3.287,3.287,0,0,1,72.923,41a13.872,13.872,0,0,0,5.493,2.1,1.14,1.14,0,1,0,.455-2.234,12.706,12.706,0,0,1-5.284-2.136,5.215,5.215,0,0,0-3.53-.549c-3.123.326-7.668,3.614-7.668,3.614a1.14,1.14,0,0,0,1.352,1.837Z" transform="translate(-16.673 -10.663)" fill="#d0d5fd" fill-rule="evenodd"/>
    <path id="Trazado_1031058" data-name="Trazado 1031058" d="M79.049,37.007a8.142,8.142,0,0,1,2.331-.712,3.285,3.285,0,0,1,2.629.546,13.866,13.866,0,0,0,5.493,2.1,1.14,1.14,0,1,0,.456-2.234,12.72,12.72,0,0,1-5.284-2.135,5.212,5.212,0,0,0-3.531-.55,10.51,10.51,0,0,0-3.017.9,1.14,1.14,0,0,0,.924,2.085Z" transform="translate(-20.396 -9.666)" fill="#d0d5fd" fill-rule="evenodd"/>
  </g>
  <path id="Trazado_1031059" data-name="Trazado 1031059" d="M8.486,60.443c-3.084-.929-5.31-4.159-5.31-7.954A8.927,8.927,0,0,1,5.04,46.943a3.4,3.4,0,0,0,.712-2.937,7.3,7.3,0,0,1-.138-1.387,5.98,5.98,0,0,1,1.112-3.526,3.387,3.387,0,0,0,.617-2.947,5.371,5.371,0,0,1-.125-1.11,3.488,3.488,0,0,1,2.572-3.579,1.14,1.14,0,1,0-.422-2.241,5.774,5.774,0,0,0-4.431,5.82,7.692,7.692,0,0,0,.182,1.618c0,.02.009.04.014.059a1.09,1.09,0,0,1-.2.965l-.023.03a8.259,8.259,0,0,0-1.58,4.912,9.652,9.652,0,0,0,.186,1.853c0,.012.005.025.008.037a1.111,1.111,0,0,1-.233.966l-.021.025A11.207,11.207,0,0,0,.9,52.488c0,4.874,2.972,8.945,6.933,10.138a1.14,1.14,0,1,0,.658-2.183Z" transform="translate(-0.896 -7.367)" fill-rule="evenodd"/>
  <path id="Trazado_1031060" data-name="Trazado 1031060" d="M11.619,50.95A9.832,9.832,0,0,1,14,44.48a3.4,3.4,0,0,0,.784-3.115,7.424,7.424,0,0,1-.19-1.65A6.594,6.594,0,0,1,16.1,35.481l0,0a3.411,3.411,0,0,0,.645-3.142c0-.012-.008-.025-.012-.037a3.859,3.859,0,0,1-.184-1.219A4.138,4.138,0,0,1,20.526,26.8,4.138,4.138,0,0,1,24.5,31.08a4.585,4.585,0,0,1-.177,1.269,3.384,3.384,0,0,0,.637,3.106,6.815,6.815,0,0,1,1.3,5.9,3.4,3.4,0,0,0,.787,3.133,9.519,9.519,0,0,1,1.681,2.751,1.14,1.14,0,0,0,2.119-.845,11.8,11.8,0,0,0-2.1-3.424l-.017-.018a1.122,1.122,0,0,1-.261-1.038l0-.008a9.094,9.094,0,0,0-1.742-7.888l-.008-.009a1.109,1.109,0,0,1-.21-1.021.018.018,0,0,0,0-.006,6.858,6.858,0,0,0,.267-1.9,6.418,6.418,0,0,0-6.254-6.563,6.418,6.418,0,0,0-6.255,6.563A6.134,6.134,0,0,0,14.565,33a1.132,1.132,0,0,1-.217,1.027,8.87,8.87,0,0,0-2.034,5.691,9.724,9.724,0,0,0,.251,2.174l.007.029a1.109,1.109,0,0,1-.258,1.027l-.019.021A12.114,12.114,0,0,0,9.339,50.95a1.14,1.14,0,0,0,2.28,0Z" transform="translate(-2.921 -6.245)" fill-rule="evenodd"/>
  <path id="Trazado_1031061" data-name="Trazado 1031061" d="M22.556,39.482V50.836a1.14,1.14,0,0,0,2.28,0V39.482a1.14,1.14,0,1,0-2.28,0Z" transform="translate(-6.091 -9.561)" fill-rule="evenodd"/>
  <path id="Trazado_1031062" data-name="Trazado 1031062" d="M24.254,45.376l3.01-1.691A1.14,1.14,0,1,0,26.148,41.7l-3.01,1.691a1.14,1.14,0,0,0,1.117,1.989Z" transform="translate(-6.091 -10.33)" fill-rule="evenodd"/>
  <path id="Trazado_1031063" data-name="Trazado 1031063" d="M23.3,47.208l-3.009-1.691a1.141,1.141,0,1,0-1.117,1.989l3.01,1.691A1.14,1.14,0,0,0,23.3,47.208Z" transform="translate(-5.141 -11.247)" fill-rule="evenodd"/>
  <path id="Trazado_1031064" data-name="Trazado 1031064" d="M34.579,50.98a1.14,1.14,0,0,0-1.016-.171A21.435,21.435,0,0,1,27.539,52.2c-10.375,0-18.707,5.875-18.707,16.251V81.348a3.421,3.421,0,0,0,3.421,3.421H65.947a3.421,3.421,0,0,0,3.421-3.421V68.454c0-10.375-8.331-16.251-18.707-16.251a21.441,21.441,0,0,1-6.024-1.394,1.139,1.139,0,0,0-1.015.171,6.967,6.967,0,0,1-9.043,0ZM33.7,53.155a8.883,8.883,0,0,0,10.791,0,21.4,21.4,0,0,0,6.165,1.33c9.028,0,16.426,4.942,16.426,13.97V81.348a1.14,1.14,0,0,1-1.14,1.14H12.253a1.141,1.141,0,0,1-1.14-1.14V68.454c0-9.028,7.4-13.97,16.426-13.97A21.423,21.423,0,0,0,33.7,53.155Z" transform="translate(-2.799 -12.538)" fill-rule="evenodd"/>
  <path id="Trazado_1031065" data-name="Trazado 1031065" d="M42.585,49.634c.116-1.007.21-2.047.283-3.105a1.14,1.14,0,1,0-2.275-.157c-.07,1.023-.162,2.029-.274,3a1.14,1.14,0,1,0,2.266.259Zm7.676-7.709a72.348,72.348,0,0,0,.455,7.709,1.14,1.14,0,1,0,2.265-.259,70.235,70.235,0,0,1-.439-7.463,1.14,1.14,0,0,0-2.28.014Z" transform="translate(-10.349 -10.145)" fill-rule="evenodd"/>
  <path id="Trazado_1031066" data-name="Trazado 1031066" d="M10.474,87.444h9.434a1.14,1.14,0,1,0,0-2.28H10.474a1.14,1.14,0,1,0,0,2.28Z" transform="translate(-2.92 -20.79)" fill-rule="evenodd"/>
  <path id="Trazado_1031067" data-name="Trazado 1031067" d="M73.694,87.444h9.434a1.14,1.14,0,0,0,0-2.28H73.694a1.14,1.14,0,1,0,0,2.28Z" transform="translate(-18.082 -20.79)" fill-rule="evenodd"/>
  <path id="Trazado_1031068" data-name="Trazado 1031068" d="M48.294,38.356a26.013,26.013,0,0,0,4.883-3.336,11.56,11.56,0,0,0,3.386-8.174V18.208a1.14,1.14,0,0,0-1.083-1.139c-6.584-.328-14.366-.39-20.949-.083a1.141,1.141,0,0,0-1.087,1.139v8.721a11.56,11.56,0,0,0,3.386,8.174,26.007,26.007,0,0,0,4.851,3.327A6.341,6.341,0,0,0,48.294,38.356ZM35.723,19.217c5.907-.235,12.651-.185,18.559.078v7.551a9.278,9.278,0,0,1-2.718,6.561,23.5,23.5,0,0,1-4.405,2.97l-.037.022a4.062,4.062,0,0,1-4.265-.005l-.038-.023a23.465,23.465,0,0,1-4.378-2.964,9.278,9.278,0,0,1-2.718-6.561Z" transform="translate(-8.702 -4.391)" fill-rule="evenodd"/>
  <path id="Trazado_1031069" data-name="Trazado 1031069" d="M31.155,9.718,24.63,13a1.52,1.52,0,0,0,.876,2.866c9.3-1.06,25.187-.854,34.451.06a1.521,1.521,0,0,0,.845-2.873L54.2,9.816a8.955,8.955,0,0,0-5.68-7.95C44.169.044,41.217.012,36.849,1.81a8.98,8.98,0,0,0-5.694,7.907Zm25.038,3.617a221.376,221.376,0,0,0-26.978-.087l3.567-1.8-.081.019a1.058,1.058,0,0,0,.708-1l.019-.529a6.7,6.7,0,0,1,4.261-6.007l.021-.008a11.247,11.247,0,0,1,9.948.055l.026.011a6.674,6.674,0,0,1,4.24,5.987c0,.025,0,.05.005.075.024.235.034.411.039.5a1.336,1.336,0,0,0,.815,1.114Z" transform="translate(-6.388 -0.48)" fill-rule="evenodd"/>
  <path id="Trazado_1031070" data-name="Trazado 1031070" d="M57.51,11.881a41.708,41.708,0,0,0-17.066-1.062,1.14,1.14,0,0,0,.331,2.256,39.455,39.455,0,0,1,16.142,1.008,1.14,1.14,0,0,0,.593-2.2Z" transform="translate(-10.147 -2.855)" fill-rule="evenodd"/>
  <path id="Trazado_1031071" data-name="Trazado 1031071" d="M44.234,37.026a6.691,6.691,0,0,0,6.4.008,1.14,1.14,0,0,0-1.02-2.04A4.528,4.528,0,0,1,45.284,35a1.14,1.14,0,0,0-1.051,2.024Z" transform="translate(-11.142 -8.729)" fill-rule="evenodd"/>
  <path id="Trazado_1031072" data-name="Trazado 1031072" d="M24.666,83.955V76.5a1.14,1.14,0,0,1,.7-1.052,7.363,7.363,0,0,0,4.22-4.3,1.136,1.136,0,0,0,.071-.4V53.772a1.14,1.14,0,1,0-2.28,0V70.538a5.068,5.068,0,0,1-2.84,2.785l-.016.007A3.42,3.42,0,0,0,22.386,76.5v7.456a1.14,1.14,0,0,0,2.28,0ZM55.043,53.772V70.752a1.154,1.154,0,0,0,.071.4,7.421,7.421,0,0,0,4.2,4.308,1.127,1.127,0,0,1,.7,1.044v.006c.014,2.656.014,7.45.014,7.45a1.14,1.14,0,0,0,2.28,0s0-4.8-.014-7.462a3.406,3.406,0,0,0-2.127-3.152l-.008,0a5.132,5.132,0,0,1-2.843-2.8s0-16.767,0-16.767a1.14,1.14,0,1,0-2.28,0Zm-22.489-.512v8.858a7.61,7.61,0,0,0,7.609,7.609h4.377a7.61,7.61,0,0,0,7.609-7.609V53.259a1.14,1.14,0,0,0-2.28,0v8.858a5.328,5.328,0,0,1-5.329,5.329H40.162a5.328,5.328,0,0,1-5.329-5.329V53.259a1.14,1.14,0,0,0-2.28,0Z" transform="translate(-6.05 -12.865)" fill-rule="evenodd"/>
  <path id="Trazado_1031073" data-name="Trazado 1031073" d="M30.865,86.008v1.454a1.14,1.14,0,1,0,2.28,0V86.008a1.14,1.14,0,0,0-2.28,0Z" transform="translate(-8.084 -20.719)" fill-rule="evenodd"/>
  <path id="Trazado_1031074" data-name="Trazado 1031074" d="M63.435,86.008v1.454a1.14,1.14,0,1,0,2.28,0V86.008a1.14,1.14,0,0,0-2.28,0Z" transform="translate(-15.895 -20.719)" fill-rule="evenodd"/>
  <path id="Trazado_1031075" data-name="Trazado 1031075" d="M54.188,80.323a2.661,2.661,0,0,0-2.661-2.661H40.667a2.661,2.661,0,0,0-2.661,2.661v3.1A3.693,3.693,0,0,0,41.7,87.117h8.8a3.693,3.693,0,0,0,3.692-3.692Zm-2.28,0v3.1A1.411,1.411,0,0,1,50.5,84.836H41.7a1.412,1.412,0,0,1-1.412-1.412v-3.1a.38.38,0,0,1,.38-.38h10.86A.38.38,0,0,1,51.907,80.323Z" transform="translate(-9.796 -18.991)" fill-rule="evenodd"/>
  <path id="Trazado_1031076" data-name="Trazado 1031076" d="M63.741,43.632s3.869-2.9,6.553-3.182A3.287,3.287,0,0,1,72.923,41a13.872,13.872,0,0,0,5.493,2.1,1.14,1.14,0,1,0,.455-2.234,12.706,12.706,0,0,1-5.284-2.136,5.215,5.215,0,0,0-3.53-.549c-3.123.326-7.668,3.614-7.668,3.614a1.14,1.14,0,0,0,1.352,1.837Z" transform="translate(-15.533 -9.507)" fill-rule="evenodd"/>
  <path id="Trazado_1031077" data-name="Trazado 1031077" d="M79.049,37.007a8.142,8.142,0,0,1,2.331-.712,3.285,3.285,0,0,1,2.629.546,13.866,13.866,0,0,0,5.493,2.1,1.14,1.14,0,1,0,.456-2.234,12.72,12.72,0,0,1-5.284-2.135,5.212,5.212,0,0,0-3.531-.55,10.51,10.51,0,0,0-3.017.9,1.14,1.14,0,0,0,.924,2.085Z" transform="translate(-19.256 -8.511)" fill-rule="evenodd"/>
</svg>
