<svg id="team_12309507_1_" data-name="team_12309507 (1)" xmlns="http://www.w3.org/2000/svg" width="72.459" height="72.459" viewBox="0 0 72.459 72.459">
  <path id="Trazado_1031078" data-name="Trazado 1031078" d="M44,55H59.85v9.057H44Z" transform="translate(5.814 7.269)" fill="#ffcc3e"/>
  <path id="Trazado_1031079" data-name="Trazado 1031079" d="M39,55h5.661v9.057H39Z" transform="translate(5.154 7.269)" fill="#f4baa6"/>
  <path id="Trazado_1031080" data-name="Trazado 1031080" d="M20,55h5.661v9.057H20Z" transform="translate(2.642 7.269)" fill="#f4baa6"/>
  <path id="Trazado_1031081" data-name="Trazado 1031081" d="M6,55H21.85v9.057H6Z" transform="translate(0.792 7.269)" fill="#ffcc3e"/>
  <path id="Trazado_1031082" data-name="Trazado 1031082" d="M6.661,56.057v9.057H1V47H6.661Z" transform="translate(0.131 6.212)" fill="#f4baa6"/>
  <path id="Trazado_1031083" data-name="Trazado 1031083" d="M44.925,52.925v3.4H39.264L37,51.793V45A7.934,7.934,0,0,1,44.925,52.925Z" transform="translate(4.889 5.948)" fill="#228ab2"/>
  <path id="Trazado_1031084" data-name="Trazado 1031084" d="M40.85,55.529v9.057H25V55.529L27.264,51H38.586Z" transform="translate(3.303 6.741)" fill="#f7a539"/>
  <path id="Trazado_1031085" data-name="Trazado 1031085" d="M38.322,45v6.793H27V45H38.322Z" transform="translate(3.568 5.948)" fill="#228ab2"/>
  <path id="Trazado_1031086" data-name="Trazado 1031086" d="M27.925,45v6.793l-2.264,4.529H20v-3.4A7.934,7.934,0,0,1,27.925,45Z" transform="translate(2.642 5.948)" fill="#228ab2"/>
  <path id="Trazado_1031087" data-name="Trazado 1031087" d="M18.593,16.993a6.73,6.73,0,0,1,1.993,4.8H7A6.8,6.8,0,0,1,13.793,15,6.73,6.73,0,0,1,18.593,16.993Z" transform="translate(0.924 1.983)" fill="#ffcc3e"/>
  <path id="Trazado_1031088" data-name="Trazado 1031088" d="M20.586,27.793v2.264a6.8,6.8,0,0,1-6.793,6.793A6.8,6.8,0,0,1,7,30.057V21H20.586Z" transform="translate(0.924 2.776)" fill="#f4baa6"/>
  <path id="Trazado_1031089" data-name="Trazado 1031089" d="M21.85,53.454v3.4H6V47.793L7.132,41H20.718l1.132,6.793Z" transform="translate(0.792 5.419)" fill="#f7a539"/>
  <path id="Trazado_1031090" data-name="Trazado 1031090" d="M7.793,35v6.793L6.661,48.586H1V41.793A6.784,6.784,0,0,1,7.793,35Z" transform="translate(0.131 4.626)" fill="#228ab2"/>
  <path id="Trazado_1031091" data-name="Trazado 1031091" d="M20.586,35v6.793H7V35H20.586Z" transform="translate(0.924 4.626)" fill="#228ab2"/>
  <path id="Trazado_1031092" data-name="Trazado 1031092" d="M28.918,44.329a6.73,6.73,0,0,0,4.8,1.993H28.057a7.934,7.934,0,0,0-7.925,7.925V48.586L19,41.793V35c4.382,0,6.793,1.132,7.925,4.529a6.73,6.73,0,0,0,1.993,4.8Z" transform="translate(2.51 4.626)" fill="#228ab2"/>
  <path id="Trazado_1031093" data-name="Trazado 1031093" d="M27.718,32.322v9.057c-1.132-3.4-3.544-4.529-7.925-4.529H13a6.8,6.8,0,0,0,6.793-6.793V27.793c0-3.4,2.819-6.793,7.925-6.793Z" transform="translate(1.717 2.776)" fill="#228ab2"/>
  <path id="Trazado_1031094" data-name="Trazado 1031094" d="M63.661,47V65.115H58V47Z" transform="translate(7.665 6.212)" fill="#f4baa6"/>
  <path id="Trazado_1031095" data-name="Trazado 1031095" d="M63.793,41.793v6.793H58.132L57,41.793V35A6.784,6.784,0,0,1,63.793,41.793Z" transform="translate(7.533 4.626)" fill="#228ab2"/>
  <path id="Trazado_1031096" data-name="Trazado 1031096" d="M51.793,15a6.8,6.8,0,0,1,6.793,6.793H45A6.8,6.8,0,0,1,51.793,15Z" transform="translate(5.947 1.983)" fill="#ffcc3e"/>
  <path id="Trazado_1031097" data-name="Trazado 1031097" d="M58.586,35v6.793H45V35H58.586Z" transform="translate(5.947 4.626)" fill="#228ab2"/>
  <path id="Trazado_1031098" data-name="Trazado 1031098" d="M58.586,21v9.057a6.8,6.8,0,0,1-6.793,6.793A6.8,6.8,0,0,1,45,30.057V21Z" transform="translate(5.947 2.776)" fill="#f4baa6"/>
  <path id="Trazado_1031099" data-name="Trazado 1031099" d="M59.85,47.793V56.85H44V47.793L45.132,41H58.718Z" transform="translate(5.814 5.419)" fill="#f7a539"/>
  <path id="Trazado_1031100" data-name="Trazado 1031100" d="M32,46.322a6.8,6.8,0,0,0,6.793-6.793C39.925,36.132,42.337,35,46.718,35v6.793l-1.132,6.793v5.661a7.934,7.934,0,0,0-7.925-7.925Z" transform="translate(4.228 4.626)" fill="#228ab2"/>
  <path id="Trazado_1031101" data-name="Trazado 1031101" d="M39.586,31v9.057a6.8,6.8,0,0,1-6.793,6.793A6.8,6.8,0,0,1,26,40.057V31Z" transform="translate(3.435 4.097)" fill="#f4baa6"/>
  <path id="Trazado_1031102" data-name="Trazado 1031102" d="M32.793,25a6.8,6.8,0,0,1,6.793,6.793H26A6.8,6.8,0,0,1,32.793,25Z" transform="translate(3.435 3.304)" fill="#ffcc3e"/>
  <path id="Trazado_1031103" data-name="Trazado 1031103" d="M45.925,30.057a6.8,6.8,0,0,0,6.793,6.793H45.925c-4.382,0-6.793,1.132-7.925,4.529V21c5.106,0,7.925,3.4,7.925,6.793Z" transform="translate(5.021 2.776)" fill="#228ab2"/>
  <path id="Trazado_1031104" data-name="Trazado 1031104" d="M39.586,21V32.322a6.8,6.8,0,0,0-6.793-6.793A6.8,6.8,0,0,0,26,32.322V21Z" transform="translate(3.435 2.776)" fill="#228ab2"/>
  <path id="Trazado_1031105" data-name="Trazado 1031105" d="M39.586,7v9.057a6.8,6.8,0,0,1-6.793,6.793A6.8,6.8,0,0,1,26,16.057V7Z" transform="translate(3.435 0.925)" fill="#f4baa6"/>
  <path id="Trazado_1031106" data-name="Trazado 1031106" d="M32.793,1a6.8,6.8,0,0,1,6.793,6.793H26A6.8,6.8,0,0,1,32.793,1Z" transform="translate(3.435 0.132)" fill="#ffcc3e"/>
  <g id="Grupo_1199429" data-name="Grupo 1199429">
    <circle id="Elipse_12138" data-name="Elipse 12138" cx="1" cy="1" r="1" transform="translate(33 11.459)" fill="#252525"/>
    <ellipse id="Elipse_12139" data-name="Elipse 12139" cx="1.5" cy="1" rx="1.5" ry="1" transform="translate(37 11.459)" fill="#252525"/>
    <circle id="Elipse_12140" data-name="Elipse 12140" cx="1" cy="1" r="1" transform="translate(33 38.459)" fill="#252525"/>
    <ellipse id="Elipse_12141" data-name="Elipse 12141" cx="1.5" cy="1" rx="1.5" ry="1" transform="translate(37 38.459)" fill="#252525"/>
    <ellipse id="Elipse_12142" data-name="Elipse 12142" cx="1.5" cy="1" rx="1.5" ry="1" transform="translate(11 27.459)" fill="#252525"/>
    <circle id="Elipse_12143" data-name="Elipse 12143" cx="1" cy="1" r="1" transform="translate(16 27.459)" fill="#252525"/>
    <circle id="Elipse_12144" data-name="Elipse 12144" cx="1" cy="1" r="1" transform="translate(59 27.459)" fill="#252525"/>
    <ellipse id="Elipse_12145" data-name="Elipse 12145" cx="1.5" cy="1" rx="1.5" ry="1" transform="translate(54 27.459)" fill="#252525"/>
    <path id="Trazado_1031107" data-name="Trazado 1031107" d="M34.661,14a1.131,1.131,0,0,0-1.132,1.132A1.132,1.132,0,0,1,32.4,16.264a1.107,1.107,0,0,1-.807-.348,1.085,1.085,0,0,1-.325-.785,1.132,1.132,0,1,0-2.264,0,3.413,3.413,0,0,0,3.4,3.4,3.4,3.4,0,0,0,3.4-3.4A1.131,1.131,0,0,0,34.661,14Z" transform="translate(3.832 1.85)" fill="#252525"/>
    <path id="Trazado_1031108" data-name="Trazado 1031108" d="M34.661,38a1.131,1.131,0,0,0-1.132,1.132A1.132,1.132,0,0,1,32.4,40.264a1.107,1.107,0,0,1-.807-.348,1.085,1.085,0,0,1-.325-.785,1.132,1.132,0,0,0-2.264,0,3.413,3.413,0,0,0,3.4,3.4,3.4,3.4,0,0,0,3.4-3.4A1.131,1.131,0,0,0,34.661,38Z" transform="translate(3.832 5.023)" fill="#252525"/>
    <path id="Trazado_1031109" data-name="Trazado 1031109" d="M15.661,28a1.131,1.131,0,0,0-1.132,1.132A1.132,1.132,0,0,1,13.4,30.264a1.107,1.107,0,0,1-.807-.348,1.085,1.085,0,0,1-.325-.785,1.132,1.132,0,1,0-2.264,0,3.413,3.413,0,0,0,3.4,3.4,3.4,3.4,0,0,0,3.4-3.4A1.131,1.131,0,0,0,15.661,28Z" transform="translate(1.321 3.701)" fill="#252525"/>
    <path id="Trazado_1031110" data-name="Trazado 1031110" d="M64.534,38.494H63.277a8.423,8.423,0,0,0,2.389-5.661V24.908H66.8a1.132,1.132,0,0,0,0-2.264H65.575a7.932,7.932,0,0,0-7.835-6.793,7.936,7.936,0,0,0-7.925,7.925v1.453a9.338,9.338,0,0,0-6.793-2.585H41.765a7.9,7.9,0,0,0,2.39-5.661V9.057h1.132a1.132,1.132,0,0,0,0-2.264h-1.22A7.921,7.921,0,0,0,36.23,0,7.932,7.932,0,0,0,28.4,6.793H27.173a1.132,1.132,0,1,0,0,2.264h1.132v7.925a7.763,7.763,0,0,0,2.39,5.661H29.437a9.338,9.338,0,0,0-6.793,2.585V23.776a7.936,7.936,0,0,0-7.925-7.925,7.932,7.932,0,0,0-7.835,6.793H5.662a1.132,1.132,0,0,0,0,2.264H6.794v7.925a9.086,9.086,0,0,0,2.39,5.661H7.926A7.935,7.935,0,0,0,0,46.419V71.327a1.131,1.131,0,0,0,1.132,1.132H71.328a1.131,1.131,0,0,0,1.132-1.132V46.419a7.935,7.935,0,0,0-7.925-7.925Zm5.661,7.925V52.08h-3.57l-.959-5.754V40.873A5.671,5.671,0,0,1,70.195,46.419ZM57.741,66.8a1.131,1.131,0,0,0-1.132,1.132v2.264H50.948V63.4H64.534v6.793H58.873V67.93A1.131,1.131,0,0,0,57.741,66.8Zm-43.023,0a1.131,1.131,0,0,0-1.132,1.132v2.264H7.925V63.4H21.511v6.793H15.85V67.93A1.131,1.131,0,0,0,14.718,66.8Zm13.6-22.4a7.941,7.941,0,0,0,2.378,5.417s-4.551.1-6.949,3.12l-1.1-6.61V40.8c3.272.178,4.83,1.191,5.672,3.6Zm7.914-12.7a1.131,1.131,0,0,0,1.132-1.132V29.55a5.685,5.685,0,0,1,4.415,4.414H30.683A5.678,5.678,0,0,1,35.1,29.55v1.018A1.131,1.131,0,0,0,36.229,31.7Zm27.345,15.85.959,5.754v7.832H50.948V53.306l.959-5.755H63.576ZM31.7,52.08h9.057v4.529H31.7Zm.525-3.929a5.584,5.584,0,0,1-1.657-4V36.229H41.89v7.925a5.667,5.667,0,0,1-5.661,5.661A5.588,5.588,0,0,1,32.226,48.151ZM44.854,61.137l-1.832-3.664V52.183a6.8,6.8,0,0,1,5.661,6.691v2.264H44.854Zm4.961-14.811-1.1,6.61a10.051,10.051,0,0,0-6.949-3.12A7.9,7.9,0,0,0,44.142,44.4c.843-2.413,2.4-3.426,5.673-3.6ZM20.552,47.551l.959,5.755v7.831H7.925V53.3l.959-5.754H20.553Zm3.223,11.322a6.8,6.8,0,0,1,5.661-6.691v5.291L27.6,61.136H23.775V58.872Zm5.661,3.664,1.832-3.664h9.922l1.832,3.664v7.658H29.436Zm15.85.865h3.4v6.793h-3.4ZM63.4,40.758v4.529H52.08V40.758Zm-6.793-22.53v1.019a1.132,1.132,0,0,0,2.264,0V18.229a5.678,5.678,0,0,1,4.414,4.414H52.193a5.685,5.685,0,0,1,4.414-4.415Zm-4.529,6.68H63.4v7.925a5.671,5.671,0,0,1-5.661,5.661,5.667,5.667,0,0,1-5.661-5.661Zm-2.264,5.661v2.264a7.9,7.9,0,0,0,2.39,5.661H50.948c-2.4,0-4.918.29-6.793,1.882V36.229h1.132a1.132,1.132,0,0,0,0-2.264H44.155V24.98C47.873,25.421,49.815,28.005,49.815,30.569ZM35.1,2.379V3.4a1.132,1.132,0,0,0,2.264,0V2.378a5.685,5.685,0,0,1,4.415,4.414H30.683A5.678,5.678,0,0,1,35.1,2.378Zm-2.871,18.6a5.584,5.584,0,0,1-1.657-4V9.057H41.89v7.925a5.667,5.667,0,0,1-5.661,5.661A5.588,5.588,0,0,1,32.226,20.979Zm9.664,3.929v4.653c-.019-.02-.036-.042-.057-.062a7.9,7.9,0,0,0-11.265.062V24.907H41.89ZM28.3,24.98v8.985H27.172a1.132,1.132,0,1,0,0,2.264H28.3v4.146c-1.875-1.592-4.4-1.882-6.793-1.882H20.253a7.9,7.9,0,0,0,2.39-5.661V30.569C22.643,28.005,24.586,25.421,28.3,24.98ZM13.586,18.229v1.018a1.132,1.132,0,0,0,2.264,0V18.228a5.685,5.685,0,0,1,4.415,4.414H9.172a5.678,5.678,0,0,1,4.414-4.414Zm-2.871,18.6a5.584,5.584,0,0,1-1.657-4V24.908H20.379v7.925a5.667,5.667,0,0,1-5.661,5.661A5.588,5.588,0,0,1,10.715,36.83Zm9.664,3.929v4.529H9.057V40.758Zm-13.586.114v5.454L5.834,52.08H2.264V46.419a5.671,5.671,0,0,1,4.529-5.547ZM2.264,54.344h3.4v15.85h-3.4ZM23.775,63.4h3.4v6.793h-3.4ZM66.8,70.195V54.344h3.4v15.85Z" transform="translate(-0.001)" fill="#252525"/>
    <path id="Trazado_1031111" data-name="Trazado 1031111" d="M51.4,32.529a3.413,3.413,0,0,0,3.4-3.4,1.132,1.132,0,0,0-2.264,0,1.107,1.107,0,0,1-.348.807,1.085,1.085,0,0,1-.785.325,1.133,1.133,0,0,1-1.132-1.132,1.132,1.132,0,0,0-2.264,0A3.4,3.4,0,0,0,51.4,32.529Z" transform="translate(6.343 3.701)" fill="#252525"/>
  </g>
</svg>
