<svg id="social-network_17870203" xmlns="http://www.w3.org/2000/svg" width="77.349" height="77.018" viewBox="0 0 77.349 77.018">
  <g id="Grupo_1199430" data-name="Grupo 1199430" transform="translate(1.167 1.167)">
    <path id="Trazado_1031112" data-name="Trazado 1031112" d="M106.607,34.4A18.117,18.117,0,1,1,88.49,52.517,18.12,18.12,0,0,1,106.607,34.4Z" transform="translate(-78.846 -34.4)" fill="#edbd27" fill-rule="evenodd"/>
    <path id="Trazado_1031113" data-name="Trazado 1031113" d="M135.6,62.7a18.119,18.119,0,0,1-29.5,20.547A18.12,18.12,0,0,1,135.6,62.7Z" transform="translate(-91.796 -52.999)" fill="#fddc4c" fill-rule="evenodd"/>
    <path id="Trazado_1031114" data-name="Trazado 1031114" d="M151.944,194.89a18.123,18.123,0,0,1-22.624,0,7.907,7.907,0,0,1,7.773-6.62h.964a2.6,2.6,0,0,0,5.151,0h.964a7.911,7.911,0,0,1,7.773,6.62Z" transform="translate(-112.87 -162.62)" fill="#f3777a" fill-rule="evenodd"/>
    <path id="Trazado_1031115" data-name="Trazado 1031115" d="M178.277,194.89a18.136,18.136,0,0,1-17.357,2.929v-1.672a7.892,7.892,0,0,1,3.874-6.776,2.592,2.592,0,0,0,4.744-1.1h.962a7.912,7.912,0,0,1,7.777,6.62Z" transform="translate(-139.202 -162.62)" fill="#f598a2" fill-rule="evenodd"/>
    <path id="Trazado_1031116" data-name="Trazado 1031116" d="M199.918,199.67a18,18,0,0,1-4.513.567c-.118,0-.237,0-.355,0l5.95-10.3a7.907,7.907,0,0,1,3.416,1.947Z" transform="translate(-167.643 -164.003)" fill="#ffe0b2" fill-rule="evenodd"/>
    <path id="Trazado_1031117" data-name="Trazado 1031117" d="M151.777,200.25a17.987,17.987,0,0,1-4.157-.562l-4.5-7.792a7.916,7.916,0,0,1,3.416-1.947l5.594,9.692Z" transform="translate(-124.37 -164.02)" fill="#ffe0b2" fill-rule="evenodd"/>
    <path id="Trazado_1031118" data-name="Trazado 1031118" d="M186.808,172.62v2.292a2.594,2.594,0,0,1-5.188,0V172.63A4.75,4.75,0,0,0,186.808,172.62Z" transform="translate(-156.452 -149.579)" fill="#fdcc9a" fill-rule="evenodd"/>
    <path id="Trazado_1031119" data-name="Trazado 1031119" d="M172.461,105.952c0,12.144-12.361,12.427-12.361-.208l3.464-3.034C164.031,105.009,169.844,106.879,172.461,105.952Z" transform="translate(-138.519 -91.323)" fill="#e4a978" fill-rule="evenodd"/>
    <path id="Trazado_1031120" data-name="Trazado 1031120" d="M185.427,108.036a10.841,10.841,0,0,1-2.254,7.258c-3.464,1.035-7.513-1.96-7.513-9.2l1.015-.889C177.7,107.309,182.97,108.906,185.427,108.036Z" transform="translate(-151.485 -93.406)" fill="#fdcc9a" fill-rule="evenodd"/>
    <path id="Trazado_1031121" data-name="Trazado 1031121" d="M157.645,81.755c-1.272-2.354.072-5.033,2.362-6.648a6.725,6.725,0,0,1,7.758.09c2.244,1.669,3.577,4.446,2.24,6.766-2.617.927-8.43-.945-8.9-3.242Z" transform="translate(-136.064 -67.332)" fill="#ac6327" fill-rule="evenodd"/>
    <path id="Trazado_1031122" data-name="Trazado 1031122" d="M183.814,56.85h.458a2.428,2.428,0,0,1,2.424,2.419v.969a6.837,6.837,0,0,0-5.306-.018v-.95A2.427,2.427,0,0,1,183.814,56.85Z" transform="translate(-156.26 -53.108)" fill="#965524" fill-rule="evenodd"/>
    <path id="Trazado_1031123" data-name="Trazado 1031123" d="M281.4,200.03a18.117,18.117,0,1,1-18.117,18.117A18.113,18.113,0,0,1,281.4,200.03Z" transform="translate(-224.499 -172.42)" fill="#edbd27" fill-rule="evenodd"/>
    <path id="Trazado_1031124" data-name="Trazado 1031124" d="M311.3,226.234a18.117,18.117,0,0,1-27.8,22.779,18.118,18.118,0,0,1,27.8-22.779Z" transform="translate(-239.049 -190.127)" fill="#fddc4c" fill-rule="evenodd"/>
    <path id="Trazado_1031125" data-name="Trazado 1031125" d="M328.563,342.345a18.106,18.106,0,0,1-21.713,0v-.368a8.184,8.184,0,0,1,7.258-7.948l1.417-2.354a3.8,3.8,0,0,0,4.358,0l1.422,2.359a8.183,8.183,0,0,1,7.258,7.948Z" transform="translate(-260.806 -282.115)" fill="#e4a978" fill-rule="evenodd"/>
    <path id="Trazado_1031126" data-name="Trazado 1031126" d="M352.628,343.837a18.121,18.121,0,0,1-16.9,2.581v-2.949c0-4.044,1.659-7.415,5.741-7.948l1.059-1.754a4.313,4.313,0,0,0,.883-.307,4.336,4.336,0,0,0,.9.312l1.059,1.749a8.183,8.183,0,0,1,7.258,7.948Z" transform="translate(-284.872 -283.607)" fill="#fdcc9a" fill-rule="evenodd"/>
    <path id="Trazado_1031127" data-name="Trazado 1031127" d="M327.137,356.652a18.148,18.148,0,0,1-12.527,0V354.2l-3.959-3.459a8.383,8.383,0,0,1,6.606-4.9l3.616,3.436,3.619-3.436a8.391,8.391,0,0,1,6.606,4.9l-3.959,3.459v2.457Z" transform="translate(-263.973 -293.923)" fill="#dea126" fill-rule="evenodd"/>
    <path id="Trazado_1031128" data-name="Trazado 1031128" d="M329.414,352.206l1.682-1.47a8.388,8.388,0,0,0-6.606-4.9l-1.244,1.177.018.152A8.658,8.658,0,0,0,329.414,352.206Zm-10.91-5.179-1.247-1.185a8.383,8.383,0,0,0-6.606,4.9l1.677,1.47a8.642,8.642,0,0,0,6.148-5.038Z" transform="translate(-263.973 -293.923)" fill="#7d481e" fill-rule="evenodd"/>
    <path id="Trazado_1031129" data-name="Trazado 1031129" d="M334.855,349.126a8.473,8.473,0,0,0-5.666-3.284l-.407.383a8.769,8.769,0,0,0,5.329,3.549Zm-18.565,0,.737.647a8.764,8.764,0,0,0,5.329-3.549l-.4-.383A8.482,8.482,0,0,0,316.29,349.126Z" transform="translate(-268.672 -293.923)" fill="#ac6327" fill-rule="evenodd"/>
    <path id="Trazado_1031130" data-name="Trazado 1031130" d="M326.842,258.794H315.416c-4.588-1.805-6.715-6.748-1.03-6.506,1.682.075,3.271.42,5.066.618a13.822,13.822,0,0,0,3.5-.023c1.839-.213,3.557-.577,5.184-.6C333.49,252.2,331.359,257.018,326.842,258.794Z" transform="translate(-264.231 -215.958)" fill="#7d481e" fill-rule="evenodd"/>
    <path id="Trazado_1031131" data-name="Trazado 1031131" d="M351.589,231v-1.314a3.213,3.213,0,0,0-3.271-3.129h-3.644a3.214,3.214,0,0,0-3.274,3.129V231c1.105.142,2.215.34,3.416.472a13.824,13.824,0,0,0,3.5-.023c1.135-.132,2.222-.32,3.272-.448Z" transform="translate(-289.596 -194.527)" fill="#7d481e" fill-rule="evenodd"/>
    <path id="Trazado_1031132" data-name="Trazado 1031132" d="M366.288,231v-1.314a3.213,3.213,0,0,0-3.271-3.129h-.7a3.214,3.214,0,0,0-3.274,3.129V231c1.105.142,2.215.34,3.416.472.067,0,.128.013.188.018l.373-.043C364.151,231.319,365.238,231.131,366.288,231Z" transform="translate(-304.296 -194.527)" fill="#ac6327" fill-rule="evenodd"/>
    <path id="Trazado_1031133" data-name="Trazado 1031133" d="M350.765,271.557v5.354a2.378,2.378,0,0,1-.435,1.385c-2.991,4.414-6.4,4.9-9.725,0a2.371,2.371,0,0,1-.435-1.385v-5.478a25.9,25.9,0,0,1,5.018-.453A25.031,25.031,0,0,1,350.765,271.557Z" transform="translate(-288.572 -231.542)" fill="#e4a978" fill-rule="evenodd"/>
    <path id="Trazado_1031134" data-name="Trazado 1031134" d="M360.432,271.565v5.354A2.378,2.378,0,0,1,360,278.3a10.1,10.1,0,0,1-2.509,2.689c-1.734.213-3.526-.87-5.283-3.469a2.364,2.364,0,0,1-.435-1.385V271.15a28.957,28.957,0,0,1,3.086-.16,24.937,24.937,0,0,1,5.576.575Z" transform="translate(-298.238 -231.551)" fill="#fdcc9a" fill-rule="evenodd"/>
    <path id="Trazado_1031135" data-name="Trazado 1031135" d="M362.834,374.795a17.824,17.824,0,0,1-4.564,0v-3.709l2.282-4.636,2.282,4.636Z" transform="translate(-303.654 -311.098)" fill="#ffe0b2" fill-rule="evenodd"/>
    <path id="Trazado_1031136" data-name="Trazado 1031136" d="M48.757,265.06A18.117,18.117,0,1,1,30.64,283.177,18.116,18.116,0,0,1,48.757,265.06Z" transform="translate(-30.64 -226.609)" fill="#edbd27" fill-rule="evenodd"/>
    <path id="Trazado_1031137" data-name="Trazado 1031137" d="M78,294.625a18.118,18.118,0,0,1-29.911,19.912A18.118,18.118,0,0,1,78,294.625Z" transform="translate(-43.631 -246.067)" fill="#fddc4c" fill-rule="evenodd"/>
    <path id="Trazado_1031138" data-name="Trazado 1031138" d="M84.155,333.942h7.41a7.16,7.16,0,0,1,4.654,1.71c1.285-1.989,1.365-5.236,1.012-8.538-.448-4.234-.842-7-3.647-8.808.015.175.023.355.023.533a6.618,6.618,0,0,1-.1,1.139,10.291,10.291,0,0,0-13.141-.005,6.356,6.356,0,0,1-.1-1.133c0-.18.01-.358.023-.533-2.812,1.81-3.2,4.574-3.652,8.808-.35,3.3-.273,6.555,1.012,8.538a7.178,7.178,0,0,1,4.664-1.71Z" transform="translate(-68.817 -270.395)" fill="#e7ead8" fill-rule="evenodd"/>
    <path id="Trazado_1031139" data-name="Trazado 1031139" d="M99.316,325.985a10.294,10.294,0,0,1,13.179,0c.605,4.134-1.654,10.745-6.743,10.627C100.89,336.5,98.734,329.965,99.316,325.985Z" transform="translate(-87.791 -275.391)" fill="#fdcc9a" fill-rule="evenodd"/>
    <path id="Trazado_1031140" data-name="Trazado 1031140" d="M118.794,367.084a5.619,5.619,0,0,1-10.264,0,5.967,5.967,0,0,1,10.264,0Z" transform="translate(-95.546 -309.189)" fill="#686868" fill-rule="evenodd"/>
    <path id="Trazado_1031141" data-name="Trazado 1031141" d="M105.971,291.65a6.54,6.54,0,0,1,6.57,7.7,10.291,10.291,0,0,0-13.141,0,6.414,6.414,0,0,1-.1-1.139A6.615,6.615,0,0,1,105.971,291.65Z" transform="translate(-87.854 -248.767)" fill="#f3f7e3" fill-rule="evenodd"/>
    <path id="Trazado_1031142" data-name="Trazado 1031142" d="M92.3,422.41a18.119,18.119,0,0,1-23.526,0,7.105,7.105,0,0,1,7.135-6.8h1.847a2.5,2.5,0,0,0,.955,1.757,2.868,2.868,0,0,0,2.07.548,2.533,2.533,0,0,0,2.532-2.305h1.852a7.1,7.1,0,0,1,7.135,6.8Z" transform="translate(-62.414 -352.063)" fill="#d5d6c8" fill-rule="evenodd"/>
    <path id="Trazado_1031143" data-name="Trazado 1031143" d="M113.979,422.41A18.136,18.136,0,0,1,94.79,425.16v-2.534a7.056,7.056,0,0,1,4.716-6.6,2.508,2.508,0,0,0,.884,1.342,2.868,2.868,0,0,0,2.07.548,2.533,2.533,0,0,0,2.532-2.305h1.85A7.1,7.1,0,0,1,113.979,422.41Z" transform="translate(-84.096 -352.063)" fill="#f3f7e3" fill-rule="evenodd"/>
    <path id="Trazado_1031144" data-name="Trazado 1031144" d="M128.191,396.87v2.962a2.535,2.535,0,0,1-2.542,2.467h-.487a2.522,2.522,0,0,1-2.542-2.5v-2.916a5.093,5.093,0,0,0,2.627.785A5.226,5.226,0,0,0,128.191,396.87Z" transform="translate(-107.287 -336.447)" fill="#fdcc9a" fill-rule="evenodd"/>
    <path id="Trazado_1031145" data-name="Trazado 1031145" d="M133.527,426.92a2.539,2.539,0,0,1-1.4.42,3.214,3.214,0,0,1-1.734-.317V431.4a1.569,1.569,0,0,0,3.137,0Z" transform="translate(-113.762 -361.487)" fill="#d2e5f6" fill-rule="evenodd"/>
  </g>
  <path id="Trazado_1031146" data-name="Trazado 1031146" d="M41.964,93.06a2.057,2.057,0,0,0,1.2.193,1.357,1.357,0,0,0,1.375-1.3h.005V90.747a6.669,6.669,0,0,1-3.242.015v1.157H41.3A1.365,1.365,0,0,0,41.964,93.06Zm.638,2.522v2.9a.4.4,0,0,0,.8,0v-2.9Zm3.137-1.034v3.931A2.74,2.74,0,0,1,41.08,100.4a2.69,2.69,0,0,1-.813-1.919V94.7a3.7,3.7,0,0,1-1.025-1.422h-.95A5.957,5.957,0,0,0,32.362,98.4a16.954,16.954,0,0,0,21.117,0,5.959,5.959,0,0,0-5.929-5.123h-.94a3.684,3.684,0,0,1-.87,1.272Zm1.13-4.943v1.342h.68a8.294,8.294,0,0,1,4.2,1.134,17.073,17.073,0,0,0,.312-6.673c-.245-2.287-.482-4.584-1.365-6.125C51.094,82.767,49.785,87.375,46.87,89.605Zm-7.9,1.342V89.61c-2.939-2.264-4.206-6.923-3.827-10.32-.884,1.54-1.12,3.837-1.36,6.12a17.2,17.2,0,0,0,.307,6.673,8.305,8.305,0,0,1,4.206-1.134h.675ZM30.411,96.57A8.148,8.148,0,0,1,32.188,93.6c-1.1-2.41-1.015-5.718-.723-8.435a25.507,25.507,0,0,1,1-5.571,7.574,7.574,0,0,1,3.006-3.979,7.709,7.709,0,0,1,1.919-3.072,7.91,7.91,0,0,1,11.067,0,7.727,7.727,0,0,1,1.924,3.072,7.532,7.532,0,0,1,3,3.979,25.485,25.485,0,0,1,1,5.571c.288,2.717.368,6.02-.728,8.43a8.187,8.187,0,0,1,1.785,2.977,16.95,16.95,0,1,0-25.025,0ZM48.4,79.772a9.127,9.127,0,0,0-10.972,0,11.025,11.025,0,0,0,.628,4.489,7.2,7.2,0,0,1,9.73.005,11,11,0,0,0,.613-4.494ZM46.821,74.2a5.551,5.551,0,0,0-9.3,2.764,11.477,11.477,0,0,1,10.8,0A5.344,5.344,0,0,0,46.821,74.2Zm-.155,12.271a4.846,4.846,0,0,0-7.485,0,4.394,4.394,0,0,0,4.343,2.107A4.729,4.729,0,0,0,46.666,86.472ZM42.924,65.851A19.3,19.3,0,0,1,61.854,88.83l5.656-1.484a19.294,19.294,0,0,1,5.373-30.2l-2.671-2.671a19.3,19.3,0,0,1-28.891,7.882l-.959,3.667a19.037,19.037,0,0,1,2.561-.17ZM61.159,91.414A19.285,19.285,0,1,1,37.821,66.536l1.527-5.813a19.284,19.284,0,1,1,31.746-8.677l4.092,4.092a19.285,19.285,0,1,1-5.679,33.088Zm17.1-.523V88.557a1.163,1.163,0,0,1,.157-.59l1.872-3.789-.6-.567a9.785,9.785,0,0,1-4.239,3.7l.685.6a1.173,1.173,0,0,1,.472.935v1.625C77.144,90.631,77.692,90.777,78.256,90.891Zm4.871-6.715,1.9,3.866a1.176,1.176,0,0,1,.118.515h0v2.334c.557-.113,1.105-.26,1.644-.425V88.84h0a1.171,1.171,0,0,1,.4-.874l.757-.662a9.732,9.732,0,0,1-4.234-3.7Zm-.307,7.03V88.82L81.7,86.557l-1.12,2.264v2.385A17.247,17.247,0,0,0,82.82,91.206Zm5.344-22.624v1.167a6,6,0,0,0,2.292-2.184c.188-.358.4-.879.118-1.125-.822-.737-3.817-.227-5.066-.043a19.337,19.337,0,0,1-7.655-.005c-1.285-.188-4.172-.68-5.014.043-.283.242-.1.747.1,1.1a6.068,6.068,0,0,0,2.305,2.212v-1.29A1.165,1.165,0,0,1,76.284,67.3a23.608,23.608,0,0,1,2.405-.34,28.459,28.459,0,0,1,8.577.487A1.168,1.168,0,0,1,88.164,68.581Zm0,3.771v1.579a3.516,3.516,0,0,1-.638,2.037,12.635,12.635,0,0,1-2.107,2.452l.605,1a9.433,9.433,0,0,1,7.48,7.041,16.951,16.951,0,1,0-23.6,0,9.439,9.439,0,0,1,7.485-7.041l.6-1A10.288,10.288,0,0,1,75.4,75a3.515,3.515,0,0,1-.16-1.069V72.352c-2.415-1.044-4.986-3.356-4.868-5.736.108-2.184,2.249-2.987,4.636-2.882.147.01.288.015.435.023a4.391,4.391,0,0,1,4.438-4.324h3.644a4.391,4.391,0,0,1,4.438,4.324c1.725-.108,3.2.085,4.162.95a3.147,3.147,0,0,1,.327,4.064,9.2,9.2,0,0,1-4.289,3.581Zm-4.731,7.291a4.718,4.718,0,0,1-3.464.005l-.392.647L81.7,82.317,83.827,80.3Zm2.4-5.713v-4.4a27.549,27.549,0,0,0-8.26-.1v4.494a1.243,1.243,0,0,0,.227.737c.85,1.252,2.3,3,3.917,2.982s3.052-1.757,3.884-2.982a1.236,1.236,0,0,0,.232-.737Zm-.2-9.909a1.973,1.973,0,0,0-.6-1.664,2.146,2.146,0,0,0-1.507-.59H79.879a2.032,2.032,0,0,0-2.1,1.96v.3a18.217,18.217,0,0,0,7.853,0Zm-.173,17.937a7.517,7.517,0,0,0,4.484,3.611l.538-.468A7.251,7.251,0,0,0,85.7,81.727ZM73.463,85.57a7.5,7.5,0,0,0,4.484-3.611l-.245-.232A7.245,7.245,0,0,0,72.93,85.1ZM91.32,87.455l-2.187,1.909v.165a16.8,16.8,0,0,0,2.254-1.324C91.377,87.95,91.353,87.7,91.32,87.455ZM74.272,89.529v-.165l-2.184-1.909a6.528,6.528,0,0,0-.072.752A16.914,16.914,0,0,0,74.272,89.529ZM47.98,35.452l-1.21-.7a1.163,1.163,0,0,1,1.159-2.017l1.105.638a3.6,3.6,0,0,1,3.322-2.235h.458a3.6,3.6,0,0,1,3.327,2.235l1.262-.728a1.163,1.163,0,0,1,1.167,2.012l-1.4.808A8.287,8.287,0,0,1,60.149,39.4a5.275,5.275,0,0,1-.242,4.092c-.067,4.229-1.569,7.158-3.582,8.718v.845a9.088,9.088,0,0,1,8.165,5.679,16.95,16.95,0,1,0-23.848,0,9.074,9.074,0,0,1,8.16-5.679v-.837c-2.014-1.569-3.521-4.551-3.582-8.955a5.248,5.248,0,0,1-.157-4.082A8.148,8.148,0,0,1,47.98,35.452Zm2.48,1.272a5.128,5.128,0,0,0-1.044.567,5.2,5.2,0,0,0-2.349,3.554l2-1.749a1.164,1.164,0,0,1,1.924.628c.137.675,1.427,1.432,2.756,1.914a8.888,8.888,0,0,0,4.186.572c.685-1.8-.647-3.752-2.117-4.848a5.592,5.592,0,0,0-5.354-.638ZM53.9,34.1c-.387-.662-.959-.628-1.545-.628a1.259,1.259,0,0,0-1.077.618,8,8,0,0,1,2.622.01Zm3.614,10.49c-2.529.123-6.218-.95-7.953-2.841l-2,1.754C47.851,53.57,56.7,53.635,57.515,44.592Zm-3.524,8.775a5.823,5.823,0,0,1-2.854.005,1.823,1.823,0,0,0,.42,1.535A1.426,1.426,0,0,0,53.991,53.9Zm2.027,2.017a3.764,3.764,0,0,1-6.908,0l-.278.005,3.732,6.47,3.737-6.47Zm-10.552,6.7-2.084-3.606a6.7,6.7,0,0,0-.837,1.88A16.592,16.592,0,0,0,45.466,62.08Zm-.42-5.383,3.761,6.521a17.03,17.03,0,0,0,2.045.33L46.438,55.9A6.667,6.667,0,0,0,45.046,56.7Zm16.7,1.772L59.66,62.08a16.714,16.714,0,0,0,2.926-1.725A6.739,6.739,0,0,0,61.744,58.469Zm-5.419,4.749L60.085,56.7a6.81,6.81,0,0,0-1.394-.793l-4.414,7.645A17,17,0,0,0,56.325,63.219Z" transform="translate(-23.64 -27.4)"/>
</svg>
