<svg id="smart-farm_1287201" xmlns="http://www.w3.org/2000/svg" width="75" height="75" viewBox="0 0 75 75">
  <path id="Trazado_1031178" data-name="Trazado 1031178" d="M57.711,312.712l.709-.709.709.709a5.841,5.841,0,0,1,0,8.26l-.709.709-.709-.709a5.841,5.841,0,0,1,0-8.26Zm0,0" transform="translate(-47.532 -264.826)" fill="#a37868"/>
  <path id="Trazado_1031179" data-name="Trazado 1031179" d="M56,324.25a5.822,5.822,0,0,0,1.21,3.519,5.723,5.723,0,0,0,0-7.038A5.824,5.824,0,0,0,56,324.25Zm0,0" transform="translate(-47.532 -272.233)" fill="#d9a08b"/>
  <path id="Trazado_1031180" data-name="Trazado 1031180" d="M233.711,312.712l.709-.709.709.709a5.841,5.841,0,0,1,0,8.26l-.709.709-.709-.709a5.841,5.841,0,0,1,0-8.26Zm0,0" transform="translate(-196.92 -264.826)" fill="#a37868"/>
  <path id="Trazado_1031181" data-name="Trazado 1031181" d="M232,324.25a5.822,5.822,0,0,0,1.21,3.519,5.723,5.723,0,0,0,0-7.038A5.824,5.824,0,0,0,232,324.25Zm0,0" transform="translate(-196.919 -272.233)" fill="#d9a08b"/>
  <path id="Trazado_1031182" data-name="Trazado 1031182" d="M409.711,312.712l.709-.709.709.709a5.841,5.841,0,0,1,0,8.26l-.709.709-.709-.709a5.841,5.841,0,0,1,0-8.26Zm0,0" transform="translate(-346.307 -264.826)" fill="#a37868"/>
  <path id="Trazado_1031183" data-name="Trazado 1031183" d="M408,324.25a5.822,5.822,0,0,0,1.21,3.519,5.723,5.723,0,0,0,0-7.038A5.824,5.824,0,0,0,408,324.25Zm0,0" transform="translate(-346.307 -272.233)" fill="#d9a08b"/>
  <path id="Trazado_1031184" data-name="Trazado 1031184" d="M360,393.422V392h1.418a8.26,8.26,0,0,1,8.259,8.259v1.418H368.26a8.26,8.26,0,0,1-8.26-8.26Zm0,0" transform="translate(-305.565 -332.729)" fill="#2b8838"/>
  <path id="Trazado_1031185" data-name="Trazado 1031185" d="M366.048,402a8.237,8.237,0,0,0-6.048-7.95v1.108a8.236,8.236,0,0,0,6.048,7.95Zm0,0" transform="translate(-305.565 -334.467)" fill="#39b54a"/>
  <path id="Trazado_1031186" data-name="Trazado 1031186" d="M184,393.422V392h1.418a8.26,8.26,0,0,1,8.259,8.259v1.418H192.26a8.26,8.26,0,0,1-8.26-8.26Zm0,0" transform="translate(-156.177 -332.729)" fill="#2b8838"/>
  <path id="Trazado_1031187" data-name="Trazado 1031187" d="M190.048,402a8.237,8.237,0,0,0-6.048-7.95v1.108a8.236,8.236,0,0,0,6.048,7.95Zm0,0" transform="translate(-156.177 -334.467)" fill="#39b54a"/>
  <path id="Trazado_1031188" data-name="Trazado 1031188" d="M8,393.422V392H9.418a8.26,8.26,0,0,1,8.259,8.259v1.418H16.26A8.26,8.26,0,0,1,8,393.422Zm0,0" transform="translate(-6.79 -332.729)" fill="#2b8838"/>
  <path id="Trazado_1031189" data-name="Trazado 1031189" d="M14.048,402A8.237,8.237,0,0,0,8,394.051v1.108a8.236,8.236,0,0,0,6.048,7.95Zm0,0" transform="translate(-6.79 -334.467)" fill="#39b54a"/>
  <path id="Trazado_1031190" data-name="Trazado 1031190" d="M72,400.263v1.418h1.418a8.26,8.26,0,0,0,8.259-8.26V392H80.26A8.26,8.26,0,0,0,72,400.263Zm0,0" transform="translate(-61.113 -332.729)" fill="#2b8838"/>
  <path id="Trazado_1031191" data-name="Trazado 1031191" d="M74.419,396.161A8.258,8.258,0,0,0,72,402v1.108a8.236,8.236,0,0,0,6.048-7.95v-1.108A8.242,8.242,0,0,0,74.419,396.161Zm0,0" transform="translate(-61.113 -334.467)" fill="#39b54a"/>
  <path id="Trazado_1031192" data-name="Trazado 1031192" d="M248,400.263v1.418h1.418a8.26,8.26,0,0,0,8.259-8.26V392H256.26a8.26,8.26,0,0,0-8.26,8.259Zm0,0" transform="translate(-210.5 -332.729)" fill="#2b8838"/>
  <path id="Trazado_1031193" data-name="Trazado 1031193" d="M250.419,396.161A8.258,8.258,0,0,0,248,402v1.108a8.236,8.236,0,0,0,6.048-7.95v-1.108A8.242,8.242,0,0,0,250.419,396.161Zm0,0" transform="translate(-210.5 -334.467)" fill="#39b54a"/>
  <path id="Trazado_1031194" data-name="Trazado 1031194" d="M424,400.263v1.418h1.418a8.26,8.26,0,0,0,8.259-8.26V392H432.26a8.26,8.26,0,0,0-8.26,8.259Zm0,0" transform="translate(-359.887 -332.729)" fill="#2b8838"/>
  <path id="Trazado_1031195" data-name="Trazado 1031195" d="M426.419,396.161A8.258,8.258,0,0,0,424,402v1.108a8.236,8.236,0,0,0,6.048-7.95v-1.108A8.242,8.242,0,0,0,426.419,396.161Zm0,0" transform="translate(-359.887 -334.467)" fill="#39b54a"/>
  <path id="Trazado_1031196" data-name="Trazado 1031196" d="M8,136H80.58v22.984H8Zm0,0" transform="translate(-6.79 -115.439)" fill="#39b54a"/>
  <path id="Trazado_1031197" data-name="Trazado 1031197" d="M8,27.359H56.387L32.193,8Zm0,0" transform="translate(-6.79 -6.794)" fill="#69952f"/>
  <path id="Trazado_1031198" data-name="Trazado 1031198" d="M8,38.221H51.548L29.774,20.8Zm0,0" transform="translate(-6.79 -17.656)" fill="#8cc63f"/>
  <path id="Trazado_1031199" data-name="Trazado 1031199" d="M168,27.359h48.387L192.193,8Zm0,0" transform="translate(-142.597 -6.794)" fill="#69952f"/>
  <path id="Trazado_1031200" data-name="Trazado 1031200" d="M168,38.221h43.548L189.774,20.8Zm0,0" transform="translate(-142.597 -17.656)" fill="#8cc63f"/>
  <path id="Trazado_1031201" data-name="Trazado 1031201" d="M288.935,14.778,280.468,8,272,14.778v4.113a2.419,2.419,0,0,0,4.839,0,2.419,2.419,0,1,1,4.839,0,3.629,3.629,0,0,0,7.258,0Zm0,0" transform="translate(-230.871 -6.794)" fill="#999"/>
  <path id="Trazado_1031202" data-name="Trazado 1031202" d="M272,22.924v4.113a2.4,2.4,0,0,0,.6,1.585,2.4,2.4,0,0,0,.6-1.585,2.41,2.41,0,0,1,4.234-1.585,2.41,2.41,0,0,1,4.234,1.585,3.613,3.613,0,0,0,1.815,3.126,3.613,3.613,0,0,0,1.815-3.126V22.924L278.653,17.6Zm0,0" transform="translate(-230.871 -14.94)" fill="#b3b3b3"/>
  <path id="Trazado_1031203" data-name="Trazado 1031203" d="M73.8,21.775H1.215A1.211,1.211,0,0,1,.459,19.62L24.652.265a1.211,1.211,0,0,1,1.536.019L37.215,9.571,48.846.266a1.211,1.211,0,0,1,1.512,0L74.552,19.621a1.209,1.209,0,0,1-.756,2.154ZM28.857,19.355H70.349L49.6,2.759Zm-24.193,0H24.986l10.3-8.243-9.9-8.337Zm0,0" transform="translate(-0.005 0)"/>
  <path id="Trazado_1031204" data-name="Trazado 1031204" d="M240,136h2.419v21.774H240Zm0,0" transform="translate(-203.71 -115.439)"/>
  <path id="Trazado_1031205" data-name="Trazado 1031205" d="M50.344,152.118l21.774-21.774,1.711,1.711L52.054,153.829Zm0,0" transform="translate(-42.731 -110.635)"/>
  <path id="Trazado_1031206" data-name="Trazado 1031206" d="M290.34,132.058l1.711-1.711,21.774,21.774-1.711,1.711Zm0,0" transform="translate(-246.438 -110.638)"/>
  <path id="Trazado_1031207" data-name="Trazado 1031207" d="M155.438,154.652l9.258-21.773,2.225.946L157.664,155.6Zm0,0" transform="translate(-131.934 -112.786)"/>
  <path id="Trazado_1031208" data-name="Trazado 1031208" d="M264.645,133.8l2.226-.946,9.255,21.773-2.226.946Zm0,0" transform="translate(-224.628 -112.77)"/>
  <path id="Trazado_1031209" data-name="Trazado 1031209" d="M339.566,131.337l1.342-2.013,21.775,14.516-1.342,2.014Zm0,0" transform="translate(-288.22 -109.769)"/>
  <path id="Trazado_1031210" data-name="Trazado 1031210" d="M3.563,143.874l21.775-14.516,1.342,2.013L4.9,145.888Zm0,0" transform="translate(-3.024 -109.799)"/>
  <path id="Trazado_1031211" data-name="Trazado 1031211" d="M0,176H75v2.419H0Zm0,0" transform="translate(0 -149.391)"/>
  <path id="Trazado_1031212" data-name="Trazado 1031212" d="M8,224H81.79v2.419H8Zm0,0" transform="translate(-6.79 -190.132)"/>
  <path id="Trazado_1031213" data-name="Trazado 1031213" d="M0,224H75v2.419H0Zm0,0" transform="translate(0 -190.132)"/>
  <path id="Trazado_1031214" data-name="Trazado 1031214" d="M0,272H75v2.419H0Zm0,0" transform="translate(0 -230.874)"/>
  <path id="Trazado_1031215" data-name="Trazado 1031215" d="M0,272H75v2.419H0Zm0,0" transform="translate(0 -230.874)"/>
  <path id="Trazado_1031216" data-name="Trazado 1031216" d="M362.887,396.1h-1.418A9.47,9.47,0,0,1,352,386.63v-1.416a1.209,1.209,0,0,1,1.21-1.21h1.418a9.47,9.47,0,0,1,9.469,9.47v1.417A1.209,1.209,0,0,1,362.887,396.1Zm-8.468-9.677v.207a7.05,7.05,0,0,0,7.05,7.051h.208v-.207a7.05,7.05,0,0,0-7.05-7.051Zm0,0" transform="translate(-298.774 -325.939)"/>
  <path id="Trazado_1031217" data-name="Trazado 1031217" d="M418.628,396.1H417.21a1.21,1.21,0,0,1-1.21-1.21v-1.417a9.47,9.47,0,0,1,9.47-9.47h1.418a1.209,1.209,0,0,1,1.21,1.21v1.416a9.47,9.47,0,0,1-9.469,9.471Zm-.208-2.419h.208a7.05,7.05,0,0,0,7.05-7.051v-.207h-.208a7.05,7.05,0,0,0-7.05,7.051Zm0,0" transform="translate(-353.097 -325.939)"/>
  <path id="Trazado_1031218" data-name="Trazado 1031218" d="M416,376h2.419v18.145H416Zm0,0" transform="translate(-353.097 -319.149)"/>
  <path id="Trazado_1031219" data-name="Trazado 1031219" d="M403.629,316.1a1.208,1.208,0,0,1-.855-.354l-.709-.709a7.05,7.05,0,0,1,0-9.97l.709-.709a1.208,1.208,0,0,1,1.711,0l.709.709a7.05,7.05,0,0,1,0,9.97l-.709.709A1.206,1.206,0,0,1,403.629,316.1Zm0-9.169a4.631,4.631,0,0,0,0,6.242,4.631,4.631,0,0,0,0-6.242Zm0,0" transform="translate(-339.516 -258.033)"/>
  <path id="Trazado_1031220" data-name="Trazado 1031220" d="M186.887,396.1h-1.418A9.47,9.47,0,0,1,176,386.63v-1.416a1.209,1.209,0,0,1,1.21-1.21h1.418a9.47,9.47,0,0,1,9.469,9.47v1.417a1.209,1.209,0,0,1-1.21,1.21Zm-8.468-9.677v.207a7.05,7.05,0,0,0,7.05,7.051h.208v-.207a7.05,7.05,0,0,0-7.05-7.051Zm0,0" transform="translate(-149.387 -325.939)"/>
  <path id="Trazado_1031221" data-name="Trazado 1031221" d="M242.628,396.1H241.21a1.21,1.21,0,0,1-1.21-1.21v-1.417a9.47,9.47,0,0,1,9.47-9.47h1.418a1.209,1.209,0,0,1,1.21,1.21v1.416a9.47,9.47,0,0,1-9.469,9.471Zm-.209-2.419h.209a7.05,7.05,0,0,0,7.05-7.051v-.207h-.208a7.05,7.05,0,0,0-7.05,7.051Zm0,0" transform="translate(-203.71 -325.939)"/>
  <path id="Trazado_1031222" data-name="Trazado 1031222" d="M240,376h2.419v18.145H240Zm0,0" transform="translate(-203.71 -319.149)"/>
  <path id="Trazado_1031223" data-name="Trazado 1031223" d="M227.629,316.1a1.208,1.208,0,0,1-.855-.354l-.709-.709a7.05,7.05,0,0,1,0-9.97l.709-.709a1.208,1.208,0,0,1,1.711,0l.709.709a7.05,7.05,0,0,1,0,9.97l-.709.709A1.206,1.206,0,0,1,227.629,316.1Zm0-9.169a4.631,4.631,0,0,0,0,6.242,4.631,4.631,0,0,0,0-6.242Zm0,0" transform="translate(-190.129 -258.033)"/>
  <path id="Trazado_1031224" data-name="Trazado 1031224" d="M10.887,396.1H9.469A9.47,9.47,0,0,1,0,386.63v-1.416A1.209,1.209,0,0,1,1.21,384H2.628a9.4,9.4,0,0,1,6.7,2.774,9.408,9.408,0,0,1,2.774,6.7v1.417a1.209,1.209,0,0,1-1.21,1.21Zm-8.468-9.677v.207a7.05,7.05,0,0,0,7.05,7.051h.208v-.207a7.05,7.05,0,0,0-7.05-7.051Zm0,0" transform="translate(0 -325.939)"/>
  <path id="Trazado_1031225" data-name="Trazado 1031225" d="M66.628,396.1H65.21a1.21,1.21,0,0,1-1.21-1.21v-1.417A9.47,9.47,0,0,1,73.469,384h1.418a1.209,1.209,0,0,1,1.21,1.21v1.416a9.47,9.47,0,0,1-9.469,9.471Zm-.209-2.419h.209a7.05,7.05,0,0,0,7.05-7.051v-.207h-.208a7.05,7.05,0,0,0-7.05,7.051Zm0,0" transform="translate(-54.323 -325.939)"/>
  <path id="Trazado_1031226" data-name="Trazado 1031226" d="M64,376h2.419v18.145H64Zm0,0" transform="translate(-54.323 -319.149)"/>
  <path id="Trazado_1031227" data-name="Trazado 1031227" d="M51.629,316.1a1.208,1.208,0,0,1-.855-.354l-.709-.709a7.05,7.05,0,0,1,0-9.97l.709-.709a1.208,1.208,0,0,1,1.711,0l.709.709a7.05,7.05,0,0,1,0,9.97l-.709.709A1.206,1.206,0,0,1,51.629,316.1Zm0-9.169a4.631,4.631,0,0,0,0,6.242,4.631,4.631,0,0,0,0-6.242Zm0,0" transform="translate(-40.742 -258.033)"/>
  <path id="Trazado_1031228" data-name="Trazado 1031228" d="M308.1,469.063h-1.21a4.1,4.1,0,0,1-2.92-1.21l-.709-.709a1.751,1.751,0,0,0-2.419,0l-.709.709a4.106,4.106,0,0,1-2.92,1.21H296v-2.419h1.21a1.7,1.7,0,0,0,1.21-.5l.709-.708a4.228,4.228,0,0,1,5.84,0l.709.709a1.7,1.7,0,0,0,1.21.5h1.21Zm0,0" transform="translate(-251.242 -394.063)"/>
  <path id="Trazado_1031229" data-name="Trazado 1031229" d="M132.1,469.063h-1.21a4.1,4.1,0,0,1-2.92-1.21l-.709-.709a1.751,1.751,0,0,0-2.419,0l-.709.709a4.106,4.106,0,0,1-2.92,1.21H120v-2.419h1.21a1.7,1.7,0,0,0,1.21-.5l.709-.708a4.228,4.228,0,0,1,5.84,0l.709.709a1.7,1.7,0,0,0,1.21.5h1.21Zm0,0" transform="translate(-101.855 -394.063)"/>
  <path id="Trazado_1031230" data-name="Trazado 1031230" d="M464,304h4.839v2.419H464Zm0,0" transform="translate(-393.839 -258.036)"/>
  <path id="Trazado_1031231" data-name="Trazado 1031231" d="M0,304H4.839v2.419H0Zm0,0" transform="translate(0 -258.036)"/>
  <path id="Trazado_1031232" data-name="Trazado 1031232" d="M288,352h4.839v2.419H288Zm0,0" transform="translate(-244.452 -298.778)"/>
  <path id="Trazado_1031233" data-name="Trazado 1031233" d="M352,312h4.839v2.419H352Zm0,0" transform="translate(-298.774 -264.826)"/>
  <path id="Trazado_1031234" data-name="Trazado 1031234" d="M176,352h4.839v2.419H176Zm0,0" transform="translate(-149.387 -298.778)"/>
  <path id="Trazado_1031235" data-name="Trazado 1031235" d="M112,312h4.839v2.419H112Zm0,0" transform="translate(-95.065 -264.826)"/>
  <path id="Trazado_1031236" data-name="Trazado 1031236" d="M278.516,64.472a4.843,4.843,0,0,1-4.839-4.839,1.21,1.21,0,1,0-2.419,0,3.629,3.629,0,0,1-7.258,0V56h2.419v3.629a1.21,1.21,0,1,0,2.419,0,3.629,3.629,0,0,1,7.258,0,2.419,2.419,0,0,0,4.839,0V56h2.419v3.629A4.844,4.844,0,0,1,278.516,64.472Zm0,0" transform="translate(-224.081 -47.536)"/>
</svg>
