<svg xmlns="http://www.w3.org/2000/svg" xmlns:xlink="http://www.w3.org/1999/xlink" width="118" height="118" viewBox="0 0 118 118">
  <defs>
    <filter id="Trazado_874925" x="0" y="0" width="118" height="118" filterUnits="userSpaceOnUse">
      <feOffset dy="3" input="SourceAlpha"/>
      <feGaussianBlur stdDeviation="3" result="blur"/>
      <feFlood flood-opacity="0.161"/>
      <feComposite operator="in" in2="blur"/>
      <feComposite in="SourceGraphic"/>
    </filter>
  </defs>
  <g id="Grupo_1199909" data-name="Grupo 1199909" transform="translate(2889.269 10237.108)">
    <g id="Grupo_1199783" data-name="Grupo 1199783" transform="translate(-3688.77 -12748.266)">
      <g id="Grupo_1111316" data-name="Grupo 1111316" transform="translate(808.5 2517.157)">
        <g id="Grupo_1109835" data-name="Grupo 1109835" transform="translate(0 0)">
          <g id="Grupo_1107913" data-name="Grupo 1107913" transform="translate(0 0)">
            <g transform="matrix(1, 0, 0, 1, -9, -6)" filter="url(#Trazado_874925)">
              <g id="Trazado_874925-2" data-name="Trazado 874925" transform="translate(9 6)" fill="#9ad354" opacity="0.859">
                <path d="M 49.99972534179688 98.4998779296875 C 43.45164108276367 98.4998779296875 37.10022354125977 97.21776580810547 31.12189674377441 94.68914794921875 C 25.34676742553711 92.24647521972656 20.15985298156738 88.74925994873047 15.70523929595947 84.29464721679688 C 11.25062561035156 79.84004974365234 7.753411293029785 74.65313720703125 5.310725212097168 68.87800598144531 C 2.782111167907715 62.89969253540039 1.499996781349182 56.54829406738281 1.499996781349182 50.00022125244141 C 1.499996781349182 43.45157623291016 2.782111167907715 37.10017776489258 5.310725212097168 31.12186431884766 C 7.753411293029785 25.34673500061035 11.25062561035156 20.15983581542969 15.70523929595947 15.70522117614746 C 20.15985298156738 11.25062084197998 25.34676742553711 7.753406524658203 31.12189674377441 5.31073522567749 C 37.10022354125977 2.782120943069458 43.45164108276367 1.500006556510925 49.99972534179688 1.500006556510925 C 56.54780960083008 1.500006556510925 62.89922714233398 2.782120943069458 68.87755584716797 5.31073522567749 C 74.65267944335938 7.753406524658203 79.839599609375 11.25062084197998 84.29421234130859 15.70522117614746 C 88.74882507324219 20.15983581542969 92.24604034423828 25.34673500061035 94.68872833251953 31.12186431884766 C 97.21733856201172 37.10017776489258 98.49945068359375 43.45157623291016 98.49945068359375 49.99964904785156 C 98.49945068359375 56.54829406738281 97.21733856201172 62.89969253540039 94.68872833251953 68.87800598144531 C 92.24604034423828 74.65313720703125 88.74882507324219 79.84004974365234 84.29421234130859 84.29464721679688 C 79.839599609375 88.74925994873047 74.65267944335938 92.24647521972656 68.87755584716797 94.68914794921875 C 62.89922714233398 97.21776580810547 56.54780960083008 98.4998779296875 49.99972534179688 98.4998779296875 Z" stroke="none"/>
                <path d="M 49.99972534179688 3 C 43.65348052978516 3 37.49866485595703 4.242240905761719 31.70623016357422 6.692230224609375 C 26.10989379882812 9.059272766113281 21.08323669433594 12.44853210449219 16.76589202880859 16.76587677001953 C 12.44855499267578 21.08321380615234 9.059295654296875 26.10985565185547 6.692230224609375 31.70618438720703 C 4.24224853515625 37.49859619140625 3 43.65341186523438 3 50.00022888183594 C 3 56.34645843505859 4.24224853515625 62.50127410888672 6.692230224609375 68.29368591308594 C 9.059295654296875 73.8900146484375 12.44855499267578 78.91665649414062 16.76589202880859 83.23399353027344 C 21.08323669433594 87.55132293701172 26.10989379882812 90.94059753417969 31.70623016357422 93.30764007568359 C 37.49866485595703 95.75762939453125 43.65348052978516 96.99987030029297 49.99972534179688 96.99987030029297 C 56.34597015380859 96.99987030029297 62.50078582763672 95.75762939453125 68.293212890625 93.30764007568359 C 73.88955688476562 90.94059753417969 78.91621398925781 87.55132293701172 83.23355865478516 83.23399353027344 C 87.55089569091797 78.91665649414062 90.94015502929688 73.8900146484375 93.30722045898438 68.29368591308594 C 95.7572021484375 62.50127410888672 96.99945068359375 56.34645843505859 96.99945068359375 49.99964141845703 C 96.99945068359375 43.65341186523438 95.7572021484375 37.49859619140625 93.30722045898438 31.70618438720703 C 90.94015502929688 26.10985565185547 87.55089569091797 21.08321380615234 83.23355865478516 16.76587677001953 C 78.91621398925781 12.44853210449219 73.88955688476562 9.059272766113281 68.293212890625 6.692230224609375 C 62.50078582763672 4.242240905761719 56.34597015380859 3 49.99972534179688 3 M 49.99972534179688 0 C 77.61381530761719 0 99.99945068359375 22.38559722900391 99.99945068359375 49.99964141845703 L 99.99945068359375 50.00022888183594 C 99.99945068359375 77.6142578125 77.61381530761719 99.99987030029297 49.99972534179688 99.99987030029297 C 22.38563537597656 99.99987030029297 0 77.6142578125 0 50.00022888183594 L 0 49.99964141845703 C 0 22.38559722900391 22.38563537597656 0 49.99972534179688 0 Z" stroke="none" fill="#fff"/>
              </g>
            </g>
            <g id="Trazado_874923" data-name="Trazado 874923" transform="translate(0 0)" fill="none">
              <path d="M50,0a50,50,0,0,1,50,50h0A50,50,0,0,1,0,50H0A50,50,0,0,1,50,0Z" stroke="none"/>
              <path d="M 49.99972534179688 3 C 43.65348052978516 3 37.49866485595703 4.242240905761719 31.70623016357422 6.692230224609375 C 26.10989379882812 9.059272766113281 21.08323669433594 12.44853210449219 16.76589202880859 16.76587677001953 C 12.44855499267578 21.08321380615234 9.059295654296875 26.10985565185547 6.692230224609375 31.70618438720703 C 4.24224853515625 37.49859619140625 3 43.65341186523438 3 50.00022888183594 C 3 56.34645843505859 4.24224853515625 62.50127410888672 6.692230224609375 68.29368591308594 C 9.059295654296875 73.8900146484375 12.44855499267578 78.91665649414062 16.76589202880859 83.23399353027344 C 21.08323669433594 87.55132293701172 26.10989379882812 90.94059753417969 31.70623016357422 93.30764007568359 C 37.49866485595703 95.75762939453125 43.65348052978516 96.99987030029297 49.99972534179688 96.99987030029297 C 56.34597015380859 96.99987030029297 62.50078582763672 95.75762939453125 68.293212890625 93.30764007568359 C 73.88955688476562 90.94059753417969 78.91621398925781 87.55132293701172 83.23355865478516 83.23399353027344 C 87.55089569091797 78.91665649414062 90.94015502929688 73.8900146484375 93.30722045898438 68.29368591308594 C 95.7572021484375 62.50127410888672 96.99945068359375 56.34645843505859 96.99945068359375 49.99964141845703 C 96.99945068359375 43.65341186523438 95.7572021484375 37.49859619140625 93.30722045898438 31.70618438720703 C 90.94015502929688 26.10985565185547 87.55089569091797 21.08321380615234 83.23355865478516 16.76587677001953 C 78.91621398925781 12.44853210449219 73.88955688476562 9.059272766113281 68.293212890625 6.692230224609375 C 62.50078582763672 4.242240905761719 56.34597015380859 3 49.99972534179688 3 M 49.99972534179688 0 C 77.61381530761719 0 99.99945068359375 22.38559722900391 99.99945068359375 49.99964141845703 L 99.99945068359375 50.00022888183594 C 99.99945068359375 77.6142578125 77.61381530761719 99.99987030029297 49.99972534179688 99.99987030029297 C 22.38563537597656 99.99987030029297 0 77.6142578125 0 50.00022888183594 L 0 49.99964141845703 C 0 22.38559722900391 22.38563537597656 0 49.99972534179688 0 Z" stroke="none" fill="#fff"/>
            </g>
          </g>
        </g>
      </g>
    </g>
    <g id="resize_3039198_2_" data-name="resize_3039198 (2)" transform="translate(-2855.29 -10205.98)">
      <g id="Grupo_1199907" data-name="Grupo 1199907" transform="translate(0.729 0.729)">
        <g id="Grupo_1199904" data-name="Grupo 1199904">
          <path id="Trazado_1032277" data-name="Trazado 1032277" d="M266.823,267.93l4.331-5.1,6.076,3.922v-7.84h-2.915V256h-15.4v2.915H256v15.12l7.317-8.289Z" transform="translate(-231.856 -231.856)" fill="#c2eaf6" fill-rule="evenodd"/>
          <path id="Trazado_1032278" data-name="Trazado 1032278" d="M277.229,337.811v-7.56l-6.076-3.922-4.331,5.1-3.506-2.184L256,337.532v.279h2.915v2.915h15.4v-2.915Z" transform="translate(-231.856 -295.353)" fill="#7fdcc7" fill-rule="evenodd"/>
          <path id="Trazado_1032279" data-name="Trazado 1032279" d="M226,226h5.829v5.829H226Z" transform="translate(-204.771 -204.771)" fill="#efc17a" fill-rule="evenodd"/>
          <path id="Trazado_1032280" data-name="Trazado 1032280" d="M444.5,226h5.83v5.829H444.5Z" transform="translate(-402.042 -204.771)" fill="#efc17a" fill-rule="evenodd"/>
          <path id="Trazado_1032281" data-name="Trazado 1032281" d="M444.5,444.5h5.83v5.83H444.5Z" transform="translate(-402.042 -402.042)" fill="#efc17a" fill-rule="evenodd"/>
          <path id="Trazado_1032282" data-name="Trazado 1032282" d="M226,444.5h5.829v5.83H226Z" transform="translate(-204.771 -402.042)" fill="#efc17a" fill-rule="evenodd"/>
          <path id="Trazado_1032283" data-name="Trazado 1032283" d="M13.33,450.33V444.5H7.5v5.83Z" transform="translate(-7.5 -402.042)" fill="#efc17a" fill-rule="evenodd"/>
          <path id="Trazado_1032284" data-name="Trazado 1032284" d="M13.33,13.33V7.5H7.5v5.83h5.83Z" transform="translate(-7.5 -7.5)" fill="#efc17a" fill-rule="evenodd"/>
          <path id="Trazado_1032285" data-name="Trazado 1032285" d="M450.33,13.33V7.5H444.5v5.83h5.83Z" transform="translate(-402.042 -7.5)" fill="#efc17a" fill-rule="evenodd"/>
          <path id="Trazado_1032286" data-name="Trazado 1032286" d="M264.728,357.189l-1.411-.879L256,364.6v.279h2.915v2.915h1.457v-4.372h-1.146Z" transform="translate(-231.856 -322.42)" fill="#5fa6b0" fill-rule="evenodd"/>
          <path id="Trazado_1032287" data-name="Trazado 1032287" d="M258.915,258.915H256v15.12l2.186-2.477V260.372h2.186V256h-1.457Z" transform="translate(-231.856 -231.856)" fill="#a3dcf0" fill-rule="evenodd"/>
          <path id="Trazado_1032288" data-name="Trazado 1032288" d="M430.957,430.957h2.915V429.5H429.5v4.372h1.457Z" transform="translate(-388.499 -388.499)" fill="#5fa6b0" fill-rule="evenodd"/>
          <path id="Trazado_1032289" data-name="Trazado 1032289" d="M430.957,258.915h2.915v1.457H429.5V256h1.457Z" transform="translate(-388.499 -231.856)" fill="#a3dcf0" fill-rule="evenodd"/>
          <path id="Trazado_1032290" data-name="Trazado 1032290" d="M226,444.5h2.186v5.83H226Z" transform="translate(-204.771 -402.042)" fill="#e8ab4c" fill-rule="evenodd"/>
          <path id="Trazado_1032291" data-name="Trazado 1032291" d="M226,226h2.186v5.829H226Z" transform="translate(-204.771 -204.771)" fill="#e8ab4c" fill-rule="evenodd"/>
          <path id="Trazado_1032292" data-name="Trazado 1032292" d="M444.5,226h2.186v5.829H444.5Z" transform="translate(-402.042 -204.771)" fill="#e8ab4c" fill-rule="evenodd"/>
          <path id="Trazado_1032293" data-name="Trazado 1032293" d="M444.5,444.5h2.186v5.83H444.5Z" transform="translate(-402.042 -402.042)" fill="#e8ab4c" fill-rule="evenodd"/>
          <path id="Trazado_1032294" data-name="Trazado 1032294" d="M444.5,7.5h2.186v5.83H444.5Z" transform="translate(-402.042 -7.5)" fill="#e8ab4c" fill-rule="evenodd"/>
          <path id="Trazado_1032295" data-name="Trazado 1032295" d="M7.5,7.5H9.686v5.83H7.5Z" transform="translate(-7.5 -7.5)" fill="#e8ab4c" fill-rule="evenodd"/>
          <path id="Trazado_1032296" data-name="Trazado 1032296" d="M7.5,444.5H9.686v5.83H7.5Z" transform="translate(-7.5 -402.042)" fill="#e8ab4c" fill-rule="evenodd"/>
        </g>
        <g id="Grupo_1199905" data-name="Grupo 1199905" transform="translate(32.985 26.33)">
          <path id="Trazado_1032297" data-name="Trazado 1032297" d="M354.287,279.957h-4.372V278.5h4.372Zm-5.829,0H347V278.5h1.457Z" transform="translate(-347 -278.5)" fill="#fff"/>
        </g>
        <g id="Grupo_1199906" data-name="Grupo 1199906" transform="translate(29.245 41.73)">
          <path id="Trazado_1032298" data-name="Trazado 1032298" d="M312.872,438.457h-1.457V437h1.457Zm-2.915,0H308.5V437h1.457Z" transform="translate(-308.5 -437)" fill="#fff"/>
        </g>
      </g>
      <g id="Grupo_1199908" data-name="Grupo 1199908">
        <path id="Trazado_1032299" data-name="Trazado 1032299" d="M248.5,30h1.457v1.457H248.5Z" transform="translate(-224.356 -27.085)"/>
        <path id="Trazado_1032300" data-name="Trazado 1032300" d="M301.186,2.915V0H293.9V2.915H278.5V4.372h15.4V7.287h2.915v9.57h1.457V7.287h2.915V4.372h-1.457V5.83h-4.372V1.457h4.372V2.915Z" transform="translate(-251.441)"/>
        <path id="Trazado_1032301" data-name="Trazado 1032301" d="M7.287,293.9H4.372V278.5H2.915v15.4H0v2.915H1.457v-1.457H5.83v4.372H1.457v-1.457H0v2.915H7.287v-2.915h9.57v-1.457H7.287Z" transform="translate(0 -251.441)"/>
        <path id="Trazado_1032302" data-name="Trazado 1032302" d="M320.985,439.915H308.5v1.457h12.485v2.915h7.287v-2.915h-1.457v1.457h-4.372v-4.372h4.372v1.457h1.457V437h-7.287Z" transform="translate(-278.527 -394.542)"/>
        <path id="Trazado_1032303" data-name="Trazado 1032303" d="M224.33,224.33h-4.372v-4.372h1.457V218.5H218.5v7.287h7.287v-2.915h12.485v-1.457H225.787V218.5h-2.915v1.457h1.457Z" transform="translate(-197.271 -197.271)"/>
        <path id="Trazado_1032304" data-name="Trazado 1032304" d="M30,248.5h1.457v1.457H30Z" transform="translate(-27.085 -224.356)"/>
        <path id="Trazado_1032305" data-name="Trazado 1032305" d="M2.915,22.686H4.372V7.287H7.287V4.372h15.4V2.915H7.287V0H0V2.915H1.457V1.457H5.83V5.83H1.457V4.372H0V7.287H2.915Z"/>
        <path id="Trazado_1032306" data-name="Trazado 1032306" d="M188.5,467h1.457v1.457H188.5Z" transform="translate(-170.186 -421.627)"/>
        <path id="Trazado_1032307" data-name="Trazado 1032307" d="M467,188.5h1.457v1.457H467Z" transform="translate(-421.627 -170.186)"/>
        <path id="Trazado_1032308" data-name="Trazado 1032308" d="M96.217,101.318h5.1v-5.1H99.86V98.83l-7.012-7.012h2.613V90.36h-5.1v5.1h1.457V92.848L98.83,99.86H96.217Z" transform="translate(-81.581 -81.581)"/>
        <path id="Trazado_1032309" data-name="Trazado 1032309" d="M229.6,232.834l2.266,1.411-1.856,2.185,1.111.944,6.32-7.438,5.205,3.36v4.977H244.1V225.787h2.915V218.5h-7.287v7.287h2.915v5.774l-5.488-3.543-4.337,5.1-3.5-2.177-6.45,7.307V227.244h-1.457v12.485H218.5v7.287h2.915v-1.457h-1.457v-4.372h4.372v4.372h-1.457v1.457h2.915v-7.287h-2.275Zm11.588-12.876h4.372v4.372h-4.372Z" transform="translate(-197.271 -197.271)"/>
      </g>
    </g>
  </g>
</svg>
