<svg xmlns="http://www.w3.org/2000/svg" xmlns:xlink="http://www.w3.org/1999/xlink" width="118" height="118" viewBox="0 0 118 118">
  <defs>
    <filter id="Trazado_874925" x="0" y="0" width="118" height="118" filterUnits="userSpaceOnUse">
      <feOffset dy="3" input="SourceAlpha"/>
      <feGaussianBlur stdDeviation="3" result="blur"/>
      <feFlood flood-opacity="0.161"/>
      <feComposite operator="in" in2="blur"/>
      <feComposite in="SourceGraphic"/>
    </filter>
  </defs>
  <g id="Grupo_1199910" data-name="Grupo 1199910" transform="translate(2530.269 10237.108)">
    <g id="Grupo_1199784" data-name="Grupo 1199784" transform="translate(-3329.77 -12748.266)">
      <g id="Grupo_1111316" data-name="Grupo 1111316" transform="translate(808.5 2517.157)">
        <g id="Grupo_1109835" data-name="Grupo 1109835" transform="translate(0 0)">
          <g id="Grupo_1107913" data-name="Grupo 1107913" transform="translate(0 0)">
            <g transform="matrix(1, 0, 0, 1, -9, -6)" filter="url(#Trazado_874925)">
              <g id="Trazado_874925-2" data-name="Trazado 874925" transform="translate(9 6)" fill="#9ad354" opacity="0.859">
                <path d="M 49.99972534179688 98.4998779296875 C 43.45164108276367 98.4998779296875 37.10022354125977 97.21776580810547 31.12189674377441 94.68914794921875 C 25.34676742553711 92.24647521972656 20.15985298156738 88.74925994873047 15.70523929595947 84.29464721679688 C 11.25062561035156 79.84004974365234 7.753411293029785 74.65313720703125 5.310725212097168 68.87800598144531 C 2.782111167907715 62.89969253540039 1.499996781349182 56.54829406738281 1.499996781349182 50.00022125244141 C 1.499996781349182 43.45157623291016 2.782111167907715 37.10017776489258 5.310725212097168 31.12186431884766 C 7.753411293029785 25.34673500061035 11.25062561035156 20.15983581542969 15.70523929595947 15.70522117614746 C 20.15985298156738 11.25062084197998 25.34676742553711 7.753406524658203 31.12189674377441 5.31073522567749 C 37.10022354125977 2.782120943069458 43.45164108276367 1.500006556510925 49.99972534179688 1.500006556510925 C 56.54780960083008 1.500006556510925 62.89922714233398 2.782120943069458 68.87755584716797 5.31073522567749 C 74.65267944335938 7.753406524658203 79.839599609375 11.25062084197998 84.29421234130859 15.70522117614746 C 88.74882507324219 20.15983581542969 92.24604034423828 25.34673500061035 94.68872833251953 31.12186431884766 C 97.21733856201172 37.10017776489258 98.49945068359375 43.45157623291016 98.49945068359375 49.99964904785156 C 98.49945068359375 56.54829406738281 97.21733856201172 62.89969253540039 94.68872833251953 68.87800598144531 C 92.24604034423828 74.65313720703125 88.74882507324219 79.84004974365234 84.29421234130859 84.29464721679688 C 79.839599609375 88.74925994873047 74.65267944335938 92.24647521972656 68.87755584716797 94.68914794921875 C 62.89922714233398 97.21776580810547 56.54780960083008 98.4998779296875 49.99972534179688 98.4998779296875 Z" stroke="none"/>
                <path d="M 49.99972534179688 3 C 43.65348052978516 3 37.49866485595703 4.242240905761719 31.70623016357422 6.692230224609375 C 26.10989379882812 9.059272766113281 21.08323669433594 12.44853210449219 16.76589202880859 16.76587677001953 C 12.44855499267578 21.08321380615234 9.059295654296875 26.10985565185547 6.692230224609375 31.70618438720703 C 4.24224853515625 37.49859619140625 3 43.65341186523438 3 50.00022888183594 C 3 56.34645843505859 4.24224853515625 62.50127410888672 6.692230224609375 68.29368591308594 C 9.059295654296875 73.8900146484375 12.44855499267578 78.91665649414062 16.76589202880859 83.23399353027344 C 21.08323669433594 87.55132293701172 26.10989379882812 90.94059753417969 31.70623016357422 93.30764007568359 C 37.49866485595703 95.75762939453125 43.65348052978516 96.99987030029297 49.99972534179688 96.99987030029297 C 56.34597015380859 96.99987030029297 62.50078582763672 95.75762939453125 68.293212890625 93.30764007568359 C 73.88955688476562 90.94059753417969 78.91621398925781 87.55132293701172 83.23355865478516 83.23399353027344 C 87.55089569091797 78.91665649414062 90.94015502929688 73.8900146484375 93.30722045898438 68.29368591308594 C 95.7572021484375 62.50127410888672 96.99945068359375 56.34645843505859 96.99945068359375 49.99964141845703 C 96.99945068359375 43.65341186523438 95.7572021484375 37.49859619140625 93.30722045898438 31.70618438720703 C 90.94015502929688 26.10985565185547 87.55089569091797 21.08321380615234 83.23355865478516 16.76587677001953 C 78.91621398925781 12.44853210449219 73.88955688476562 9.059272766113281 68.293212890625 6.692230224609375 C 62.50078582763672 4.242240905761719 56.34597015380859 3 49.99972534179688 3 M 49.99972534179688 0 C 77.61381530761719 0 99.99945068359375 22.38559722900391 99.99945068359375 49.99964141845703 L 99.99945068359375 50.00022888183594 C 99.99945068359375 77.6142578125 77.61381530761719 99.99987030029297 49.99972534179688 99.99987030029297 C 22.38563537597656 99.99987030029297 0 77.6142578125 0 50.00022888183594 L 0 49.99964141845703 C 0 22.38559722900391 22.38563537597656 0 49.99972534179688 0 Z" stroke="none" fill="#fff"/>
              </g>
            </g>
            <g id="Trazado_874923" data-name="Trazado 874923" transform="translate(0 0)" fill="none">
              <path d="M50,0a50,50,0,0,1,50,50h0A50,50,0,0,1,0,50H0A50,50,0,0,1,50,0Z" stroke="none"/>
              <path d="M 49.99972534179688 3 C 43.65348052978516 3 37.49866485595703 4.242240905761719 31.70623016357422 6.692230224609375 C 26.10989379882812 9.059272766113281 21.08323669433594 12.44853210449219 16.76589202880859 16.76587677001953 C 12.44855499267578 21.08321380615234 9.059295654296875 26.10985565185547 6.692230224609375 31.70618438720703 C 4.24224853515625 37.49859619140625 3 43.65341186523438 3 50.00022888183594 C 3 56.34645843505859 4.24224853515625 62.50127410888672 6.692230224609375 68.29368591308594 C 9.059295654296875 73.8900146484375 12.44855499267578 78.91665649414062 16.76589202880859 83.23399353027344 C 21.08323669433594 87.55132293701172 26.10989379882812 90.94059753417969 31.70623016357422 93.30764007568359 C 37.49866485595703 95.75762939453125 43.65348052978516 96.99987030029297 49.99972534179688 96.99987030029297 C 56.34597015380859 96.99987030029297 62.50078582763672 95.75762939453125 68.293212890625 93.30764007568359 C 73.88955688476562 90.94059753417969 78.91621398925781 87.55132293701172 83.23355865478516 83.23399353027344 C 87.55089569091797 78.91665649414062 90.94015502929688 73.8900146484375 93.30722045898438 68.29368591308594 C 95.7572021484375 62.50127410888672 96.99945068359375 56.34645843505859 96.99945068359375 49.99964141845703 C 96.99945068359375 43.65341186523438 95.7572021484375 37.49859619140625 93.30722045898438 31.70618438720703 C 90.94015502929688 26.10985565185547 87.55089569091797 21.08321380615234 83.23355865478516 16.76587677001953 C 78.91621398925781 12.44853210449219 73.88955688476562 9.059272766113281 68.293212890625 6.692230224609375 C 62.50078582763672 4.242240905761719 56.34597015380859 3 49.99972534179688 3 M 49.99972534179688 0 C 77.61381530761719 0 99.99945068359375 22.38559722900391 99.99945068359375 49.99964141845703 L 99.99945068359375 50.00022888183594 C 99.99945068359375 77.6142578125 77.61381530761719 99.99987030029297 49.99972534179688 99.99987030029297 C 22.38563537597656 99.99987030029297 0 77.6142578125 0 50.00022888183594 L 0 49.99964141845703 C 0 22.38559722900391 22.38563537597656 0 49.99972534179688 0 Z" stroke="none" fill="#fff"/>
            </g>
          </g>
        </g>
      </g>
    </g>
    <g id="_3d-model_1630024" data-name="3d-model_1630024" transform="translate(-2499.126 -10207.296)">
      <path id="Trazado_1032310" data-name="Trazado 1032310" d="M265.209,5l21.117,43.843L265,40.313Zm0,0" transform="translate(-227.324 -4.289)" fill="#db5745"/>
      <path id="Trazado_1032311" data-name="Trazado 1032311" d="M266.185,39.52l.19-32.1L265.209,5,265,40.314l21.326,8.53-.756-1.571Zm0,0" transform="translate(-227.324 -4.29)" fill="#c94c3f"/>
      <path id="Trazado_1032312" data-name="Trazado 1032312" d="M157.652,261.913l-22.092,9.471L115,261.913l21.326-8.53Zm0,0" transform="translate(-98.65 -217.359)" fill="#d65847"/>
      <path id="Trazado_1032313" data-name="Trazado 1032313" d="M136.326,254.8l19.61,7.844,1.716-.735-21.326-8.53L115,261.913l1.652.761Zm0,0" transform="translate(-98.65 -217.359)" fill="#bf493d"/>
      <path id="Trazado_1032314" data-name="Trazado 1032314" d="M136.535,5l-.209,35.313L115,48.843l4.174-8.5L129.38,19.567Zm0,0" transform="translate(-98.65 -4.289)" fill="#ff7159"/>
      <path id="Trazado_1032315" data-name="Trazado 1032315" d="M119.78,42.43l10.2-20.777,6.529-13.292.02-3.36-7.155,14.567L119.174,40.344,115,48.844l2.029-.812Zm0,0" transform="translate(-98.65 -4.289)" fill="#f2614e"/>
      <path id="Trazado_1032316" data-name="Trazado 1032316" d="M125.58,100.4v1l-10.205,20.777-4.8,1.391V104.747Zm0,0" transform="translate(-94.85 -86.128)" fill="#dbac42"/>
      <path id="Trazado_1032317" data-name="Trazado 1032317" d="M111.83,105.849l13.485-3.9.265-.54v-1l-15.009,4.345v18.827l1.26-.365Zm0,0" transform="translate(-94.851 -86.128)" fill="#c99b3f"/>
      <path id="Trazado_1032318" data-name="Trazado 1032318" d="M20.009,104.747v18.827L5,119.229V100.4Zm0,0" transform="translate(-4.289 -86.128)" fill="#e2b247"/>
      <path id="Trazado_1032319" data-name="Trazado 1032319" d="M6.244,117.159v-14.8l13.765,3.985v-1.6L5,100.4v18.826l1.244.36Zm0,0" transform="translate(-4.289 -86.128)" fill="#d1a13f"/>
      <path id="Trazado_1032320" data-name="Trazado 1032320" d="M35.019,74.188,20.01,78.533,5,74.188l5.76-1.668,9.25-2.677Zm0,0" transform="translate(-4.29 -59.914)" fill="#ffd25d"/>
      <path id="Trazado_1032321" data-name="Trazado 1032321" d="M10.679,73.765l9.25-2.677,12.9,3.734,2.189-.634L20.009,69.844l-9.25,2.677L5,74.188l2.108.61Zm0,0" transform="translate(-4.289 -59.914)" fill="#efbf54"/>
      <path id="Trazado_1032322" data-name="Trazado 1032322" d="M205,3.383h2.843V6.226H205Zm0,0" transform="translate(-175.855 -2.902)"/>
      <path id="Trazado_1032323" data-name="Trazado 1032323" d="M175,3.383h2.843V6.226H175Zm0,0" transform="translate(-150.12 -2.902)"/>
      <path id="Trazado_1032324" data-name="Trazado 1032324" d="M145,3.383h2.843V6.226H145Zm0,0" transform="translate(-124.385 -2.902)"/>
      <path id="Trazado_1032325" data-name="Trazado 1032325" d="M135,353.383h2.843v2.843H135Zm0,0" transform="translate(-115.807 -303.142)"/>
      <path id="Trazado_1032326" data-name="Trazado 1032326" d="M115,3.383h2.843V6.226H115Zm0,0" transform="translate(-98.65 -2.902)"/>
      <path id="Trazado_1032327" data-name="Trazado 1032327" d="M105,353.383h2.843v2.843H105Zm0,0" transform="translate(-90.072 -303.142)"/>
      <path id="Trazado_1032328" data-name="Trazado 1032328" d="M85,3.383h2.843V6.226H85Zm0,0" transform="translate(-72.915 -2.902)"/>
      <path id="Trazado_1032329" data-name="Trazado 1032329" d="M75,353.383h2.843v2.843H75Zm0,0" transform="translate(-64.337 -303.142)"/>
      <path id="Trazado_1032330" data-name="Trazado 1032330" d="M45,353.383h2.843v2.843H45Zm0,0" transform="translate(-38.602 -303.142)"/>
      <path id="Trazado_1032331" data-name="Trazado 1032331" d="M15,353.383h2.843v2.843H15Zm0,0" transform="translate(-12.867 -303.142)"/>
      <path id="Trazado_1032332" data-name="Trazado 1032332" d="M131.27,319.273a.709.709,0,0,1-.3-.065l-20.56-9.472a.711.711,0,1,1,.6-1.291l20.272,9.339,21.8-9.347a.711.711,0,1,1,.56,1.307l-22.092,9.472a.709.709,0,0,1-.28.057Zm0,0" transform="translate(-94.361 -264.537)"/>
      <path id="Trazado_1032333" data-name="Trazado 1032333" d="M260.711,36.735h0A.711.711,0,0,1,260,36.02L260.209.707A.712.712,0,0,1,260.92,0h0a.711.711,0,0,1,.706.715l-.209,35.313a.711.711,0,0,1-.711.707Zm0,0" transform="translate(-223.035 0)"/>
      <path id="Trazado_1032334" data-name="Trazado 1032334" d="M15.721,120a.721.721,0,0,1-.2-.028L.513,115.623A.712.712,0,0,1,0,114.94V96.113a.711.711,0,1,1,1.422,0v18.292l14.5,4.2a.711.711,0,0,1-.2,1.394Zm0,0" transform="translate(0 -81.839)"/>
      <path id="Trazado_1032335" data-name="Trazado 1032335" d="M15.721,74.953a.722.722,0,0,1-.2-.028L.513,70.58a.711.711,0,0,1,0-1.366L15.522,64.87a.709.709,0,0,1,.4,0l15.009,4.345a.711.711,0,1,1-.4,1.366L15.72,66.292,3.267,69.9l12.651,3.662a.711.711,0,0,1-.2,1.395Zm0,0" transform="translate(0 -55.623)"/>
      <path id="Trazado_1032336" data-name="Trazado 1032336" d="M106.281,119.993a.711.711,0,0,1-.711-.711V100.456a.71.71,0,0,1,.513-.683l15.009-4.345a.711.711,0,0,1,.909.683v1a.711.711,0,1,1-1.422,0v-.058l-13.587,3.933v17.347l3.9-1.127a.711.711,0,0,1,.4,1.366l-4.8,1.39a.709.709,0,0,1-.2.028Zm0,0" transform="translate(-90.561 -81.837)"/>
      <path id="Trazado_1032337" data-name="Trazado 1032337" d="M110.711,45.265a.711.711,0,0,1-.638-1.024L131.608.4a.71.71,0,0,1,.638-.4h0a.711.711,0,0,1,.638.4L154,44.246a.711.711,0,0,1-.9.969l-21.062-8.425-21.062,8.425a.705.705,0,0,1-.264.051Zm21.326-9.952a.707.707,0,0,1,.264.051l19.628,7.851L132.24,2.336,112.165,43.207l19.608-7.843a.712.712,0,0,1,.264-.051Zm0,0" transform="translate(-94.361)"/>
    </g>
  </g>
</svg>
