<svg xmlns="http://www.w3.org/2000/svg" xmlns:xlink="http://www.w3.org/1999/xlink" width="118" height="118" viewBox="0 0 118 118">
  <defs>
    <filter id="Trazado_874925" x="0" y="0" width="118" height="118" filterUnits="userSpaceOnUse">
      <feOffset dy="3" input="SourceAlpha"/>
      <feGaussianBlur stdDeviation="3" result="blur"/>
      <feFlood flood-opacity="0.161"/>
      <feComposite operator="in" in2="blur"/>
      <feComposite in="SourceGraphic"/>
    </filter>
    <clipPath id="clip-path">
      <path id="path6179" d="M0-682.665H55.766V-626.9H0Z" transform="translate(0 682.665)"/>
    </clipPath>
  </defs>
  <g id="Grupo_1199911" data-name="Grupo 1199911" transform="translate(2889.269 9843.108)">
    <g id="Grupo_1199785" data-name="Grupo 1199785" transform="translate(-3688.77 -12354.266)">
      <g id="Grupo_1111316" data-name="Grupo 1111316" transform="translate(808.5 2517.157)">
        <g id="Grupo_1109835" data-name="Grupo 1109835" transform="translate(0 0)">
          <g id="Grupo_1107913" data-name="Grupo 1107913" transform="translate(0 0)">
            <g transform="matrix(1, 0, 0, 1, -9, -6)" filter="url(#Trazado_874925)">
              <g id="Trazado_874925-2" data-name="Trazado 874925" transform="translate(9 6)" fill="#9ad354" opacity="0.859">
                <path d="M 49.99972534179688 98.4998779296875 C 43.45164108276367 98.4998779296875 37.10022354125977 97.21776580810547 31.12189674377441 94.68914794921875 C 25.34676742553711 92.24647521972656 20.15985298156738 88.74925994873047 15.70523929595947 84.29464721679688 C 11.25062561035156 79.84004974365234 7.753411293029785 74.65313720703125 5.310725212097168 68.87800598144531 C 2.782111167907715 62.89969253540039 1.499996781349182 56.54829406738281 1.499996781349182 50.00022125244141 C 1.499996781349182 43.45157623291016 2.782111167907715 37.10017776489258 5.310725212097168 31.12186431884766 C 7.753411293029785 25.34673500061035 11.25062561035156 20.15983581542969 15.70523929595947 15.70522117614746 C 20.15985298156738 11.25062084197998 25.34676742553711 7.753406524658203 31.12189674377441 5.31073522567749 C 37.10022354125977 2.782120943069458 43.45164108276367 1.500006556510925 49.99972534179688 1.500006556510925 C 56.54780960083008 1.500006556510925 62.89922714233398 2.782120943069458 68.87755584716797 5.31073522567749 C 74.65267944335938 7.753406524658203 79.839599609375 11.25062084197998 84.29421234130859 15.70522117614746 C 88.74882507324219 20.15983581542969 92.24604034423828 25.34673500061035 94.68872833251953 31.12186431884766 C 97.21733856201172 37.10017776489258 98.49945068359375 43.45157623291016 98.49945068359375 49.99964904785156 C 98.49945068359375 56.54829406738281 97.21733856201172 62.89969253540039 94.68872833251953 68.87800598144531 C 92.24604034423828 74.65313720703125 88.74882507324219 79.84004974365234 84.29421234130859 84.29464721679688 C 79.839599609375 88.74925994873047 74.65267944335938 92.24647521972656 68.87755584716797 94.68914794921875 C 62.89922714233398 97.21776580810547 56.54780960083008 98.4998779296875 49.99972534179688 98.4998779296875 Z" stroke="none"/>
                <path d="M 49.99972534179688 3 C 43.65348052978516 3 37.49866485595703 4.242240905761719 31.70623016357422 6.692230224609375 C 26.10989379882812 9.059272766113281 21.08323669433594 12.44853210449219 16.76589202880859 16.76587677001953 C 12.44855499267578 21.08321380615234 9.059295654296875 26.10985565185547 6.692230224609375 31.70618438720703 C 4.24224853515625 37.49859619140625 3 43.65341186523438 3 50.00022888183594 C 3 56.34645843505859 4.24224853515625 62.50127410888672 6.692230224609375 68.29368591308594 C 9.059295654296875 73.8900146484375 12.44855499267578 78.91665649414062 16.76589202880859 83.23399353027344 C 21.08323669433594 87.55132293701172 26.10989379882812 90.94059753417969 31.70623016357422 93.30764007568359 C 37.49866485595703 95.75762939453125 43.65348052978516 96.99987030029297 49.99972534179688 96.99987030029297 C 56.34597015380859 96.99987030029297 62.50078582763672 95.75762939453125 68.293212890625 93.30764007568359 C 73.88955688476562 90.94059753417969 78.91621398925781 87.55132293701172 83.23355865478516 83.23399353027344 C 87.55089569091797 78.91665649414062 90.94015502929688 73.8900146484375 93.30722045898438 68.29368591308594 C 95.7572021484375 62.50127410888672 96.99945068359375 56.34645843505859 96.99945068359375 49.99964141845703 C 96.99945068359375 43.65341186523438 95.7572021484375 37.49859619140625 93.30722045898438 31.70618438720703 C 90.94015502929688 26.10985565185547 87.55089569091797 21.08321380615234 83.23355865478516 16.76587677001953 C 78.91621398925781 12.44853210449219 73.88955688476562 9.059272766113281 68.293212890625 6.692230224609375 C 62.50078582763672 4.242240905761719 56.34597015380859 3 49.99972534179688 3 M 49.99972534179688 0 C 77.61381530761719 0 99.99945068359375 22.38559722900391 99.99945068359375 49.99964141845703 L 99.99945068359375 50.00022888183594 C 99.99945068359375 77.6142578125 77.61381530761719 99.99987030029297 49.99972534179688 99.99987030029297 C 22.38563537597656 99.99987030029297 0 77.6142578125 0 50.00022888183594 L 0 49.99964141845703 C 0 22.38559722900391 22.38563537597656 0 49.99972534179688 0 Z" stroke="none" fill="#fff"/>
              </g>
            </g>
            <g id="Trazado_874923" data-name="Trazado 874923" transform="translate(0 0)" fill="none">
              <path d="M50,0a50,50,0,0,1,50,50h0A50,50,0,0,1,0,50H0A50,50,0,0,1,50,0Z" stroke="none"/>
              <path d="M 49.99972534179688 3 C 43.65348052978516 3 37.49866485595703 4.242240905761719 31.70623016357422 6.692230224609375 C 26.10989379882812 9.059272766113281 21.08323669433594 12.44853210449219 16.76589202880859 16.76587677001953 C 12.44855499267578 21.08321380615234 9.059295654296875 26.10985565185547 6.692230224609375 31.70618438720703 C 4.24224853515625 37.49859619140625 3 43.65341186523438 3 50.00022888183594 C 3 56.34645843505859 4.24224853515625 62.50127410888672 6.692230224609375 68.29368591308594 C 9.059295654296875 73.8900146484375 12.44855499267578 78.91665649414062 16.76589202880859 83.23399353027344 C 21.08323669433594 87.55132293701172 26.10989379882812 90.94059753417969 31.70623016357422 93.30764007568359 C 37.49866485595703 95.75762939453125 43.65348052978516 96.99987030029297 49.99972534179688 96.99987030029297 C 56.34597015380859 96.99987030029297 62.50078582763672 95.75762939453125 68.293212890625 93.30764007568359 C 73.88955688476562 90.94059753417969 78.91621398925781 87.55132293701172 83.23355865478516 83.23399353027344 C 87.55089569091797 78.91665649414062 90.94015502929688 73.8900146484375 93.30722045898438 68.29368591308594 C 95.7572021484375 62.50127410888672 96.99945068359375 56.34645843505859 96.99945068359375 49.99964141845703 C 96.99945068359375 43.65341186523438 95.7572021484375 37.49859619140625 93.30722045898438 31.70618438720703 C 90.94015502929688 26.10985565185547 87.55089569091797 21.08321380615234 83.23355865478516 16.76587677001953 C 78.91621398925781 12.44853210449219 73.88955688476562 9.059272766113281 68.293212890625 6.692230224609375 C 62.50078582763672 4.242240905761719 56.34597015380859 3 49.99972534179688 3 M 49.99972534179688 0 C 77.61381530761719 0 99.99945068359375 22.38559722900391 99.99945068359375 49.99964141845703 L 99.99945068359375 50.00022888183594 C 99.99945068359375 77.6142578125 77.61381530761719 99.99987030029297 49.99972534179688 99.99987030029297 C 22.38563537597656 99.99987030029297 0 77.6142578125 0 50.00022888183594 L 0 49.99964141845703 C 0 22.38559722900391 22.38563537597656 0 49.99972534179688 0 Z" stroke="none" fill="#fff"/>
            </g>
          </g>
        </g>
      </g>
    </g>
    <g id="g6117" transform="translate(-2858.3 -9132.326)">
      <g id="g6119" transform="translate(29.68 -653.148)">
        <path id="path6121" d="M0,0V16.338L11.355,8.169Z" fill="#ff545a"/>
      </g>
      <g id="g6123" transform="translate(39.319 -644.586)">
        <path id="path6125" d="M-36.732,0-40,5.6l3.268,2.178h3.268Z" transform="translate(40)" fill="#ff0787"/>
      </g>
      <g id="g6127" transform="translate(29.68 -648.28)">
        <path id="path6129" d="M-127.645,0-139,11.469h12.907V3.694Z" transform="translate(139)" fill="#ff336d"/>
      </g>
      <g id="g6131" transform="translate(39.319 -653.148)">
        <path id="path6133" d="M-73.465,0l-3.268,1.122L-80,8.169l3.268,4.868,3.268,3.3Z" transform="translate(80)" fill="#c9139d"/>
      </g>
      <g id="g6135" transform="translate(37.767 -652.026)">
        <path id="path6137" d="M0-79.216l4.82,4.868V-86.262Z" transform="translate(0 86.262)" fill="#ff0787"/>
      </g>
      <g id="g6139" transform="translate(40.408 -653.148)">
        <path id="path6141" d="M-24.488,0l-2.178,1.65,2.178,1.65L-21.221,0Z" transform="translate(26.667)" fill="#ff0787"/>
      </g>
      <g id="g6143" transform="translate(29.68 -653.148)">
        <path id="path6145" d="M0,0,8.087,8.169,12.907,3.3V0Z" fill="#ff336d"/>
      </g>
      <g id="g6147" transform="translate(9.912 -672.753)">
        <path id="path6149" d="M0,0V16.338L11.355,8.169Z" fill="#6ce1ff"/>
      </g>
      <g id="g6151" transform="translate(19.551 -664.192)">
        <path id="path6153" d="M-36.732,0-40,5.6l3.268,2.178h3.268Z" transform="translate(40)" fill="#22aef4"/>
      </g>
      <g id="g6155" transform="translate(9.912 -667.885)">
        <path id="path6157" d="M-127.645,0-139,11.469h12.907V3.694Z" transform="translate(139)" fill="#14cfff"/>
      </g>
      <g id="g6159" transform="translate(19.551 -672.753)">
        <path id="path6161" d="M-73.465,0l-3.268,1.122L-80,8.169l3.268,4.868,3.268,3.3Z" transform="translate(80)" fill="#318de9"/>
      </g>
      <g id="g6163" transform="translate(17.999 -671.631)">
        <path id="path6165" d="M0-79.216l4.82,4.868V-86.262Z" transform="translate(0 86.262)" fill="#22aef4"/>
      </g>
      <g id="g6167" transform="translate(20.64 -672.753)">
        <path id="path6169" d="M-24.488,0l-2.178,1.65,2.178,1.65L-21.221,0Z" transform="translate(26.667)" fill="#22aef4"/>
      </g>
      <g id="g6171" transform="translate(9.912 -672.753)">
        <path id="path6173" d="M0,0,8.087,8.169,12.907,3.3V0Z" fill="#14cfff"/>
      </g>
      <g id="g6175" transform="translate(0 -682.665)">
        <g id="g6177" clip-path="url(#clip-path)">
          <g id="g6183" transform="translate(17.182 45.037)">
            <path id="path6185" d="M-18.366-9.183a.817.817,0,0,1-.817.817A.817.817,0,0,1-20-9.183.817.817,0,0,1-19.183-10a.817.817,0,0,1,.817.817" transform="translate(20 10)"/>
          </g>
          <g id="g6187" transform="translate(20.449 45.037)">
            <path id="path6189" d="M-18.366-9.183a.817.817,0,0,1-.817.817A.817.817,0,0,1-20-9.183.817.817,0,0,1-19.183-10a.817.817,0,0,1,.817.817" transform="translate(20 10)"/>
          </g>
          <g id="g6191" transform="translate(13.914 45.037)">
            <path id="path6193" d="M-18.366-9.183a.817.817,0,0,1-.817.817A.817.817,0,0,1-20-9.183.817.817,0,0,1-19.183-10a.817.817,0,0,1,.817.817" transform="translate(20 10)"/>
          </g>
          <g id="g6195" transform="translate(0.817 44.221)">
            <path id="path6197" d="M-101.719-83.871H-107.5v-5.781a1.664,1.664,0,0,0-1.555-1.678,1.634,1.634,0,0,0-1.713,1.632v7.461a1.634,1.634,0,0,0,1.634,1.634h7.461a1.634,1.634,0,0,0,1.632-1.713,1.664,1.664,0,0,0-1.678-1.555" transform="translate(110.768 91.332)" fill="#95b0ed"/>
          </g>
          <g id="g6199" transform="translate(44.221 44.221)">
            <path id="path6201" d="M-101.351-.021a1.664,1.664,0,0,0-1.555,1.678V7.438h-5.781a1.664,1.664,0,0,0-1.678,1.555,1.634,1.634,0,0,0,1.632,1.713h7.461a1.634,1.634,0,0,0,1.634-1.634V1.611a1.634,1.634,0,0,0-1.713-1.632" transform="translate(110.367 0.023)" fill="#95b0ed"/>
          </g>
          <g id="g6203" transform="translate(44.221 0.817)">
            <path id="path6205" d="M-102.239,0H-109.7a1.634,1.634,0,0,0-1.632,1.713,1.664,1.664,0,0,0,1.678,1.555h5.781V9.048a1.664,1.664,0,0,0,1.555,1.678A1.634,1.634,0,0,0-100.6,9.095V1.634A1.634,1.634,0,0,0-102.239,0" transform="translate(111.333)" fill="#95b0ed"/>
          </g>
          <g id="g6207" transform="translate(0.817 0.817)">
            <path id="path6209" d="M-101.719,0h-7.415a1.634,1.634,0,0,0-1.634,1.634V9.048a1.664,1.664,0,0,0,1.555,1.678A1.634,1.634,0,0,0-107.5,9.095V3.268h5.827a1.634,1.634,0,0,0,1.632-1.713A1.664,1.664,0,0,0-101.719,0" transform="translate(110.768)" fill="#95b0ed"/>
          </g>
          <g id="g6211" transform="translate(9.912 9.912)">
            <path id="path6213" d="M0,0,16.174,16.338" fill="none" stroke="#000" stroke-linecap="round" stroke-linejoin="round" stroke-miterlimit="10" stroke-width="1.2"/>
          </g>
          <g id="g6215" transform="translate(9.912 9.912)">
            <path id="path6217" d="M0-183.662,16.174-200" transform="translate(0 200)" fill="none" stroke="#000" stroke-linecap="round" stroke-linejoin="round" stroke-miterlimit="10" stroke-width="1.2"/>
          </g>
          <g id="g6219" transform="translate(29.68 29.517)">
            <path id="path6221" d="M0,0,16.174,16.338" fill="none" stroke="#000" stroke-linecap="round" stroke-linejoin="round" stroke-miterlimit="10" stroke-width="1.2"/>
          </g>
          <g id="g6223" transform="translate(29.68 29.517)">
            <path id="path6225" d="M0-183.662,16.174-200" transform="translate(0 200)" fill="none" stroke="#000" stroke-linecap="round" stroke-linejoin="round" stroke-miterlimit="10" stroke-width="1.2"/>
          </g>
          <g id="g6227" transform="translate(9.912 9.912)">
            <path id="path6229" d="M0-110.2v6.535H16.174V-120H0v6.535" transform="translate(0 120)" fill="none" stroke="#000" stroke-linecap="round" stroke-linejoin="round" stroke-miterlimit="10" stroke-width="1.2"/>
          </g>
          <path id="path6231" d="M363.332-304.995h16.174v-16.338H363.332Z" transform="translate(-333.652 350.849)" fill="none" stroke="#000" stroke-linecap="round" stroke-linejoin="round" stroke-miterlimit="10" stroke-width="1.2"/>
          <g id="g6233" transform="translate(29.68 26.249)">
            <path id="path6235" d="M0,0H16.174" fill="none" stroke="#000" stroke-linecap="round" stroke-linejoin="round" stroke-miterlimit="10" stroke-width="1.2"/>
          </g>
          <g id="g6237" transform="translate(29.68 22.982)">
            <path id="path6239" d="M0,0H16.174" fill="none" stroke="#000" stroke-linecap="round" stroke-linejoin="round" stroke-miterlimit="10" stroke-width="1.2"/>
          </g>
          <g id="g6241" transform="translate(29.68 19.714)">
            <path id="path6243" d="M0,0H16.174" fill="none" stroke="#000" stroke-linecap="round" stroke-linejoin="round" stroke-miterlimit="10" stroke-width="1.2"/>
          </g>
          <g id="g6245" transform="translate(29.68 16.447)">
            <path id="path6247" d="M0,0H16.174" fill="none" stroke="#000" stroke-linecap="round" stroke-linejoin="round" stroke-miterlimit="10" stroke-width="1.2"/>
          </g>
          <g id="g6249" transform="translate(29.68 13.179)">
            <path id="path6251" d="M0,0H16.174" fill="none" stroke="#000" stroke-linecap="round" stroke-linejoin="round" stroke-miterlimit="10" stroke-width="1.2"/>
          </g>
          <g id="g6253" transform="translate(29.68 9.912)">
            <path id="path6255" d="M0,0H16.174" fill="none" stroke="#000" stroke-linecap="round" stroke-linejoin="round" stroke-miterlimit="10" stroke-width="1.2"/>
          </g>
          <g id="g6257" transform="translate(9.912 42.587)">
            <path id="path6259" d="M0,0H16.174" transform="translate(0 0)" fill="none" stroke="#000" stroke-linecap="round" stroke-linejoin="round" stroke-miterlimit="10" stroke-width="1.2"/>
          </g>
          <g id="g6261" transform="translate(9.912 39.319)">
            <path id="path6263" d="M0,0H16.174" fill="none" stroke="#000" stroke-linecap="round" stroke-linejoin="round" stroke-miterlimit="10" stroke-width="1.2"/>
          </g>
          <g id="g6265" transform="translate(9.912 36.052)">
            <path id="path6267" d="M0,0H16.174" fill="none" stroke="#000" stroke-linecap="round" stroke-linejoin="round" stroke-miterlimit="10" stroke-width="1.2"/>
          </g>
          <g id="g6269" transform="translate(9.912 32.784)">
            <path id="path6271" d="M0,0H16.174" fill="none" stroke="#000" stroke-linecap="round" stroke-linejoin="round" stroke-miterlimit="10" stroke-width="1.2"/>
          </g>
          <g id="g6273" transform="translate(9.912 29.517)">
            <path id="path6275" d="M0,0H16.174" fill="none" stroke="#000" stroke-linecap="round" stroke-linejoin="round" stroke-miterlimit="10" stroke-width="1.2"/>
          </g>
          <g id="g6277" transform="translate(0.817 44.221)">
            <path id="path6279" d="M-101.719-83.871H-107.5v-5.781a1.664,1.664,0,0,0-1.555-1.678,1.634,1.634,0,0,0-1.713,1.632v7.461a1.634,1.634,0,0,0,1.634,1.634h7.461a1.634,1.634,0,0,0,1.632-1.713A1.664,1.664,0,0,0-101.719-83.871Z" transform="translate(110.768 91.332)" fill="none" stroke="#000" stroke-linecap="round" stroke-linejoin="round" stroke-miterlimit="10" stroke-width="1.2"/>
          </g>
          <g id="g6281" transform="translate(44.221 44.221)">
            <path id="path6283" d="M-101.351-.021a1.664,1.664,0,0,0-1.555,1.678V7.438h-5.781a1.664,1.664,0,0,0-1.678,1.555,1.634,1.634,0,0,0,1.632,1.713h7.461a1.634,1.634,0,0,0,1.634-1.634V1.611A1.634,1.634,0,0,0-101.351-.021Z" transform="translate(110.367 0.023)" fill="none" stroke="#000" stroke-linecap="round" stroke-linejoin="round" stroke-miterlimit="10" stroke-width="1.2"/>
          </g>
          <g id="g6285" transform="translate(44.221 0.817)">
            <path id="path6287" d="M-102.239,0H-109.7a1.634,1.634,0,0,0-1.632,1.713,1.664,1.664,0,0,0,1.678,1.555h5.781V9.048a1.664,1.664,0,0,0,1.555,1.678A1.634,1.634,0,0,0-100.6,9.095V1.634A1.634,1.634,0,0,0-102.239,0Z" transform="translate(111.333)" fill="none" stroke="#000" stroke-linecap="round" stroke-linejoin="round" stroke-miterlimit="10" stroke-width="1.2"/>
          </g>
          <g id="g6289" transform="translate(0.817 0.817)">
            <path id="path6291" d="M-101.719,0h-7.415a1.634,1.634,0,0,0-1.634,1.634V9.048a1.664,1.664,0,0,0,1.555,1.678A1.634,1.634,0,0,0-107.5,9.095V3.268h5.827a1.634,1.634,0,0,0,1.632-1.713A1.664,1.664,0,0,0-101.719,0Z" transform="translate(110.768)" fill="none" stroke="#000" stroke-linecap="round" stroke-linejoin="round" stroke-miterlimit="10" stroke-width="1.2"/>
          </g>
        </g>
      </g>
    </g>
  </g>
</svg>
