<svg xmlns="http://www.w3.org/2000/svg" xmlns:xlink="http://www.w3.org/1999/xlink" width="99.447" height="99.447" viewBox="0 0 99.447 99.447">
  <defs>
    <filter id="Trazado_896985" x="0" y="0" width="99.447" height="99.447" filterUnits="userSpaceOnUse">
      <feOffset dy="3" input="SourceAlpha"/>
      <feGaussianBlur stdDeviation="3" result="blur"/>
      <feFlood flood-opacity="0.161"/>
      <feComposite operator="in" in2="blur"/>
      <feComposite in="SourceGraphic"/>
    </filter>
  </defs>
  <g id="Grupo_1199943" data-name="Grupo 1199943" transform="translate(-614.553 -2757.228)">
    <g id="Grupo_1199826" data-name="Grupo 1199826" transform="translate(623.553 2763.228)">
      <g id="Grupo_1198723" data-name="Grupo 1198723" transform="translate(0 0)">
        <g id="Grupo_1198139" data-name="Grupo 1198139" transform="translate(0)">
          <g id="Grupo_1111318" data-name="Grupo 1111318" transform="translate(0)">
            <g id="Grupo_1109826" data-name="Grupo 1109826">
              <g id="Grupo_1098742" data-name="Grupo 1098742">
                <g transform="matrix(1, 0, 0, 1, -9, -6)" filter="url(#Trazado_896985)">
                  <g id="Trazado_896985-2" data-name="Trazado 896985" transform="translate(9 6)" fill="#ef8c1a" opacity="0.859">
                    <path d="M 40.72351455688477 80.94712829589844 C 35.29315948486328 80.94712829589844 30.02549171447754 79.88369750976562 25.06685829162598 77.786376953125 C 20.27713584899902 75.76048278808594 15.97541427612305 72.86015319824219 12.28119277954102 69.16593933105469 C 8.586980819702148 65.47171783447266 5.686647891998291 61.16999816894531 3.660758972167969 56.38027572631836 C 1.56343674659729 51.4216423034668 0.500003457069397 46.15397644042969 0.500003457069397 40.7236213684082 C 0.500003457069397 35.29315185546875 1.56343674659729 30.02549743652344 3.660758972167969 25.06686401367188 C 5.686647891998291 20.27713012695312 8.586980819702148 15.97540855407715 12.28119277954102 12.2811975479126 C 15.97541427612305 8.58697509765625 20.27713584899902 5.686641693115234 25.06685829162598 3.660753011703491 C 30.02549171447754 1.563430786132812 35.29315948486328 0.499997466802597 40.72351455688477 0.499997466802597 C 46.15386962890625 0.499997466802597 51.42153549194336 1.563430786132812 56.38016891479492 3.660753011703491 C 61.16989135742188 5.686641693115234 65.47161102294922 8.58697509765625 69.16584014892578 12.2811975479126 C 72.86004638671875 15.97540855407715 75.76038360595703 20.27713012695312 77.78627014160156 25.06686401367188 C 79.88359069824219 30.02549743652344 80.94702911376953 35.29315185546875 80.94702911376953 40.72350692749023 C 80.94702911376953 46.15397644042969 79.88359069824219 51.4216423034668 77.78627014160156 56.38027572631836 C 75.76038360595703 61.16999816894531 72.86004638671875 65.47171783447266 69.16584014892578 69.16593933105469 C 65.47161102294922 72.86015319824219 61.16989135742188 75.76048278808594 56.38016891479492 77.786376953125 C 51.42153549194336 79.88369750976562 46.15386962890625 80.94712829589844 40.72351455688477 80.94712829589844 Z" stroke="none"/>
                    <path d="M 40.72351455688477 1 C 35.36043548583984 1 30.15830230712891 2.050140380859375 25.26163864135742 4.121253967285156 C 20.53150177001953 6.121932983398438 16.28321075439453 8.986289978027344 12.63475036621094 12.63474273681641 C 8.986289978027344 16.28321075439453 6.121932983398438 20.53149795532227 4.121261596679688 25.26163101196289 C 2.050148010253906 30.15829849243164 1 35.36043167114258 1 40.7236213684082 C 1 46.08669662475586 2.050148010253906 51.28883361816406 4.121261596679688 56.18549728393555 C 6.121932983398438 60.91563034057617 8.986289978027344 65.16391754150391 12.63475036621094 68.81238555908203 C 16.28321075439453 72.46084594726562 20.53150177001953 75.3251953125 25.26163864135742 77.32587432861328 C 30.15830230712891 79.39698791503906 35.36043548583984 80.44712829589844 40.72351455688477 80.44712829589844 C 46.08659362792969 80.44712829589844 51.28872680664062 79.39698791503906 56.18539428710938 77.32587432861328 C 60.91552734375 75.3251953125 65.163818359375 72.46084594726562 68.81227874755859 68.81238555908203 C 72.46073913574219 65.16391754150391 75.32508850097656 60.91563034057617 77.32576751708984 56.18549728393555 C 79.39688110351562 51.28883361816406 80.44702911376953 46.08669662475586 80.44702911376953 40.72350692749023 C 80.44702911376953 35.36043167114258 79.39688110351562 30.15829849243164 77.32576751708984 25.26163101196289 C 75.32508850097656 20.53149795532227 72.46073913574219 16.28321075439453 68.81227874755859 12.63474273681641 C 65.163818359375 8.986289978027344 60.91552734375 6.121932983398438 56.18539428710938 4.121253967285156 C 51.28872680664062 2.050140380859375 46.08659362792969 1 40.72351455688477 1 M 40.72351455688477 0 C 63.21449279785156 0 81.44702911376953 18.2325325012207 81.44702911376953 40.72350692749023 L 81.44702911376953 40.7236213684082 C 81.44702911376953 63.214599609375 63.21449279785156 81.44712829589844 40.72351455688477 81.44712829589844 C 18.23253631591797 81.44712829589844 0 63.214599609375 0 40.7236213684082 L 0 40.72350692749023 C 0 18.2325325012207 18.23253631591797 0 40.72351455688477 0 Z" stroke="none" fill="#fff"/>
                  </g>
                </g>
                <g id="Rectángulo_400907" data-name="Rectángulo 400907" transform="translate(0)" fill="none" stroke="#fff" stroke-width="1">
                  <rect width="81.447" height="81.447" rx="40.724" stroke="none"/>
                  <rect x="0.5" y="0.5" width="80.447" height="80.447" rx="40.224" fill="none"/>
                </g>
              </g>
            </g>
          </g>
        </g>
      </g>
    </g>
    <g id="radioactive-pollution_18780318" transform="translate(636.911 2773.638)">
      <path id="Trazado_1032539" data-name="Trazado 1032539" d="M301.08,172.28h5.614a1.421,1.421,0,0,1,1.006.42,1.406,1.406,0,0,1,.418,1v13.072h4.742V173.7a6.172,6.172,0,0,0-6.167-6.164H301.08Z" transform="translate(-268.894 -144.186)" fill="#0cf"/>
      <g id="Grupo_1199942" data-name="Grupo 1199942" transform="translate(0.847 6.945)">
        <path id="Trazado_1032540" data-name="Trazado 1032540" d="M174.63,156.56h12.834v6.6H174.63Z" transform="translate(-156.812 -141.325)" fill="#daeafa" fill-rule="evenodd"/>
        <path id="Trazado_1032541" data-name="Trazado 1032541" d="M83.673,99,79.041,65.24h-8.52L65.89,99Z" transform="translate(-59.7 -59.77)" fill="#2f5274" fill-rule="evenodd"/>
        <path id="Trazado_1032542" data-name="Trazado 1032542" d="M276.01,140.44h2.871a.884.884,0,0,1,.882.882v8.28a.883.883,0,0,1-.882.88H276.01a.883.883,0,0,1-.88-.88v-8.28A.885.885,0,0,1,276.01,140.44Z" transform="translate(-246.565 -126.929)" fill="#2f5274" fill-rule="evenodd"/>
        <path id="Trazado_1032543" data-name="Trazado 1032543" d="M80.58,58.92H95.22v4.328H80.58Z" transform="translate(-72.819 -54.126)" fill="#daeafa" fill-rule="evenodd"/>
        <path id="Trazado_1032544" data-name="Trazado 1032544" d="M82.73,121.1a8.541,8.541,0,0,1-2.25,16.42Z" transform="translate(-72.73 -109.657)" fill="#2a4a68" fill-rule="evenodd"/>
        <path id="Trazado_1032545" data-name="Trazado 1032545" d="M14.829,145.074A6.827,6.827,0,1,0,8,138.245,6.842,6.842,0,0,0,14.829,145.074Z" transform="translate(-8 -118.874)" fill="#ffd400" fill-rule="evenodd"/>
        <path id="Trazado_1032546" data-name="Trazado 1032546" d="M53.669,196.317a4.617,4.617,0,0,1-4.949,0l.877-1.507,1.616-2.777,1.6,2.789Z" transform="translate(-44.366 -173.003)" fill="#2f5274" fill-rule="evenodd"/>
        <path id="Trazado_1032547" data-name="Trazado 1032547" d="M69.753,157.36a4.612,4.612,0,0,1,2.478,4.092c0,.065,0,.129,0,.191l-1.742-.006-3.215-.009,1.618-2.78Z" transform="translate(-60.932 -142.04)" fill="#2f5274" fill-rule="evenodd"/>
        <path id="Trazado_1032548" data-name="Trazado 1032548" d="M30.063,161.564c0-.062,0-.126,0-.188a4.62,4.62,0,0,1,2.478-4.1l.868,1.512,1.6,2.789-3.215-.012Z" transform="translate(-27.701 -141.968)" fill="#2f5274" fill-rule="evenodd"/>
        <path id="Trazado_1032549" data-name="Trazado 1032549" d="M58.267,183.647a1.629,1.629,0,1,0-1.627-1.628A1.631,1.631,0,0,0,58.267,183.647Z" transform="translate(-51.439 -162.607)" fill="#e2e7f0" fill-rule="evenodd"/>
        <path id="Trazado_1032550" data-name="Trazado 1032550" d="M75.994,291.11a22.112,22.112,0,1,1-44.224,0Z" transform="translate(-29.228 -261.488)" fill="#0593fc" fill-rule="evenodd"/>
        <path id="Trazado_1032551" data-name="Trazado 1032551" d="M58.566,337.737a22.191,22.191,0,0,1-10.006-10.83c4.884-9.315,5.411-4.169,12.268-3.26,10.007.885,6.793,6.691.642,10.627A7.147,7.147,0,0,0,58.566,337.737Z" transform="translate(-44.223 -288.549)" fill="#70da40" fill-rule="evenodd"/>
        <path id="Trazado_1032552" data-name="Trazado 1032552" d="M264.469,291.1a22.047,22.047,0,0,1-7.332,16.446,51.983,51.983,0,0,1-2.5-10.457c-1.4-3.954-2.753-.153-4.275.415-1.594.6-7.882-3.554-7.538-6.405h21.643Z" transform="translate(-217.704 -261.479)" fill="#70da40" fill-rule="evenodd"/>
        <path id="Trazado_1032553" data-name="Trazado 1032553" d="M361.547,14.09l8.047,13.941H353.5Z" transform="translate(-316.555 -14.09)" fill="#ffd400" fill-rule="evenodd"/>
        <path id="Trazado_1032554" data-name="Trazado 1032554" d="M33.565,299.845a28.526,28.526,0,0,1,2.036-3.41,22.081,22.081,0,0,1-.647-5.325H31.77a22.114,22.114,0,0,0,22.113,22.113c.536,0,1.065-.018,1.592-.056a22,22,0,0,1-11.1-3.946,11.994,11.994,0,0,0-.806,1.453A22.188,22.188,0,0,1,33.565,299.845Z" transform="translate(-29.228 -261.488)" fill="#0584e3" fill-rule="evenodd"/>
        <path id="Trazado_1032555" data-name="Trazado 1032555" d="M50.6,340.91a28.439,28.439,0,0,0-2.036,3.41,22.189,22.189,0,0,0,10.007,10.83,11.994,11.994,0,0,1,.806-1.453,22.182,22.182,0,0,1-7.229-8.5,21.912,21.912,0,0,1-1.28-3.3C50.766,341.572,50.678,341.243,50.6,340.91Z" transform="translate(-44.223 -305.963)" fill="#65c43a" fill-rule="evenodd"/>
        <path id="Trazado_1032556" data-name="Trazado 1032556" d="M80.58,58.92h1.58v4.328H80.58Z" transform="translate(-72.819 -54.126)" fill="#c4d3e1" fill-rule="evenodd"/>
        <path id="Trazado_1032557" data-name="Trazado 1032557" d="M276.461,148.76v-7.438a.883.883,0,0,1,.88-.882H276.02a.885.885,0,0,0-.88.882v8.28a.882.882,0,0,0,.88.88h1.321a.881.881,0,0,1-.88-.88Z" transform="translate(-246.574 -126.929)" fill="#2a4a68" fill-rule="evenodd"/>
        <path id="Trazado_1032558" data-name="Trazado 1032558" d="M9.418,138.245a6.83,6.83,0,0,1,6.12-6.79,7.056,7.056,0,0,0-.709-.035,6.827,6.827,0,1,0,0,13.654,7.056,7.056,0,0,0,.709-.035A6.832,6.832,0,0,1,9.418,138.245Z" transform="translate(-8 -118.874)" fill="#e6bf00" fill-rule="evenodd"/>
        <path id="Trazado_1032559" data-name="Trazado 1032559" d="M57.4,182.02a1.62,1.62,0,0,1,.539-1.209,1.638,1.638,0,0,1,.712-.376,1.563,1.563,0,0,0-.376-.044,1.635,1.635,0,0,0-1.627,1.631c0,.065,0,.129.009.195a1.646,1.646,0,0,0,.65,1.115,1.634,1.634,0,0,0,1.344.274,1.63,1.63,0,0,1-1.239-1.389C57.408,182.152,57.4,182.085,57.4,182.02Z" transform="translate(-51.448 -162.607)" fill="#cbd0d8" fill-rule="evenodd"/>
        <path id="Trazado_1032560" data-name="Trazado 1032560" d="M354.923,28.031l7.336-12.708-.712-1.233L353.5,28.031Z" transform="translate(-316.555 -14.09)" fill="#e6bf00" fill-rule="evenodd"/>
      </g>
      <path id="Trazado_1032561" data-name="Trazado 1032561" d="M9.712,27.776a2.511,2.511,0,0,0,.216-.375l2.357.007h0a.856.856,0,0,0,.855-.82,5.5,5.5,0,0,0-2.928-5.08.856.856,0,0,0-1.138.328L7.886,23.883c-.07-.005-.139-.01-.21-.01s-.15,0-.223.011L6.279,21.836A.856.856,0,0,0,5.138,21.5a5.439,5.439,0,0,0-2.931,5.079.856.856,0,0,0,.852.821l2.367.007a2.406,2.406,0,0,0,.22.376l-1.188,2.04A.856.856,0,0,0,4.74,30.98a5.477,5.477,0,0,0,5.868,0,.856.856,0,0,0,.283-1.148ZM6.9,26.357a.771.771,0,1,1,.771.771A.772.772,0,0,1,6.9,26.357Zm3.2-2.878a3.708,3.708,0,0,1,1.277,2.212l-1.313,0a2.5,2.5,0,0,0-.624-1.075Zm-4.856,0L5.9,24.621a2.483,2.483,0,0,0-.62,1.078l-1.31,0A3.72,3.72,0,0,1,5.247,23.48ZM6.4,29.9l.661-1.135a2.5,2.5,0,0,0,1.244,0L8.954,29.9a3.812,3.812,0,0,1-2.556,0Zm41.215,5.814h-2.79V29.518A7.035,7.035,0,0,0,37.8,22.5H34.9V21.336A1.739,1.739,0,0,0,33.164,19.6h-2.87a1.738,1.738,0,0,0-1.738,1.722H22.276l-.6-4.4h1.576a.856.856,0,0,0,.857-.857v-4.33a.856.856,0,0,0-.857-.857H8.605a.856.856,0,0,0-.857.857V16.07a.856.856,0,0,0,.857.857h1.579l-.28,2.04A7.684,7.684,0,1,0,7.675,34c.056,0,.111,0,.167,0l-.235,1.714H3.389a.856.856,0,0,0-.857.857A22.968,22.968,0,0,0,40.848,53.656l0,0q.454-.409.89-.844A22.818,22.818,0,0,0,48.468,36.57a.855.855,0,0,0-.855-.858ZM37.8,24.21a5.321,5.321,0,0,1,5.309,5.308v6.195H40.08V29.518A2.284,2.284,0,0,0,37.8,27.24H34.9V24.208h2.9Zm-13.555,11.5-.833-6.08h5.141a1.74,1.74,0,0,0,1.738,1.725h2.87A1.741,1.741,0,0,0,34.9,29.618v-.665h2.9a.571.571,0,0,1,.565.566v6.195H24.247Zm6.02-14.375a.026.026,0,0,1,.026-.022h2.87a.027.027,0,0,1,.026.022v8.281a.03.03,0,0,1-.026.026h-2.87a.03.03,0,0,1-.026-.026Zm-1.712,1.7V27.92H23.18l-.669-4.884ZM9.462,12.595H22.393v2.619H9.462ZM1.7,26.317A5.973,5.973,0,1,1,7.675,32.29,5.979,5.979,0,0,1,1.7,26.317Zm7.9,7.44a7.681,7.681,0,0,0,1.932-14.079l.379-2.753h8.031l.731,5.335c0,.015,0,.03.006.044L22.52,35.711H9.336ZM6.137,45.333c1.422-2.66,2.505-4.1,3.4-4.522.715-.338,1.421-.057,2.822.559a17.246,17.246,0,0,0,4.982,1.522l.037,0c3.291.291,5.277,1.156,5.591,2.435.405,1.652-1.725,4.3-5.3,6.6a7.254,7.254,0,0,0-2.829,3.018,21.4,21.4,0,0,1-8.7-9.615ZM16.35,55.751A5.436,5.436,0,0,1,18.5,53.429c.021-.012.043-.024.063-.036a18.97,18.97,0,0,0,4.631-4c1.266-1.6,1.764-3.149,1.44-4.47-.515-2.1-2.9-3.358-7.084-3.731a15.533,15.533,0,0,1-4.5-1.39c-1.5-.658-2.789-1.227-4.242-.54-1.1.52-2.153,1.717-3.475,4a21.145,21.145,0,0,1-1.065-5.838h20.9c.377,1.817,2.259,3.483,3.153,4.185,1.351,1.062,4.026,2.712,5.49,2.165a4.821,4.821,0,0,0,1.667-1.317,4.692,4.692,0,0,1,.885-.8,2.91,2.91,0,0,1,.584,1.1,52.2,52.2,0,0,0,2.339,9.978A21.213,21.213,0,0,1,16.35,55.751Zm24.315-4.3a49.4,49.4,0,0,1-2.033-8.994.809.809,0,0,0-.043-.181c-.34-.962-.862-2.1-1.879-2.312s-1.8.6-2.479,1.318a4.034,4.034,0,0,1-1.017.89c-.457.119-2.453-.673-4.348-2.326a6.888,6.888,0,0,1-1.923-2.419H46.738a21.174,21.174,0,0,1-6.073,14.023Zm13.961-30.99L46.579,6.518a.858.858,0,0,0-1.484,0L37.047,20.458a.856.856,0,0,0,.742,1.284h16.1a.857.857,0,0,0,.742-1.285ZM39.272,20.03,45.837,8.659,52.4,20.03Zm6.565-8.9a.856.856,0,0,1,.857.857v4.377a.857.857,0,1,1-1.713,0V11.983A.857.857,0,0,1,45.837,11.128Zm.863,7.454a.859.859,0,1,1-.865-.857h.01A.858.858,0,0,1,46.7,18.582Z"/>
    </g>
  </g>
</svg>
