<svg xmlns="http://www.w3.org/2000/svg" xmlns:xlink="http://www.w3.org/1999/xlink" width="272" height="212.827" viewBox="0 0 272 212.827">
  <defs>
    <clipPath id="clip-path">
      <rect id="Rectángulo_408390" data-name="Rectángulo 408390" width="272" height="178.022" rx="8" transform="translate(205.083 5119.432)" fill="#eaf4ff" opacity="0.58"/>
    </clipPath>
    <clipPath id="clip-path-2">
      <rect id="Rectángulo_408485" data-name="Rectángulo 408485" width="271.999" height="586.711" fill="none"/>
    </clipPath>
    <clipPath id="clip-path-3">
      <rect id="Rectángulo_408719" data-name="Rectángulo 408719" width="214.909" height="212.827" fill="none"/>
    </clipPath>
    <clipPath id="clip-path-5">
      <rect id="Rectángulo_408717" data-name="Rectángulo 408717" width="76.572" height="61.186" fill="none"/>
    </clipPath>
  </defs>
  <g id="Grupo_1199759" data-name="Grupo 1199759" transform="translate(-625.051 -17393.877)">
    <g id="Enmascarar_grupo_1098806" data-name="Enmascarar grupo 1098806" transform="translate(419.968 12283.703)" clip-path="url(#clip-path)">
      <g id="Grupo_1198312" data-name="Grupo 1198312" transform="translate(205.083 4843.001)">
        <rect id="Rectángulo_408483" data-name="Rectángulo 408483" width="272" height="586.712" transform="translate(0 -0.001)" fill="#e2f7f2"/>
        <rect id="Rectángulo_408484" data-name="Rectángulo 408484" width="2.304" height="30.387" transform="translate(42.33 345.595)" fill="#872a21"/>
        <g id="Grupo_1198311" data-name="Grupo 1198311" transform="translate(0 0)">
          <g id="Grupo_1198310" data-name="Grupo 1198310" clip-path="url(#clip-path-2)">
            <path id="Trazado_916645" data-name="Trazado 916645" d="M47.342,304.563c-1.139-2.671-4.185-2.671-5.324,0-4.556,10.68-13.362,32.959-13.355,45.611,0,4.223,4.511,7.619,8.745,9.878a15.156,15.156,0,0,0,14.544,0c4.233-2.259,8.742-5.655,8.745-9.878.007-12.652-8.8-34.932-13.355-45.611" transform="translate(-1.197 -12.636)" fill="#569171"/>
            <path id="Trazado_1032677" data-name="Trazado 1032677" d="M47.342,304.563c-1.139-2.671-4.185-2.671-5.324,0-4.556,10.68-13.362,32.959-13.355,45.611,0,4.223,4.511,7.619,8.745,9.878a15.156,15.156,0,0,0,14.544,0c4.233-2.259,8.742-5.655,8.745-9.878.007-12.652-8.8-34.932-13.355-45.611" transform="translate(49.803 -3.636)" fill="#569171"/>
            <path id="Trazado_916646" data-name="Trazado 916646" d="M47.451,357.868c-4.463-1.757-9.333-4.614-9.82-8.809-1.438-12.387,4.554-35.041,7.886-46.348a2.8,2.8,0,0,0-3.5,1.852c-4.556,10.68-13.362,32.959-13.355,45.612,0,4.222,4.511,7.619,8.745,9.877a15.157,15.157,0,0,0,14.544,0c.635-.338,1.276-.7,1.908-1.092a15.522,15.522,0,0,1-6.409-1.091" transform="translate(-1.197 -12.636)" fill="#3a6d50"/>
            <path id="Trazado_1032676" data-name="Trazado 1032676" d="M47.451,357.868c-4.463-1.757-9.333-4.614-9.82-8.809-1.438-12.387,4.554-35.041,7.886-46.348a2.8,2.8,0,0,0-3.5,1.852c-4.556,10.68-13.362,32.959-13.355,45.612,0,4.222,4.511,7.619,8.745,9.877a15.157,15.157,0,0,0,14.544,0c.635-.338,1.276-.7,1.908-1.092a15.522,15.522,0,0,1-6.409-1.091" transform="translate(49.803 -3.636)" fill="#3a6d50"/>
            <path id="Trazado_916647" data-name="Trazado 916647" d="M0,353.282s127.385-5.24,271.626,85.644V601.464H0Z" transform="translate(0 -14.752)" fill="#7dbb77"/>
            <path id="Trazado_916648" data-name="Trazado 916648" d="M0,477.091c114.322,7.4,232.118,60.223,271.626,79.43V502.95C178.87,425.237.008,401.7,0,401.7Z" transform="translate(0 -16.777)" fill="#569171"/>
            <path id="Trazado_916649" data-name="Trazado 916649" d="M251.683,271.481H130.5s.458-5.727,10.079-5.268c.458-9.393,13.745-15.119,22.45-7.56-6.414-15.806-2.52-27.489,8.476-28.634s18.325,10.308,20.387,17.409c6.642-7.1,8.017-1.145,8.246,0,10.08-10.995,23.595-7.33,27.718-2.977s3.207,14.66,3.207,14.66,14.431-6.184,17.638.458-2.519,8.934-2.519,8.934,4.81-.916,5.5,2.978" transform="translate(-5.45 -9.603)" fill="#fff"/>
          </g>
        </g>
      </g>
    </g>
    <g id="Grupo_1199966" data-name="Grupo 1199966" transform="translate(665.139 17393.877)">
      <g id="Grupo_1199971" data-name="Grupo 1199971" clip-path="url(#clip-path-3)">
        <g id="Grupo_1199970" data-name="Grupo 1199970">
          <g id="Grupo_1199969" data-name="Grupo 1199969" clip-path="url(#clip-path-3)">
            <path id="Trazado_1032635" data-name="Trazado 1032635" d="M247.226,232.5l-8.006,13.549L210.274,224.7l-13.549,16.013S234.5,286.7,244.352,285.877c6.956-.579,28.945-35.72,28.945-35.72Z" transform="translate(-187.057 -77.735)" fill="#cf8a6a"/>
            <g id="Grupo_1199968" data-name="Grupo 1199968" transform="translate(9.668 146.967)" opacity="0.31">
              <g id="Grupo_1199967" data-name="Grupo 1199967">
                <g id="Grupo_1199966-2" data-name="Grupo 1199966" clip-path="url(#clip-path-5)">
                  <path id="Trazado_1032636" data-name="Trazado 1032636" d="M247.226,232.5l-8.006,13.549L210.274,224.7l-13.549,16.013S234.5,286.7,244.352,285.877c6.956-.579,28.945-35.72,28.945-35.72Z" transform="translate(-196.725 -224.702)" fill="#7c453b"/>
                </g>
              </g>
            </g>
            <path id="Trazado_1032637" data-name="Trazado 1032637" d="M221.535,159.5a54.111,54.111,0,0,0-12.009,13.549c-5.235,8.468-25.2,46.138-25.2,46.138l41.365,15.91Z" transform="translate(-131.343 -55.177)" fill="#fcf5e1"/>
            <path id="Trazado_1032638" data-name="Trazado 1032638" d="M23.49,257.336H136.968l-.012-.2-1.305-31.178-.234-5.385-2.948-70.364C117.69,134.2,97.048,128.66,97.048,128.66h-.07l-32.425,1.422c-.5.209-30.677,12.984-36.925,18.847a5.384,5.384,0,0,0-.629.665c-1,1.247-1.748,17.961-2.308,38.02-.163,5.886-.3,12.075-.443,18.24-.07,3.94-.152,7.879-.221,11.726-.012.99-.035,1.981-.047,2.96-.012.292-.012.583-.012.874-.035,2-.069,3.986-.093,5.909-.222,13.566-.338,24.954-.385,30.013" transform="translate(62.578 -44.509)" fill="#ffae06"/>
            <path id="Trazado_1032639" data-name="Trazado 1032639" d="M214.724,155.831c-.179-2.005.336-4,.407-6.017a15.426,15.426,0,0,0-4.641-11.26,19.7,19.7,0,0,0-11.1-5.334,15.859,15.859,0,0,0-4.164-.1,12.187,12.187,0,0,0-3.2.844c1.138,4.932,2.975,10.164,6.7,13.588,3.323,3.052,7.818,4.384,12.027,6.008,1.317.508,3.254,1.055,3.971,2.272" transform="translate(-125.824 -46.019)" fill="#9fb869"/>
            <path id="Trazado_1032640" data-name="Trazado 1032640" d="M156.546,159.525a5.155,5.155,0,0,1,3.419-1.973c3.353-.8,6.883-.992,10.05-2.354a14.516,14.516,0,0,0,7.4-19.5c-2.99.436-5.859.5-8.732,1.442a16.122,16.122,0,0,0-6.076,3.162,14.879,14.879,0,0,0-3.391,5.267,36.707,36.707,0,0,0-2.674,13.958" transform="translate(-66.26 -46.944)" fill="#9fb869"/>
            <path id="Trazado_1032641" data-name="Trazado 1032641" d="M158.494,163.243a.179.179,0,0,0,.179-.185,26.212,26.212,0,0,1,9.263-20.588c3.419-2.84,7.419-4.707,11.916-6.684a.179.179,0,0,0-.145-.328c-4.521,1.988-8.545,3.867-12,6.737a26.574,26.574,0,0,0-9.392,20.875.179.179,0,0,0,.179.174" transform="translate(-68.587 -46.856)" fill="#783838"/>
            <path id="Trazado_1032642" data-name="Trazado 1032642" d="M210.829,161.709a.185.185,0,0,0,.178-.207,33.457,33.457,0,0,0-6.42-15.269,28.746,28.746,0,0,0-13.37-9.692.18.18,0,0,0-.115.34,28.38,28.38,0,0,1,13.2,9.571,33.1,33.1,0,0,1,6.35,15.105.179.179,0,0,0,.177.152" transform="translate(-121.011 -47.232)" fill="#783838"/>
            <path id="Trazado_1032643" data-name="Trazado 1032643" d="M147.045,203.97a32.413,32.413,0,0,0,25.483,31.71c.454.1.907.194,1.366.27a32.475,32.475,0,1,0-26.85-31.98" transform="translate(-93.24 -59.331)" fill="#008d9c"/>
            <path id="Trazado_1032644" data-name="Trazado 1032644" d="M209.089,208.214a2.042,2.042,0,0,1-.829,3.667c-.208.037-.415.069-.617.1-1.648.261-3.611.962-3.617,2.809a2.577,2.577,0,0,0,1.494,2.277l.22.107a3.282,3.282,0,0,1,1.71,4.09,1.6,1.6,0,0,0-.107.9c.22,1.224,1.8,1.546,3.045,1.612s2.5.148,3.743.255a1.554,1.554,0,0,1,.837.235c.811.627-.153,1.805-.811,2.591a4.29,4.29,0,0,0,1.9,6.512,14.5,14.5,0,0,0,3.493.275,3.663,3.663,0,0,1,3.05,1.444,3.452,3.452,0,0,1,.332,2.121c.454.1.908.194,1.366.27a2.567,2.567,0,0,0,.342-.163c.729-.449.734-1.51.494-2.33a6.872,6.872,0,0,0-3.422-4.157c-.818-.421-1.83-.78-1.927-1.807a1.8,1.8,0,0,1,.787-1.583c1.242-.91,2.863-.627,4.174-1.266a3.911,3.911,0,0,0,1.836-4.4,5.686,5.686,0,0,0-3.381-3.652c-.5-.214-1.132-.51-1.117-1.056.005-.23.138-.458.082-.684-.107-.469-.77-.428-1.229-.576-1.239-.387-.857-2.417.275-3.049s2.534-.494,3.774-.867c2.636-.8,4.039-4.406,2.438-6.645a8.257,8.257,0,0,0-2.239-1.912c-1.117-.734-2.228-1.474-3.345-2.213-1.05-.7-2.213-1.586-2.264-2.846-.066-1.805,2.137-2.769,3.942-2.871s3.891.03,5.1-1.316a4.323,4.323,0,0,0,.459-4.238c-1.167-3.422-4.34-5.783-7.649-7.242a4.158,4.158,0,0,1-1.555-.954c-.76-.888-.576-2.223-.975-3.32a4.193,4.193,0,0,0-2.381-2.417,32.538,32.538,0,0,0-18.619,35c3.03-.056,5.865-1.953,8.731-3.172a2.229,2.229,0,0,1,1.188-.255,3,3,0,0,1,1.272.725" transform="translate(-143.643 -60.856)" fill="#006f7a"/>
            <path id="Trazado_1032645" data-name="Trazado 1032645" d="M147.137,212.3a3.817,3.817,0,0,0,.887,1.821c1.765,1.938,5.385,1.234,6.961,3.33a1.425,1.425,0,0,1,.332,1.178,2.3,2.3,0,0,1-.423.724,2.993,2.993,0,0,0-.128,3.667c.653.709,1.8.959,2.168,1.852a1.894,1.894,0,0,1-.459,1.922,7,7,0,0,1-1.672,1.224c-2.224,1.367-4.319,3.616-4.054,6.212a6.539,6.539,0,0,0,2.627,4.177,12.871,12.871,0,0,0,4.773,2.423,32.522,32.522,0,0,0,11.918-37.779c-.158-.1-.321-.194-.489-.28a2.79,2.79,0,0,0-1.428-.383,1.3,1.3,0,0,0-1.173.79,6,6,0,0,0-.077,1.178c-.143,1.1-1.377,1.678-2.473,1.857a3.063,3.063,0,0,1-1.622-.072,1.345,1.345,0,0,1-.912-1.244c.025-.494.4-.908.484-1.4a1.657,1.657,0,0,0-.158-.948,2.536,2.536,0,0,0-4.743,1.754c.081.285.2.6.046.852a.947.947,0,0,1-.683.306,7.225,7.225,0,0,0-4.09,2.192,2.385,2.385,0,0,1-1.015.806,3.849,3.849,0,0,1-1.627-.219,2.649,2.649,0,0,0-2.519,1.219,3.838,3.838,0,0,0-.449,2.845" transform="translate(-53.295 -69.565)" fill="#006f7a"/>
            <path id="Trazado_1032646" data-name="Trazado 1032646" d="M161.252,193.965a4.768,4.768,0,0,1,2.09,2.62.977.977,0,0,1,.009.765c-.245.443-1,.4-1.213.854-.176.37.1.9-.2,1.179a.543.543,0,0,1-.667-.011,1.685,1.685,0,0,1-.436-.57,4.125,4.125,0,0,0-1.4-1.633c-.978-.566-2.325-.392-3.142-1.172a1.737,1.737,0,0,1,.331-2.759,3.505,3.505,0,0,1,1.873-.291,1.808,1.808,0,0,1,1.1.275Z" transform="translate(-50.387 -66.746)" fill="#006f7a"/>
            <path id="Trazado_1032647" data-name="Trazado 1032647" d="M129.313,54.589s14.319-26.174,5.7-35.72a16.519,16.519,0,0,0-6.567-14.36c-3.971-2.778-8.97-3.574-13.8-4.009A123.667,123.667,0,0,0,83.313,1.667c-3.351.557-6.812,1.311-9.487,3.4A11.491,11.491,0,0,0,70.932,19.18a19.761,19.761,0,0,0-6.278,2.766,9.089,9.089,0,0,0-3.784,5.563,8.841,8.841,0,0,0,.687,4.994c2.27,5.309,8.03,8.134,13.481,10.037,17.2,6,36.053,12.049,54.274,12.049" transform="translate(37.4 0)" fill="#783838"/>
            <path id="Trazado_1032648" data-name="Trazado 1032648" d="M116.207,114.915s-6.2,12.471-18.056,10.932-14.328-10.212-14.328-10.212l-.077-5.974-.09-10.491-.067-7.431,33.337-6.365Z" transform="translate(43.311 -29.534)" fill="#cf8a6a"/>
            <path id="Trazado_1032649" data-name="Trazado 1032649" d="M119.9,98.2a25.669,25.669,0,0,1-12.073,13.232A26.722,26.722,0,0,1,92.459,114.1l-.09-10.491c9.066-1.558,18.845-2.715,27.528-5.408" transform="translate(34.598 -33.972)" fill="#783838"/>
            <path id="Trazado_1032650" data-name="Trazado 1032650" d="M69.582,40c-.024,2.665,0,5.9.181,9.359A77.571,77.571,0,0,0,72.5,67.381a5.641,5.641,0,0,0,.29.748c1.858,4.245,7.779,6.248,14.726,7.044,7.465.856,16.137.326,22.252-.3.289-.036.567-.072.844-.1a9.594,9.594,0,0,0,8.37-7.659l.893-4.438.639-3.172c.072-.073.157-.145.229-.229a30.016,30.016,0,0,0,7.815-12.568.214.214,0,0,0,.024-.084c.048-.145.1-.289.133-.434l.036-.109a30.252,30.252,0,0,0-57.83-17.777A29.832,29.832,0,0,0,69.582,40" transform="translate(39.47 -2.506)" fill="#cf8a6a"/>
            <path id="Trazado_1032651" data-name="Trazado 1032651" d="M68.324,12.606a16.926,16.926,0,0,0,3.134,9.127,15.2,15.2,0,0,0,8.108,5.085,30.75,30.75,0,0,0,9.923,1.02,21.319,21.319,0,0,0,15.195,19.225,21.22,21.22,0,0,0,5.981.92,16.637,16.637,0,0,0,2.089-.062,20.538,20.538,0,0,0,4.116-1.032c.137-.037.286-.075.423-.112a1.783,1.783,0,0,0-.286-.336l.037-.112A31.188,31.188,0,0,0,68.324,12.606" transform="translate(51.891 -2.174)" fill="#783838"/>
            <path id="Trazado_1032652" data-name="Trazado 1032652" d="M69.961,78.969a8.118,8.118,0,0,0,1.773,1.954,6.537,6.537,0,0,0,3.2,1.254,5.788,5.788,0,0,0,.8.048,8.891,8.891,0,0,0,3.172-.519A10.5,10.5,0,0,0,85.4,68.6a8,8,0,0,0-1.351-2.581,1.7,1.7,0,0,0-.277-.326,3.968,3.968,0,0,0-.555-.555,5.1,5.1,0,0,0-.579-.434,3.381,3.381,0,0,0-.53-.314,3.913,3.913,0,0,0-.6-.277c-3.112-1.29-6.935.073-9.685,2.183a12.643,12.643,0,0,0-2.026,1.881c-2.364,2.775-1.918,7.611.169,10.795" transform="translate(84.414 -22.005)" fill="#cf8a6a"/>
            <path id="Trazado_1032653" data-name="Trazado 1032653" d="M73.181,76.786a.475.475,0,0,0,.362.567.327.327,0,0,0,.109.012.464.464,0,0,0,.458-.375,18.508,18.508,0,0,1,3.763-7.96,13.175,13.175,0,0,1,5.873-4.064,3.429,3.429,0,0,0-.53-.313,3.916,3.916,0,0,0-.6-.278,14.368,14.368,0,0,0-5.476,4.04,19.571,19.571,0,0,0-3.956,8.37" transform="translate(83.305 -22.271)" fill="#9c5638"/>
            <path id="Trazado_1032654" data-name="Trazado 1032654" d="M152.5,66.345a2.995,2.995,0,1,1-1.943-3.763,3,3,0,0,1,1.943,3.763" transform="translate(-33.657 -21.6)" fill="#783838"/>
            <path id="Trazado_1032655" data-name="Trazado 1032655" d="M122.065,65.147a3,3,0,1,1-1.945-3.768,3,3,0,0,1,1.945,3.768" transform="translate(16.695 -21.185)" fill="#783838"/>
            <path id="Trazado_1032656" data-name="Trazado 1032656" d="M131.079,84.012a6.44,6.44,0,0,0,1.78-.247,6.63,6.63,0,0,0,4.028-3.352A.5.5,0,1,0,136,79.97a5.535,5.535,0,0,1-7.823,2.256.5.5,0,1,0-.514.847,6.621,6.621,0,0,0,3.414.939" transform="translate(-5.375 -27.57)" fill="#9c5638"/>
            <path id="Trazado_1032657" data-name="Trazado 1032657" d="M150.794,47.761a.494.494,0,0,0,.451-.291,2.783,2.783,0,0,1,4.148-1.12.495.495,0,0,0,.574-.806,3.77,3.77,0,0,0-5.622,1.519.5.5,0,0,0,.449.7" transform="translate(-39.57 -15.515)" fill="#783838"/>
            <path id="Trazado_1032658" data-name="Trazado 1032658" d="M122.833,47.756a.485.485,0,0,0,.255-.072.494.494,0,0,0,.168-.679,4.43,4.43,0,0,0-7.46-.193.495.495,0,1,0,.82.555,3.44,3.44,0,0,1,5.794.15.494.494,0,0,0,.424.239" transform="translate(15.9 -15.521)" fill="#783838"/>
            <path id="Trazado_1032659" data-name="Trazado 1032659" d="M114.126,81.7a9.563,9.563,0,1,1-6.2-12.018,9.563,9.563,0,0,1,6.2,12.018" transform="translate(37.898 -23.95)" fill="#c97a57"/>
            <path id="Trazado_1032660" data-name="Trazado 1032660" d="M155.785,84.079a9.544,9.544,0,0,1-6.6,6.316,6,6,0,0,1-.283-.743,77.387,77.387,0,0,1-2.74-18.014,9.149,9.149,0,0,1,3.423.426,9.558,9.558,0,0,1,6.2,12.014" transform="translate(-36.929 -24.776)" fill="#c97a57"/>
            <path id="Trazado_1032661" data-name="Trazado 1032661" d="M96.476,65.588,95.1,70.807,89.712,61.57Z" transform="translate(59.756 -21.3)" fill="#783838"/>
            <path id="Trazado_1032662" data-name="Trazado 1032662" d="M140.726,75.557a.5.5,0,0,0,.232-.934A3.118,3.118,0,0,1,139.6,73.1a4.876,4.876,0,0,1-.364-2.143,6.675,6.675,0,0,1,1.084-3.417A.5.5,0,0,0,139.49,67a7.669,7.669,0,0,0-1.245,3.924,5.853,5.853,0,0,0,.447,2.576,4.116,4.116,0,0,0,1.8,2,.493.493,0,0,0,.231.058" transform="translate(-16.731 -23.099)" fill="#9c5638"/>
            <path id="Trazado_1032663" data-name="Trazado 1032663" d="M214.7,256.286l.579-.494,4.535-3.884,26.907-23.023-2.3-2.774L219.966,240.7l-.35.2-2.3,1.375Z" transform="translate(-172.231 -78.222)" fill="#cc6039"/>
            <path id="Trazado_1032664" data-name="Trazado 1032664" d="M255.6,263.51l4.535-3.884.157-11.2-.35.2Z" transform="translate(-212.551 -85.941)" fill="#783838"/>
            <path id="Trazado_1032665" data-name="Trazado 1032665" d="M285.116,250.289l11.906-50.706-22.581-11.291L246.316,232.84Z" transform="translate(-243.217 -65.139)" fill="#cc6039"/>
            <path id="Trazado_1032666" data-name="Trazado 1032666" d="M265.776,210.144a2.155,2.155,0,1,0,2.156-2.156,2.156,2.156,0,0,0-2.156,2.156" transform="translate(-229.01 -71.953)" fill="#783838"/>
            <path id="Trazado_1032667" data-name="Trazado 1032667" d="M260.66,196.5c1.873-3.99,10.989-24.043,6.552-26.965a2.513,2.513,0,0,0-2.192-.285c-4.26,1.329-9.08,13-9.617,14.328l1.165.47c1.393-3.452,5.7-12.625,8.825-13.6a1.242,1.242,0,0,1,1.128.135c2.589,1.7-2.533,15.869-7,25.383Z" transform="translate(-220.554 -58.508)" fill="#783838"/>
            <path id="Trazado_1032668" data-name="Trazado 1032668" d="M286.111,230.2l2.5-.215a70.712,70.712,0,0,1,.765-15.421l.159-1.183a107.782,107.782,0,0,1,2.316-13.162c.094-.358.2-.8.309-1.287.606-2.621,1.868-8.069,4.338-8.069a3.714,3.714,0,0,1,2.2,1.345,31.926,31.926,0,0,1,6.6,9.639l2.294-1.018a34.408,34.408,0,0,0-7.122-10.394,5.8,5.8,0,0,0-3.932-2.082c-4.51,0-5.959,6.265-6.827,10.014-.108.464-.2.878-.292,1.217a111.236,111.236,0,0,0-2.376,13.464l-.158,1.181a72.9,72.9,0,0,0-.778,15.971" transform="translate(-279.706 -65.16)" fill="#cc6039"/>
            <path id="Trazado_1032669" data-name="Trazado 1032669" d="M309.363,199.886s6.626.32,7.409,3.343c.576,2.222-.623,5.472-.623,5.472s1.1,1.358.385,4.566a8.967,8.967,0,0,1-3.355,5s-.925,6.511-1.963,7.567-3.577.678-3.577.678-.714,5.4-2.664,5.762-7.337-1.527-8.076-4.646c-.46-1.943.2-3.958-.347-4.9s-2.425-3.179-1.3-5.263,3.466-3.937,3.374-5.1-.649-4.826.672-5.724,1.829-4.667,3.168-5.666,6.894-1.091,6.894-1.091" transform="translate(-294.899 -69.15)" fill="#cf8a6a"/>
            <path id="Trazado_1032670" data-name="Trazado 1032670" d="M307.461,212.321a.314.314,0,0,0,.06-.622l-11.536-2.247a.314.314,0,0,0-.12.616l11.536,2.247a.308.308,0,0,0,.06.006" transform="translate(-286.212 -72.457)" fill="#783838"/>
            <path id="Trazado_1032671" data-name="Trazado 1032671" d="M312.024,227.456a.314.314,0,0,0,.058-.622l-11.545-2.2a.314.314,0,1,0-.118.616l11.545,2.2a.3.3,0,0,0,.059.006" transform="translate(-293.752 -77.71)" fill="#783838"/>
            <path id="Trazado_1032672" data-name="Trazado 1032672" d="M316.45,239.99a.314.314,0,0,0,.058-.622L309,237.938a.314.314,0,0,0-.117.616l7.512,1.43a.294.294,0,0,0,.059.006" transform="translate(-303.71 -82.311)" fill="#783838"/>
            <path id="Trazado_1032673" data-name="Trazado 1032673" d="M35.024,266.3c2.168.49,4.255.933,6.119,1.329,2.96.617,5.385,1.084,6.771,1.3,6.562,1.026,13.334,5.758,13.334,5.758s21.492,12.809,42.939,22.949h49.944c.035-.07.058-.128.094-.2,4.58-10.292,6.422-24.325,7.086-31.178.245-2.553.326-4.1.326-4.1l-8.951-1.282-25.327-3.648-1.492,9.033-1.8,10.886S86.1,266.062,79.525,263.393s-6.154-4.523-8.205-8.008-7.4-4.312-9.243-4.522c-1.294-.14-8.9-3.438-14.068-4.954-2.215-.653-3.986-.979-4.616-.583-.233.14-.256.408-.128.758.42,1.165,2.646,3.345,5.058,5.443,3.217,2.808,6.772,5.5,6.772,5.5s-2.565.152-6.446.385c-2.133.14-4.65.291-7.355.466-.268.012-.536.035-.8.058-2.506.151-5.14.326-7.762.5-3.555.245-7.04.5-10.118.734-5.828.466-10.163.886-10.42,1.142-.536.536,12.168,3.637,22.833,5.979" transform="translate(45.308 -84.81)" fill="#cf8a6a"/>
            <path id="Trazado_1032674" data-name="Trazado 1032674" d="M30.177,161.615s16.013,14.575,18.681,34.9,0,40.852,0,40.852H0l1.847-55.016Z" transform="translate(164.865 -55.91)" fill="#ffae06"/>
            <path id="Trazado_1032675" data-name="Trazado 1032675" d="M8.372,251.682h46.5a.314.314,0,0,0,0-.628H8.678L7.453,202.4a.314.314,0,1,0-.627.016l1.232,48.961a.314.314,0,0,0,.314.306" transform="translate(155.262 -69.914)" fill="#cc6039"/>
          </g>
        </g>
      </g>
    </g>
  </g>
</svg>
