<svg xmlns="http://www.w3.org/2000/svg" width="127" height="180.176" viewBox="0 0 127 180.176">
  <g id="Grupo_1199878" data-name="Grupo 1199878" transform="translate(-180.051 -568)">
    <rect id="Rectángulo_408648" data-name="Rectángulo 408648" width="127" height="180.176" rx="8" transform="translate(180.051 568)" fill="#ef8c1a"/>
    <g id="blueprint_7716651" transform="translate(155.196 612.5)">
      <path id="Trazado_1032121" data-name="Trazado 1032121" d="M175,7.5H135.5V75.959h52.661V20.665Z" transform="translate(-66.817 0)" fill="#bddbff"/>
      <rect id="Rectángulo_408703" data-name="Rectángulo 408703" width="41.683" height="4.168" transform="translate(69.673 72.28)" fill="#57a4ff"/>
      <rect id="Rectángulo_408704" data-name="Rectángulo 408704" width="3.126" height="39.599" transform="translate(68.631 36.849)" fill="#57a4ff"/>
      <path id="Trazado_1032122" data-name="Trazado 1032122" d="M201.931,324.766V319.5H183.5v5.266" transform="translate(-106.918 -260.656)" fill="#d7fc7e"/>
      <path id="Trazado_1032123" data-name="Trazado 1032123" d="M380.766,239.3H375.5V223.5h5.266" transform="translate(-267.322 -180.454)" fill="#d7fc7e"/>
      <path id="Trazado_1032124" data-name="Trazado 1032124" d="M438.791,126.085V70.791L435.5,67.5v58.585Z" transform="translate(-317.448 -50.126)" fill="#57a4ff"/>
      <path id="Trazado_1032125" data-name="Trazado 1032125" d="M388.665,20.665H375.5V7.5" transform="translate(-267.322 0)" fill="#ffe477"/>
      <path id="Trazado_1032126" data-name="Trazado 1032126" d="M383.4,20.665l-7.9-7.9V7.5l13.165,13.165Z" transform="translate(-267.322 0)" fill="#ffb655"/>
      <path id="Trazado_1032127" data-name="Trazado 1032127" d="M388.665,20.665H375.5V7.5" transform="translate(-267.322 0)" fill="none" stroke="#000" stroke-miterlimit="10" stroke-width="1.2"/>
      <g id="Grupo_1199877" data-name="Grupo 1199877" transform="translate(74.884 13.923)">
        <line id="Línea_853" data-name="Línea 853" x2="3.126" transform="translate(0)" fill="none" stroke="#fff" stroke-miterlimit="10" stroke-width="1.2"/>
        <line id="Línea_854" data-name="Línea 854" x2="3.126" transform="translate(5.21)" fill="none" stroke="#fff" stroke-miterlimit="10" stroke-width="1.2"/>
        <line id="Línea_855" data-name="Línea 855" x2="3.126" transform="translate(10.421)" fill="none" stroke="#fff" stroke-miterlimit="10" stroke-width="1.2"/>
      </g>
      <rect id="Rectángulo_408705" data-name="Rectángulo 408705" width="10.421" height="41.683" transform="translate(58.21 36.849)" fill="#ffe477"/>
      <path id="Trazado_1032128" data-name="Trazado 1032128" d="M82.032,384.735a11.848,11.848,0,0,0-10.532,0v7.981H82.032Z" transform="translate(-13.349 -314.124)" fill="#ffb655"/>
      <rect id="Rectángulo_408706" data-name="Rectángulo 408706" width="3.126" height="41.683" transform="translate(65.505 36.849)" fill="#ffb655"/>
      <path id="Trazado_1032129" data-name="Trazado 1032129" d="M71.5,217.729V183.5H82.032v34.229" transform="translate(-13.349 -147.037)" fill="none" stroke="#000" stroke-miterlimit="10" stroke-width="1.2"/>
      <line id="Línea_856" data-name="Línea 856" x2="6.252" transform="translate(58.21 42.06)" fill="none" stroke="#000" stroke-miterlimit="10" stroke-width="1.2"/>
      <line id="Línea_857" data-name="Línea 857" x2="6.252" transform="translate(58.21 57.691)" fill="none" stroke="#000" stroke-miterlimit="10" stroke-width="1.2"/>
      <line id="Línea_858" data-name="Línea 858" x2="4.168" transform="translate(58.21 47.27)" fill="none" stroke="#000" stroke-miterlimit="10" stroke-width="1.2"/>
      <line id="Línea_859" data-name="Línea 859" x2="4.168" transform="translate(58.21 52.48)" fill="none" stroke="#000" stroke-miterlimit="10" stroke-width="1.2"/>
      <line id="Línea_860" data-name="Línea 860" x2="4.168" transform="translate(58.21 62.901)" fill="none" stroke="#000" stroke-miterlimit="10" stroke-width="1.2"/>
      <line id="Línea_861" data-name="Línea 861" x2="4.168" transform="translate(58.21 68.112)" fill="none" stroke="#000" stroke-miterlimit="10" stroke-width="1.2"/>
      <rect id="Rectángulo_408707" data-name="Rectángulo 408707" width="10.421" height="41.683" transform="translate(66.547 86.869) rotate(-90)" fill="#ffe477"/>
      <path id="Trazado_1032130" data-name="Trazado 1032130" d="M119.5,434.032h7.981a11.848,11.848,0,0,0,0-10.532H119.5Z" transform="translate(-53.45 -347.541)" fill="#ffb655"/>
      <rect id="Rectángulo_408708" data-name="Rectángulo 408708" width="4.168" height="41.683" transform="translate(66.547 86.869) rotate(-90)" fill="#ffb655"/>
      <path id="Trazado_1032131" data-name="Trazado 1032131" d="M139.5,434.032h38.837V423.5H139.5" transform="translate(-70.159 -347.541)" fill="none" stroke="#000" stroke-miterlimit="10" stroke-width="1.2"/>
      <line id="Línea_862" data-name="Línea 862" y1="7.295" transform="translate(103.019 79.574)" fill="none" stroke="#000" stroke-miterlimit="10" stroke-width="1.2"/>
      <line id="Línea_863" data-name="Línea 863" y1="7.295" transform="translate(87.388 79.574)" fill="none" stroke="#000" stroke-miterlimit="10" stroke-width="1.2"/>
      <line id="Línea_864" data-name="Línea 864" y1="4.168" transform="translate(97.809 82.701)" fill="none" stroke="#000" stroke-miterlimit="10" stroke-width="1.2"/>
      <line id="Línea_865" data-name="Línea 865" y1="4.168" transform="translate(92.599 82.701)" fill="none" stroke="#000" stroke-miterlimit="10" stroke-width="1.2"/>
      <line id="Línea_866" data-name="Línea 866" y1="4.168" transform="translate(82.178 82.701)" fill="none" stroke="#000" stroke-miterlimit="10" stroke-width="1.2"/>
      <line id="Línea_867" data-name="Línea 867" y1="4.168" transform="translate(76.968 82.701)" fill="none" stroke="#000" stroke-miterlimit="10" stroke-width="1.2"/>
      <ellipse id="Elipse_12168" data-name="Elipse 12168" cx="8.337" cy="7.816" rx="8.337" ry="7.816" transform="translate(55.084 73.322)" fill="#57a4ff"/>
      <path id="Trazado_1032132" data-name="Trazado 1032132" d="M95.146,407.5a7.927,7.927,0,0,0-1.646.173,7.9,7.9,0,0,1,0,15.452A7.9,7.9,0,1,0,95.146,407.5Z" transform="translate(-31.729 -334.174)" fill="#006df0"/>
      <ellipse id="Elipse_12169" data-name="Elipse 12169" cx="3.126" cy="2.605" rx="3.126" ry="2.605" transform="translate(60.294 78.532)" fill="#ff7956"/>
      <ellipse id="Elipse_12170" data-name="Elipse 12170" cx="3.126" cy="2.605" rx="3.126" ry="2.605" transform="translate(60.294 78.532)" fill="none" stroke="#000" stroke-miterlimit="10" stroke-width="1.2"/>
      <ellipse id="Elipse_12171" data-name="Elipse 12171" cx="8.337" cy="7.816" rx="8.337" ry="7.816" transform="translate(55.084 73.322)" fill="none" stroke="#000" stroke-miterlimit="10" stroke-width="1.2"/>
      <path id="Trazado_1032133" data-name="Trazado 1032133" d="M178.945,75.959h9.216V20.665L175,7.5H135.5V32.514" transform="translate(-66.817 0)" fill="none" stroke="#000" stroke-miterlimit="10" stroke-width="1.2"/>
      <path id="Trazado_1032134" data-name="Trazado 1032134" d="M208.514,164.362H183.5V127.5h36.862v36.862h-7.9" transform="translate(-106.918 -100.252)" fill="none" stroke="#000" stroke-miterlimit="10" stroke-width="1.2"/>
      <line id="Línea_868" data-name="Línea 868" x2="17.715" transform="translate(76.968 45.186)" fill="none" stroke="#000" stroke-miterlimit="10" stroke-width="1.2"/>
      <line id="Línea_869" data-name="Línea 869" y2="6.252" transform="translate(94.683 27.471)" fill="none" stroke="#000" stroke-miterlimit="10" stroke-width="1.2"/>
      <path id="Trazado_1032135" data-name="Trazado 1032135" d="M201.931,324.766V319.5H183.5" transform="translate(-106.918 -260.656)" fill="none" stroke="#000" stroke-miterlimit="10" stroke-width="1.2"/>
      <path id="Trazado_1032136" data-name="Trazado 1032136" d="M308.665,191.5H295.5v15.8" transform="translate(-200.487 -153.72)" fill="none" stroke="#000" stroke-miterlimit="10" stroke-width="1.2"/>
      <path id="Trazado_1032137" data-name="Trazado 1032137" d="M380.766,239.3H375.5V223.5h5.266" transform="translate(-267.322 -180.454)" fill="none" stroke="#000" stroke-miterlimit="10" stroke-width="1.2"/>
    </g>
  </g>
</svg>
