<svg xmlns="http://www.w3.org/2000/svg" width="127" height="211.795" viewBox="0 0 127 211.795">
  <g id="Grupo_1199933" data-name="Grupo 1199933" transform="translate(-600.051 -548)">
    <rect id="Rectángulo_408670" data-name="Rectángulo 408670" width="127" height="211.795" rx="8" transform="translate(600.051 548)" fill="#9cc8ff"/>
    <g id="pin_8728225" transform="translate(627.051 617)">
      <circle id="Elipse_12185" data-name="Elipse 12185" cx="25" cy="25" r="25" transform="translate(11.598 11.598)" fill="#b4d2ff"/>
      <path id="Trazado_1032474" data-name="Trazado 1032474" d="M38.263,13a25.263,25.263,0,0,0-19.5,41.322A25.263,25.263,0,0,0,54.322,18.76,25.157,25.157,0,0,0,38.263,13Z" transform="translate(1.78 1.78)" fill="#96b5ff"/>
      <path id="Trazado_1032475" data-name="Trazado 1032475" d="M56.719,34.5a25.212,25.212,0,0,0-9.056-19.354L42.4,16.816l-2.9,5.053,3.745,4.211-3.369,5.053L44.088,34.5l-.842,5.053-4.211-1.685-3.368,4.211,2.526,4.211-2.225,4.451,4.752,1.443,1.587,5.1A25.273,25.273,0,0,0,56.719,34.5Z" transform="translate(5.142 2.098)" fill="#aafa82"/>
      <path id="Trazado_1032476" data-name="Trazado 1032476" d="M50.881,18.331a25.286,25.286,0,0,0-4.364-2.871L42.4,16.769l-2.9,5.053,3.745,4.211-3.369,5.053,4.211,3.368-.842,5.053-4.211-1.685-3.368,4.211,2.526,4.211-2.225,4.451,4.752,1.443,1.587,5.1a25.2,25.2,0,0,0,8.575-38.9Z" transform="translate(5.142 2.145)" fill="#8ceb6e"/>
      <path id="Trazado_1032477" data-name="Trazado 1032477" d="M11.82,24.9,14.783,34.1,21.52,39.15l6.736-1.685,4.211.842,3.368-3.368V30.728l-3.548-4.21,2.707-5.053-5.053-1.685L29.1,14.728l-5.015-2.542A25.393,25.393,0,0,0,11.82,24.9Z" transform="translate(1.605 1.659)" fill="#aafa82"/>
      <path id="Trazado_1032478" data-name="Trazado 1032478" d="M13.755,31.449l.741,2.3L21.233,38.8l6.736-1.682,4.211.842,3.368-3.368V30.379L32,26.169l2.707-5.053-5.053-1.685-.814-4.888A25.322,25.322,0,0,0,13.755,31.449Z" transform="translate(1.892 2.009)" fill="#8ceb6e"/>
      <path id="Trazado_1032479" data-name="Trazado 1032479" d="M16.6,37.867l-5.673.481A25.332,25.332,0,0,0,29.713,55.794l2.887-6.98L27.547,42.92l-7.579-.843Z" transform="translate(1.473 5.469)" fill="#aafa82"/>
      <path id="Trazado_1032480" data-name="Trazado 1032480" d="M19.628,42.077l-3.368-4.21-3.044.258a25.148,25.148,0,0,0,5.429,12.4,25.194,25.194,0,0,0,10.728,5.262l2.887-6.975L27.207,42.92Z" transform="translate(1.812 5.469)" fill="#8ceb6e"/>
      <path id="Trazado_1032481" data-name="Trazado 1032481" d="M50,4.3a2.3,2.3,0,0,0,2.3,2.3h6.89v6.89a2.3,2.3,0,1,0,4.593,0V4.3a2.3,2.3,0,0,0-2.3-2.3H52.3A2.3,2.3,0,0,0,50,4.3Z" transform="translate(7.268 0.148)" fill="#647896"/>
      <path id="Trazado_1032482" data-name="Trazado 1032482" d="M61.187,6.3v6.89a2.3,2.3,0,0,0,1.148,1.989,2.3,2.3,0,0,0,1.148-1.989V4H54.3A2.3,2.3,0,0,0,52,6.3Z" transform="translate(7.565 0.445)" fill="#506480"/>
      <path id="Trazado_1032483" data-name="Trazado 1032483" d="M15.78,4.3a2.3,2.3,0,0,1-2.3,2.3H6.593v6.89a2.3,2.3,0,0,1-4.593,0V4.3A2.3,2.3,0,0,1,4.3,2h9.187A2.3,2.3,0,0,1,15.78,4.3Z" transform="translate(0.148 0.148)" fill="#647896"/>
      <path id="Trazado_1032484" data-name="Trazado 1032484" d="M6.3,13.187V6.3h6.89a2.3,2.3,0,0,0,2.3-2.3H6.3A2.3,2.3,0,0,0,4,6.3v9.187A2.3,2.3,0,0,0,6.3,13.187Z" transform="translate(0.445 0.445)" fill="#506480"/>
      <path id="Trazado_1032485" data-name="Trazado 1032485" d="M50,61.483a2.3,2.3,0,0,1,2.3-2.3h6.89V52.3a2.3,2.3,0,1,1,4.593,0v9.187a2.3,2.3,0,0,1-2.3,2.3H52.3A2.3,2.3,0,0,1,50,61.483Z" transform="translate(7.268 7.268)" fill="#647896"/>
      <path id="Trazado_1032486" data-name="Trazado 1032486" d="M63.483,61.187V52a2.3,2.3,0,0,0-2.3,2.3v6.89H54.3a2.3,2.3,0,0,0-2.3,2.3h9.187A2.3,2.3,0,0,0,63.483,61.187Z" transform="translate(7.565 7.565)" fill="#506480"/>
      <path id="Trazado_1032487" data-name="Trazado 1032487" d="M15.78,61.483a2.3,2.3,0,0,0-2.3-2.3H6.593V52.3A2.3,2.3,0,0,0,2,52.3v9.187a2.3,2.3,0,0,0,2.3,2.3h9.187A2.3,2.3,0,0,0,15.78,61.483Z" transform="translate(0.148 7.268)" fill="#647896"/>
      <path id="Trazado_1032488" data-name="Trazado 1032488" d="M15.483,61.187a2.3,2.3,0,0,0-2.3-2.3H6.3V52A2.3,2.3,0,0,0,4,54.3v6.89a2.3,2.3,0,0,0,2.3,2.3h6.89A2.3,2.3,0,0,0,15.483,61.187Z" transform="translate(0.445 7.565)" fill="#506480"/>
      <path id="Trazado_1032489" data-name="Trazado 1032489" d="M53.038,16A8.038,8.038,0,0,0,45,24.038C45,30.4,53.038,36.67,53.038,36.67s8.038-6.268,8.038-12.632A8.038,8.038,0,0,0,53.038,16Z" transform="translate(6.527 2.225)" fill="#ff979b"/>
      <path id="Trazado_1032490" data-name="Trazado 1032490" d="M60.478,21.716c-1.817-6.431-11.359-6.431-13.176,0a8.056,8.056,0,0,0-.3,2.19c0,4.849,4.669,9.646,6.89,11.651,2.221-2,6.89-6.8,6.89-11.651A8.055,8.055,0,0,0,60.478,21.716Z" transform="translate(6.823 2.357)" fill="#f5646e"/>
      <ellipse id="Elipse_12186" data-name="Elipse 12186" cx="3" cy="3.5" rx="3" ry="3.5" transform="translate(56.598 22.598)" fill="#f6f6fd"/>
      <path id="Trazado_1032491" data-name="Trazado 1032491" d="M27.038,3A8.038,8.038,0,0,0,19,11.038C19,17.4,27.038,23.67,27.038,23.67s8.038-6.268,8.038-12.632A8.038,8.038,0,0,0,27.038,3Z" transform="translate(2.67 0.297)" fill="#ff979b"/>
      <path id="Trazado_1032492" data-name="Trazado 1032492" d="M34.478,8.716c-1.817-6.431-11.359-6.431-13.176,0a8.056,8.056,0,0,0-.3,2.19c0,4.849,4.669,9.646,6.89,11.651,2.221-2,6.89-6.8,6.89-11.651A8.055,8.055,0,0,0,34.478,8.716Z" transform="translate(2.967 0.429)" fill="#f5646e"/>
      <circle id="Elipse_12187" data-name="Elipse 12187" cx="3.5" cy="3.5" r="3.5" transform="translate(26.598 7.598)" fill="#f6f6fd"/>
      <path id="Trazado_1032493" data-name="Trazado 1032493" d="M61.632,1H52.445a3.445,3.445,0,1,0,0,6.89h5.742v5.742a3.445,3.445,0,1,0,6.89,0V4.445A3.445,3.445,0,0,0,61.632,1ZM62.78,13.632a1.148,1.148,0,0,1-2.3,0V6.742a1.148,1.148,0,0,0-1.148-1.148h-6.89a1.148,1.148,0,1,1,0-2.3h9.187A1.148,1.148,0,0,1,62.78,4.445Z" transform="translate(7.12)"/>
      <path id="Trazado_1032494" data-name="Trazado 1032494" d="M4.445,17.077A3.445,3.445,0,0,0,7.89,13.632V7.89h5.742a3.445,3.445,0,1,0,0-6.89H4.445A3.445,3.445,0,0,0,1,4.445v9.187A3.445,3.445,0,0,0,4.445,17.077ZM3.3,4.445A1.148,1.148,0,0,1,4.445,3.3h9.187a1.148,1.148,0,0,1,0,2.3H6.742A1.148,1.148,0,0,0,5.593,6.742v6.89a1.148,1.148,0,0,1-2.3,0Z"/>
      <path id="Trazado_1032495" data-name="Trazado 1032495" d="M61.632,49a3.445,3.445,0,0,0-3.445,3.445v5.742H52.445a3.445,3.445,0,1,0,0,6.89h9.187a3.445,3.445,0,0,0,3.445-3.445V52.445A3.445,3.445,0,0,0,61.632,49ZM62.78,61.632a1.148,1.148,0,0,1-1.148,1.148H52.445a1.148,1.148,0,1,1,0-2.3h6.89a1.148,1.148,0,0,0,1.148-1.148v-6.89a1.148,1.148,0,1,1,2.3,0Z" transform="translate(7.12 7.12)"/>
      <path id="Trazado_1032496" data-name="Trazado 1032496" d="M13.632,58.187H7.89V52.445a3.445,3.445,0,1,0-6.89,0v9.187a3.445,3.445,0,0,0,3.445,3.445h9.187a3.445,3.445,0,1,0,0-6.89Zm0,4.593H4.445A1.148,1.148,0,0,1,3.3,61.632V52.445a1.148,1.148,0,1,1,2.3,0v6.89a1.148,1.148,0,0,0,1.148,1.148h6.89a1.148,1.148,0,0,1,0,2.3Z" transform="translate(0 7.12)"/>
      <path id="Trazado_1032497" data-name="Trazado 1032497" d="M67.561,26.111a9.171,9.171,0,0,0-13.369-8.169,26.319,26.319,0,0,0-16.551-7.8,9.187,9.187,0,0,0-18.31,1.044,10.552,10.552,0,0,0,.767,3.8A26.39,26.39,0,1,0,61.8,37.166C64.284,34.628,67.561,30.459,67.561,26.111Zm-2.3,0c0,4.668-5.006,9.485-6.89,11.139-1.886-1.646-6.89-6.454-6.89-11.133a6.89,6.89,0,0,1,13.78,0ZM28.518,4.293a6.9,6.9,0,0,1,6.89,6.89c0,4.668-5.006,9.485-6.89,11.139-1.886-1.646-6.89-6.454-6.89-11.133a6.9,6.9,0,0,1,6.889-6.9ZM21.12,17.1a29.643,29.643,0,0,0,6.691,7.62,1.148,1.148,0,0,0,1.412,0,28.364,28.364,0,0,0,2.129-1.89l2.4.8-2.067,3.853a1.148,1.148,0,0,0,.134,1.282L35.1,32.657v3.315l-2.6,2.6L28.9,37.847a1.148,1.148,0,0,0-.5.013l-6.2,1.551L16.183,34.9,13.473,26.5a24.168,24.168,0,0,1,7.647-9.4Zm8.193,42.65A24.175,24.175,0,0,1,12.777,44.684l3.594-.305,2.986,3.732a1.148,1.148,0,0,0,.771.424l7.128.792,4.3,5.016Zm6.094.811A24.048,24.048,0,0,1,31.6,60.23l2.341-5.661a1.148,1.148,0,0,0-.189-1.186L28.7,47.488a1.148,1.148,0,0,0-.745-.394l-7.106-.79-3.072-3.839a1.148,1.148,0,0,0-.993-.427l-4.708.4a23.4,23.4,0,0,1,.115-12.423l1.914,5.94a1.148,1.148,0,0,0,.4.567l6.737,5.053a1.148,1.148,0,0,0,.967.2L28.7,40.151l3.957.791a1.148,1.148,0,0,0,1.034-.315l3.368-3.368a1.148,1.148,0,0,0,.339-.813V32.235a1.148,1.148,0,0,0-.27-.739l-3.047-3.615,2.339-4.364a1.148,1.148,0,0,0-.65-1.632L33.1,20.993c1.977-2.251,4.059-5.295,4.516-8.526a23.953,23.953,0,0,1,11.549,4.2l-3.154,1a1.148,1.148,0,0,0-.648.522l-2.9,5.053a1.148,1.148,0,0,0,.137,1.336l3.156,3.547-2.871,4.315a1.148,1.148,0,0,0,.238,1.534L46.8,36.925l-.5,2.98-2.885-1.148a1.148,1.148,0,0,0-1.324.345l-3.368,4.212a1.148,1.148,0,0,0-.088,1.308l2.2,3.675-1.949,3.883a1.148,1.148,0,0,0,.689,1.608l4.171,1.263,1.113,3.57a23.981,23.981,0,0,1-9.457,1.942Zm11.549-2.954-1.189-3.822a1.148,1.148,0,0,0-.762-.758L41.56,51.981l1.617-3.235a1.148,1.148,0,0,0-.042-1.1l-2.115-3.525,2.337-2.923,3.42,1.371a1.148,1.148,0,0,0,1.559-.877l.843-5.053a1.148,1.148,0,0,0-.416-1.085l-3.389-2.71,2.78-4.178a1.148,1.148,0,0,0-.1-1.4l-3.195-3.592,2.268-3.948,4.2-1.337c.322.284.621.59.926.891a9.152,9.152,0,0,0-3.071,6.837c0,6.845,8.135,13.267,8.48,13.538a1.148,1.148,0,0,0,1.412,0l.23-.185A24.144,24.144,0,0,1,46.956,57.607Z" transform="translate(1.191 0.152)"/>
      <path id="Trazado_1032498" data-name="Trazado 1032498" d="M52.593,28.187A4.593,4.593,0,1,0,48,23.593,4.593,4.593,0,0,0,52.593,28.187Zm0-6.89a2.3,2.3,0,1,1-2.3,2.3A2.3,2.3,0,0,1,52.593,21.3Z" transform="translate(6.972 2.67)"/>
      <path id="Trazado_1032499" data-name="Trazado 1032499" d="M31.187,10.593a4.593,4.593,0,1,0-4.593,4.593A4.593,4.593,0,0,0,31.187,10.593Zm-6.89,0a2.3,2.3,0,1,1,2.3,2.3A2.3,2.3,0,0,1,24.3,10.593Z" transform="translate(3.115 0.742)"/>
    </g>
  </g>
</svg>
