<svg xmlns="http://www.w3.org/2000/svg" xmlns:xlink="http://www.w3.org/1999/xlink" width="99.447" height="99.447" viewBox="0 0 99.447 99.447">
  <defs>
    <filter id="Trazado_896985" x="0" y="0" width="99.447" height="99.447" filterUnits="userSpaceOnUse">
      <feOffset dy="3" input="SourceAlpha"/>
      <feGaussianBlur stdDeviation="3" result="blur"/>
      <feFlood flood-opacity="0.161"/>
      <feComposite operator="in" in2="blur"/>
      <feComposite in="SourceGraphic"/>
    </filter>
  </defs>
  <g id="Grupo_1199965" data-name="Grupo 1199965" transform="translate(-1034.553 -4195.05)">
    <g id="Grupo_1199832" data-name="Grupo 1199832" transform="translate(1043.553 4201.05)">
      <g id="Grupo_1198723" data-name="Grupo 1198723" transform="translate(0 0)">
        <g id="Grupo_1198139" data-name="Grupo 1198139" transform="translate(0)">
          <g id="Grupo_1111318" data-name="Grupo 1111318" transform="translate(0)">
            <g id="Grupo_1109826" data-name="Grupo 1109826">
              <g id="Grupo_1098742" data-name="Grupo 1098742">
                <g transform="matrix(1, 0, 0, 1, -9, -6)" filter="url(#Trazado_896985)">
                  <g id="Trazado_896985-2" data-name="Trazado 896985" transform="translate(9 6)" fill="#ef8c1a" opacity="0.859">
                    <path d="M 40.72351455688477 80.94712829589844 C 35.29315948486328 80.94712829589844 30.02549171447754 79.88369750976562 25.06685829162598 77.786376953125 C 20.27713584899902 75.76048278808594 15.97541427612305 72.86015319824219 12.28119277954102 69.16593933105469 C 8.586980819702148 65.47171783447266 5.686647891998291 61.16999816894531 3.660758972167969 56.38027572631836 C 1.56343674659729 51.4216423034668 0.500003457069397 46.15397644042969 0.500003457069397 40.7236213684082 C 0.500003457069397 35.29315185546875 1.56343674659729 30.02549743652344 3.660758972167969 25.06686401367188 C 5.686647891998291 20.27713012695312 8.586980819702148 15.97540855407715 12.28119277954102 12.2811975479126 C 15.97541427612305 8.58697509765625 20.27713584899902 5.686641693115234 25.06685829162598 3.660753011703491 C 30.02549171447754 1.563430786132812 35.29315948486328 0.499997466802597 40.72351455688477 0.499997466802597 C 46.15386962890625 0.499997466802597 51.42153549194336 1.563430786132812 56.38016891479492 3.660753011703491 C 61.16989135742188 5.686641693115234 65.47161102294922 8.58697509765625 69.16584014892578 12.2811975479126 C 72.86004638671875 15.97540855407715 75.76038360595703 20.27713012695312 77.78627014160156 25.06686401367188 C 79.88359069824219 30.02549743652344 80.94702911376953 35.29315185546875 80.94702911376953 40.72350692749023 C 80.94702911376953 46.15397644042969 79.88359069824219 51.4216423034668 77.78627014160156 56.38027572631836 C 75.76038360595703 61.16999816894531 72.86004638671875 65.47171783447266 69.16584014892578 69.16593933105469 C 65.47161102294922 72.86015319824219 61.16989135742188 75.76048278808594 56.38016891479492 77.786376953125 C 51.42153549194336 79.88369750976562 46.15386962890625 80.94712829589844 40.72351455688477 80.94712829589844 Z" stroke="none"/>
                    <path d="M 40.72351455688477 1 C 35.36043548583984 1 30.15830230712891 2.050140380859375 25.26163864135742 4.121253967285156 C 20.53150177001953 6.121932983398438 16.28321075439453 8.986289978027344 12.63475036621094 12.63474273681641 C 8.986289978027344 16.28321075439453 6.121932983398438 20.53149795532227 4.121261596679688 25.26163101196289 C 2.050148010253906 30.15829849243164 1 35.36043167114258 1 40.7236213684082 C 1 46.08669662475586 2.050148010253906 51.28883361816406 4.121261596679688 56.18549728393555 C 6.121932983398438 60.91563034057617 8.986289978027344 65.16391754150391 12.63475036621094 68.81238555908203 C 16.28321075439453 72.46084594726562 20.53150177001953 75.3251953125 25.26163864135742 77.32587432861328 C 30.15830230712891 79.39698791503906 35.36043548583984 80.44712829589844 40.72351455688477 80.44712829589844 C 46.08659362792969 80.44712829589844 51.28872680664062 79.39698791503906 56.18539428710938 77.32587432861328 C 60.91552734375 75.3251953125 65.163818359375 72.46084594726562 68.81227874755859 68.81238555908203 C 72.46073913574219 65.16391754150391 75.32508850097656 60.91563034057617 77.32576751708984 56.18549728393555 C 79.39688110351562 51.28883361816406 80.44702911376953 46.08669662475586 80.44702911376953 40.72350692749023 C 80.44702911376953 35.36043167114258 79.39688110351562 30.15829849243164 77.32576751708984 25.26163101196289 C 75.32508850097656 20.53149795532227 72.46073913574219 16.28321075439453 68.81227874755859 12.63474273681641 C 65.163818359375 8.986289978027344 60.91552734375 6.121932983398438 56.18539428710938 4.121253967285156 C 51.28872680664062 2.050140380859375 46.08659362792969 1 40.72351455688477 1 M 40.72351455688477 0 C 63.21449279785156 0 81.44702911376953 18.2325325012207 81.44702911376953 40.72350692749023 L 81.44702911376953 40.7236213684082 C 81.44702911376953 63.214599609375 63.21449279785156 81.44712829589844 40.72351455688477 81.44712829589844 C 18.23253631591797 81.44712829589844 0 63.214599609375 0 40.7236213684082 L 0 40.72350692749023 C 0 18.2325325012207 18.23253631591797 0 40.72351455688477 0 Z" stroke="none" fill="#fff"/>
                  </g>
                </g>
                <g id="Rectángulo_400907" data-name="Rectángulo 400907" transform="translate(0)" fill="none" stroke="#fff" stroke-width="1">
                  <rect width="81.447" height="81.447" rx="40.724" stroke="none"/>
                  <rect x="0.5" y="0.5" width="80.447" height="80.447" rx="40.224" fill="none"/>
                </g>
              </g>
            </g>
          </g>
        </g>
      </g>
    </g>
    <g id="document_2051947" transform="translate(1062.754 4219.248)">
      <path id="Trazado_1032609" data-name="Trazado 1032609" d="M6,2H35.357V43.1H6Z" transform="translate(-1.33 -0.266)" fill="#8892a0"/>
      <path id="Trazado_1032610" data-name="Trazado 1032610" d="M46,46h2.936V57.009H46Z" transform="translate(-11.973 -11.973)" fill="#c18e59"/>
      <path id="Trazado_1032611" data-name="Trazado 1032611" d="M46,45h2.936v3.67H46Z" transform="translate(-11.973 -11.707)" fill="#976947"/>
      <path id="Trazado_1032612" data-name="Trazado 1032612" d="M2,47.1H31.357V11.871H25.486V6H2Z" transform="translate(-0.266 -1.33)" fill="#b8cbd9"/>
      <path id="Trazado_1032613" data-name="Trazado 1032613" d="M2,39.209c11.725-2.55,20.55-13.656,20.55-26.971A29.476,29.476,0,0,0,21.879,6H2Z" transform="translate(-0.266 -1.33)" fill="#e8eff4"/>
      <path id="Trazado_1032614" data-name="Trazado 1032614" d="M39.871,11.871,34,6v5.871Z" transform="translate(-8.78 -1.33)" fill="#e8eff4"/>
      <ellipse id="Elipse_12190" data-name="Elipse 12190" cx="9.5" cy="10" rx="9.5" ry="10" transform="translate(25.752 13.752)" fill="#a1cdfb"/>
      <circle id="Elipse_12191" data-name="Elipse 12191" cx="7" cy="7" r="7" transform="translate(28.752 16.752)" fill="#ebf7fe"/>
      <circle id="Elipse_12192" data-name="Elipse 12192" cx="6" cy="6" r="6" transform="translate(4.752 16.752)" fill="#c66b60"/>
      <path id="Trazado_1032615" data-name="Trazado 1032615" d="M16.275,26.037a6.2,6.2,0,0,0-.581-2.616,5.867,5.867,0,0,0-8.274,8.274,6.228,6.228,0,0,0,8.854-5.658Z" transform="translate(-1.33 -5.587)" fill="#e47c6e"/>
      <circle id="Elipse_12193" data-name="Elipse 12193" cx="6" cy="6" r="6" transform="translate(4.752 30.752)" fill="#669e4f"/>
      <path id="Trazado_1032616" data-name="Trazado 1032616" d="M16.275,46.037a6.2,6.2,0,0,0-.581-2.616,5.867,5.867,0,0,0-8.274,8.274,6.228,6.228,0,0,0,8.854-5.658Z" transform="translate(-1.33 -10.909)" fill="#78b75b"/>
      <path id="Trazado_1032617" data-name="Trazado 1032617" d="M35.825,13.477H34.357V2.468H6.468v2.2H5V1.734A.734.734,0,0,1,5.734,1H35.091a.734.734,0,0,1,.734.734Z" transform="translate(-1.064)"/>
      <path id="Trazado_1032618" data-name="Trazado 1032618" d="M31.091,47.568H1.734A.734.734,0,0,1,1,46.834V5.734A.734.734,0,0,1,1.734,5H25.22a.734.734,0,0,1,.734.734v5.138h5.138a.734.734,0,0,1,.734.734v3.67H30.357V12.339H25.22a.734.734,0,0,1-.734-.734V6.468H2.468V46.1H30.357V34.357h1.468V46.834A.734.734,0,0,1,31.091,47.568Z" transform="translate(0 -1.064)"/>
      <path id="Trazado_1032619" data-name="Trazado 1032619" d="M0,0H1.468V8.3H0Z" transform="translate(24.698 5.191) rotate(-45)"/>
      <path id="Trazado_1032620" data-name="Trazado 1032620" d="M11.605,54.211a6.605,6.605,0,1,1,6.605-6.605A6.613,6.613,0,0,1,11.605,54.211Zm0-11.743a5.138,5.138,0,1,0,5.138,5.138A5.143,5.143,0,0,0,11.605,42.468Z" transform="translate(-1.064 -10.643)"/>
      <path id="Trazado_1032621" data-name="Trazado 1032621" d="M13.014,52.512a.735.735,0,0,1-.519-.215l-2.2-2.2,1.038-1.038,1.4,1.4,1.8-4.8,1.375.515-2.2,5.871a.736.736,0,0,1-.532.459.7.7,0,0,1-.156.017Z" transform="translate(-2.473 -11.88)"/>
      <path id="Trazado_1032622" data-name="Trazado 1032622" d="M11.605,34.211a6.605,6.605,0,1,1,6.605-6.605A6.613,6.613,0,0,1,11.605,34.211Zm0-11.743a5.138,5.138,0,1,0,5.138,5.138A5.143,5.143,0,0,0,11.605,22.468Z" transform="translate(-1.064 -5.321)"/>
      <path id="Trazado_1032623" data-name="Trazado 1032623" d="M0,0H1.468V6.227H0Z" transform="translate(7.817 20.6) rotate(-45)"/>
      <path id="Trazado_1032624" data-name="Trazado 1032624" d="M0,0H6.227V1.468H0Z" transform="translate(7.817 23.965) rotate(-45)"/>
      <path id="Trazado_1032625" data-name="Trazado 1032625" d="M44.009,39.018A11.009,11.009,0,1,1,55.018,28.009,11.022,11.022,0,0,1,44.009,39.018Zm0-20.55a9.541,9.541,0,1,0,9.541,9.541A9.552,9.552,0,0,0,44.009,18.468Z" transform="translate(-8.514 -4.257)"/>
      <path id="Trazado_1032626" data-name="Trazado 1032626" d="M45,46h1.468V58.477H45Z" transform="translate(-11.707 -11.973)"/>
      <path id="Trazado_1032627" data-name="Trazado 1032627" d="M49,46h1.468V58.477H49Z" transform="translate(-12.771 -11.973)"/>
      <path id="Trazado_1032628" data-name="Trazado 1032628" d="M38.468,29.073H37A8.083,8.083,0,0,1,45.073,21v1.468A6.613,6.613,0,0,0,38.468,29.073Z" transform="translate(-9.578 -5.321)"/>
      <path id="Trazado_1032629" data-name="Trazado 1032629" d="M48,40.073V38.605A6.613,6.613,0,0,0,54.605,32h1.468A8.083,8.083,0,0,1,48,40.073Z" transform="translate(-12.505 -8.248)"/>
      <path id="Trazado_1032630" data-name="Trazado 1032630" d="M46,49h2.936v1.468H46Z" transform="translate(-11.973 -12.771)"/>
      <path id="Trazado_1032631" data-name="Trazado 1032631" d="M25,57H35.275v1.468H25Z" transform="translate(-6.386 -14.9)"/>
      <path id="Trazado_1032632" data-name="Trazado 1032632" d="M25,53H35.275v1.468H25Z" transform="translate(-6.386 -13.835)"/>
      <path id="Trazado_1032633" data-name="Trazado 1032633" d="M25,37h7.339v1.468H25Z" transform="translate(-6.386 -9.578)"/>
      <path id="Trazado_1032634" data-name="Trazado 1032634" d="M25,33h6.605v1.468H25Z" transform="translate(-6.386 -8.514)"/>
    </g>
  </g>
</svg>
