<svg xmlns="http://www.w3.org/2000/svg" xmlns:xlink="http://www.w3.org/1999/xlink" width="208.051" height="119.263" viewBox="0 0 208.051 119.263">
  <defs>
    <filter id="influencer-their-pet-creating-content-online-spaces-social-media" x="0" y="32" width="208.051" height="87" filterUnits="userSpaceOnUse">
      <feOffset dy="3" input="SourceAlpha"/>
      <feGaussianBlur stdDeviation="3" result="blur"/>
      <feFlood flood-opacity="0.161"/>
      <feComposite operator="in" in2="blur"/>
      <feComposite in="SourceGraphic"/>
    </filter>
    <filter id="Rect치ngulo_401593" x="42.457" y="0" width="71.898" height="119.263" filterUnits="userSpaceOnUse">
      <feOffset dy="3" input="SourceAlpha"/>
      <feGaussianBlur stdDeviation="3" result="blur-2"/>
      <feFlood flood-opacity="0.161"/>
      <feComposite operator="in" in2="blur-2"/>
      <feComposite in="SourceGraphic"/>
    </filter>
  </defs>
  <g id="Grupo_1199668" data-name="Grupo 1199668" transform="translate(-1220.949 -2117)">
    <g transform="matrix(1, 0, 0, 1, 1220.95, 2117)" filter="url(#influencer-their-pet-creating-content-online-spaces-social-media)">
      <path id="influencer-their-pet-creating-content-online-spaces-social-media-2" data-name="influencer-their-pet-creating-content-online-spaces-social-media" d="M0,0H190.051V69H0Z" transform="translate(9 38)" fill="#5b7f2e"/>
    </g>
    <g id="Grupo_1182090" data-name="Grupo 1182090" transform="translate(1031.625 -3625)">
      <g transform="matrix(1, 0, 0, 1, 189.32, 5742)" filter="url(#Rect치ngulo_401593)">
        <rect id="Rect치ngulo_401593-2" data-name="Rect치ngulo 401593" width="53.898" height="101.263" rx="8" transform="translate(51.46 6)" fill="#ef8c1a"/>
      </g>
    </g>
    <g id="farmer_18088544_2_" data-name="farmer_18088544 (2)" transform="translate(1280.411 2121.46)">
      <g id="Grupo_1199362" data-name="Grupo 1199362" transform="translate(1.64 101.296)">
        <path id="Trazado_1030992" data-name="Trazado 1030992" d="M101.863,65.036H2.413a.773.773,0,1,1,0-1.546h99.45a.773.773,0,1,1,0,1.546Z" transform="translate(-1.64 -63.49)"/>
      </g>
      <g id="Grupo_1199368" data-name="Grupo 1199368" transform="translate(53.635 85.902)">
        <g id="Grupo_1199363" data-name="Grupo 1199363" transform="translate(0.773 0.773)">
          <path id="Trazado_1030993" data-name="Trazado 1030993" d="M80.7,69.8H34.41A8.441,8.441,0,0,1,49.8,65.022h.113a3.016,3.016,0,0,1,4.122-.773,7.739,7.739,0,0,1-.161-1.626,8.208,8.208,0,0,1,16.183-1.948c.934-1.5,2.367-3.172,3.832-2.464.741.37.37,1.836-.242,3.317A3.048,3.048,0,0,1,76.7,64.555v.515A4.808,4.808,0,0,1,80.7,69.8Z" transform="translate(-34.41 -54.41)" fill="#b9dd53"/>
        </g>
        <g id="Grupo_1199364" data-name="Grupo 1199364" transform="translate(0.773 0.757)">
          <path id="Trazado_1030994" data-name="Trazado 1030994" d="M80.7,69.81H34.41a8.426,8.426,0,0,1,8.438-8.454,8.4,8.4,0,0,1,6.94,3.655H49.9a3.025,3.025,0,0,1,2.448-1.272,2.9,2.9,0,0,1,1.675.515,7.779,7.779,0,0,1-.177-1.642,8.217,8.217,0,0,1,16.2-1.948c.934-1.5,2.383-3.172,3.832-2.464.741.354.37,1.836-.242,3.317a3.038,3.038,0,0,1,3.027,3.043v.515a3.766,3.766,0,0,1,.612.145A4.787,4.787,0,0,1,80.7,69.81Z" transform="translate(-34.41 -54.4)" fill="#b9dd53"/>
        </g>
        <g id="Grupo_1199365" data-name="Grupo 1199365" transform="translate(0.773 11.594)">
          <path id="Trazado_1030995" data-name="Trazado 1030995" d="M80.7,65.7H34.41a8.508,8.508,0,0,1,.6-3.14l.258-.129s26.376,1.224,42.06-1.3A4.769,4.769,0,0,1,80.7,65.7Z" transform="translate(-34.41 -61.13)" fill="#a3c134"/>
        </g>
        <g id="Grupo_1199366" data-name="Grupo 1199366">
          <path id="Trazado_1030996" data-name="Trazado 1030996" d="M81,70.87H34.7a.773.773,0,0,1-.773-.773,9.224,9.224,0,0,1,16.3-5.926,3.864,3.864,0,0,1,3.188-.837c0-.145-.016-.274-.016-.419a8.993,8.993,0,0,1,17.214-3.639c1.626-1.965,3-1.916,3.913-1.465,1.594.789.5,3.446.145,4.315a.776.776,0,1,1-1.433-.6c.789-1.9.564-2.367.564-2.367-.95-.451-2.254,1.4-2.77,2.222a.787.787,0,0,1-.789.354.777.777,0,0,1-.628-.58A7.433,7.433,0,0,0,54.96,62.931,6.955,6.955,0,0,0,55.1,64.4a.788.788,0,0,1-.322.805.778.778,0,0,1-.87,0,2.3,2.3,0,0,0-3.06.564.787.787,0,0,1-.644.338H50.1a.787.787,0,0,1-.644-.338A7.669,7.669,0,0,0,35.508,69.34H80.144a3.993,3.993,0,0,0-3.285-3.172.78.78,0,0,1-.644-.773V64.88a.773.773,0,0,1,.773-.773.781.781,0,0,1,.773.676,5.531,5.531,0,0,1,4.01,5.346A.757.757,0,0,1,81,70.87Z" transform="translate(-33.93 -53.93)" fill="#050505"/>
        </g>
        <g id="Grupo_1199367" data-name="Grupo 1199367" transform="translate(38.543 7.122)">
          <path id="Trazado_1030997" data-name="Trazado 1030997" d="M58.629,61.263a.753.753,0,0,1-.451-.145.772.772,0,0,1-.161-1.079,3.136,3.136,0,0,0,.6-1.111.775.775,0,1,1,1.5.4,4.549,4.549,0,0,1-.853,1.626.791.791,0,0,1-.628.306Z" transform="translate(-57.866 -58.353)" fill="#050505"/>
        </g>
      </g>
      <g id="Grupo_1199413" data-name="Grupo 1199413" transform="translate(17.912 1.54)">
        <g id="Grupo_1199406" data-name="Grupo 1199406" transform="translate(0 17.584)">
          <g id="Grupo_1199398" data-name="Grupo 1199398">
            <g id="Grupo_1199397" data-name="Grupo 1199397">
              <g id="Grupo_1199396" data-name="Grupo 1199396">
                <g id="Grupo_1199395" data-name="Grupo 1199395">
                  <g id="Grupo_1199394" data-name="Grupo 1199394">
                    <g id="Grupo_1199389" data-name="Grupo 1199389">
                      <g id="Grupo_1199378" data-name="Grupo 1199378" transform="translate(0 32.688)">
                        <g id="Grupo_1199375" data-name="Grupo 1199375" transform="translate(0.797 8.78)">
                          <g id="Grupo_1199369" data-name="Grupo 1199369" transform="translate(0 0.793)">
                            <path id="Trazado_1030998" data-name="Trazado 1030998" d="M78.5,79.388,75.346,61.224a16.425,16.425,0,0,0-7.6-11.207L52.658,40.758a13.956,13.956,0,0,0-14.573,0L23,50.017a16.425,16.425,0,0,0-7.6,11.207L12.24,79.388Z" transform="translate(-12.24 -38.705)" fill="#726ad3"/>
                          </g>
                          <g id="Grupo_1199370" data-name="Grupo 1199370" transform="translate(21.239 0.793)">
                            <path id="Trazado_1030999" data-name="Trazado 1030999" d="M48.988,43.447l-.435.612a13.9,13.9,0,0,1-11.368,5.926A13.723,13.723,0,0,1,26.058,44.4l-.628-.837L30,40.758a13.956,13.956,0,0,1,14.573,0Z" transform="translate(-25.43 -38.705)" fill="#ffca6b"/>
                          </g>
                          <g id="Grupo_1199371" data-name="Grupo 1199371" transform="translate(20.489)">
                            <path id="Trazado_1031000" data-name="Trazado 1031000" d="M37.485,51.058a14.53,14.53,0,0,1-11.739-5.894l-.628-.837a.773.773,0,0,1,.209-1.127L29.9,40.4a14.644,14.644,0,0,1,15.394,0l4.38,2.689a.806.806,0,0,1,.354.5.71.71,0,0,1-.129.6l-.435.612a14.585,14.585,0,0,1-11.98,6.264ZM26.874,44.086l.113.145a13.078,13.078,0,0,0,21.175-.242l-3.687-2.27a13.089,13.089,0,0,0-13.768,0Z" transform="translate(-24.964 -38.212)"/>
                          </g>
                          <g id="Grupo_1199372" data-name="Grupo 1199372" transform="translate(34.862 12.105)">
                            <path id="Trazado_1031001" data-name="Trazado 1031001" d="M65.29,75.1,62.134,56.937A16.481,16.481,0,0,0,54.517,45.73C54.517,61,45.081,69.9,33.89,75.1Z" transform="translate(-33.89 -45.73)" fill="#564dc6"/>
                          </g>
                          <g id="Grupo_1199373" data-name="Grupo 1199373" transform="translate(49.403 10.753)">
                            <path id="Trazado_1031002" data-name="Trazado 1031002" d="M50.842,47.547l-3.027,9.275h-4.9L46.833,44.89l2.19,1.337c.628.419,1.24.853,1.82,1.32Z" transform="translate(-42.92 -44.89)" fill="#ffca6b"/>
                          </g>
                          <g id="Grupo_1199374" data-name="Grupo 1199374" transform="translate(8.953 10.753)">
                            <path id="Trazado_1031003" data-name="Trazado 1031003" d="M25.722,56.822H20.843L17.8,47.531a15.924,15.924,0,0,1,1.8-1.288l2.222-1.353Z" transform="translate(-17.8 -44.89)" fill="#ffca6b"/>
                          </g>
                        </g>
                        <g id="Grupo_1199376" data-name="Grupo 1199376" transform="translate(0 8.78)">
                          <path id="Trazado_1031004" data-name="Trazado 1031004" d="M78.8,80.462H12.526a.773.773,0,0,1-.6-.274.807.807,0,0,1-.177-.628L14.909,61.4A17.171,17.171,0,0,1,22.88,49.657L37.968,40.4a14.644,14.644,0,0,1,15.394,0L68.45,49.657A17.257,17.257,0,0,1,76.421,61.4L79.577,79.56a.75.75,0,0,1-.177.628A.773.773,0,0,1,78.8,80.462ZM13.46,78.916H77.886l-3-17.246a15.665,15.665,0,0,0-7.246-10.676L52.557,41.735a13.089,13.089,0,0,0-13.768,0L23.7,50.994A15.6,15.6,0,0,0,16.455,61.67Z" transform="translate(-11.745 -38.212)"/>
                        </g>
                        <g id="Grupo_1199377" data-name="Grupo 1199377" transform="translate(26.288)">
                          <path id="Trazado_1031005" data-name="Trazado 1031005" d="M43.319,45.014V32.76H28.07V45.336a9.35,9.35,0,0,0,15.169-.225Z" transform="translate(-28.07 -32.76)" fill="#ffb59c"/>
                        </g>
                      </g>
                      <g id="Grupo_1199379" data-name="Grupo 1199379" transform="translate(25.515 31.915)">
                        <path id="Trazado_1031006" data-name="Trazado 1031006" d="M35.867,50.186a9.987,9.987,0,0,1-8.116-4.09.779.779,0,0,1-.161-.467V33.053a.77.77,0,0,1,.773-.773H43.612a.773.773,0,0,1,.773.773V45.307a.789.789,0,0,1-.145.451l-.064.1a10.02,10.02,0,0,1-8.164,4.332h-.145Zm-6.715-4.815a8.583,8.583,0,0,0,13.687-.306V33.842H29.152Z" transform="translate(-27.59 -32.28)"/>
                      </g>
                      <g id="Grupo_1199380" data-name="Grupo 1199380" transform="translate(17.496 0.773)">
                        <path id="Trazado_1031007" data-name="Trazado 1031007" d="M55.379,12.94V36.063a16.384,16.384,0,1,1-32.769.016V12.94Z" transform="translate(-22.61 -12.94)" fill="#ffb59c"/>
                      </g>
                      <g id="Grupo_1199381" data-name="Grupo 1199381" transform="translate(28.349 28.856)">
                        <path id="Trazado_1031008" data-name="Trazado 1031008" d="M40.429,30.38a5.182,5.182,0,0,1-5.185,5.185h-.709A5.182,5.182,0,0,1,29.35,30.38Z" transform="translate(-29.35 -30.38)" fill="#f1f3f6"/>
                      </g>
                      <g id="Grupo_1199382" data-name="Grupo 1199382" transform="translate(16.707)">
                        <path id="Trazado_1031009" data-name="Trazado 1031009" d="M39.285,53.522A17.153,17.153,0,0,1,22.12,36.356V13.233a.773.773,0,0,1,.773-.773H55.662a.773.773,0,0,1,.773.773V36.356A17.156,17.156,0,0,1,39.285,53.522Zm-15.6-39.5V36.356a15.6,15.6,0,1,0,31.207,0V14.022Z" transform="translate(-22.12 -12.46)"/>
                      </g>
                      <g id="Grupo_1199383" data-name="Grupo 1199383" transform="translate(23.985 16.231)">
                        <path id="Trazado_1031010" data-name="Trazado 1031010" d="M28.443,26.147a1.8,1.8,0,1,1,1.8-1.8A1.8,1.8,0,0,1,28.443,26.147Z" transform="translate(-26.64 -22.54)"/>
                      </g>
                      <g id="Grupo_1199384" data-name="Grupo 1199384" transform="translate(40.168 16.215)">
                        <circle id="Elipse_12137" data-name="Elipse 12137" cx="1.803" cy="1.803" r="1.803"/>
                      </g>
                      <g id="Grupo_1199385" data-name="Grupo 1199385" transform="translate(30.217 21.529)">
                        <path id="Trazado_1031011" data-name="Trazado 1031011" d="M34.165,30.258A3.663,3.663,0,0,1,30.51,26.6a.773.773,0,1,1,1.546,0,2.093,2.093,0,1,0,4.187,0,.773.773,0,0,1,1.546,0A3.615,3.615,0,0,1,34.165,30.258Z" transform="translate(-30.51 -25.83)"/>
                      </g>
                      <g id="Grupo_1199386" data-name="Grupo 1199386" transform="translate(27.544 28.083)">
                        <path id="Trazado_1031012" data-name="Trazado 1031012" d="M35.533,36.647h-.709a5.982,5.982,0,0,1-5.974-5.974.773.773,0,0,1,.773-.773H40.718a.773.773,0,0,1,.773.773A5.948,5.948,0,0,1,35.533,36.647Zm-5.056-5.185A4.427,4.427,0,0,0,34.824,35.1h.709a4.427,4.427,0,0,0,4.348-3.639Z" transform="translate(-28.85 -29.9)"/>
                      </g>
                      <g id="Grupo_1199387" data-name="Grupo 1199387" transform="translate(38.155 13.301)">
                        <path id="Trazado_1031013" data-name="Trazado 1031013" d="M42.284,22.266H36.213a.773.773,0,1,1,0-1.546h6.071a.773.773,0,1,1,0,1.546Z" transform="translate(-35.44 -20.72)"/>
                      </g>
                      <g id="Grupo_1199388" data-name="Grupo 1199388" transform="translate(21.972 13.301)">
                        <path id="Trazado_1031014" data-name="Trazado 1031014" d="M32.234,22.266H26.163a.773.773,0,1,1,0-1.546h6.071a.773.773,0,0,1,.773.773A.763.763,0,0,1,32.234,22.266Z" transform="translate(-25.39 -20.72)"/>
                      </g>
                    </g>
                    <g id="Grupo_1199390" data-name="Grupo 1199390" transform="translate(50.264 13.43)">
                      <path id="Trazado_1031015" data-name="Trazado 1031015" d="M47.791,25.615V26.6a4.835,4.835,0,0,1-4.831,4.831V20.8a4.819,4.819,0,0,1,3.414,1.417A4.753,4.753,0,0,1,47.791,25.615Z" transform="translate(-42.96 -20.8)" fill="#f59878"/>
                    </g>
                    <g id="Grupo_1199391" data-name="Grupo 1199391" transform="translate(49.491 12.657)">
                      <path id="Trazado_1031016" data-name="Trazado 1031016" d="M43.253,32.494a.773.773,0,0,1-.773-.773V21.093a.773.773,0,0,1,.773-.773,5.608,5.608,0,0,1,5.6,5.6v.982A5.6,5.6,0,0,1,43.253,32.494Zm.773-10.563v8.921a4.059,4.059,0,0,0,3.269-3.977v-.982A4.02,4.02,0,0,0,46.1,23.025a4.071,4.071,0,0,0-2.077-1.095Z" transform="translate(-42.48 -20.32)"/>
                    </g>
                    <g id="Grupo_1199392" data-name="Grupo 1199392" transform="translate(12.665 13.43)">
                      <path id="Trazado_1031017" data-name="Trazado 1031017" d="M19.61,25.615V26.6a4.835,4.835,0,0,0,4.831,4.831V20.8a4.819,4.819,0,0,0-3.414,1.417,4.688,4.688,0,0,0-1.417,3.4Z" transform="translate(-19.61 -20.8)" fill="#f59878"/>
                    </g>
                    <g id="Grupo_1199393" data-name="Grupo 1199393" transform="translate(11.892 12.641)">
                      <path id="Trazado_1031018" data-name="Trazado 1031018" d="M24.734,32.5a5.608,5.608,0,0,1-5.6-5.6v-.982a5.608,5.608,0,0,1,5.6-5.6.773.773,0,0,1,.773.773V31.711a.787.787,0,0,1-.773.789Zm-.789-10.563a3.973,3.973,0,0,0-2.093,1.111,4.02,4.02,0,0,0-1.192,2.866V26.9a4.074,4.074,0,0,0,3.269,3.977V21.936Z" transform="translate(-19.13 -20.31)"/>
                    </g>
                  </g>
                </g>
              </g>
            </g>
          </g>
          <g id="Grupo_1199399" data-name="Grupo 1199399" transform="translate(12.761 64.153)">
            <path id="Trazado_1031019" data-name="Trazado 1031019" d="M19.67,52.3H62V71.092H19.67Z" transform="translate(-19.67 -52.3)" fill="#ffca6b"/>
          </g>
          <g id="Grupo_1199400" data-name="Grupo 1199400" transform="translate(17.914 64.153)">
            <path id="Trazado_1031020" data-name="Trazado 1031020" d="M60.051,52.3V71.092H22.87c11.288-.306,37.181-2.754,37.181-18.792Z" transform="translate(-22.87 -52.3)" fill="#f9b84e"/>
          </g>
          <g id="Grupo_1199401" data-name="Grupo 1199401" transform="translate(21.682 72.075)">
            <path id="Trazado_1031021" data-name="Trazado 1031021" d="M25.21,57.22H49.686V68.089H25.21Z" transform="translate(-25.21 -57.22)" fill="#f1f3f6"/>
          </g>
          <g id="Grupo_1199402" data-name="Grupo 1199402" transform="translate(20.909 71.302)">
            <path id="Trazado_1031022" data-name="Trazado 1031022" d="M49.979,69.155H25.5a.773.773,0,0,1-.773-.773V57.513a.773.773,0,0,1,.773-.773H49.979a.773.773,0,0,1,.773.773V68.382A.753.753,0,0,1,49.979,69.155Zm-23.7-1.546h22.93V58.286H26.276Z" transform="translate(-24.73 -56.74)"/>
          </g>
          <g id="Grupo_1199403" data-name="Grupo 1199403" transform="translate(49.42 51.447)">
            <path id="Trazado_1031023" data-name="Trazado 1031023" d="M48.111,57.888h-4.9a.78.78,0,0,1-.741-1.014l3.913-11.932a.779.779,0,0,1,1.143-.419l2.19,1.337a19.766,19.766,0,0,1,1.916,1.369.786.786,0,0,1,.242.837l-3.027,9.275A.773.773,0,0,1,48.111,57.888Zm-3.816-1.546h3.253l2.689-8.228c-.435-.322-.87-.628-1.337-.918l-1.353-.821Z" transform="translate(-42.436 -44.409)"/>
          </g>
          <g id="Grupo_1199404" data-name="Grupo 1199404" transform="translate(8.972 51.431)">
            <path id="Trazado_1031024" data-name="Trazado 1031024" d="M26.017,57.894H21.138a.778.778,0,0,1-.741-.531l-3.043-9.291a.777.777,0,0,1,.242-.837,19.518,19.518,0,0,1,1.884-1.353L21.7,44.513a.772.772,0,0,1,.676-.064.736.736,0,0,1,.467.483L26.758,56.88a.755.755,0,0,1-.113.692.764.764,0,0,1-.628.322Zm-4.332-1.546h3.253L21.67,46.365,20.3,47.2a13.284,13.284,0,0,0-1.3.9Z" transform="translate(-17.317 -44.399)"/>
          </g>
          <g id="Grupo_1199405" data-name="Grupo 1199405" transform="translate(11.988 63.38)">
            <path id="Trazado_1031025" data-name="Trazado 1031025" d="M62.3,72.158H19.963a.773.773,0,0,1-.773-.773V52.593a.773.773,0,0,1,.773-.773H62.3a.773.773,0,0,1,.773.773V71.385A.773.773,0,0,1,62.3,72.158ZM20.736,70.612H61.524V53.382H20.736Z" transform="translate(-19.19 -51.82)"/>
          </g>
        </g>
        <g id="Grupo_1199412" data-name="Grupo 1199412" transform="translate(0.008)">
          <g id="Grupo_1199407" data-name="Grupo 1199407" transform="translate(15.41 0.786)">
            <path id="Trazado_1031026" data-name="Trazado 1031026" d="M58.936,21.805H21.32S26.537,2.031,31.5,2.031h.113a18.652,18.652,0,0,1,5.8.918,8.785,8.785,0,0,0,5.459,0,18.652,18.652,0,0,1,5.8-.918C53.638,1.725,58.936,21.805,58.936,21.805Z" transform="translate(-21.32 -2.028)" fill="#ab5b51"/>
          </g>
          <g id="Grupo_1199408" data-name="Grupo 1199408" transform="translate(14.641)">
            <path id="Trazado_1031027" data-name="Trazado 1031027" d="M59.227,22.876H21.611A.763.763,0,0,1,21,22.57a.776.776,0,0,1-.129-.676c.9-3.4,5.636-20.354,10.918-20.354H31.9a19.722,19.722,0,0,1,6.038.95,7.964,7.964,0,0,0,4.976,0,19.8,19.8,0,0,1,6.038-.95H49.1c5.249,0,9.984,16.94,10.885,20.354a.786.786,0,0,1-.129.676A.77.77,0,0,1,59.227,22.876Zm-36.6-1.546h35.6C56.006,13.343,51.852,2.925,48.986,3.1a18.2,18.2,0,0,0-5.6.87,9.605,9.605,0,0,1-5.942,0,18.045,18.045,0,0,0-5.555-.87h-.113C28.89,3.1,24.8,13.456,22.626,21.33Z" transform="translate(-20.843 -1.54)"/>
          </g>
          <g id="Grupo_1199411" data-name="Grupo 1199411" transform="translate(0 18.341)">
            <g id="Grupo_1199409" data-name="Grupo 1199409" transform="translate(0.773 0.789)">
              <path id="Trazado_1031028" data-name="Trazado 1031028" d="M79.12,22.309H12.23a6.767,6.767,0,0,1,1.642-4.428,6.692,6.692,0,0,1,4.122-2.287l4.074-.628A134.976,134.976,0,0,1,42.455,13.42H48.9a134.976,134.976,0,0,1,20.386,1.546l4.09.628A6.777,6.777,0,0,1,79.12,22.309Z" transform="translate(-12.23 -13.42)" fill="#ab5b51"/>
            </g>
            <g id="Grupo_1199410" data-name="Grupo 1199410">
              <path id="Trazado_1031029" data-name="Trazado 1031029" d="M79.413,23.381H12.523a.773.773,0,0,1-.773-.773,7.571,7.571,0,0,1,6.425-7.488l4.074-.628A136.852,136.852,0,0,1,42.764,12.93h6.425A137.014,137.014,0,0,1,69.7,14.492l4.09.628A7.528,7.528,0,0,1,80.2,22.608a.8.8,0,0,1-.789.773ZM13.344,21.819H78.576a5.961,5.961,0,0,0-5.04-5.169l-4.09-.628a133.814,133.814,0,0,0-20.273-1.546H42.748a133.814,133.814,0,0,0-20.273,1.546L18.4,16.65a5.964,5.964,0,0,0-3.655,2.029,6.178,6.178,0,0,0-1.4,3.14Z" transform="translate(-11.75 -12.93)"/>
            </g>
          </g>
        </g>
      </g>
      <g id="Grupo_1199419" data-name="Grupo 1199419" transform="translate(3.202 87.013)">
        <g id="Grupo_1199414" data-name="Grupo 1199414" transform="translate(0.773 0.789)">
          <path id="Trazado_1031030" data-name="Trazado 1031030" d="M46.02,69.377H3.09a7.829,7.829,0,0,1,14.283-4.428h.113a2.783,2.783,0,0,1,2.27-1.175,2.658,2.658,0,0,1,1.546.467,6.709,6.709,0,0,1-.161-1.514,7.621,7.621,0,0,1,15.024-1.8c.87-1.385,2.206-2.947,3.543-2.287.692.338.354,1.707-.209,3.076a2.821,2.821,0,0,1,2.818,2.818v.483a4.4,4.4,0,0,1,3.7,4.364Z" transform="translate(-3.09 -55.11)" fill="#b9dd53"/>
        </g>
        <g id="Grupo_1199415" data-name="Grupo 1199415" transform="translate(0.773 0.757)">
          <path id="Trazado_1031031" data-name="Trazado 1031031" d="M46.036,69.389H3.09a7.949,7.949,0,0,1,.547-2.915,7.833,7.833,0,0,1,13.719-1.546h.113a2.783,2.783,0,0,1,2.27-1.175,2.746,2.746,0,0,1,1.562.467,6.708,6.708,0,0,1-.161-1.514,7.621,7.621,0,0,1,15.024-1.8c.87-1.385,2.206-2.947,3.543-2.287.676.338.354,1.707-.225,3.076A2.821,2.821,0,0,1,42.3,64.51v.483a3.816,3.816,0,0,1,.58.145A4.45,4.45,0,0,1,46.036,69.389Z" transform="translate(-3.09 -55.09)" fill="#b9dd53"/>
        </g>
        <g id="Grupo_1199416" data-name="Grupo 1199416" transform="translate(0.773 10.821)">
          <path id="Trazado_1031032" data-name="Trazado 1031032" d="M46.036,65.575H3.09a7.949,7.949,0,0,1,.547-2.915,2.229,2.229,0,0,1,.225-.113s24.476,1.127,39-1.208a4.41,4.41,0,0,1,3.172,4.235Z" transform="translate(-3.09 -61.34)" fill="#a3c134"/>
        </g>
        <g id="Grupo_1199417" data-name="Grupo 1199417">
          <path id="Trazado_1031033" data-name="Trazado 1031033" d="M46.312,70.449H3.383a.773.773,0,0,1-.773-.773,8.613,8.613,0,0,1,15.169-5.588,3.554,3.554,0,0,1,2.9-.757v-.322a8.4,8.4,0,0,1,16.038-3.478c1.514-1.771,2.786-1.739,3.639-1.3,1.53.757.5,3.253.161,4.074a.776.776,0,0,1-1.433-.6,4.427,4.427,0,0,0,.531-2.109c-.886-.338-2.029,1.3-2.48,2.029a.787.787,0,0,1-.789.354.777.777,0,0,1-.628-.58,6.783,6.783,0,0,0-6.65-5.217,6.859,6.859,0,0,0-6.844,6.844,6.007,6.007,0,0,0,.145,1.353.788.788,0,0,1-.322.805.778.778,0,0,1-.87,0,2.053,2.053,0,0,0-2.754.515.787.787,0,0,1-.644.338h-.113a.787.787,0,0,1-.644-.338A7.06,7.06,0,0,0,4.188,68.919H45.459a3.621,3.621,0,0,0-2.979-2.834.78.78,0,0,1-.644-.773v-.483a.773.773,0,0,1,.773-.773.763.763,0,0,1,.757.644A5.208,5.208,0,0,1,47.1,69.708a.771.771,0,0,1-.789.741Z" transform="translate(-2.61 -54.62)" fill="#050505"/>
        </g>
        <g id="Grupo_1199418" data-name="Grupo 1199418" transform="translate(35.736 6.607)">
          <path id="Trazado_1031034" data-name="Trazado 1031034" d="M25.571,61.536a.763.763,0,0,1-.612-1.224,2.743,2.743,0,0,0,.547-1.014.775.775,0,0,1,1.5.4,4.279,4.279,0,0,1-.805,1.53A.77.77,0,0,1,25.571,61.536Z" transform="translate(-24.803 -58.723)" fill="#050505"/>
        </g>
      </g>
      <g id="Grupo_1199426" data-name="Grupo 1199426" transform="translate(76.372 59.944)">
        <g id="Grupo_1199425" data-name="Grupo 1199425">
          <g id="Grupo_1199420" data-name="Grupo 1199420" transform="translate(4.215 4.553)">
            <path id="Trazado_1031035" data-name="Trazado 1031035" d="M51.444,46.02a.8.8,0,0,1-.547-.225.768.768,0,0,1,0-1.095l3.832-3.832a.774.774,0,1,1,1.095,1.095l-3.832,3.832A.826.826,0,0,1,51.444,46.02Z" transform="translate(-50.667 -40.637)"/>
          </g>
          <g id="Grupo_1199423" data-name="Grupo 1199423">
            <g id="Grupo_1199421" data-name="Grupo 1199421" transform="translate(7.343 12.608)">
              <path id="Trazado_1031036" data-name="Trazado 1031036" d="M58.793,47.186h-5.41a.773.773,0,0,1-.773-.773.784.784,0,0,1,.773-.773h5.41a.773.773,0,0,1,.773.773A.753.753,0,0,1,58.793,47.186Z" transform="translate(-52.61 -45.64)"/>
            </g>
            <g id="Grupo_1199422" data-name="Grupo 1199422">
              <path id="Trazado_1031037" data-name="Trazado 1031037" d="M48.823,44.605a.773.773,0,0,1-.773-.773V38.583a.773.773,0,1,1,1.546,0v5.249A.773.773,0,0,1,48.823,44.605Z" transform="translate(-48.05 -37.81)"/>
            </g>
          </g>
          <g id="Grupo_1199424" data-name="Grupo 1199424" transform="translate(10.672 1.043)">
            <path id="Trazado_1031038" data-name="Trazado 1031038" d="M55.454,40.893a.8.8,0,0,1-.547-.225.768.768,0,0,1,0-1.095l.886-.886a.774.774,0,1,1,1.095,1.095L56,40.668A.826.826,0,0,1,55.454,40.893Z" transform="translate(-54.678 -38.458)"/>
          </g>
        </g>
      </g>
    </g>
  </g>
</svg>
