<svg xmlns="http://www.w3.org/2000/svg" xmlns:xlink="http://www.w3.org/1999/xlink" width="208.051" height="119.263" viewBox="0 0 208.051 119.263">
  <defs>
    <filter id="influencer-their-pet-creating-content-online-spaces-social-media" x="0" y="32" width="208.051" height="87" filterUnits="userSpaceOnUse">
      <feOffset dy="3" input="SourceAlpha"/>
      <feGaussianBlur stdDeviation="3" result="blur"/>
      <feFlood flood-opacity="0.161"/>
      <feComposite operator="in" in2="blur"/>
      <feComposite in="SourceGraphic"/>
    </filter>
    <filter id="Rect치ngulo_401593" x="42.457" y="0" width="71.898" height="119.263" filterUnits="userSpaceOnUse">
      <feOffset dy="3" input="SourceAlpha"/>
      <feGaussianBlur stdDeviation="3" result="blur-2"/>
      <feFlood flood-opacity="0.161"/>
      <feComposite operator="in" in2="blur-2"/>
      <feComposite in="SourceGraphic"/>
    </filter>
  </defs>
  <g id="Grupo_1199935" data-name="Grupo 1199935" transform="translate(-1220.949 -2117)">
    <g transform="matrix(1, 0, 0, 1, 1220.95, 2117)" filter="url(#influencer-their-pet-creating-content-online-spaces-social-media)">
      <path id="influencer-their-pet-creating-content-online-spaces-social-media-2" data-name="influencer-their-pet-creating-content-online-spaces-social-media" d="M0,0H190.051V69H0Z" transform="translate(9 38)" fill="#5b7f2e"/>
    </g>
    <g id="Grupo_1182090" data-name="Grupo 1182090" transform="translate(1031.625 -3625)">
      <g transform="matrix(1, 0, 0, 1, 189.32, 5742)" filter="url(#Rect치ngulo_401593)">
        <rect id="Rect치ngulo_401593-2" data-name="Rect치ngulo 401593" width="53.898" height="101.263" rx="8" transform="translate(51.46 6)" fill="#ef8c1a"/>
      </g>
    </g>
    <g id="farmer_18088544_2_" data-name="farmer_18088544 (2)" transform="translate(1280.411 2121.46)">
      <g id="Grupo_1199362" data-name="Grupo 1199362" transform="translate(1.64 101.296)">
        <path id="Trazado_1030992" data-name="Trazado 1030992" d="M101.863,65.036H2.413a.773.773,0,1,1,0-1.546h99.45a.773.773,0,1,1,0,1.546Z" transform="translate(-1.64 -63.49)"/>
      </g>
      <g id="Grupo_1199426" data-name="Grupo 1199426" transform="translate(77.556 41.114)">
        <g id="Grupo_1199425" data-name="Grupo 1199425">
          <g id="Grupo_1199420" data-name="Grupo 1199420" transform="translate(4.215 4.553)">
            <path id="Trazado_1031035" data-name="Trazado 1031035" d="M51.444,46.02a.8.8,0,0,1-.547-.225.768.768,0,0,1,0-1.095l3.832-3.832a.774.774,0,1,1,1.095,1.095l-3.832,3.832A.826.826,0,0,1,51.444,46.02Z" transform="translate(-50.667 -40.637)"/>
          </g>
          <g id="Grupo_1199423" data-name="Grupo 1199423">
            <g id="Grupo_1199421" data-name="Grupo 1199421" transform="translate(7.343 12.608)">
              <path id="Trazado_1031036" data-name="Trazado 1031036" d="M58.793,47.186h-5.41a.773.773,0,0,1-.773-.773.784.784,0,0,1,.773-.773h5.41a.773.773,0,0,1,.773.773A.753.753,0,0,1,58.793,47.186Z" transform="translate(-52.61 -45.64)"/>
            </g>
            <g id="Grupo_1199422" data-name="Grupo 1199422">
              <path id="Trazado_1031037" data-name="Trazado 1031037" d="M48.823,44.605a.773.773,0,0,1-.773-.773V38.583a.773.773,0,1,1,1.546,0v5.249A.773.773,0,0,1,48.823,44.605Z" transform="translate(-48.05 -37.81)"/>
            </g>
          </g>
          <g id="Grupo_1199424" data-name="Grupo 1199424" transform="translate(10.672 1.043)">
            <path id="Trazado_1031038" data-name="Trazado 1031038" d="M55.454,40.893a.8.8,0,0,1-.547-.225.768.768,0,0,1,0-1.095l.886-.886a.774.774,0,1,1,1.095,1.095L56,40.668A.826.826,0,0,1,55.454,40.893Z" transform="translate(-54.678 -38.458)"/>
          </g>
        </g>
      </g>
      <g id="volunteer_2499968" transform="translate(-29.832 1.54)">
        <g id="Grupo_1199855" data-name="Grupo 1199855" transform="translate(59.184 1.484)">
          <path id="Trazado_1032062" data-name="Trazado 1032062" d="M133.266,26.287v-1.6a17.188,17.188,0,0,1,34.377,0v1.6Z" transform="translate(-133.266 -7.5)" fill="#d57e4b"/>
        </g>
        <g id="Grupo_1199856" data-name="Grupo 1199856" transform="translate(59.184 17.073)">
          <path id="Trazado_1032063" data-name="Trazado 1032063" d="M133.343,86.293c-.049.527-.077,1.06-.077,1.6v1.6h34.377v-1.6c.009-.539-.009-1.072-.051-1.6Z" transform="translate(-133.266 -86.293)" fill="#a95e2c"/>
        </g>
        <g id="Grupo_1199857" data-name="Grupo 1199857" transform="translate(42.395 59.445)">
          <path id="Trazado_1032064" data-name="Trazado 1032064" d="M89.385,300.447l16.6,4.426a13.991,13.991,0,0,1,10.386,13.518V340.82H48.412V318.391A13.991,13.991,0,0,1,58.8,304.873l16.6-4.426Z" transform="translate(-48.412 -300.447)" fill="#d57e4b"/>
        </g>
        <g id="Grupo_1199858" data-name="Grupo 1199858" transform="translate(85.566 60.031)">
          <path id="Trazado_1032065" data-name="Trazado 1032065" d="M281.005,307.249l-14.4-3.839v22.926a15.965,15.965,0,0,0,8.09,13.873l5.279,2.987h11.414V320.768A13.99,13.99,0,0,0,281.005,307.249Z" transform="translate(-266.608 -303.41)" fill="#a95e2c"/>
        </g>
        <g id="Grupo_1199859" data-name="Grupo 1199859" transform="translate(76.372 59.445)">
          <path id="Trazado_1032066" data-name="Trazado 1032066" d="M220.14,307.442l5.6,6.2,6.6-11.805-5.2-1.386Z" transform="translate(-220.14 -300.447)" fill="#df9874"/>
        </g>
        <g id="Grupo_1199860" data-name="Grupo 1199860" transform="translate(64.18 59.445)">
          <path id="Trazado_1032067" data-name="Trazado 1032067" d="M170.712,307.442l-5.6,6.2-6.6-11.805,5.2-1.386Z" transform="translate(-158.52 -300.447)" fill="#df9874"/>
        </g>
        <g id="Grupo_1199861" data-name="Grupo 1199861" transform="translate(69.377 50.851)">
          <path id="Trazado_1032068" data-name="Trazado 1032068" d="M191.779,272.6l-7-7V257.01h13.991V265.6Z" transform="translate(-184.784 -257.01)" fill="#fcd0a3"/>
        </g>
        <g id="Grupo_1199862" data-name="Grupo 1199862" transform="translate(69.377 50.851)">
          <path id="Trazado_1032069" data-name="Trazado 1032069" d="M184.784,261.56a19.985,19.985,0,0,0,13.991,0v-4.55H184.784v4.55Z" transform="translate(-184.784 -257.01)" fill="#ffb983"/>
        </g>
        <g id="Grupo_1199863" data-name="Grupo 1199863" transform="translate(60.383 26.667)">
          <path id="Trazado_1032070" data-name="Trazado 1032070" d="M139.327,134.78v10.011a15.989,15.989,0,1,0,31.978,0V134.78Z" transform="translate(-139.327 -134.78)" fill="#fcd0a3"/>
        </g>
        <g id="Grupo_1199864" data-name="Grupo 1199864" transform="translate(86.122 26.667)">
          <path id="Trazado_1032071" data-name="Trazado 1032071" d="M275.655,144.791V134.78h-3.8v14.191a15.91,15.91,0,0,1-2.443,8.49A15.959,15.959,0,0,0,275.655,144.791Z" transform="translate(-269.415 -134.78)" fill="#ffb983"/>
        </g>
        <g id="Grupo_1199865" data-name="Grupo 1199865" transform="translate(92.362 26.667)">
          <path id="Trazado_1032072" data-name="Trazado 1032072" d="M302.152,144.374h-1.2V134.78h1.2a4,4,0,0,1,4,4v1.6A4,4,0,0,1,302.152,144.374Z" transform="translate(-300.953 -134.78)" fill="#fcd0a3"/>
        </g>
        <g id="Grupo_1199866" data-name="Grupo 1199866" transform="translate(55.187 26.667)">
          <path id="Trazado_1032073" data-name="Trazado 1032073" d="M117.06,144.374h1.2V134.78h-1.2a4,4,0,0,0-4,4v1.6A4,4,0,0,0,117.06,144.374Z" transform="translate(-113.063 -134.78)" fill="#fcd0a3"/>
        </g>
        <g id="Grupo_1199867" data-name="Grupo 1199867" transform="translate(51.589 20.271)">
          <path id="Trazado_1032074" data-name="Trazado 1032074" d="M119.663,102.455h17.188l7.595,6.4H94.88l7.595-6.4Z" transform="translate(-94.88 -102.455)" fill="#d57e4b"/>
        </g>
        <g id="Grupo_1199868" data-name="Grupo 1199868" transform="translate(89.563 57.846)">
          <path id="Trazado_1032075" data-name="Trazado 1032075" d="M304.3,334.338l11.427-6.466a11.943,11.943,0,0,0,6.061-10.395V296.546l-17.488-4.18-17.488,4.18v20.931a11.943,11.943,0,0,0,6.061,10.395Z" transform="translate(-286.811 -292.366)" fill="#fce25c"/>
        </g>
        <g id="Grupo_1199869" data-name="Grupo 1199869" transform="translate(102.873 60.987)">
          <path id="Trazado_1032076" data-name="Trazado 1032076" d="M371.4,308.24v19.7a11.943,11.943,0,0,1-6.061,10.395l-11.257,6.37,4.179,2.365,11.427-6.466a11.943,11.943,0,0,0,6.061-10.395V309.279Z" transform="translate(-354.078 -308.24)" fill="#fbd307"/>
        </g>
        <g id="Grupo_1199873" data-name="Grupo 1199873" transform="translate(96.459 64.042)">
          <g id="Grupo_1199870" data-name="Grupo 1199870" transform="translate(0 9.386)">
            <path id="Trazado_1032077" data-name="Trazado 1032077" d="M321.8,371.259a8.9,8.9,0,0,0,10.311,10.326A8.881,8.881,0,0,0,321.8,371.259Z" transform="translate(-321.661 -371.119)" fill="#93d87b"/>
          </g>
          <g id="Grupo_1199871" data-name="Grupo 1199871" transform="translate(10.593 9.386)">
            <path id="Trazado_1032078" data-name="Trazado 1032078" d="M385.653,371.259a8.9,8.9,0,0,1-10.311,10.326,8.881,8.881,0,0,1,10.311-10.326Z" transform="translate(-375.2 -371.119)" fill="#93d87b"/>
          </g>
          <g id="Grupo_1199872" data-name="Grupo 1199872" transform="translate(6.795)">
            <path id="Trazado_1032079" data-name="Trazado 1032079" d="M359.8,323.681a8.916,8.916,0,0,1,.011,14.593,8.9,8.9,0,0,1-.011-14.593Z" transform="translate(-356.007 -323.681)" fill="#93d87b"/>
          </g>
        </g>
        <g id="Grupo_1199874" data-name="Grupo 1199874" transform="translate(40.911 0)">
          <path id="Trazado_1032080" data-name="Trazado 1032080" d="M146.967,437.338a1.484,1.484,0,1,0,0-2.968h-7.595a1.484,1.484,0,1,0,0,2.968Z" transform="translate(-118.701 -348.428)"/>
          <path id="Trazado_1032081" data-name="Trazado 1032081" d="M124.54,69.114a1.484,1.484,0,0,0,1.484-1.484v-5.6a1.484,1.484,0,0,0-1.139-1.443L107.4,56.4a1.489,1.489,0,0,0-.69,0L91.421,60.056l-6.569-1.751V51.951a17.5,17.5,0,0,0,8.961-14.213,5.487,5.487,0,0,0,5.229-5.475v-1.6a5.446,5.446,0,0,0-.613-2.513h2.726a1.484,1.484,0,0,0,.956-2.619l-7.067-5.951v-.9A18.1,18.1,0,0,0,89.783,5.618,18.714,18.714,0,0,0,57.7,18.672v.908l-7.067,5.951a1.484,1.484,0,0,0,.956,2.619h2.726a5.446,5.446,0,0,0-.613,2.513v1.6a5.488,5.488,0,0,0,5.229,5.475,17.5,17.5,0,0,0,8.961,14.213v6.354L52.4,62.438A15.492,15.492,0,0,0,40.911,77.389v4.043a1.484,1.484,0,1,0,2.968,0V77.389a12.52,12.52,0,0,1,9.284-12.083l10.286-2.743,6.032,10.8a1.484,1.484,0,0,0,2.4.271L74.888,70.3V98.334H56.471V87.426a1.484,1.484,0,0,0-2.968,0V98.334H43.879v-9.97a1.484,1.484,0,1,0-2.968,0V99.818a1.484,1.484,0,0,0,1.484,1.484H110.35a1.484,1.484,0,0,0,1.484-1.484v-1l7.375-4.173a13.448,13.448,0,0,0,6.815-11.686V74.563a1.484,1.484,0,0,0-2.968,0v8.394a10.476,10.476,0,0,1-5.308,9.1l-10.7,6.052-10.7-6.052a10.476,10.476,0,0,1-5.308-9.1V63.2l16-3.826,16,3.826V67.63a1.484,1.484,0,0,0,1.484,1.484ZM83.811,61.1l2.526.673-4.655,8.332-3.264-3.613ZM96.074,32.263a2.517,2.517,0,0,1-2.229,2.5V28.167a2.517,2.517,0,0,1,2.229,2.5Zm-4-13.616c0,.008,0,.016,0,.025v.115H85.251v-.1C85.293,12.88,84.057,7.46,82,3.994A15.777,15.777,0,0,1,87.667,7.7a15.156,15.156,0,0,1,4.41,10.948Zm-21.615.14v-.115c0-8.988,3.12-15.7,5.911-15.7h0a2.791,2.791,0,0,1,1.909.986c2.03,2.044,4.054,7.385,4,14.719v.115Zm.282-14.773c-2.007,3.365-3.25,8.585-3.25,14.658v.115H60.668v-.115A15.728,15.728,0,0,1,70.744,4.015ZM56.671,32.263v-1.6a2.517,2.517,0,0,1,2.229-2.5V34.76a2.517,2.517,0,0,1-2.229-2.5Zm5.2,4.415V28.151h3.377a1.484,1.484,0,1,0,0-2.968H55.655l4.071-3.428H93.019l4.071,3.428H72.176a1.484,1.484,0,0,0,0,2.968h18.7v8.528a14.505,14.505,0,1,1-29.01,0ZM76.372,54.151a17.405,17.405,0,0,0,5.511-.891v5.57l-5.511,5.511L70.861,58.83V53.26A17.4,17.4,0,0,0,76.372,54.151Zm-5.31,15.954-4.655-8.332,2.526-.674,5.393,5.393ZM94.894,94.643l6.522,3.69H77.856V70.3l3.011,3.334a1.484,1.484,0,0,0,2.4-.271l4.816-8.619V82.958a13.38,13.38,0,0,0,.339,2.985H83.567a1.484,1.484,0,0,0,0,2.968h5.908A13.434,13.434,0,0,0,94.894,94.643Z" transform="translate(-40.911 0)"/>
          <path id="Trazado_1032082" data-name="Trazado 1032082" d="M326.251,345.529a1.484,1.484,0,0,0,1.484-1.484v-4.911h.162a10.377,10.377,0,0,0,10.241-12.285,1.484,1.484,0,0,0-1.107-1.107,10.446,10.446,0,0,0-5.587.488,10.817,10.817,0,0,0,.077-1.273,10.377,10.377,0,0,0-4.5-8.555,1.483,1.483,0,0,0-1.57,0,10.377,10.377,0,0,0-4.5,8.555,10.731,10.731,0,0,0,.077,1.273,10.442,10.442,0,0,0-5.587-.488,1.484,1.484,0,0,0-1.107,1.107,10.377,10.377,0,0,0,10.241,12.285l.184,0v4.911A1.484,1.484,0,0,0,326.251,345.529Zm3.637-14.828a7.36,7.36,0,0,1,5.464-2.171,7.435,7.435,0,0,1-7.63,7.642A7.664,7.664,0,0,1,329.888,330.7Zm-3.647-11.138a7.459,7.459,0,0,1,.008,10.792,7.467,7.467,0,0,1-2.322-5.4A7.375,7.375,0,0,1,326.24,319.563ZM319.3,333.994a7.359,7.359,0,0,1-2.171-5.464,7.354,7.354,0,0,1,5.464,2.171,7.735,7.735,0,0,1,2.166,5.47A7.368,7.368,0,0,1,319.3,333.994Z" transform="translate(-260.099 -253.621)"/>
        </g>
      </g>
      <g id="Grupo_1199419" data-name="Grupo 1199419" transform="translate(4.401 86.016)">
        <g id="Grupo_1199414" data-name="Grupo 1199414" transform="translate(0.822 0.839)">
          <path id="Trazado_1031030" data-name="Trazado 1031030" d="M48.722,70.275H3.09a8.322,8.322,0,0,1,15.182-4.707h.12a2.958,2.958,0,0,1,2.413-1.249,2.825,2.825,0,0,1,1.643.5,7.131,7.131,0,0,1-.171-1.609,8.1,8.1,0,0,1,15.969-1.917c.924-1.472,2.345-3.132,3.766-2.431.736.359.377,1.814-.223,3.269a3,3,0,0,1,3,3v.513a4.682,4.682,0,0,1,3.937,4.639Z" transform="translate(-3.09 -55.11)" fill="#b9dd53"/>
        </g>
        <g id="Grupo_1199415" data-name="Grupo 1199415" transform="translate(0.822 0.804)">
          <path id="Trazado_1031031" data-name="Trazado 1031031" d="M48.739,70.289H3.09a8.45,8.45,0,0,1,.582-3.1,8.326,8.326,0,0,1,14.583-1.643h.12A2.958,2.958,0,0,1,20.788,64.3a2.918,2.918,0,0,1,1.66.5,7.131,7.131,0,0,1-.171-1.609,8.1,8.1,0,0,1,15.969-1.917c.924-1.472,2.345-3.132,3.766-2.431.719.359.377,1.814-.24,3.269a3,3,0,0,1,3,3v.513a4.056,4.056,0,0,1,.616.154A4.73,4.73,0,0,1,48.739,70.289Z" transform="translate(-3.09 -55.09)" fill="#b9dd53"/>
        </g>
        <g id="Grupo_1199416" data-name="Grupo 1199416" transform="translate(0.822 11.502)">
          <path id="Trazado_1031032" data-name="Trazado 1031032" d="M48.739,65.842H3.09a8.45,8.45,0,0,1,.582-3.1,2.37,2.37,0,0,1,.24-.12s26.017,1.2,41.456-1.284a4.688,4.688,0,0,1,3.372,4.5Z" transform="translate(-3.09 -61.34)" fill="#a3c134"/>
        </g>
        <g id="Grupo_1199417" data-name="Grupo 1199417">
          <path id="Trazado_1031033" data-name="Trazado 1031033" d="M49.064,71.445H3.432a.822.822,0,0,1-.822-.822,9.155,9.155,0,0,1,16.124-5.939,3.778,3.778,0,0,1,3.081-.8v-.342a8.927,8.927,0,0,1,17.048-3.7c1.609-1.883,2.961-1.849,3.868-1.386,1.626.8.531,3.457.171,4.33a.825.825,0,0,1-1.523-.633,4.706,4.706,0,0,0,.565-2.242c-.941-.359-2.157,1.386-2.636,2.157a.837.837,0,0,1-.839.377.826.826,0,0,1-.668-.616,7.21,7.21,0,0,0-7.069-5.546,7.29,7.29,0,0,0-7.274,7.274,6.385,6.385,0,0,0,.154,1.438.837.837,0,0,1-.342.856.827.827,0,0,1-.924,0,2.182,2.182,0,0,0-2.927.548.836.836,0,0,1-.685.359h-.12a.836.836,0,0,1-.685-.359A7.5,7.5,0,0,0,4.287,69.819H48.156a3.848,3.848,0,0,0-3.167-3.012.829.829,0,0,1-.685-.822v-.513a.822.822,0,0,1,.822-.822.811.811,0,0,1,.8.685A5.535,5.535,0,0,1,49.9,70.658a.819.819,0,0,1-.839.787Z" transform="translate(-2.61 -54.62)" fill="#050505"/>
        </g>
        <g id="Grupo_1199418" data-name="Grupo 1199418" transform="translate(37.986 7.023)">
          <path id="Trazado_1031034" data-name="Trazado 1031034" d="M25.62,61.713a.811.811,0,0,1-.65-1.3,2.916,2.916,0,0,0,.582-1.078.824.824,0,0,1,1.592.428,4.548,4.548,0,0,1-.856,1.626A.818.818,0,0,1,25.62,61.713Z" transform="translate(-24.803 -58.723)" fill="#050505"/>
        </g>
      </g>
    </g>
  </g>
</svg>
