<svg xmlns="http://www.w3.org/2000/svg" xmlns:xlink="http://www.w3.org/1999/xlink" width="127" height="259.59" viewBox="0 0 127 259.59">
  <defs>
    <clipPath id="clip-path">
      <path id="path3120" d="M0-682.665H77.638v77.638H0Z" transform="translate(0 682.665)"/>
    </clipPath>
  </defs>
  <g id="Grupo_1199919" data-name="Grupo 1199919" transform="translate(-180.051 -1318)">
    <g id="Grupo_1199932" data-name="Grupo 1199932">
      <rect id="Rectángulo_408670" data-name="Rectángulo 408670" width="127" height="259.59" rx="8" transform="translate(180.051 1318)" fill="#ef8c1a"/>
      <g id="g3114" transform="translate(205.051 2091.665)">
        <g id="g3116" transform="translate(0 -682.665)">
          <g id="g3118" clip-path="url(#clip-path)">
            <g id="g3124" transform="translate(67.024 5.459)">
              <path id="path3126" d="M0-212.7v27.295H3.033a6.066,6.066,0,0,1,5.474,3.448,4.233,4.233,0,0,0,.592-2.193v-49.779A6.065,6.065,0,0,0,3.033-240H0V-212.7Z" transform="translate(0 239.999)" fill="#b6bccf" fill-rule="evenodd"/>
            </g>
            <g id="g3128" transform="translate(1.516 14.557)">
              <path id="path3130" d="M-410.577-47.269h12.822v-6.066h-63.992a1.521,1.521,0,0,0-1.516,1.516V2.772a1.521,1.521,0,0,0,1.516,1.516h67.024a6.065,6.065,0,0,0,6.066-6.066,6.041,6.041,0,0,0-.592-2.617,6.238,6.238,0,0,1-5.474,2.617H-457.2V-47.269h46.62Z" transform="translate(463.263 53.335)" fill="#fff" fill-rule="evenodd"/>
            </g>
            <g id="g3132" transform="translate(52.61 20.623)">
              <path id="path3134" d="M-112.328,0H-125.15c.831,3.1-3.847,6.98-.152,9.114,1.87,1.079,4.725-.008,6.676.515,1.8.483,6.3,2.5,6.3,2.5Z" transform="translate(126.743)" fill="#e0ef9b" fill-rule="evenodd"/>
            </g>
            <g id="g3136" transform="translate(37.303 20.623)">
              <path id="path3138" d="M-130.513-71.024c-3.7-2.134.982-6.013.152-9.114h-16.9c1.463,5.458,7.5,15.066,18.264,16.279,13.606,1.533-6.259,23.147,11.457,23.147V-68.007s-4.5-2.019-6.3-2.5c-1.95-.523-4.806.564-6.676-.515" transform="translate(147.261 80.138)" fill="#d5ea79" fill-rule="evenodd"/>
            </g>
            <g id="g3140" transform="translate(7.582 20.623)">
              <path id="path3142" d="M-373.941-126.858c-10.766-1.213-16.8-10.82-18.264-16.279h-29.721v11.654c6.937,0,13.3-6.587,20.084-2.957a14.758,14.758,0,0,1,5.241,4.831,8.917,8.917,0,0,1,5.912-2.243,9.221,9.221,0,0,1,9.1,9.171,9.5,9.5,0,0,1-.269,2.167c2.127.45,3.761,1.3,4.685,2.9,2.293,3.971-1.444,8.5-.918,10.788.9,3.944,5.669,1.548,5.669,9.178h12.973a6.238,6.238,0,0,0,5.474-2.617,6.066,6.066,0,0,0-5.473-3.448h-3.033c-17.716,0,2.149-21.614-11.457-23.147" transform="translate(421.926 143.137)" fill="#cbe558" fill-rule="evenodd"/>
            </g>
            <g id="g3144" transform="translate(29.721 31.908)">
              <path id="path3146" d="M-70.9-47.269a3.033,3.033,0,0,1,3.033,3.033A3.033,3.033,0,0,1-70.9-41.2a3.033,3.033,0,0,1-3.033-3.033A3.033,3.033,0,0,1-70.9-47.269m9.1,3.1a9.221,9.221,0,0,0-9.1-9.171,8.917,8.917,0,0,0-5.912,2.243A9.248,9.248,0,0,0-80-44.164c0,3.388,2.235,7.352,4.561,10.151,1.779,2.141,3.611,3.6,4.538,3.6.966,0,2.915-1.586,4.763-3.875A20.678,20.678,0,0,0-62.072-42a9.506,9.506,0,0,0,.269-2.167" transform="translate(80 53.335)" fill="#ff5d7d" fill-rule="evenodd"/>
            </g>
            <g id="g3148" transform="translate(35.786 37.973)">
              <path id="path3150" d="M-47.268-23.634A3.033,3.033,0,0,0-50.3-26.667a3.033,3.033,0,0,0-3.033,3.033A3.033,3.033,0,0,0-50.3-20.6a3.033,3.033,0,0,0,3.033-3.033" transform="translate(53.333 26.667)" fill="#fff" fill-rule="evenodd"/>
            </g>
            <g id="g3152" transform="translate(43.582 43.245)">
              <path id="path3154" d="M-31.688,0a20.675,20.675,0,0,1-4.066,7.709c1.855,2.926,2.051,8.738,1.274,15.16h12.227c0-7.63-4.765-5.234-5.669-9.178C-28.447,11.4-24.711,6.874-27,2.9-27.928,1.3-29.562.45-31.688,0" transform="translate(35.755)" fill="#d5ea79" fill-rule="evenodd"/>
            </g>
            <g id="g3156" transform="translate(7.582 35.462)">
              <path id="path3158" d="M-280.544-120.723c-1.848,2.29-3.8,3.875-4.763,3.875-.927,0-2.759-1.459-4.537-3.6-6.8,2.829-8.756-2.779-6.66-6.41,3.659-6.338-1.078-12.331-8.724-7.733-4,2.4-8.322,6.283-11.316,6.283v8.015c3.821,0,8.263-6.216,11.479-4.36,2.254,1.3,2.058,3.8.281,6.877s.193,7.984,6.694,4.23c4.443-2.565,10.808,1.368,10.008,7.983h8.812c.777-6.422.581-12.234-1.274-15.16" transform="translate(316.545 136.215)" fill="#d1a184" fill-rule="evenodd"/>
            </g>
            <g id="g3160" transform="translate(7.582 28.228)">
              <path id="path3162" d="M-156.17-129.289c-2.1,3.631-.136,9.24,6.659,6.41-2.326-2.8-4.561-6.762-4.561-10.151a9.248,9.248,0,0,1,3.187-6.928,14.759,14.759,0,0,0-5.241-4.831c-6.786-3.63-13.147,2.957-20.084,2.957v11.092c2.994,0,7.317-3.878,11.316-6.283,7.646-4.6,12.383,1.4,8.724,7.733" transform="translate(176.21 145.88)" fill="#d5ea79" fill-rule="evenodd"/>
            </g>
            <g id="g3164" transform="translate(7.582 46.677)">
              <path id="path3166" d="M-143.811-89.256c-6.5,3.753-8.471-1.153-6.694-4.23s1.973-5.576-.281-6.877C-154-102.22-158.444-96-162.265-96v14.731H-133.8c.8-6.615-5.565-10.548-10.008-7.983" transform="translate(162.265 100.71)" fill="#c68a65" fill-rule="evenodd"/>
            </g>
            <g id="g3168" transform="translate(1.516 5.459)">
              <path id="path3170" d="M-581.394-472.677v-54.59a6.065,6.065,0,0,0-6.065-6.065h-3.033v54.59h3.033a6.065,6.065,0,0,1,6.065,6.066,6.065,6.065,0,0,1-6.065,6.066h-67.024A1.521,1.521,0,0,1-656-468.128v-54.59a1.521,1.521,0,0,1,1.516-1.516h62.475" transform="translate(656 533.332)" fill="none" stroke="#000" stroke-linecap="round" stroke-linejoin="round" stroke-miterlimit="22.926" stroke-width="1.5"/>
            </g>
            <g id="g3172" transform="translate(7.582 20.623)">
              <path id="path3174" d="M-168.622,0h36.288m10.615,40.675c0,3.074-2.943,4.841-6.066,4.816H-190.26V0h7.991" transform="translate(190.26)" fill="none" stroke="#000" stroke-linecap="round" stroke-linejoin="round" stroke-miterlimit="2.613" stroke-width="1.5"/>
            </g>
            <g id="g3176" transform="translate(7.902 46.677)">
              <path id="path3178" d="M0-36.56c3.747-.325,8.032-6.15,11.158-4.345,2.254,1.3,2.058,3.8.281,6.877s.193,7.984,6.694,4.23c4.352-2.512,10.547,1.209,10.049,7.578" transform="translate(0 41.252)" fill="none" stroke="#000" stroke-linecap="round" stroke-linejoin="round" stroke-miterlimit="2.613" stroke-width="1.5"/>
            </g>
            <g id="g3180" transform="translate(7.831 35.462)">
              <path id="path3182" d="M-280.076-123.214c1.652,2.97,1.829,8.472,1.119,14.556m-37.059-22.47c2.982-.2,7.177-3.935,11.067-6.274,7.646-4.6,12.383,1.4,8.724,7.733-2.061,3.569-.2,9.05,6.319,6.546" transform="translate(316.017 139.026)" fill="none" stroke="#000" stroke-linecap="round" stroke-linejoin="round" stroke-miterlimit="2.613" stroke-width="1.5"/>
            </g>
            <g id="g3184" transform="translate(7.753 28.228)">
              <path id="path3186" d="M-313.567-117.627a6.353,6.353,0,0,1,4.342,2.825c2.293,3.971-1.444,8.5-.918,10.788.884,3.855,5.456,1.653,5.662,8.676M-353.8-128.675c6.871-.106,13.183-6.556,19.913-2.956a14.537,14.537,0,0,1,4.984,4.466" transform="translate(353.804 132.722)" fill="none" stroke="#000" stroke-linecap="round" stroke-linejoin="round" stroke-miterlimit="2.613" stroke-width="1.5"/>
            </g>
            <g id="g3188" transform="translate(29.721 31.908)">
              <path id="path3190" d="M-70.9-178.623c-2.138,0-9.1-7.771-9.1-13.751a9.221,9.221,0,0,1,9.1-9.171,9.221,9.221,0,0,1,9.1,9.171C-61.8-186.394-68.763-178.623-70.9-178.623Z" transform="translate(80 201.544)" fill="none" stroke="#000" stroke-linecap="round" stroke-linejoin="round" stroke-miterlimit="22.926" stroke-width="1.5"/>
            </g>
            <g id="g3192" transform="translate(35.786 37.973)">
              <path id="path3194" d="M-23.634-47.268A3.039,3.039,0,0,0-20.6-50.3a3.039,3.039,0,0,0-3.033-3.033A3.039,3.039,0,0,0-26.667-50.3,3.039,3.039,0,0,0-23.634-47.268Z" transform="translate(26.667 53.333)" fill="none" stroke="#000" stroke-linecap="round" stroke-linejoin="round" stroke-miterlimit="22.926" stroke-width="1.5"/>
            </g>
            <g id="g3196" transform="translate(37.33 20.722)">
              <path id="path3198" d="M0,0C1.509,5.475,7.536,14.974,18.237,16.179c13.606,1.533-6.259,23.147,11.457,23.147" fill="none" stroke="#000" stroke-linecap="round" stroke-linejoin="round" stroke-miterlimit="2.613" stroke-width="1.5"/>
            </g>
            <g id="g3200" transform="translate(52.61 20.993)">
              <path id="path3202" d="M-12.983,0c.4,3.034-3.775,6.694-.225,8.744,1.87,1.079,4.725-.008,6.676.515A64.489,64.489,0,0,1-.34,11.714" transform="translate(14.649)" fill="none" stroke="#000" stroke-linecap="round" stroke-linejoin="round" stroke-miterlimit="2.613" stroke-width="1.5"/>
            </g>
            <g id="g3204" transform="translate(22.396 20.623)">
              <path id="path3206" d="M0,0H0" fill="none" stroke="#000" stroke-linecap="round" stroke-linejoin="round" stroke-miterlimit="2.613" stroke-width="1.5"/>
            </g>
          </g>
        </g>
      </g>
    </g>
  </g>
</svg>
