<svg xmlns="http://www.w3.org/2000/svg" width="127" height="223" viewBox="0 0 127 223">
  <g id="Grupo_1199996" data-name="Grupo 1199996" transform="translate(-601 -893)">
    <rect id="Rectángulo_408528" data-name="Rectángulo 408528" width="127" height="223" rx="8" transform="translate(601 893)" fill="#9ad354"/>
    <g id="growth_1404837" transform="translate(623.638 957.712)">
      <path id="Trazado_1032046" data-name="Trazado 1032046" d="M282.025,41.144h2.069a1.954,1.954,0,0,1,1.954,1.955V97.938H280.07V43.1a1.955,1.955,0,0,1,1.955-1.955Zm0,0" transform="translate(-227.69 -33.458)" fill="#61db70"/>
      <path id="Trazado_1032047" data-name="Trazado 1032047" d="M237.243,268.047c1.4-3.919,2.493-15.118,2.493-16.44a4.483,4.483,0,0,0-4.484-4.484,4.774,4.774,0,0,0-4.484,4.484,4.691,4.691,0,0,0-2.989-1.495,4.461,4.461,0,0,0-1.668.328,4.472,4.472,0,0,0-4.311-3.318,4.424,4.424,0,0,0-1.968.474,4.424,4.424,0,0,0,.474-1.968,4.483,4.483,0,0,0-4.484-4.484,4.783,4.783,0,0,0-4.484,4.484h-1.495a4.366,4.366,0,0,0-4.484-2.989,4.484,4.484,0,0,0-4.484,4.484v1.495h-1.495a2.977,2.977,0,0,0-2.989-1.495,4.484,4.484,0,0,0-4.484,4.484c0,.9-.076,3.886-.01,7.048,2.124,1.024,3.662,1.495,4.494,1.919,2.989,1.495,7.473,8.183,7.473,14.161l17.935-2.989a92.366,92.366,0,0,1,15.442-3.7Zm0,0" transform="translate(-155.97 -196.094)" fill="#d3843d"/>
      <path id="Trazado_1032048" data-name="Trazado 1032048" d="M249.565,301.723a1.5,1.5,0,0,1-1.495-1.495,5.256,5.256,0,0,1,1.881-4.036,4.865,4.865,0,0,1,4.571-.364,1.5,1.5,0,0,1-.945,2.839c-.5-.168-1.4-.39-1.878-.048a2.422,2.422,0,0,0-.639,1.608,1.494,1.494,0,0,1-1.495,1.495Zm0,0" transform="translate(-201.668 -240.232)" fill="#ffd782"/>
      <path id="Trazado_1032049" data-name="Trazado 1032049" d="M319.632,313.64a1.494,1.494,0,0,1-1.417-1.022c-.379-1.136-.884-1.312-1.046-1.371a3.869,3.869,0,0,0-2.69.65,1.495,1.495,0,0,1-1.653-2.49,6.679,6.679,0,0,1,5.3-.99,4.744,4.744,0,0,1,2.921,3.255,1.494,1.494,0,0,1-1.419,1.967Zm0,0" transform="translate(-253.801 -250.654)" fill="#ffd782"/>
      <path id="Trazado_1032050" data-name="Trazado 1032050" d="M365.786,24.09c-4.579,4.579-10.013,7.921-13.451,4.484s-1.59-8.872,2.989-13.451S370.27,9.145,370.27,9.145,370.366,19.511,365.786,24.09Zm0,0" transform="translate(-285.01 -7.436)" fill="#61db70"/>
      <path id="Trazado_1032051" data-name="Trazado 1032051" d="M337.568,91.687a1.495,1.495,0,0,1-1.057-2.551l7.473-7.473a1.495,1.495,0,0,1,2.113,2.113l-7.473,7.473a1.493,1.493,0,0,1-1.057.438Zm0,0" transform="translate(-273.231 -66.065)" fill="#359b48"/>
      <path id="Trazado_1032052" data-name="Trazado 1032052" d="M140.553,97.585c4.58,4.579,10.014,6.426,13.451,2.989s3.085-8.872-1.495-13.451-16.44-5.978-16.44-5.978S135.974,93.006,140.553,97.585Zm0,0" transform="translate(-110.591 -65.985)" fill="#61db70"/>
      <path id="Trazado_1032053" data-name="Trazado 1032053" d="M202.612,157.181a1.5,1.5,0,0,1-1.057-.438l-8.967-8.967a1.495,1.495,0,0,1,2.113-2.113l8.967,8.967a1.494,1.494,0,0,1-1.057,2.551Zm0,0" transform="translate(-156.21 -118.109)" fill="#359b48"/>
      <path id="Trazado_1032054" data-name="Trazado 1032054" d="M117.833,329,103.9,333.1H91.94a11.956,11.956,0,0,0-11.956-11.956H56.07v23.913H103.9l25.408-7.473A8.946,8.946,0,0,0,117.833,329Zm0,0" transform="translate(-45.538 -261.148)" fill="#ffd782"/>
      <path id="Trazado_1032055" data-name="Trazado 1032055" d="M8.07,289.145h8.967v32.88H8.07Zm0,0" transform="translate(-6.505 -235.127)" fill="#195c85"/>
      <path id="Trazado_1032056" data-name="Trazado 1032056" d="M137.569,383.123a1.494,1.494,0,0,1-1.335-2.163,6.808,6.808,0,0,1,5.819-3.815h16.44a1.495,1.495,0,1,1,0,2.989h-16.44a3.82,3.82,0,0,0-3.138,2.162A1.5,1.5,0,0,1,137.569,383.123Zm0,0" transform="translate(-110.596 -306.687)" fill="#f7bc54"/>
      <path id="Trazado_1032057" data-name="Trazado 1032057" d="M12.027,112.357H58.358a1.5,1.5,0,0,0,.422-.061l25.408-7.473a1.494,1.494,0,0,0,1.073-1.433,10.334,10.334,0,0,0-1.983-6.107A110.593,110.593,0,0,0,85.26,82.466a5.978,5.978,0,0,0-5.978-5.978,6.078,6.078,0,0,0-5.347,3.525,5.021,5.021,0,0,0-2.915-.482,5.978,5.978,0,0,0-5.189-3.043,5.978,5.978,0,0,0-5.978-5.978V36.595a3.452,3.452,0,0,0-3.449-3.45H54.335a3.453,3.453,0,0,0-3.45,3.45V72.153A7.236,7.236,0,0,0,49.391,72a5.987,5.987,0,0,0-5.942,5.318,4.687,4.687,0,0,0-3.026-.834,5.979,5.979,0,0,0-5.978,5.978l-.01,1.006c0,.535-.015,1.219-.021,1.984H12.027V79.477H.07v35.869H12.027ZM53.875,36.595a.46.46,0,0,1,.46-.46H56.4a.46.46,0,0,1,.46.46V71.406a6.428,6.428,0,0,0-2.46,2.853,5.509,5.509,0,0,0-.529-.523ZM37.434,82.466a2.989,2.989,0,0,1,2.989-2.989c1.085,0,1.262.128,1.761.85a1.493,1.493,0,0,0,1.228.644h1.495A1.494,1.494,0,0,0,46.4,79.477V77.982a2.989,2.989,0,0,1,2.989-2.989,2.945,2.945,0,0,1,3.037,1.873,1.5,1.5,0,0,0,1.446,1.117h1.495a1.494,1.494,0,0,0,1.495-1.39A3.3,3.3,0,0,1,59.853,73.5a2.989,2.989,0,0,1,2.989,2.989,2.934,2.934,0,0,1-.32,1.308,1.494,1.494,0,0,0,2,2,2.976,2.976,0,0,1,4.176,1.9,1.495,1.495,0,0,0,2,1,2.993,2.993,0,0,1,1.109-.22,3.506,3.506,0,0,1,1.979,1.1,1.494,1.494,0,0,0,2.5-1,3.289,3.289,0,0,1,2.989-3.092,2.989,2.989,0,0,1,2.989,2.989,115.4,115.4,0,0,1-1.529,12.343,10.349,10.349,0,0,0-8.869-1.436l-13.73,4.039H47.813A13.47,13.47,0,0,0,37.4,85.8c0-.9.015-1.68.023-2.284Zm-2.989,5.978a10.463,10.463,0,0,1,10.343,8.967H31.456a6.81,6.81,0,0,0-5.821,3.815,1.5,1.5,0,1,0,2.675,1.336,3.823,3.823,0,0,1,3.146-2.162h26.9a1.5,1.5,0,0,0,.422-.061l13.937-4.1a7.455,7.455,0,0,1,9.475,6.053l-24.049,7.074H12.027V88.444ZM9.038,112.357H3.06V82.466H9.038Zm0,0" transform="translate(0 -26.953)"/>
      <path id="Trazado_1032058" data-name="Trazado 1032058" d="M249.564,301.677a1.494,1.494,0,0,0,1.495-1.495,2.423,2.423,0,0,1,.639-1.619c.477-.342,1.382-.12,1.878.047a1.5,1.5,0,1,0,.945-2.84,4.865,4.865,0,0,0-4.571.365,5.255,5.255,0,0,0-1.881,4.046A1.5,1.5,0,0,0,249.564,301.677Zm0,0" transform="translate(-201.668 -240.186)"/>
      <path id="Trazado_1032059" data-name="Trazado 1032059" d="M314.49,311.9a3.869,3.869,0,0,1,2.69-.65c.166.058.671.235,1.046,1.37a1.5,1.5,0,0,0,2.84-.944,4.744,4.744,0,0,0-2.921-3.255,6.679,6.679,0,0,0-5.3.99,1.495,1.495,0,0,0,1.653,2.49Zm0,0" transform="translate(-253.813 -250.653)"/>
      <path id="Trazado_1032060" data-name="Trazado 1032060" d="M342.408,6.63c-5.094,5.1-6.528,10.571-3.936,14.4L336.43,23.07a1.495,1.495,0,1,0,2.113,2.113L340.6,23.13a6.045,6.045,0,0,0,3.261.919,9.118,9.118,0,0,0,3.485-.766,24.92,24.92,0,0,0,7.64-5.572C359.95,12.744,359.9,2.143,359.9,1.695L359.889,0,358.21.227c-.444.06-10.921,1.522-15.8,6.4ZM352.87,15.6a22.343,22.343,0,0,1-6.67,4.923,4.774,4.774,0,0,1-3.367.374l3.183-3.183A1.495,1.495,0,0,0,343.9,15.6l-3.256,3.257c-1.495-3.058.982-7.216,3.875-10.111,3.091-3.091,9.3-4.644,12.337-5.242-.225,3.445-1.171,9.278-3.988,12.1Zm0,0" transform="translate(-273.15 0)"/>
      <path id="Trazado_1032061" data-name="Trazado 1032061" d="M147.062,78.753c-4.89-4.89-16.817-6.346-17.322-6.406l-1.656-.2-.014,1.668c0,.51-.043,12.544,4.922,17.509a17.787,17.787,0,0,0,7.842,4.892,9.525,9.525,0,0,0,2.345.3,7.477,7.477,0,0,0,4.219-1.254l2.034,2.035a1.495,1.495,0,0,0,2.113-2.113l-2.022-2.015c3.021-4.114,2.119-9.837-2.462-14.418Zm-5.488,14.571a15.079,15.079,0,0,1-6.469-4.109c-2.887-2.888-3.808-9.75-4-13.65,3.932.66,10.894,2.348,13.847,5.3,3.357,3.357,4.238,7.266,2.434,10.163l-4.8-4.8a1.495,1.495,0,0,0-2.113,2.113l4.73,4.73a5.128,5.128,0,0,1-3.621.254Zm0,0" transform="translate(-104.087 -58.673)"/>
    </g>
  </g>
</svg>
