<svg xmlns="http://www.w3.org/2000/svg" xmlns:xlink="http://www.w3.org/1999/xlink" width="138" height="138" viewBox="0 0 138 138">
  <defs>
    <filter id="Trazado_896985" x="0" y="0" width="138" height="138" filterUnits="userSpaceOnUse">
      <feOffset dy="3" input="SourceAlpha"/>
      <feGaussianBlur stdDeviation="3" result="blur"/>
      <feFlood flood-opacity="0.161"/>
      <feComposite operator="in" in2="blur"/>
      <feComposite in="SourceGraphic"/>
    </filter>
  </defs>
  <g id="Grupo_1199890" data-name="Grupo 1199890" transform="translate(-573.392 -898.943)">
    <g id="Grupo_1199696" data-name="Grupo 1199696" transform="translate(582.392 904.943)">
      <g id="Grupo_1199551" data-name="Grupo 1199551" transform="translate(0 0)">
        <g id="Grupo_1111318" data-name="Grupo 1111318" transform="translate(0)">
          <g id="Grupo_1109826" data-name="Grupo 1109826">
            <g id="Grupo_1098742" data-name="Grupo 1098742">
              <g transform="matrix(1, 0, 0, 1, -9, -6)" filter="url(#Trazado_896985)">
                <g id="Trazado_896985-2" data-name="Trazado 896985" transform="translate(9 6)" fill="#f1963d" opacity="0.859">
                  <path d="M 59.99993515014648 118.4999923706055 C 52.10183334350586 118.4999923706055 44.4407844543457 116.9534759521484 37.22958374023438 113.9033889770508 C 33.76353454589844 112.4373779296875 30.42043495178223 110.6227951049805 27.29311943054199 108.510009765625 C 24.19511795043945 106.4170455932617 21.28185272216797 104.0133743286133 18.63423538208008 101.3657608032227 C 15.98661804199219 98.7181396484375 13.58295154571533 95.80487823486328 11.48998546600342 92.70689392089844 C 9.377202033996582 89.57957458496094 7.562618255615234 86.23645782470703 6.096601963043213 82.77042388916016 C 3.046518564224243 75.55922698974609 1.500001788139343 67.89817810058594 1.500001788139343 60.00007629394531 C 1.500001788139343 52.10181045532227 3.046518564224243 44.44075775146484 6.096601963043213 37.22956085205078 C 7.562618255615234 33.76352691650391 9.377202033996582 30.42042541503906 11.48998546600342 27.29310989379883 C 13.58295154571533 24.19510841369629 15.98661804199219 21.2818431854248 18.63423538208008 18.63422584533691 C 21.28185272216797 15.98662567138672 24.19511795043945 13.58294200897217 27.29311943054199 11.48997592926025 C 30.42043495178223 9.377208709716797 33.76353454589844 7.562609195709229 37.22958374023438 6.096609115600586 C 44.4407844543457 3.046525716781616 52.10183334350586 1.500009059906006 59.99993515014648 1.500009059906006 C 67.89803314208984 1.500009059906006 75.55908203125 3.046525716781616 82.77028656005859 6.096609115600586 C 86.23633575439453 7.562609195709229 89.57943725585938 9.377208709716797 92.70674896240234 11.48997592926025 C 95.80474853515625 13.58294200897217 98.718017578125 15.98662567138672 101.3656387329102 18.63422584533691 C 104.0132522583008 21.2818431854248 106.4169158935547 24.19510841369629 108.5098876953125 27.29310989379883 C 110.6226654052734 30.42042541503906 112.4372482299805 33.76352691650391 113.9032669067383 37.22956085205078 C 116.9533538818359 44.44075775146484 118.499870300293 52.10181045532227 118.499870300293 59.99990844726562 C 118.499870300293 67.89817810058594 116.9533538818359 75.55922698974609 113.9032669067383 82.77042388916016 C 112.4372482299805 86.23645782470703 110.6226654052734 89.57957458496094 108.5098876953125 92.70689392089844 C 106.4169158935547 95.80487823486328 104.0132522583008 98.7181396484375 101.3656387329102 101.3657608032227 C 98.718017578125 104.0133743286133 95.80474853515625 106.4170455932617 92.70674896240234 108.510009765625 C 89.57943725585938 110.6227951049805 86.23633575439453 112.4373779296875 82.77028656005859 113.9033889770508 C 75.55908203125 116.9534759521484 67.89803314208984 118.4999923706055 59.99993515014648 118.4999923706055 Z" stroke="none"/>
                  <path d="M 59.99993515014648 2.999992370605469 C 52.30366516113281 2.999992370605469 44.83921051025391 4.506645202636719 37.81389617919922 7.478103637695312 C 34.43706512451172 8.9063720703125 31.17987823486328 10.67435455322266 28.13280487060547 12.73290252685547 C 25.11393737792969 14.77243041992188 22.27498626708984 17.11477661132812 19.69487762451172 19.69488525390625 C 17.11476898193359 22.27499389648438 14.77242279052734 25.11392211914062 12.73290252685547 28.1328125 C 10.67435455322266 31.17988586425781 8.9063720703125 34.43706512451172 7.478096008300781 37.81390380859375 C 4.506645202636719 44.83921051025391 2.999992370605469 52.30366516113281 2.999992370605469 60.00008392333984 C 2.999992370605469 67.69633483886719 4.506645202636719 75.16079711914062 7.478096008300781 82.18609619140625 C 8.9063720703125 85.56294250488281 10.67435455322266 88.82012176513672 12.73290252685547 91.86717224121094 C 14.77242279052734 94.88606262207031 17.11476898193359 97.72499084472656 19.69487762451172 100.3050994873047 C 22.27498626708984 102.8852081298828 25.11391448974609 105.2275543212891 28.13280487060547 107.2670669555664 C 31.17987823486328 109.3256301879883 34.43706512451172 111.0935897827148 37.81389617919922 112.5218658447266 C 44.83921051025391 115.4933166503906 52.30366516113281 116.9999771118164 59.99993515014648 116.9999771118164 C 67.69618988037109 116.9999771118164 75.16064453125 115.4933166503906 82.18595886230469 112.5218658447266 C 85.56278991699219 111.0935897827148 88.81996917724609 109.3256301879883 91.86704254150391 107.2670669555664 C 94.88593292236328 105.2275543212891 97.72486114501953 102.8852081298828 100.3049697875977 100.3050994873047 C 102.8850784301758 97.72499084472656 105.227424621582 94.88606262207031 107.2669525146484 91.86717224121094 C 109.3255004882812 88.82012176513672 111.0934829711914 85.56294250488281 112.5217514038086 82.18609619140625 C 115.4932098388672 75.16079711914062 116.9998626708984 67.69633483886719 116.9998626708984 59.99991989135742 C 116.9998626708984 52.30366516113281 115.4932098388672 44.83921051025391 112.5217514038086 37.81390380859375 C 111.0934829711914 34.43706512451172 109.3255004882812 31.17988586425781 107.2669525146484 28.1328125 C 105.227424621582 25.11392211914062 102.8850784301758 22.27499389648438 100.3049697875977 19.69488525390625 C 97.72486114501953 17.11477661132812 94.88593292236328 14.77243041992188 91.86704254150391 12.73290252685547 C 88.81996917724609 10.67435455322266 85.56278991699219 8.9063720703125 82.18595886230469 7.478103637695312 C 75.16064453125 4.506645202636719 67.69618988037109 2.999992370605469 59.99993515014648 2.999992370605469 M 59.99993515014648 -7.62939453125e-06 C 93.13697052001953 -7.62939453125e-06 119.9998626708984 26.86288452148438 119.9998626708984 59.99991989135742 L 119.9998626708984 60.00008392333984 C 119.9998626708984 93.13711547851562 93.13697052001953 119.9999771118164 59.99993515014648 119.9999771118164 C 26.86287689208984 119.9999771118164 -7.62939453125e-06 93.13711547851562 -7.62939453125e-06 60.00008392333984 L -7.62939453125e-06 59.99991989135742 C -7.62939453125e-06 26.86288452148438 26.86287689208984 -7.62939453125e-06 59.99993515014648 -7.62939453125e-06 Z" stroke="none" fill="#fff"/>
                </g>
              </g>
              <g id="Rectángulo_400907" data-name="Rectángulo 400907" transform="translate(0)" fill="none" stroke="#fff" stroke-width="3">
                <rect width="120" height="120" rx="60" stroke="none"/>
                <rect x="1.5" y="1.5" width="117" height="117" rx="58.5" fill="none"/>
              </g>
            </g>
          </g>
        </g>
      </g>
    </g>
    <g id="solution-process_14781858" transform="translate(601.778 923.378)">
      <g id="Grupo_1199884" data-name="Grupo 1199884" transform="translate(7.151 7.5)">
        <path id="Trazado_1032146" data-name="Trazado 1032146" d="M313.495,297.3c0,8.052-8.221,16.064-16.288,16.064a9.6,9.6,0,0,1-7.385-3.171,14.6,14.6,0,0,1,19.664-19.59C311.476,292.551,313.495,294.92,313.495,297.3Z" transform="translate(-250.21 -250.922)" fill="#ffe177"/>
        <path id="Trazado_1032147" data-name="Trazado 1032147" d="M327.562,313.747a14.612,14.612,0,0,1-27.631,6.6A14.59,14.59,0,0,0,319.6,300.76,14.573,14.573,0,0,1,327.562,313.747Z" transform="translate(-260.318 -261.082)" fill="#ffd15b"/>
        <path id="Trazado_1032148" data-name="Trazado 1032148" d="M341.984,327.526a.542.542,0,0,0-.739-.2l-1.2.693a.537.537,0,0,1-.6-.038,8,8,0,0,0-1.812-1.045.539.539,0,0,1-.33-.5v-1.379a.541.541,0,0,0-.541-.541h-4.35a.541.541,0,0,0-.541.541v1.379a.539.539,0,0,1-.33.5,7.987,7.987,0,0,0-1.81,1.045.537.537,0,0,1-.6.038l-1.2-.693a.542.542,0,0,0-.739.2l-2.174,3.759a.541.541,0,0,0,.2.74l1.2.691a.537.537,0,0,1,.265.54,7.831,7.831,0,0,0,0,2.074.537.537,0,0,1-.265.54l-1.2.691a.541.541,0,0,0-.2.74l2.174,3.757a.542.542,0,0,0,.739.2l1.2-.693a.537.537,0,0,1,.6.038,7.94,7.94,0,0,0,1.81,1.046.536.536,0,0,1,.317.377s1.855.837,2.73.46c5.094-2.2,8.569-11.385,8.569-11.385.177-.757-.062-1.082-.381-2.2Zm-7.393,11.143a4.376,4.376,0,1,1,4.384-4.377A4.381,4.381,0,0,1,334.592,338.67Z" transform="translate(-281.954 -281.628)" fill="#73788c"/>
        <path id="Trazado_1032149" data-name="Trazado 1032149" d="M388.317,365.292l-2.173,3.757a.542.542,0,0,1-.739.2l-1.2-.693a.537.537,0,0,0-.6.038,7.948,7.948,0,0,1-1.812,1.046.539.539,0,0,0-.33.5v1.379a.541.541,0,0,1-.541.541h-4.35a.541.541,0,0,1-.541-.541v-1.379a.512.512,0,0,0-.014-.12,14.591,14.591,0,0,0,10.917-13.127l1.38,2.385a.542.542,0,0,1-.2.74l-1.2.691a.54.54,0,0,0-.267.54,7.937,7.937,0,0,1,.069,1.036,8.041,8.041,0,0,1-.069,1.043.537.537,0,0,0,.265.534l1.2.691A.54.54,0,0,1,388.317,365.292Z" transform="translate(-326.113 -309.618)" fill="#5e6577"/>
        <path id="Trazado_1032150" data-name="Trazado 1032150" d="M34.169,18.414c0,8.05-7.723,15.141-15.791,15.141a12.754,12.754,0,0,1-9.109-3.913A14.6,14.6,0,0,1,29.36,9.631C31.78,12.087,34.169,15.645,34.169,18.414Z" transform="translate(-7.151 -7.501)" fill="#fe93bb"/>
        <path id="Trazado_1032151" data-name="Trazado 1032151" d="M49.9,35.689A14.613,14.613,0,0,1,22.8,43.252,14.59,14.59,0,0,0,42.893,23.24,14.562,14.562,0,0,1,49.9,35.689Z" transform="translate(-20.684 -21.11)" fill="#fe76a8"/>
        <path id="Trazado_1032152" data-name="Trazado 1032152" d="M314.115,17.267c0,8.05-6.949,16.35-15.016,16.35a13.851,13.851,0,0,1-8.743-3.976A14.6,14.6,0,0,1,310.449,9.628C312.781,12.024,314.115,14.5,314.115,17.267Z" transform="translate(-250.21 -7.5)" fill="#bbf49b"/>
        <path id="Trazado_1032153" data-name="Trazado 1032153" d="M330.977,35.68a14.614,14.614,0,0,1-27.1,7.562A14.589,14.589,0,0,0,323.973,23.23,14.559,14.559,0,0,1,330.977,35.68Z" transform="translate(-263.734 -21.102)" fill="#9be69d"/>
        <path id="Trazado_1032154" data-name="Trazado 1032154" d="M335.678,41.33c0,8.05-5.15,13.558-13.216,13.558-.134,0-2.024-.421-2.158-.426a11.034,11.034,0,1,1,15-14.938C335.308,39.645,335.678,41.207,335.678,41.33Z" transform="translate(-272.951 -30.198)" fill="#eaf6ff"/>
        <path id="Trazado_1032155" data-name="Trazado 1032155" d="M373.464,81.674a11.054,11.054,0,0,1-16.333,9.685c.134.005.267.007.4.007a14.592,14.592,0,0,0,14.606-14.577c0-.123,0-.246-.005-.368A10.958,10.958,0,0,1,373.464,81.674Z" transform="translate(-309.779 -67.095)" fill="#d8ecfe"/>
        <path id="Trazado_1032156" data-name="Trazado 1032156" d="M34.8,300.865c0,8.05-8.19,14.55-16.257,14.55-2.787,0-6.3-1.955-8.58-4.266a14.6,14.6,0,0,1,20.1-20.007h0C32.54,293.73,34.8,298.1,34.8,300.865Z" transform="translate(-7.755 -250.922)" fill="#8ac9fe"/>
        <path id="Trazado_1032157" data-name="Trazado 1032157" d="M50.595,317.223A14.551,14.551,0,0,1,44.457,329.1s-5.217,2.111-8.374,2.111-8.562-2.111-8.562-2.111a14.65,14.65,0,0,1-4.021-4.317A14.59,14.59,0,0,0,43.6,304.78,14.559,14.559,0,0,1,50.595,317.223Z" transform="translate(-21.289 -264.558)" fill="#60b7ff"/>
        <path id="Trazado_1032158" data-name="Trazado 1032158" d="M65.641,323.787c0,1.867-1.282,5.926-3.345,4.419-.5-.07-1.44-.03-1.44.122,0,.318.438.244.622.635a.984.984,0,0,1,.081.43,3.479,3.479,0,1,1-6.958,0,3.371,3.371,0,0,1,.055-.612,3.753,3.753,0,0,1,1.992-6.59,2.984,2.984,0,0,1,5.08-1.694,2.969,2.969,0,0,1,1.438-.808A4.459,4.459,0,0,1,65.641,323.787Z" transform="translate(-47.083 -277.381)" fill="#d78878"/>
        <path id="Trazado_1032159" data-name="Trazado 1032159" d="M123.554,328.782a3.373,3.373,0,0,1,.055.612,3.479,3.479,0,0,1-6.958,0c0-.89.7-.662.7-1.065,0-.055-.124-.1-.306-.122a7.115,7.115,0,0,0,.871-8.517,2.927,2.927,0,0,1,.685-.08,2.984,2.984,0,0,1,2.958,2.582,3.753,3.753,0,0,1,1.992,6.59Z" transform="translate(-101.836 -277.382)" fill="#ca6e59"/>
        <path id="Trazado_1032160" data-name="Trazado 1032160" d="M93.962,421.389l.962.992a7.181,7.181,0,0,1-8,.165l.719-1.144.628-.15a.644.644,0,0,0,.5-.626V417.58h4.131v3.046a.643.643,0,0,0,.5.626Z" transform="translate(-76.126 -362.097)" fill="#ffb09e"/>
        <path id="Trazado_1032161" data-name="Trazado 1032161" d="M70.156,449.721v1.261a14.632,14.632,0,0,1-16.935,0v-1.261a3.448,3.448,0,0,1,2.652-3.353l2.626-.625.843.794a3.55,3.55,0,0,0,4.692,0l.789-.808,2.68.639a3.488,3.488,0,0,1,.877.34,3.445,3.445,0,0,1,1.776,3.013Z" transform="translate(-46.988 -386.438)" fill="#eaf6ff"/>
        <path id="Trazado_1032162" data-name="Trazado 1032162" d="M93.606,372.09l-.94.731a2.475,2.475,0,0,1-3.038,0l-.94-.731a3.622,3.622,0,0,1-1.4-2.859v-3.556a1.421,1.421,0,0,1,1.873-1.346l.873.291a3.511,3.511,0,0,0,2.225,0l.873-.291A1.421,1.421,0,0,1,95,365.675v3.556A3.623,3.623,0,0,1,93.606,372.09Z" transform="translate(-76.446 -315.986)" fill="#ffcebf"/>
        <path id="Trazado_1032163" data-name="Trazado 1032163" d="M347.162,91.295,344.1,88.236a1.846,1.846,0,0,1,0-2.614h0a1.852,1.852,0,0,1,2.615,0l1.759,1.755,5.467-5.476a1.852,1.852,0,0,1,2.618,0h0a1.845,1.845,0,0,1,0,2.611l-6.78,6.783A1.852,1.852,0,0,1,347.162,91.295Z" transform="translate(-298.039 -71.365)" fill="#bbf49b"/>
        <g id="Grupo_1199882" data-name="Grupo 1199882" transform="translate(29.784 29.617)">
          <path id="Trazado_1032164" data-name="Trazado 1032164" d="M234.726,230.31a3.42,3.42,0,0,1-3.684,3.537,3.744,3.744,0,0,1-3.716-2.988,3.912,3.912,0,0,1,3.87-4.461,3.9,3.9,0,0,1,1.5.3A4.3,4.3,0,0,1,234.726,230.31Z" transform="translate(-227.287 -226.398)" fill="#ffe177"/>
          <path id="Trazado_1032165" data-name="Trazado 1032165" d="M235.362,232.213a3.908,3.908,0,0,1-7.778.552,3.907,3.907,0,0,0,5.368-4.163A3.908,3.908,0,0,1,235.362,232.213Z" transform="translate(-227.544 -228.305)" fill="#ffd15b"/>
        </g>
        <g id="Grupo_1199883" data-name="Grupo 1199883" transform="translate(7.273 3.19)">
          <path id="Trazado_1032166" data-name="Trazado 1032166" d="M74.407,39.3c0,3.958-4.158,7.788-8.2,7.788-.613,0-1.275.416-2.345-1.164a8.6,8.6,0,0,0-1.059-1.862,7.333,7.333,0,0,1,4.138-12.142C72.495,31.922,74.407,35.781,74.407,39.3Z" transform="translate(-60.906 -31.808)" fill="#ffe177"/>
          <path id="Trazado_1032167" data-name="Trazado 1032167" d="M93.045,38.409a7.307,7.307,0,0,1-1.866,4.886A8.854,8.854,0,0,0,89.4,48.574v.458l-7.383.024v-.4a12.394,12.394,0,0,0-.908-4.034,7.425,7.425,0,0,0,1.777.214c4.04,0,7.539-2.631,7.539-6.589a7.21,7.21,0,0,0-6.012-7.052,7.338,7.338,0,0,1,8.628,7.219Z" transform="translate(-78.379 -31.076)" fill="#ffd15b"/>
          <path id="Trazado_1032168" data-name="Trazado 1032168" d="M93.474,161.749l1.148,2.241c0,1.216-.729,2.241-3.348,2.241H90.7a2.2,2.2,0,0,1-2.2-2.2v-2.281h4.977Z" transform="translate(-84.764 -144.069)" fill="#5e6577"/>
          <path id="Trazado_1032169" data-name="Trazado 1032169" d="M113.442,161.75v2.281a2.2,2.2,0,0,1-2.2,2.2h-2.221a2.2,2.2,0,0,0,2.2-2.2V161.75Z" transform="translate(-102.509 -144.07)" fill="#4d5263"/>
          <path id="Trazado_1032170" data-name="Trazado 1032170" d="M82.042,143.151c0,.487.3,1.04,0,1.36a8.867,8.867,0,0,1-2.943.7H73.684a1.7,1.7,0,0,1-1.635-1.765,1.839,1.839,0,0,1,.478-1.249,1.576,1.576,0,0,1,1.156-.517H79.1C80,141.679,82.042,142.176,82.042,143.151Z" transform="translate(-70.541 -126.715)" fill="#73788c"/>
          <path id="Trazado_1032171" data-name="Trazado 1032171" d="M128.756,143.444a1.836,1.836,0,0,1-.478,1.248,1.576,1.576,0,0,1-1.156.517h-2.966a1.573,1.573,0,0,0,1.156-.517,1.836,1.836,0,0,0,.478-1.248,1.7,1.7,0,0,0-1.635-1.766h2.966A1.7,1.7,0,0,1,128.756,143.444Z" transform="translate(-115.598 -126.714)" fill="#5e6577"/>
        </g>
      </g>
      <g id="Grupo_1199889" data-name="Grupo 1199889" transform="translate(7.245 7.5)">
        <g id="Grupo_1199888" data-name="Grupo 1199888" transform="translate(0 0)">
          <line id="Línea_870" data-name="Línea 870" x1="5.528" y2="5.517" transform="translate(25.167 36.495)" fill="none" stroke="#000" stroke-linecap="round" stroke-linejoin="round" stroke-miterlimit="10" stroke-width="1.3"/>
          <line id="Línea_871" data-name="Línea 871" x1="5.76" y2="5.749" transform="translate(36.455 24.997)" fill="none" stroke="#000" stroke-linecap="round" stroke-linejoin="round" stroke-miterlimit="10" stroke-width="1.3"/>
          <line id="Línea_872" data-name="Línea 872" x1="5.812" y1="5.801" transform="translate(24.883 24.946)" fill="none" stroke="#000" stroke-linecap="round" stroke-linejoin="round" stroke-miterlimit="10" stroke-width="1.3"/>
          <line id="Línea_873" data-name="Línea 873" x1="5.908" y1="5.897" transform="translate(36.319 36.359)" fill="none" stroke="#000" stroke-linecap="round" stroke-linejoin="round" stroke-miterlimit="10" stroke-width="1.3"/>
          <path id="Trazado_1032172" data-name="Trazado 1032172" d="M229.131,429.284a24.439,24.439,0,0,1-9.914.048" transform="translate(-190.619 -372.217)" fill="none" stroke="#000" stroke-linecap="round" stroke-linejoin="round" stroke-miterlimit="10" stroke-width="1.3"/>
          <path id="Trazado_1032173" data-name="Trazado 1032173" d="M429.448,218.419a24.292,24.292,0,0,1-.057,10.16" transform="translate(-372.357 -189.882)" fill="none" stroke="#000" stroke-linecap="round" stroke-linejoin="round" stroke-miterlimit="10" stroke-width="1.3"/>
          <path id="Trazado_1032174" data-name="Trazado 1032174" d="M218.118,77.278a24.433,24.433,0,0,1,10.158.038" transform="translate(-189.669 -67.392)" fill="none" stroke="#000" stroke-linecap="round" stroke-linejoin="round" stroke-miterlimit="10" stroke-width="1.3"/>
          <path id="Trazado_1032175" data-name="Trazado 1032175" d="M77.018,228.389a24.29,24.29,0,0,1-.068-10.3" transform="translate(-67.153 -189.6)" fill="none" stroke="#000" stroke-linecap="round" stroke-linejoin="round" stroke-miterlimit="10" stroke-width="1.3"/>
          <path id="Trazado_1032176" data-name="Trazado 1032176" d="M317.183,306.4a14.58,14.58,0,1,1,.1-5.039" transform="translate(-250.307 -250.92)" fill="none" stroke="#000" stroke-linecap="round" stroke-linejoin="round" stroke-miterlimit="10" stroke-width="1.3"/>
          <g id="Grupo_1199885" data-name="Grupo 1199885" transform="translate(42.705 42.892)">
            <path id="Trazado_1032177" data-name="Trazado 1032177" d="M341.3,334.293a7.983,7.983,0,0,0-.124-1.393l1.988-1.146-2.716-4.7-1.988,1.146a7.969,7.969,0,0,0-2.417-1.4V324.52h-5.432v2.289a7.968,7.968,0,0,0-2.417,1.4l-1.989-1.146-2.716,4.7,1.988,1.146a7.872,7.872,0,0,0,0,2.786l-1.988,1.146,2.716,4.7,1.989-1.146a7.97,7.97,0,0,0,2.417,1.4v2.289h5.432v-2.289a7.97,7.97,0,0,0,2.417-1.4l1.988,1.146,2.716-4.7-1.988-1.146A7.983,7.983,0,0,0,341.3,334.293Z" transform="translate(-323.484 -324.52)" fill="none" stroke="#000" stroke-linecap="round" stroke-linejoin="round" stroke-miterlimit="10" stroke-width="1.3"/>
            <ellipse id="Elipse_12172" data-name="Elipse 12172" cx="4.385" cy="4.376" rx="4.385" ry="4.376" transform="translate(5.454 5.397)" fill="none" stroke="#000" stroke-linecap="round" stroke-linejoin="round" stroke-miterlimit="10" stroke-width="1.3"/>
          </g>
          <path id="Trazado_1032178" data-name="Trazado 1032178" d="M8.581,19.5a14.579,14.579,0,1,1-.039,4.922" transform="translate(-8.448 -7.5)" fill="none" stroke="#000" stroke-linecap="round" stroke-linejoin="round" stroke-miterlimit="10" stroke-width="1.3"/>
          <ellipse id="Elipse_12173" data-name="Elipse 12173" cx="14.606" cy="14.578" rx="14.606" ry="14.578" transform="translate(37.937)" fill="none" stroke="#000" stroke-linecap="round" stroke-linejoin="round" stroke-miterlimit="10" stroke-width="1.3"/>
          <path id="Trazado_1032179" data-name="Trazado 1032179" d="M323.221,55.546a11.048,11.048,0,1,1,4.736,0" transform="translate(-273.046 -30.195)" fill="none" stroke="#000" stroke-linecap="round" stroke-linejoin="round" stroke-miterlimit="10" stroke-width="1.3"/>
          <ellipse id="Elipse_12174" data-name="Elipse 12174" cx="3.9" cy="3.893" rx="3.9" ry="3.893" transform="translate(29.674 29.592)" fill="none" stroke="#000" stroke-linecap="round" stroke-linejoin="round" stroke-miterlimit="10" stroke-width="1.3"/>
          <g id="Grupo_1199886" data-name="Grupo 1199886" transform="translate(0 38.088)">
            <path id="Trazado_1032180" data-name="Trazado 1032180" d="M19.993,317.958a14.607,14.607,0,1,1,4.735.031" transform="translate(-7.849 -289.008)" fill="none" stroke="#000" stroke-linecap="round" stroke-linejoin="round" stroke-miterlimit="10" stroke-width="1.3"/>
            <path id="Trazado_1032181" data-name="Trazado 1032181" d="M58.623,332.823a3.517,3.517,0,0,1-.541.042,3.476,3.476,0,0,1-3.479-3.473,3.4,3.4,0,0,1,.055-.611,3.753,3.753,0,0,1,1.992-6.59,2.984,2.984,0,0,1,5.08-1.695,2.984,2.984,0,0,1,5.08,1.695,3.753,3.753,0,0,1,1.992,6.59,3.4,3.4,0,0,1,.055.611,3.476,3.476,0,0,1-3.479,3.473,3.539,3.539,0,0,1-.451-.029" transform="translate(-47.178 -315.469)" fill="none" stroke="#000" stroke-linecap="round" stroke-linejoin="round" stroke-miterlimit="10" stroke-width="1.3"/>
            <path id="Trazado_1032182" data-name="Trazado 1032182" d="M59.619,425.536v1.969a.645.645,0,0,1-.5.627l-3.254.774a3.455,3.455,0,0,0-1.627.9h0a3.445,3.445,0,0,0-1.026,2.452v.855" transform="translate(-47.079 -407.064)" fill="none" stroke="#000" stroke-linecap="round" stroke-linejoin="round" stroke-miterlimit="10" stroke-width="1.3"/>
            <path id="Trazado_1032183" data-name="Trazado 1032183" d="M131.068,425.536v1.969a.645.645,0,0,0,.5.627l3.254.774a3.455,3.455,0,0,1,1.627.9h0a3.445,3.445,0,0,1,1.026,2.452v.955" transform="translate(-114.397 -407.064)" fill="none" stroke="#000" stroke-linecap="round" stroke-linejoin="round" stroke-miterlimit="10" stroke-width="1.3"/>
            <path id="Trazado_1032184" data-name="Trazado 1032184" d="M93.23,447.09l.708.624a3.549,3.549,0,0,0,4.692,0l.708-.624" transform="translate(-81.678 -425.702)" fill="none" stroke="#000" stroke-linecap="round" stroke-linejoin="round" stroke-miterlimit="10" stroke-width="1.3"/>
            <path id="Trazado_1032185" data-name="Trazado 1032185" d="M93.606,372.09l-.94.731a2.475,2.475,0,0,1-3.038,0l-.94-.731a3.622,3.622,0,0,1-1.4-2.859v-3.556a1.421,1.421,0,0,1,1.873-1.346l.873.291a3.511,3.511,0,0,0,2.225,0l.873-.291A1.421,1.421,0,0,1,95,365.675v3.556A3.623,3.623,0,0,1,93.606,372.09Z" transform="translate(-76.541 -354.074)" fill="none" stroke="#000" stroke-linecap="round" stroke-linejoin="round" stroke-miterlimit="10" stroke-width="1.3"/>
          </g>
          <g id="Grupo_1199887" data-name="Grupo 1199887" transform="translate(7.411 3.551)">
            <path id="Trazado_1032186" data-name="Trazado 1032186" d="M65.729,48.024a8.361,8.361,0,0,0-1.265-2.447,7.1,7.1,0,1,1,10.555-.036,8.729,8.729,0,0,0-1.3,2.483" transform="translate(-62.625 -33.746)" fill="none" stroke="#000" stroke-linecap="round" stroke-linejoin="round" stroke-miterlimit="10" stroke-width="1.3"/>
            <line id="Línea_874" data-name="Línea 874" y1="5.21" transform="translate(7.1 8.994)" fill="none" stroke="#000" stroke-linecap="round" stroke-linejoin="round" stroke-miterlimit="10" stroke-width="1.3"/>
            <path id="Trazado_1032187" data-name="Trazado 1032187" d="M96.314,166.359v.755a2.7,2.7,0,0,1-2.7,2.7h-1.57a2.7,2.7,0,0,1-2.7-2.7v-.732" transform="translate(-85.728 -148.417)" fill="none" stroke="#000" stroke-linecap="round" stroke-linejoin="round" stroke-miterlimit="10" stroke-width="1.3"/>
            <path id="Trazado_1032188" data-name="Trazado 1032188" d="M84.535,142.629H77.568a1.845,1.845,0,0,1-1.845-1.845h0a1.844,1.844,0,0,1,1.845-1.845h6.967a1.844,1.844,0,0,1,1.845,1.845h0A1.845,1.845,0,0,1,84.535,142.629Z" transform="translate(-73.951 -124.707)" fill="none" stroke="#000" stroke-linecap="round" stroke-linejoin="round" stroke-miterlimit="10" stroke-width="1.3"/>
            <line id="Línea_875" data-name="Línea 875" x2="4.546" transform="translate(4.922 8.983)" fill="none" stroke="#000" stroke-linecap="round" stroke-linejoin="round" stroke-miterlimit="10" stroke-width="1.3"/>
          </g>
          <path id="Trazado_1032189" data-name="Trazado 1032189" d="M347.162,91.295,344.1,88.236a1.846,1.846,0,0,1,0-2.614h0a1.852,1.852,0,0,1,2.615,0l1.759,1.755,5.467-5.476a1.852,1.852,0,0,1,2.618,0h0a1.845,1.845,0,0,1,0,2.611l-6.78,6.783A1.852,1.852,0,0,1,347.162,91.295Z" transform="translate(-298.133 -71.365)" fill="none" stroke="#000" stroke-linecap="round" stroke-linejoin="round" stroke-miterlimit="10" stroke-width="1.3"/>
          <path id="Trazado_1032190" data-name="Trazado 1032190" d="M248.929,414.9l2.449,2.443-2.521,2.515" transform="translate(-216.249 -359.777)" fill="none" stroke="#000" stroke-linecap="round" stroke-linejoin="round" stroke-miterlimit="10" stroke-width="1.3"/>
          <path id="Trazado_1032191" data-name="Trazado 1032191" d="M247.314,63.4l-2.449-2.443,2.521-2.515" transform="translate(-212.797 -51.55)" fill="none" stroke="#000" stroke-linecap="round" stroke-linejoin="round" stroke-miterlimit="10" stroke-width="1.3"/>
          <path id="Trazado_1032192" data-name="Trazado 1032192" d="M416.391,246.144l2.448-2.444,2.52,2.516" transform="translate(-361.116 -211.742)" fill="none" stroke="#000" stroke-linecap="round" stroke-linejoin="round" stroke-miterlimit="10" stroke-width="1.3"/>
          <path id="Trazado_1032193" data-name="Trazado 1032193" d="M64.218,247.757,61.771,250.2l-2.52-2.516" transform="translate(-52.296 -215.188)" fill="none" stroke="#000" stroke-linecap="round" stroke-linejoin="round" stroke-miterlimit="10" stroke-width="1.3"/>
        </g>
      </g>
    </g>
  </g>
</svg>
