<svg xmlns="http://www.w3.org/2000/svg" width="77.473" height="75" viewBox="0 0 77.473 75">
  <g id="bitcoin_8601642_1_" data-name="bitcoin_8601642 (1)" transform="translate(-1 -2)">
    <path id="Trazado_1031621" data-name="Trazado 1031621" d="M48.467,50.479c.15-.137.3-.275.437-.412a18.823,18.823,0,0,0,5.571-13.2,18.512,18.512,0,0,0-1.362-7.145A18.716,18.716,0,0,0,35.875,18a18.746,18.746,0,0,0-13.291,5.4,18.744,18.744,0,0,0-.175,26.495c.2.2.4.4.6.587" transform="translate(3.987 3.986)" fill="#ffc843"/>
    <circle id="Elipse_12153" data-name="Elipse 12153" cx="13.741" cy="13.741" r="13.741" transform="translate(25.983 26.983)" fill="#f7931b"/>
    <path id="Trazado_1031622" data-name="Trazado 1031622" d="M71.222,44.02V66.48H44.166a37.069,37.069,0,0,0-4.7-14.1C36.758,47.817,33.385,45.069,30,44.22v-.2Z" transform="translate(7.226 10.47)" fill="#6acc72"/>
    <g id="Grupo_1199662" data-name="Grupo 1199662" transform="translate(1 39.463)">
      <path id="Trazado_1031623" data-name="Trazado 1031623" d="M1,66.485V44H35.977c3.9.375,7.87,2.736,11.005,6.983a27.9,27.9,0,0,1,5.209,15.5Z" transform="translate(-1 -28.998)" fill="#006837"/>
      <path id="Trazado_1031624" data-name="Trazado 1031624" d="M10.747,36H12v1.249A3.742,3.742,0,0,1,8.249,41H7V39.748A3.742,3.742,0,0,1,10.747,36Z" transform="translate(0.495 -30.991)" fill="#006837"/>
      <path id="Trazado_1031625" data-name="Trazado 1031625" d="M0,0H1.249A3.742,3.742,0,0,1,5,3.748V5H3.748A3.742,3.742,0,0,1,0,1.249Z" transform="translate(7.495 9.993) rotate(180)" fill="#006837"/>
      <path id="Trazado_1031626" data-name="Trazado 1031626" d="M10.747,32H12v1.249A3.742,3.742,0,0,1,8.249,37H7V35.748A3.742,3.742,0,0,1,10.747,32Z" transform="translate(0.495 -31.988)" fill="#006837"/>
      <path id="Trazado_1031627" data-name="Trazado 1031627" d="M0,0H1.249A3.742,3.742,0,0,1,5,3.748V5H3.748A3.742,3.742,0,0,1,0,1.249Z" transform="translate(7.495 4.997) rotate(180)" fill="#006837"/>
      <path id="Trazado_1031628" data-name="Trazado 1031628" d="M60.748,36H62v1.249A3.742,3.742,0,0,1,58.249,41H57V39.748A3.742,3.742,0,0,1,60.748,36Z" transform="translate(12.953 -30.991)" fill="#006837"/>
      <path id="Trazado_1031629" data-name="Trazado 1031629" d="M0,0H1.249A3.742,3.742,0,0,1,5,3.748V5H3.748A3.742,3.742,0,0,1,0,1.249Z" transform="translate(69.953 9.993) rotate(180)" fill="#006837"/>
      <path id="Trazado_1031630" data-name="Trazado 1031630" d="M60.748,32H62v1.249A3.742,3.742,0,0,1,58.249,37H57V35.748A3.742,3.742,0,0,1,60.748,32Z" transform="translate(12.953 -31.988)" fill="#006837"/>
      <path id="Trazado_1031631" data-name="Trazado 1031631" d="M0,0H1.249A3.742,3.742,0,0,1,5,3.748V5H3.748A3.742,3.742,0,0,1,0,1.249Z" transform="translate(69.953 4.997) rotate(180)" fill="#006837"/>
    </g>
    <path id="Trazado_1031632" data-name="Trazado 1031632" d="M3.01,50.484a26.582,26.582,0,0,1,4.972,14.8l2.5-.075a28.85,28.85,0,0,0-5.459-16.2L3.01,50.5Z" transform="translate(0.501 11.713)"/>
    <path id="Trazado_1031633" data-name="Trazado 1031633" d="M38.835,30.124l.974-2.3-2.3-.974-.974,2.3-1.149-.487.974-2.3-2.3-.974-.974,2.3L31.939,27.2h0L28.492,25.74l-.974,2.3,2.3.974L28.354,32.46l-1.462,3.448-2.3-.974-.974,2.3,3.448,1.462,1.149.487-.974,2.3,2.3.974.974-2.3,1.149.487-.974,2.3,2.3.974.974-2.3a3.75,3.75,0,0,0,4.922-1.986,3.733,3.733,0,0,0,.087-2.673,3.745,3.745,0,0,0-.112-6.845Zm-6.721-.137,5.746,2.436a1.248,1.248,0,1,1-.974,2.3L31.14,32.285Zm4.46,8.682a1.238,1.238,0,0,1-1.636.662l-5.746-2.436.974-2.3,5.746,2.436a1.238,1.238,0,0,1,.662,1.636Z" transform="translate(5.636 5.828)"/>
    <path id="Trazado_1031634" data-name="Trazado 1031634" d="M41.59,28.521a1.248,1.248,0,1,0,1.636-.662A1.238,1.238,0,0,0,41.59,28.521Z" transform="translate(10.088 6.419)"/>
    <path id="Trazado_1031635" data-name="Trazado 1031635" d="M72.2,46.981a5,5,0,0,0,5-5V40.735a1.269,1.269,0,0,0-.749-1.149,5.006,5.006,0,0,0,.749-2.6V35.738a1.253,1.253,0,0,0-1.249-1.249H74.7v-2.5H72.2v3.2a4.981,4.981,0,0,0-1.249,1.037A4.981,4.981,0,0,0,69.7,35.189v-3.2h-2.5v2.5H65.957a1.253,1.253,0,0,0-1.249,1.249v1.249a4.939,4.939,0,0,0,.749,2.6,1.243,1.243,0,0,0-.749,1.149v1.249a5,5,0,0,0,5,5v2.511H55.3a20.163,20.163,0,0,0,4.41-12.354,19.958,19.958,0,0,0-5.759-14.191A20.225,20.225,0,0,0,39.874,17a19.376,19.376,0,0,0-7.632,1.449,19.867,19.867,0,0,0-6.546,4.3,19.938,19.938,0,0,0-4.5,21.711,19.646,19.646,0,0,0,2.948,5.009H9.744V46.956a5,5,0,0,0,5-5V40.71a1.269,1.269,0,0,0-.75-1.149,5.006,5.006,0,0,0,.75-2.6V35.713a1.253,1.253,0,0,0-1.249-1.249H12.242v-2.5h-2.5v3.2A4.981,4.981,0,0,0,8.495,36.2a4.981,4.981,0,0,0-1.249-1.037v-3.2h-2.5v2.5H3.5a1.253,1.253,0,0,0-1.249,1.249v1.249A4.939,4.939,0,0,0,3,39.561a1.243,1.243,0,0,0-.75,1.149v1.249a5,5,0,0,0,5,5v2.511H1v2.5H3.423c3.685.362,7.27,2.661,10.081,6.483a26.541,26.541,0,0,1,4.972,14.79l2.5-.075a28.85,28.85,0,0,0-5.459-16.2,20.712,20.712,0,0,0-5.159-5h4.31c3.685.362,7.27,2.661,10.081,6.483a26.541,26.541,0,0,1,4.972,14.79l2.5-.075a28.85,28.85,0,0,0-5.459-16.2,20.712,20.712,0,0,0-5.159-5h3.06c3.685.362,7.27,2.661,10.081,6.483a26.541,26.541,0,0,1,4.972,14.79l2.5-.075a28.85,28.85,0,0,0-5.459-16.2,20.712,20.712,0,0,0-5.159-5H35.9c3.685.362,7.27,2.661,10.081,6.483a26.541,26.541,0,0,1,4.972,14.79l2.5-.075c-.025-.824-.1-1.649-.187-2.461h25.2V68.2h-25.6a28.976,28.976,0,0,0-.987-3.747H78.461v-2.5H50.892a28.465,28.465,0,0,0-2.036-3.747H78.473v-2.5H47.007a19.73,19.73,0,0,0-4.16-3.747H78.473v-2.5H72.227V46.956Zm0-2.5a2.506,2.506,0,0,1,2.5-2.5A2.506,2.506,0,0,1,72.2,44.482Zm2.5-7.495a2.506,2.506,0,0,1-2.5,2.5A2.506,2.506,0,0,1,74.7,36.987Zm-5,2.5a2.506,2.506,0,0,1-2.5-2.5A2.506,2.506,0,0,1,69.7,39.486Zm-2.5,2.5a2.506,2.506,0,0,1,2.5,2.5A2.506,2.506,0,0,1,67.206,41.984Zm-57.462,2.5a2.506,2.506,0,0,1,2.5-2.5A2.506,2.506,0,0,1,9.744,44.482Zm2.5-7.495a2.506,2.506,0,0,1-2.5,2.5A2.506,2.506,0,0,1,12.242,36.987Zm-5,2.5a2.506,2.506,0,0,1-2.5-2.5A2.506,2.506,0,0,1,7.246,39.486Zm-2.5,2.5a2.506,2.506,0,0,1,2.5,2.5A2.506,2.506,0,0,1,4.747,41.984Zm25.221,6.383a14.382,14.382,0,0,0,1.487,1.112H28.831Zm19.362.125.974.987h-2.3a12.848,12.848,0,0,0,1.312-.987Zm6.608-18.063a17.425,17.425,0,0,1,1.224,5.421l-3.685-.025v2.5l3.673.025A17.624,17.624,0,0,1,52.865,48.5l-1.749-1.761a15.027,15.027,0,0,0,2.423-3.9l-2.3-.974a12.49,12.49,0,0,1-23-9.756,12.488,12.488,0,0,1,16.377-6.608l.974-2.3a15.129,15.129,0,0,0-4.509-1.124V19.6a17.661,17.661,0,0,1,10.181,4.285l-2.623,2.586L50.4,28.243l2.623-2.586a17.808,17.808,0,0,1,2.936,4.8Zm-30.017.687A14.76,14.76,0,0,0,24.8,35.626H22.3a17.527,17.527,0,0,1,4.3-10.181l1.749,1.774A15.027,15.027,0,0,0,25.921,31.116Zm7.258-10.356a16.621,16.621,0,0,1,5.409-1.237v2.5a15,15,0,0,0-8.469,3.435l-1.749-1.774a17.616,17.616,0,0,1,4.809-2.936ZM22.286,38.112h2.5a15,15,0,0,0,3.435,8.469L26.446,48.33a17.253,17.253,0,0,1-4.16-10.218Z" transform="translate(0 3.737)"/>
    <path id="Trazado_1031636" data-name="Trazado 1031636" d="M31,5h2.5v9.993H31Z" transform="translate(7.475 0.747)"/>
    <path id="Trazado_1031637" data-name="Trazado 1031637" d="M36,8h2.5v8.744H36Z" transform="translate(8.721 1.495)"/>
    <path id="Trazado_1031638" data-name="Trazado 1031638" d="M41,2h2.5V14.492H41Z" transform="translate(9.967)"/>
    <path id="Trazado_1031639" data-name="Trazado 1031639" d="M20,2h2.5V14.492H20Z" transform="translate(4.734)"/>
    <path id="Trazado_1031640" data-name="Trazado 1031640" d="M25,8h2.5v8.744H25Z" transform="translate(5.98 1.495)"/>
    <path id="Trazado_1031641" data-name="Trazado 1031641" d="M15,8h2.5V20.492H15Z" transform="translate(3.488 1.495)"/>
    <path id="Trazado_1031642" data-name="Trazado 1031642" d="M46,8h2.5V20.492H46Z" transform="translate(11.212 1.495)"/>
  </g>
</svg>
