<svg xmlns="http://www.w3.org/2000/svg" xmlns:xlink="http://www.w3.org/1999/xlink" width="138" height="138" viewBox="0 0 138 138">
  <defs>
    <filter id="Trazado_896985" x="0" y="0" width="138" height="138" filterUnits="userSpaceOnUse">
      <feOffset dy="3" input="SourceAlpha"/>
      <feGaussianBlur stdDeviation="3" result="blur"/>
      <feFlood flood-opacity="0.161"/>
      <feComposite operator="in" in2="blur"/>
      <feComposite in="SourceGraphic"/>
    </filter>
  </defs>
  <g id="Grupo_1199891" data-name="Grupo 1199891" transform="translate(-888.392 -898.943)">
    <g id="Grupo_1199765" data-name="Grupo 1199765" transform="translate(897.392 904.943)">
      <g id="Grupo_1199551" data-name="Grupo 1199551" transform="translate(0 0)">
        <g id="Grupo_1111318" data-name="Grupo 1111318" transform="translate(0)">
          <g id="Grupo_1109826" data-name="Grupo 1109826">
            <g id="Grupo_1098742" data-name="Grupo 1098742">
              <g transform="matrix(1, 0, 0, 1, -9, -6)" filter="url(#Trazado_896985)">
                <g id="Trazado_896985-2" data-name="Trazado 896985" transform="translate(9 6)" fill="#f1963d" opacity="0.859">
                  <path d="M 59.99993515014648 118.4999923706055 C 52.10183334350586 118.4999923706055 44.4407844543457 116.9534759521484 37.22958374023438 113.9033889770508 C 33.76353454589844 112.4373779296875 30.42043495178223 110.6227951049805 27.29311943054199 108.510009765625 C 24.19511795043945 106.4170455932617 21.28185272216797 104.0133743286133 18.63423538208008 101.3657608032227 C 15.98661804199219 98.7181396484375 13.58295154571533 95.80487823486328 11.48998546600342 92.70689392089844 C 9.377202033996582 89.57957458496094 7.562618255615234 86.23645782470703 6.096601963043213 82.77042388916016 C 3.046518564224243 75.55922698974609 1.500001788139343 67.89817810058594 1.500001788139343 60.00007629394531 C 1.500001788139343 52.10181045532227 3.046518564224243 44.44075775146484 6.096601963043213 37.22956085205078 C 7.562618255615234 33.76352691650391 9.377202033996582 30.42042541503906 11.48998546600342 27.29310989379883 C 13.58295154571533 24.19510841369629 15.98661804199219 21.2818431854248 18.63423538208008 18.63422584533691 C 21.28185272216797 15.98662567138672 24.19511795043945 13.58294200897217 27.29311943054199 11.48997592926025 C 30.42043495178223 9.377208709716797 33.76353454589844 7.562609195709229 37.22958374023438 6.096609115600586 C 44.4407844543457 3.046525716781616 52.10183334350586 1.500009059906006 59.99993515014648 1.500009059906006 C 67.89803314208984 1.500009059906006 75.55908203125 3.046525716781616 82.77028656005859 6.096609115600586 C 86.23633575439453 7.562609195709229 89.57943725585938 9.377208709716797 92.70674896240234 11.48997592926025 C 95.80474853515625 13.58294200897217 98.718017578125 15.98662567138672 101.3656387329102 18.63422584533691 C 104.0132522583008 21.2818431854248 106.4169158935547 24.19510841369629 108.5098876953125 27.29310989379883 C 110.6226654052734 30.42042541503906 112.4372482299805 33.76352691650391 113.9032669067383 37.22956085205078 C 116.9533538818359 44.44075775146484 118.499870300293 52.10181045532227 118.499870300293 59.99990844726562 C 118.499870300293 67.89817810058594 116.9533538818359 75.55922698974609 113.9032669067383 82.77042388916016 C 112.4372482299805 86.23645782470703 110.6226654052734 89.57957458496094 108.5098876953125 92.70689392089844 C 106.4169158935547 95.80487823486328 104.0132522583008 98.7181396484375 101.3656387329102 101.3657608032227 C 98.718017578125 104.0133743286133 95.80474853515625 106.4170455932617 92.70674896240234 108.510009765625 C 89.57943725585938 110.6227951049805 86.23633575439453 112.4373779296875 82.77028656005859 113.9033889770508 C 75.55908203125 116.9534759521484 67.89803314208984 118.4999923706055 59.99993515014648 118.4999923706055 Z" stroke="none"/>
                  <path d="M 59.99993515014648 2.999992370605469 C 52.30366516113281 2.999992370605469 44.83921051025391 4.506645202636719 37.81389617919922 7.478103637695312 C 34.43706512451172 8.9063720703125 31.17987823486328 10.67435455322266 28.13280487060547 12.73290252685547 C 25.11393737792969 14.77243041992188 22.27498626708984 17.11477661132812 19.69487762451172 19.69488525390625 C 17.11476898193359 22.27499389648438 14.77242279052734 25.11392211914062 12.73290252685547 28.1328125 C 10.67435455322266 31.17988586425781 8.9063720703125 34.43706512451172 7.478096008300781 37.81390380859375 C 4.506645202636719 44.83921051025391 2.999992370605469 52.30366516113281 2.999992370605469 60.00008392333984 C 2.999992370605469 67.69633483886719 4.506645202636719 75.16079711914062 7.478096008300781 82.18609619140625 C 8.9063720703125 85.56294250488281 10.67435455322266 88.82012176513672 12.73290252685547 91.86717224121094 C 14.77242279052734 94.88606262207031 17.11476898193359 97.72499084472656 19.69487762451172 100.3050994873047 C 22.27498626708984 102.8852081298828 25.11391448974609 105.2275543212891 28.13280487060547 107.2670669555664 C 31.17987823486328 109.3256301879883 34.43706512451172 111.0935897827148 37.81389617919922 112.5218658447266 C 44.83921051025391 115.4933166503906 52.30366516113281 116.9999771118164 59.99993515014648 116.9999771118164 C 67.69618988037109 116.9999771118164 75.16064453125 115.4933166503906 82.18595886230469 112.5218658447266 C 85.56278991699219 111.0935897827148 88.81996917724609 109.3256301879883 91.86704254150391 107.2670669555664 C 94.88593292236328 105.2275543212891 97.72486114501953 102.8852081298828 100.3049697875977 100.3050994873047 C 102.8850784301758 97.72499084472656 105.227424621582 94.88606262207031 107.2669525146484 91.86717224121094 C 109.3255004882812 88.82012176513672 111.0934829711914 85.56294250488281 112.5217514038086 82.18609619140625 C 115.4932098388672 75.16079711914062 116.9998626708984 67.69633483886719 116.9998626708984 59.99991989135742 C 116.9998626708984 52.30366516113281 115.4932098388672 44.83921051025391 112.5217514038086 37.81390380859375 C 111.0934829711914 34.43706512451172 109.3255004882812 31.17988586425781 107.2669525146484 28.1328125 C 105.227424621582 25.11392211914062 102.8850784301758 22.27499389648438 100.3049697875977 19.69488525390625 C 97.72486114501953 17.11477661132812 94.88593292236328 14.77243041992188 91.86704254150391 12.73290252685547 C 88.81996917724609 10.67435455322266 85.56278991699219 8.9063720703125 82.18595886230469 7.478103637695312 C 75.16064453125 4.506645202636719 67.69618988037109 2.999992370605469 59.99993515014648 2.999992370605469 M 59.99993515014648 -7.62939453125e-06 C 93.13697052001953 -7.62939453125e-06 119.9998626708984 26.86288452148438 119.9998626708984 59.99991989135742 L 119.9998626708984 60.00008392333984 C 119.9998626708984 93.13711547851562 93.13697052001953 119.9999771118164 59.99993515014648 119.9999771118164 C 26.86287689208984 119.9999771118164 -7.62939453125e-06 93.13711547851562 -7.62939453125e-06 60.00008392333984 L -7.62939453125e-06 59.99991989135742 C -7.62939453125e-06 26.86288452148438 26.86287689208984 -7.62939453125e-06 59.99993515014648 -7.62939453125e-06 Z" stroke="none" fill="#fff"/>
                </g>
              </g>
              <g id="Rectángulo_400907" data-name="Rectángulo 400907" transform="translate(0)" fill="none" stroke="#fff" stroke-width="3">
                <rect width="120" height="120" rx="60" stroke="none"/>
                <rect x="1.5" y="1.5" width="117" height="117" rx="58.5" fill="none"/>
              </g>
            </g>
          </g>
        </g>
      </g>
    </g>
    <g id="dartboard_7976323" transform="translate(915.433 922.477)">
      <path id="Trazado_1032194" data-name="Trazado 1032194" d="M83.5,46.717A36.788,36.788,0,1,1,46.717,9.929,36.788,36.788,0,0,1,83.5,46.717Z" transform="translate(-4.209 -4.247)" fill="#ff5959"/>
      <path id="Trazado_1032195" data-name="Trazado 1032195" d="M48.374,83.465c-.55.024-1.1.039-1.658.039a36.788,36.788,0,0,1,0-73.575c.556,0,1.108.015,1.658.039a36.786,36.786,0,0,0,0,73.5Z" transform="translate(-4.209 -4.247)" fill="#e63a57"/>
      <path id="Trazado_1032196" data-name="Trazado 1032196" d="M116.826,87.145A29.681,29.681,0,1,1,87.145,57.464,29.681,29.681,0,0,1,116.826,87.145Z" transform="translate(-44.637 -44.675)" fill="#f5f5f5"/>
      <path id="Trazado_1032197" data-name="Trazado 1032197" d="M88.731,116.784q-.788.041-1.586.042a29.681,29.681,0,0,1,0-59.362q.8,0,1.586.042a29.681,29.681,0,0,0,0,59.278Z" transform="translate(-44.637 -44.675)" fill="#e6e6e6"/>
      <path id="Trazado_1032198" data-name="Trazado 1032198" d="M149.949,127.331a22.617,22.617,0,1,1-22.617-22.617,22.617,22.617,0,0,1,22.617,22.617Z" transform="translate(-84.823 -84.861)" fill="#ff5959"/>
      <path id="Trazado_1032199" data-name="Trazado 1032199" d="M128.92,149.892c-.525.036-1.054.056-1.588.056a22.617,22.617,0,1,1,0-45.235c.534,0,1.064.02,1.588.056a22.617,22.617,0,0,0,0,45.122Z" transform="translate(-84.823 -84.861)" fill="#e63a57"/>
      <path id="Trazado_1032200" data-name="Trazado 1032200" d="M221.6,214.265a7.336,7.336,0,1,1-7.336-7.336,7.336,7.336,0,0,1,7.336,7.336Z" transform="translate(-171.757 -171.795)" fill="#f5f5f5"/>
      <path id="Trazado_1032201" data-name="Trazado 1032201" d="M215.056,221.552a7.432,7.432,0,0,1-.833.048,7.336,7.336,0,1,1,.833-14.624,7.335,7.335,0,0,0,0,14.576Z" transform="translate(-171.715 -171.795)" fill="#e6e6e6"/>
      <path id="Trazado_1032202" data-name="Trazado 1032202" d="M314.147,85.751a28.931,28.931,0,0,1,6.307-10.009c5.356-5.356,9.7-9.7,12.328-7.066s-1.71,6.973-7.066,12.329a28.932,28.932,0,0,1-10.01,6.307Z" transform="translate(-262.946 -53.539)" fill="#ffdf40"/>
      <path id="Trazado_1032203" data-name="Trazado 1032203" d="M314.656,86.266l-.51-.51a28.936,28.936,0,0,1,6.307-10.009c4.326-4.326,7.99-7.989,10.626-7.852l-2.318,2.232A54.954,54.954,0,0,0,314.656,86.266Z" transform="translate(-262.945 -53.544)" fill="#ffbe40"/>
      <path id="Trazado_1032204" data-name="Trazado 1032204" d="M357.949,111.173q-.33.33-.668.641l-5.237-5.237q.312-.337.641-.668c.888-.888,1.748-1.748,2.577-2.553L360.5,108.6C359.7,109.425,358.837,110.285,357.949,111.173Z" transform="translate(-295.178 -83.707)" fill="#393939"/>
      <path id="Trazado_1032205" data-name="Trazado 1032205" d="M352.045,106.579q.312-.337.641-.668l.593-.593.153-.153.462-.46.175-.174.454-.449.15-.148q.3-.292.59-.577l1.028,1.027q-1.649,1.591-3.15,3.289Z" transform="translate(-295.178 -83.708)" fill="#343434"/>
      <path id="Trazado_1032206" data-name="Trazado 1032206" d="M417.286,16.988l.673,2.317,2.317.672a1.171,1.171,0,0,1,.5,1.953l-7.52,7.52-4.222-1.224-1.224-4.22,7.52-7.52a1.171,1.171,0,0,1,1.954.5Z" transform="translate(-342.608 -9.531)" fill="#393939"/>
      <path id="Trazado_1032207" data-name="Trazado 1032207" d="M408.376,26.118l-.611-2.108,7.52-7.52a1.171,1.171,0,0,1,1.954.5l.135.466Z" transform="translate(-342.568 -9.535)" fill="#343434"/>
      <path id="Trazado_1032208" data-name="Trazado 1032208" d="M72.164,19.461,78.7,12.928a1.919,1.919,0,0,0-.822-3.2l-1.922-.557L75.4,7.249a1.919,1.919,0,0,0-3.2-.822L65.68,12.941a37.531,37.531,0,1,0,6.484,6.519Zm5.294-8.3a.424.424,0,0,1,.182.707l-7.208,7.208-2.582-.749,7.714-7.714ZM56.946,23.9l4.128,4.128A28.5,28.5,0,0,1,52.945,32.9l-.871-.871A28.51,28.51,0,0,1,56.946,23.9ZM50.5,31.948a.748.748,0,0,0,.17.794l.3.3L47.721,36.3a8.046,8.046,0,0,0-4.466-1.877V28.871a.747.747,0,1,0-1.495,0v5.551a8.1,8.1,0,0,0-7.3,7.3H28.909a.747.747,0,1,0,0,1.495H34.46a8.1,8.1,0,0,0,7.3,7.3v5.551a.747.747,0,0,0,1.495,0V50.518a8.1,8.1,0,0,0,7.3-7.3h5.551a.747.747,0,1,0,0-1.495H50.556a8.046,8.046,0,0,0-1.786-4.359L52.032,34.1l.2.2a.747.747,0,0,0,.794.17,30.936,30.936,0,0,0,7.64-4.188,21.858,21.858,0,1,1-5.977-5.978A30.941,30.941,0,0,0,50.5,31.947ZM41.76,41.722h-5.8a6.6,6.6,0,0,1,5.8-5.8Zm0,1.495v5.8a6.6,6.6,0,0,1-5.8-5.8Zm1.495,0h5.8a6.6,6.6,0,0,1-5.8,5.8Zm0-1.495v-5.8a6.558,6.558,0,0,1,3.4,1.434L44.379,39.64A.747.747,0,1,0,45.436,40.7l2.27-2.27a6.555,6.555,0,0,1,1.348,3.295ZM62.242,26.937l-.074.071-4.2-4.2.071-.074c.691-.691,1.359-1.359,2.007-2l4.195,4.195C63.6,25.578,62.934,26.246,62.242,26.937Zm-5.262-5.262c-.477.477-.926.967-1.348,1.463a23.357,23.357,0,1,0,6.207,6.205c.5-.422.985-.871,1.462-1.347.9-.9,1.764-1.765,2.571-2.6a28.664,28.664,0,0,1,5.57,17.071A28.934,28.934,0,1,1,42.508,13.536,28.633,28.633,0,0,1,59.574,19.1C58.744,19.912,57.879,20.775,56.979,21.674Zm8.3,2.184-4.164-4.164a34.574,34.574,0,0,1,3.865-3.308l.73,2.517a.747.747,0,0,0,.51.51l2.306.669a35.371,35.371,0,0,1-3.247,3.777ZM73.253,7.483a.424.424,0,0,1,.707.181l.549,1.893-7.714,7.714-.749-2.581ZM42.508,78.51a36.04,36.04,0,1,1,22.113-64.5.747.747,0,0,0-.135.674l.057.2a29.624,29.624,0,0,0-3.871,3.176,30.118,30.118,0,0,0-18.164-6.014A30.429,30.429,0,1,0,72.936,42.47,30.15,30.15,0,0,0,66.918,24.3a30.269,30.269,0,0,0,3.119-3.782l.4.117a.738.738,0,0,0,.652-.12A36.041,36.041,0,0,1,42.508,78.51Z" transform="translate(0)"/>
    </g>
  </g>
</svg>
