<svg xmlns="http://www.w3.org/2000/svg" width="68.422" height="68.422" viewBox="0 0 68.422 68.422">
  <g id="_x31_6_x2C__Exchange_Rate_x2C__economy_crises_x2C__economy_x2C__business_x2C__exchange" transform="translate(-1 -1)">
    <g id="Grupo_1199795" data-name="Grupo 1199795" transform="translate(1 1)">
      <g id="XMLID_648_" transform="translate(0 0)">
        <path id="XMLID_691_" d="M56.615,11H15.025A4.025,4.025,0,0,0,11,15.025V72.714a4.025,4.025,0,0,0,4.025,4.025H55.273V56.615h5.366v-25.5A14.767,14.767,0,0,1,43.2,45.624v5.624H27.1v-16.1h4.583a14.76,14.76,0,1,1,28.957-4.038V15.025A4.025,4.025,0,0,0,56.615,11Z" transform="translate(-9.658 -9.658)" fill="#edebfd"/>
        <circle id="XMLID_690_" cx="14.758" cy="14.758" r="14.758" transform="translate(21.466 6.695)" fill="#ffca47"/>
        <path id="XMLID_689_" d="M216.366,255.244v5.624H211V253.1A14.618,14.618,0,0,0,216.366,255.244Z" transform="translate(-182.826 -219.278)" fill="#ff8c8a"/>
        <path id="XMLID_688_" d="M176.366,212.986v7.768H171V206.77A14.8,14.8,0,0,0,176.366,212.986Z" transform="translate(-148.193 -179.164)" fill="#59d5ff"/>
        <path id="XMLID_687_" d="M136.366,193.116V207.1H131V191h4.583A14.508,14.508,0,0,0,136.366,193.116Z" transform="translate(-113.559 -165.51)" fill="#615285"/>
        <path id="XMLID_686_" d="M51,131h5.366v24.149H51Z" transform="translate(-44.292 -113.559)" fill="#00da77"/>
        <path id="XMLID_677_" d="M341,401h21.466v6.708H341Z" transform="translate(-295.385 -347.336)" fill="#ffca47"/>
        <path id="XMLID_676_" d="M362.466,451v6.708H341V451Z" transform="translate(-295.385 -390.628)" fill="#fade65"/>
        <path id="XMLID_675_" d="M362.466,351v6.708H341V351Z" transform="translate(-295.385 -304.044)" fill="#fade65"/>
        <path id="XMLID_674_" d="M46.615,69.422H6.366A5.373,5.373,0,0,1,1,64.055V6.366A5.373,5.373,0,0,1,6.366,1h41.59a5.373,5.373,0,0,1,5.366,5.366v41.59a1.342,1.342,0,1,1-2.683,0V6.366a2.686,2.686,0,0,0-2.683-2.683H6.366A2.686,2.686,0,0,0,3.683,6.366V64.055a2.686,2.686,0,0,0,2.683,2.683H46.615a1.342,1.342,0,1,1,0,2.683Z" transform="translate(-1 -1)"/>
        <path id="XMLID_671_" d="M167.1,73.1A16.1,16.1,0,1,1,183.2,57,16.1,16.1,0,0,1,167.1,73.1Zm0-29.515A13.416,13.416,0,1,0,180.515,57,13.431,13.431,0,0,0,167.1,43.583Z" transform="translate(-130.876 -35.547)"/>
        <path id="XMLID_670_" d="M250.391,303.683h-8.05a1.342,1.342,0,1,1,0-2.683h8.05a1.342,1.342,0,1,1,0,2.683Z" transform="translate(-208.801 -260.752)"/>
        <path id="XMLID_669_" d="M167.708,303.683h-5.366a1.342,1.342,0,1,1,0-2.683h5.366a1.342,1.342,0,1,1,0,2.683Z" transform="translate(-139.534 -260.752)"/>
        <path id="XMLID_668_" d="M87.708,303.683H82.342a1.342,1.342,0,1,1,0-2.683h5.366a1.342,1.342,0,1,1,0,2.683Z" transform="translate(-70.267 -260.752)"/>
        <path id="XMLID_665_" d="M47.708,147.832H42.342A1.342,1.342,0,0,1,41,146.491V122.342A1.342,1.342,0,0,1,42.342,121h5.366a1.342,1.342,0,0,1,1.342,1.342v24.149A1.342,1.342,0,0,1,47.708,147.832Zm-4.025-2.683h2.683V123.683H43.683Z" transform="translate(-35.634 -104.901)"/>
        <path id="XMLID_662_" d="M127.708,199.782h-5.366A1.342,1.342,0,0,1,121,198.441v-16.1A1.342,1.342,0,0,1,122.342,181h4.583A1.342,1.342,0,0,1,128,183.147a1.342,1.342,0,0,1,1.052,1.31v13.984A1.342,1.342,0,0,1,127.708,199.782Zm-4.025-2.683h2.683V184.457a1.336,1.336,0,0,1,.246-.774h-2.929Z" transform="translate(-104.901 -156.851)"/>
        <path id="XMLID_661_" d="M207.708,253.551h-5.366A1.342,1.342,0,0,1,201,252.209v-7.768a1.342,1.342,0,0,1,2.683,0v6.426h2.683v-4.282a1.342,1.342,0,0,1,2.683,0v5.624A1.342,1.342,0,0,1,207.708,253.551Z" transform="translate(-174.168 -210.62)"/>
        <path id="XMLID_660_" d="M245.025,114.316h-2.683a1.342,1.342,0,1,1,0-2.683h2.683a1.342,1.342,0,0,0,0-2.683,4.025,4.025,0,1,1,0-8.05h2.683a1.342,1.342,0,0,1,0,2.683h-2.683a1.342,1.342,0,1,0,0,2.683,4.025,4.025,0,0,1,0,8.05Z" transform="translate(-208.801 -87.497)"/>
        <path id="XMLID_659_" d="M262.342,86.266A1.342,1.342,0,0,1,261,84.925V82.242a1.342,1.342,0,1,1,2.683,0v2.683A1.342,1.342,0,0,1,262.342,86.266Z" transform="translate(-226.118 -70.181)"/>
        <path id="XMLID_658_" d="M262.342,186.266A1.342,1.342,0,0,1,261,184.925v-2.683a1.342,1.342,0,0,1,2.683,0v2.683A1.342,1.342,0,0,1,262.342,186.266Z" transform="translate(-226.118 -156.765)"/>
        <path id="XMLID_657_" d="M41.332,357.983a1.342,1.342,0,0,1,.126-1.893L52.191,346.7a1.342,1.342,0,0,1,1.535-.163l11.135,6.186L74.879,341.45a1.342,1.342,0,0,1,2.006,1.783L66.151,355.307a1.342,1.342,0,0,1-1.654.281l-11.25-6.25-10.023,8.77A1.342,1.342,0,0,1,41.332,357.983Z" transform="translate(-35.633 -295.385)"/>
        <path id="XMLID_656_" d="M257.708,349.05a1.342,1.342,0,0,1-1.342-1.342v-4.025h-4.025a1.342,1.342,0,1,1,0-2.683h5.366a1.342,1.342,0,0,1,1.342,1.342v5.366A1.342,1.342,0,0,1,257.708,349.05Z" transform="translate(-217.46 -295.385)"/>
        <path id="XMLID_655_" d="M353.807,350.391a1.342,1.342,0,0,1-1.342-1.342v-5.366H333.683v5.366a1.342,1.342,0,1,1-2.683,0v-6.708A1.342,1.342,0,0,1,332.342,341h21.466a1.342,1.342,0,0,1,1.342,1.342v6.708A1.342,1.342,0,0,1,353.807,350.391Z" transform="translate(-286.727 -295.385)"/>
        <path id="XMLID_652_" d="M353.807,400.391a1.342,1.342,0,0,1-1.342-1.342v-5.366H333.683v5.366a1.342,1.342,0,1,1-2.683,0v-6.708A1.342,1.342,0,0,1,332.342,391h21.466a1.342,1.342,0,0,1,1.342,1.342v6.708A1.342,1.342,0,0,1,353.807,400.391Z" transform="translate(-286.727 -338.677)"/>
        <path id="XMLID_649_" d="M353.807,450.391H332.342A1.342,1.342,0,0,1,331,449.05v-6.708A1.342,1.342,0,0,1,332.342,441h21.466a1.342,1.342,0,0,1,1.342,1.342v6.708A1.342,1.342,0,0,1,353.807,450.391Zm-20.124-2.683h18.782v-4.025H333.683Z" transform="translate(-286.727 -381.969)"/>
      </g>
    </g>
  </g>
</svg>
