<svg xmlns="http://www.w3.org/2000/svg" xmlns:xlink="http://www.w3.org/1999/xlink" width="117.999" height="118" viewBox="0 0 117.999 118">
  <defs>
    <filter id="Trazado_874925" x="0" y="0" width="117.999" height="118" filterUnits="userSpaceOnUse">
      <feOffset dy="3" input="SourceAlpha"/>
      <feGaussianBlur stdDeviation="3" result="blur"/>
      <feFlood flood-opacity="0.161"/>
      <feComposite operator="in" in2="blur"/>
      <feComposite in="SourceGraphic"/>
    </filter>
  </defs>
  <g id="Grupo_1199901" data-name="Grupo 1199901" transform="translate(-793.782 -1370.892)">
    <g id="Grupo_1199778" data-name="Grupo 1199778" transform="translate(-5.719 -1140.266)">
      <g id="Grupo_1111316" data-name="Grupo 1111316" transform="translate(808.5 2517.157)">
        <g id="Grupo_1109835" data-name="Grupo 1109835" transform="translate(0 0)">
          <g id="Grupo_1107913" data-name="Grupo 1107913" transform="translate(0 0)">
            <g transform="matrix(1, 0, 0, 1, -9, -6)" filter="url(#Trazado_874925)">
              <g id="Trazado_874925-2" data-name="Trazado 874925" transform="translate(9 6)" fill="#9ad354" opacity="0.859">
                <path d="M 49.99972534179688 98.4998779296875 C 43.45164108276367 98.4998779296875 37.10022354125977 97.21776580810547 31.12189674377441 94.68914794921875 C 25.34676742553711 92.24647521972656 20.15985298156738 88.74925994873047 15.70523929595947 84.29464721679688 C 11.25062561035156 79.84004974365234 7.753411293029785 74.65313720703125 5.310725212097168 68.87800598144531 C 2.782111167907715 62.89969253540039 1.499996781349182 56.54829406738281 1.499996781349182 50.00022125244141 C 1.499996781349182 43.45157623291016 2.782111167907715 37.10017776489258 5.310725212097168 31.12186431884766 C 7.753411293029785 25.34673500061035 11.25062561035156 20.15983581542969 15.70523929595947 15.70522117614746 C 20.15985298156738 11.25062084197998 25.34676742553711 7.753406524658203 31.12189674377441 5.31073522567749 C 37.10022354125977 2.782120943069458 43.45164108276367 1.500006556510925 49.99972534179688 1.500006556510925 C 56.54780960083008 1.500006556510925 62.89922714233398 2.782120943069458 68.87755584716797 5.31073522567749 C 74.65267944335938 7.753406524658203 79.839599609375 11.25062084197998 84.29421234130859 15.70522117614746 C 88.74882507324219 20.15983581542969 92.24604034423828 25.34673500061035 94.68872833251953 31.12186431884766 C 97.21733856201172 37.10017776489258 98.49945068359375 43.45157623291016 98.49945068359375 49.99964904785156 C 98.49945068359375 56.54829406738281 97.21733856201172 62.89969253540039 94.68872833251953 68.87800598144531 C 92.24604034423828 74.65313720703125 88.74882507324219 79.84004974365234 84.29421234130859 84.29464721679688 C 79.839599609375 88.74925994873047 74.65267944335938 92.24647521972656 68.87755584716797 94.68914794921875 C 62.89922714233398 97.21776580810547 56.54780960083008 98.4998779296875 49.99972534179688 98.4998779296875 Z" stroke="none"/>
                <path d="M 49.99972534179688 3 C 43.65348052978516 3 37.49866485595703 4.242240905761719 31.70623016357422 6.692230224609375 C 26.10989379882812 9.059272766113281 21.08323669433594 12.44853210449219 16.76589202880859 16.76587677001953 C 12.44855499267578 21.08321380615234 9.059295654296875 26.10985565185547 6.692230224609375 31.70618438720703 C 4.24224853515625 37.49859619140625 3 43.65341186523438 3 50.00022888183594 C 3 56.34645843505859 4.24224853515625 62.50127410888672 6.692230224609375 68.29368591308594 C 9.059295654296875 73.8900146484375 12.44855499267578 78.91665649414062 16.76589202880859 83.23399353027344 C 21.08323669433594 87.55132293701172 26.10989379882812 90.94059753417969 31.70623016357422 93.30764007568359 C 37.49866485595703 95.75762939453125 43.65348052978516 96.99987030029297 49.99972534179688 96.99987030029297 C 56.34597015380859 96.99987030029297 62.50078582763672 95.75762939453125 68.293212890625 93.30764007568359 C 73.88955688476562 90.94059753417969 78.91621398925781 87.55132293701172 83.23355865478516 83.23399353027344 C 87.55089569091797 78.91665649414062 90.94015502929688 73.8900146484375 93.30722045898438 68.29368591308594 C 95.7572021484375 62.50127410888672 96.99945068359375 56.34645843505859 96.99945068359375 49.99964141845703 C 96.99945068359375 43.65341186523438 95.7572021484375 37.49859619140625 93.30722045898438 31.70618438720703 C 90.94015502929688 26.10985565185547 87.55089569091797 21.08321380615234 83.23355865478516 16.76587677001953 C 78.91621398925781 12.44853210449219 73.88955688476562 9.059272766113281 68.293212890625 6.692230224609375 C 62.50078582763672 4.242240905761719 56.34597015380859 3 49.99972534179688 3 M 49.99972534179688 0 C 77.61381530761719 0 99.99945068359375 22.38559722900391 99.99945068359375 49.99964141845703 L 99.99945068359375 50.00022888183594 C 99.99945068359375 77.6142578125 77.61381530761719 99.99987030029297 49.99972534179688 99.99987030029297 C 22.38563537597656 99.99987030029297 0 77.6142578125 0 50.00022888183594 L 0 49.99964141845703 C 0 22.38559722900391 22.38563537597656 0 49.99972534179688 0 Z" stroke="none" fill="#fff"/>
              </g>
            </g>
            <g id="Trazado_874923" data-name="Trazado 874923" transform="translate(0 0)" fill="none">
              <path d="M50,0a50,50,0,0,1,50,50h0A50,50,0,0,1,0,50H0A50,50,0,0,1,50,0Z" stroke="none"/>
              <path d="M 49.99972534179688 3 C 43.65348052978516 3 37.49866485595703 4.242240905761719 31.70623016357422 6.692230224609375 C 26.10989379882812 9.059272766113281 21.08323669433594 12.44853210449219 16.76589202880859 16.76587677001953 C 12.44855499267578 21.08321380615234 9.059295654296875 26.10985565185547 6.692230224609375 31.70618438720703 C 4.24224853515625 37.49859619140625 3 43.65341186523438 3 50.00022888183594 C 3 56.34645843505859 4.24224853515625 62.50127410888672 6.692230224609375 68.29368591308594 C 9.059295654296875 73.8900146484375 12.44855499267578 78.91665649414062 16.76589202880859 83.23399353027344 C 21.08323669433594 87.55132293701172 26.10989379882812 90.94059753417969 31.70623016357422 93.30764007568359 C 37.49866485595703 95.75762939453125 43.65348052978516 96.99987030029297 49.99972534179688 96.99987030029297 C 56.34597015380859 96.99987030029297 62.50078582763672 95.75762939453125 68.293212890625 93.30764007568359 C 73.88955688476562 90.94059753417969 78.91621398925781 87.55132293701172 83.23355865478516 83.23399353027344 C 87.55089569091797 78.91665649414062 90.94015502929688 73.8900146484375 93.30722045898438 68.29368591308594 C 95.7572021484375 62.50127410888672 96.99945068359375 56.34645843505859 96.99945068359375 49.99964141845703 C 96.99945068359375 43.65341186523438 95.7572021484375 37.49859619140625 93.30722045898438 31.70618438720703 C 90.94015502929688 26.10985565185547 87.55089569091797 21.08321380615234 83.23355865478516 16.76587677001953 C 78.91621398925781 12.44853210449219 73.88955688476562 9.059272766113281 68.293212890625 6.692230224609375 C 62.50078582763672 4.242240905761719 56.34597015380859 3 49.99972534179688 3 M 49.99972534179688 0 C 77.61381530761719 0 99.99945068359375 22.38559722900391 99.99945068359375 49.99964141845703 L 99.99945068359375 50.00022888183594 C 99.99945068359375 77.6142578125 77.61381530761719 99.99987030029297 49.99972534179688 99.99987030029297 C 22.38563537597656 99.99987030029297 0 77.6142578125 0 50.00022888183594 L 0 49.99964141845703 C 0 22.38559722900391 22.38563537597656 0 49.99972534179688 0 Z" stroke="none" fill="#fff"/>
            </g>
          </g>
        </g>
      </g>
    </g>
    <g id="book_1732641" transform="translate(824.087 1398.197)">
      <path id="Trazado_1032241" data-name="Trazado 1032241" d="M205.025,29.289V23.736h-3.972a14.715,14.715,0,0,0-2.292-5.546l2.8-2.8-3.928-3.928-2.8,2.8a14.718,14.718,0,0,0-5.545-2.291V8h-5.554v3.972a14.716,14.716,0,0,0-5.546,2.292l-2.8-2.8-3.928,3.928,2.8,2.8a14.745,14.745,0,0,0-2.292,5.546H168V29.29h3.972a14.716,14.716,0,0,0,2.292,5.546l-2.8,2.8,3.928,3.928,2.8-2.8a14.745,14.745,0,0,0,5.546,2.292v3.97h5.554V41.053a14.715,14.715,0,0,0,5.546-2.292l2.8,2.8,3.928-3.928-2.8-2.8a14.745,14.745,0,0,0,2.292-5.546h3.97Zm0,0" transform="translate(-148.562 -7.075)" fill="#ffdf47"/>
      <path id="Trazado_1032242" data-name="Trazado 1032242" d="M254.215,83.107A11.107,11.107,0,1,1,243.107,72,11.107,11.107,0,0,1,254.215,83.107Zm0,0" transform="translate(-205.157 -63.67)" fill="#ccc"/>
      <path id="Trazado_1032243" data-name="Trazado 1032243" d="M251.438,83.843c0-6.081-4.352-11.011-9.719-11.011S232,77.762,232,83.843s4.352,11.011,9.719,11.011S251.438,89.924,251.438,83.843Zm0,0" transform="translate(-205.157 -64.405)" fill="#e6e6e6"/>
      <path id="Trazado_1032244" data-name="Trazado 1032244" d="M8,145.653V104H43.174v41.653" transform="translate(-7.074 -91.967)" fill="#7ac16a"/>
      <path id="Trazado_1032245" data-name="Trazado 1032245" d="M259.457,88.066a12.144,12.144,0,0,1-2-.167l.307-1.826a10.182,10.182,0,1,0-5.892-16.828l-1.379-1.235a12.033,12.033,0,1,1,8.968,20.055Zm0,0" transform="translate(-221.506 -56.595)"/>
      <path id="Trazado_1032246" data-name="Trazado 1032246" d="M184.661,315.7H178.9a5.864,5.864,0,0,0-10.9,0h5.455l1.928,1.851-1.928,1.851H168a5.864,5.864,0,0,0,10.9,0h5.759" transform="translate(-148.562 -275.901)" fill="#017fb3"/>
      <path id="Trazado_1032247" data-name="Trazado 1032247" d="M104,136h20.364v14.81H104Zm0,0" transform="translate(-91.967 -120.265)" fill="#adadad"/>
      <path id="Trazado_1032248" data-name="Trazado 1032248" d="M104,136h17.587v14.81H104Zm0,0" transform="translate(-91.967 -120.265)" fill="#e6e6e6"/>
      <path id="Trazado_1032249" data-name="Trazado 1032249" d="M8,104h7.4v41.653H8Zm0,0" transform="translate(-7.074 -91.967)" fill="#5c9150"/>
      <path id="Trazado_1032250" data-name="Trazado 1032250" d="M41.322,445.554H10.777a2.777,2.777,0,1,1,0-5.554h32.4v3.7A1.851,1.851,0,0,1,41.322,445.554Zm0,0" transform="translate(-7.074 -389.091)" fill="#64656a"/>
      <path id="Trazado_1032251" data-name="Trazado 1032251" d="M40.4,443.7V440H10.777a2.777,2.777,0,1,0,0,5.554H38.545A1.851,1.851,0,0,0,40.4,443.7Zm0,0" transform="translate(-7.074 -389.091)" fill="#95989e"/>
      <path id="Trazado_1032252" data-name="Trazado 1032252" d="M1.851,138.579H0V96.926A.925.925,0,0,1,.926,96H36.1a.925.925,0,0,1,.926.926V135.8H35.174V97.851H1.851Zm0,0" transform="translate(0 -84.893)"/>
      <path id="Trazado_1032253" data-name="Trazado 1032253" d="M64,104h1.851v38.876H64Zm0,0" transform="translate(-56.595 -91.967)"/>
      <path id="Trazado_1032254" data-name="Trazado 1032254" d="M34.248,439.4H3.7a3.7,3.7,0,0,1,0-7.4H36.1a.925.925,0,0,1,.926.926v3.7A2.78,2.78,0,0,1,34.248,439.4ZM3.7,433.851a1.851,1.851,0,0,0,0,3.7H34.248a.926.926,0,0,0,.926-.926v-2.777Zm0,0" transform="translate(0 -382.017)"/>
      <path id="Trazado_1032255" data-name="Trazado 1032255" d="M117.289,144.661H96.926a.924.924,0,0,1-.926-.926v-14.81a.925.925,0,0,1,.926-.926h20.364a.925.925,0,0,1,.926.926v14.81A.925.925,0,0,1,117.289,144.661ZM97.851,142.81h18.512V129.851H97.851Zm0,0" transform="translate(-84.893 -113.19)"/>
      <path id="Trazado_1032256" data-name="Trazado 1032256" d="M128,160h14.81v1.851H128Zm0,0" transform="translate(-113.19 -141.488)"/>
      <path id="Trazado_1032257" data-name="Trazado 1032257" d="M128,224h14.81v1.851H128Zm0,0" transform="translate(-113.19 -198.083)"/>
      <path id="Trazado_1032258" data-name="Trazado 1032258" d="M144,192h11.107v1.851H144Zm0,0" transform="translate(-127.339 -169.785)"/>
      <path id="Trazado_1032259" data-name="Trazado 1032259" d="M208.644,38.876h-4.628V37.025h3.7V33.978a.925.925,0,0,1,.753-.909,13.754,13.754,0,0,0,5.2-2.146.924.924,0,0,1,1.176.11l2.149,2.15,2.619-2.619-2.15-2.149a.925.925,0,0,1-.11-1.176,13.727,13.727,0,0,0,2.146-5.2.927.927,0,0,1,.91-.753h3.046v-3.7h-3.046a.925.925,0,0,1-.909-.753,13.742,13.742,0,0,0-2.146-5.2.925.925,0,0,1,.11-1.176l2.15-2.15-2.619-2.619-2.149,2.15a.926.926,0,0,1-1.176.111,13.738,13.738,0,0,0-5.2-2.147.925.925,0,0,1-.753-.909V1.851h-3.7V4.9a.925.925,0,0,1-.753.909,13.741,13.741,0,0,0-5.2,2.147.927.927,0,0,1-1.176-.111l-2.15-2.15-2.619,2.619,2.15,2.15a.927.927,0,0,1,.11,1.177q-.285.418-.539.859l-1.6-.926c.064-.11.129-.219.2-.328l-2.277-2.276a.925.925,0,0,1,0-1.309l3.928-3.928a.925.925,0,0,1,1.309,0l2.276,2.277a15.5,15.5,0,0,1,4.493-1.856V.925A.925.925,0,0,1,203.089,0h5.554a.926.926,0,0,1,.926.926V4.149a15.512,15.512,0,0,1,4.493,1.856l2.276-2.276a.953.953,0,0,1,1.309,0l3.928,3.928a.925.925,0,0,1,0,1.309L219.3,11.242a15.5,15.5,0,0,1,1.856,4.494h3.226a.925.925,0,0,1,.926.926v5.554a.925.925,0,0,1-.926.926h-3.224a15.508,15.508,0,0,1-1.856,4.494l2.276,2.275a.925.925,0,0,1,0,1.309l-3.928,3.928a.925.925,0,0,1-1.309,0l-2.276-2.276a15.533,15.533,0,0,1-4.493,1.856V37.95a.926.926,0,0,1-.927.926Zm0,0" transform="translate(-167.916)"/>
      <path id="Trazado_1032260" data-name="Trazado 1032260" d="M166.384,316.959a6.711,6.711,0,0,1-6.323-4.308.926.926,0,0,1,.868-1.246h5.082l.963-.926-.963-.926H160.93a.926.926,0,0,1-.868-1.246,6.8,6.8,0,0,1,12.38-.605h5.149v1.851h-5.759a.926.926,0,0,1-.868-.605,4.853,4.853,0,0,0-4.579-3.1A4.949,4.949,0,0,0,162.5,307.7h3.887a.927.927,0,0,1,.64.257l1.928,1.851a.926.926,0,0,1,0,1.337L167.025,313a.93.93,0,0,1-.64.257H162.5a4.952,4.952,0,0,0,3.887,1.851,4.852,4.852,0,0,0,4.579-3.1.926.926,0,0,1,.868-.605h5.759v1.851h-5.149A6.744,6.744,0,0,1,166.384,316.959Zm0,0" transform="translate(-141.491 -268.827)"/>
    </g>
  </g>
</svg>
