<svg xmlns="http://www.w3.org/2000/svg" xmlns:xlink="http://www.w3.org/1999/xlink" width="118" height="118" viewBox="0 0 118 118">
  <defs>
    <filter id="Trazado_874925" x="0" y="0" width="117.999" height="118" filterUnits="userSpaceOnUse">
      <feOffset dy="3" input="SourceAlpha"/>
      <feGaussianBlur stdDeviation="3" result="blur"/>
      <feFlood flood-opacity="0.161"/>
      <feComposite operator="in" in2="blur"/>
      <feComposite in="SourceGraphic"/>
    </filter>
  </defs>
  <g id="Grupo_1199903" data-name="Grupo 1199903" transform="translate(-1108.781 -1370.892)">
    <g id="Grupo_1199779" data-name="Grupo 1199779" transform="translate(309.281 -1140.266)">
      <g id="Grupo_1111316" data-name="Grupo 1111316" transform="translate(808.5 2517.157)">
        <g id="Grupo_1109835" data-name="Grupo 1109835" transform="translate(0 0)">
          <g id="Grupo_1107913" data-name="Grupo 1107913" transform="translate(0 0)">
            <g transform="matrix(1, 0, 0, 1, -9, -6)" filter="url(#Trazado_874925)">
              <g id="Trazado_874925-2" data-name="Trazado 874925" transform="translate(9 6)" fill="#9ad354" opacity="0.859">
                <path d="M 49.99972534179688 98.4998779296875 C 43.45164108276367 98.4998779296875 37.10022354125977 97.21776580810547 31.12189674377441 94.68914794921875 C 25.34676742553711 92.24647521972656 20.15985298156738 88.74925994873047 15.70523929595947 84.29464721679688 C 11.25062561035156 79.84004974365234 7.753411293029785 74.65313720703125 5.310725212097168 68.87800598144531 C 2.782111167907715 62.89969253540039 1.499996781349182 56.54829406738281 1.499996781349182 50.00022125244141 C 1.499996781349182 43.45157623291016 2.782111167907715 37.10017776489258 5.310725212097168 31.12186431884766 C 7.753411293029785 25.34673500061035 11.25062561035156 20.15983581542969 15.70523929595947 15.70522117614746 C 20.15985298156738 11.25062084197998 25.34676742553711 7.753406524658203 31.12189674377441 5.31073522567749 C 37.10022354125977 2.782120943069458 43.45164108276367 1.500006556510925 49.99972534179688 1.500006556510925 C 56.54780960083008 1.500006556510925 62.89922714233398 2.782120943069458 68.87755584716797 5.31073522567749 C 74.65267944335938 7.753406524658203 79.839599609375 11.25062084197998 84.29421234130859 15.70522117614746 C 88.74882507324219 20.15983581542969 92.24604034423828 25.34673500061035 94.68872833251953 31.12186431884766 C 97.21733856201172 37.10017776489258 98.49945068359375 43.45157623291016 98.49945068359375 49.99964904785156 C 98.49945068359375 56.54829406738281 97.21733856201172 62.89969253540039 94.68872833251953 68.87800598144531 C 92.24604034423828 74.65313720703125 88.74882507324219 79.84004974365234 84.29421234130859 84.29464721679688 C 79.839599609375 88.74925994873047 74.65267944335938 92.24647521972656 68.87755584716797 94.68914794921875 C 62.89922714233398 97.21776580810547 56.54780960083008 98.4998779296875 49.99972534179688 98.4998779296875 Z" stroke="none"/>
                <path d="M 49.99972534179688 3 C 43.65348052978516 3 37.49866485595703 4.242240905761719 31.70623016357422 6.692230224609375 C 26.10989379882812 9.059272766113281 21.08323669433594 12.44853210449219 16.76589202880859 16.76587677001953 C 12.44855499267578 21.08321380615234 9.059295654296875 26.10985565185547 6.692230224609375 31.70618438720703 C 4.24224853515625 37.49859619140625 3 43.65341186523438 3 50.00022888183594 C 3 56.34645843505859 4.24224853515625 62.50127410888672 6.692230224609375 68.29368591308594 C 9.059295654296875 73.8900146484375 12.44855499267578 78.91665649414062 16.76589202880859 83.23399353027344 C 21.08323669433594 87.55132293701172 26.10989379882812 90.94059753417969 31.70623016357422 93.30764007568359 C 37.49866485595703 95.75762939453125 43.65348052978516 96.99987030029297 49.99972534179688 96.99987030029297 C 56.34597015380859 96.99987030029297 62.50078582763672 95.75762939453125 68.293212890625 93.30764007568359 C 73.88955688476562 90.94059753417969 78.91621398925781 87.55132293701172 83.23355865478516 83.23399353027344 C 87.55089569091797 78.91665649414062 90.94015502929688 73.8900146484375 93.30722045898438 68.29368591308594 C 95.7572021484375 62.50127410888672 96.99945068359375 56.34645843505859 96.99945068359375 49.99964141845703 C 96.99945068359375 43.65341186523438 95.7572021484375 37.49859619140625 93.30722045898438 31.70618438720703 C 90.94015502929688 26.10985565185547 87.55089569091797 21.08321380615234 83.23355865478516 16.76587677001953 C 78.91621398925781 12.44853210449219 73.88955688476562 9.059272766113281 68.293212890625 6.692230224609375 C 62.50078582763672 4.242240905761719 56.34597015380859 3 49.99972534179688 3 M 49.99972534179688 0 C 77.61381530761719 0 99.99945068359375 22.38559722900391 99.99945068359375 49.99964141845703 L 99.99945068359375 50.00022888183594 C 99.99945068359375 77.6142578125 77.61381530761719 99.99987030029297 49.99972534179688 99.99987030029297 C 22.38563537597656 99.99987030029297 0 77.6142578125 0 50.00022888183594 L 0 49.99964141845703 C 0 22.38559722900391 22.38563537597656 0 49.99972534179688 0 Z" stroke="none" fill="#fff"/>
              </g>
            </g>
            <g id="Trazado_874923" data-name="Trazado 874923" transform="translate(0 0)" fill="none">
              <path d="M50,0a50,50,0,0,1,50,50h0A50,50,0,0,1,0,50H0A50,50,0,0,1,50,0Z" stroke="none"/>
              <path d="M 49.99972534179688 3 C 43.65348052978516 3 37.49866485595703 4.242240905761719 31.70623016357422 6.692230224609375 C 26.10989379882812 9.059272766113281 21.08323669433594 12.44853210449219 16.76589202880859 16.76587677001953 C 12.44855499267578 21.08321380615234 9.059295654296875 26.10985565185547 6.692230224609375 31.70618438720703 C 4.24224853515625 37.49859619140625 3 43.65341186523438 3 50.00022888183594 C 3 56.34645843505859 4.24224853515625 62.50127410888672 6.692230224609375 68.29368591308594 C 9.059295654296875 73.8900146484375 12.44855499267578 78.91665649414062 16.76589202880859 83.23399353027344 C 21.08323669433594 87.55132293701172 26.10989379882812 90.94059753417969 31.70623016357422 93.30764007568359 C 37.49866485595703 95.75762939453125 43.65348052978516 96.99987030029297 49.99972534179688 96.99987030029297 C 56.34597015380859 96.99987030029297 62.50078582763672 95.75762939453125 68.293212890625 93.30764007568359 C 73.88955688476562 90.94059753417969 78.91621398925781 87.55132293701172 83.23355865478516 83.23399353027344 C 87.55089569091797 78.91665649414062 90.94015502929688 73.8900146484375 93.30722045898438 68.29368591308594 C 95.7572021484375 62.50127410888672 96.99945068359375 56.34645843505859 96.99945068359375 49.99964141845703 C 96.99945068359375 43.65341186523438 95.7572021484375 37.49859619140625 93.30722045898438 31.70618438720703 C 90.94015502929688 26.10985565185547 87.55089569091797 21.08321380615234 83.23355865478516 16.76587677001953 C 78.91621398925781 12.44853210449219 73.88955688476562 9.059272766113281 68.293212890625 6.692230224609375 C 62.50078582763672 4.242240905761719 56.34597015380859 3 49.99972534179688 3 M 49.99972534179688 0 C 77.61381530761719 0 99.99945068359375 22.38559722900391 99.99945068359375 49.99964141845703 L 99.99945068359375 50.00022888183594 C 99.99945068359375 77.6142578125 77.61381530761719 99.99987030029297 49.99972534179688 99.99987030029297 C 22.38563537597656 99.99987030029297 0 77.6142578125 0 50.00022888183594 L 0 49.99964141845703 C 0 22.38559722900391 22.38563537597656 0 49.99972534179688 0 Z" stroke="none" fill="#fff"/>
            </g>
          </g>
        </g>
      </g>
    </g>
    <g id="mathematics_1875213" transform="translate(1138.563 1400.512)">
      <path id="Trazado_1032261" data-name="Trazado 1032261" d="M46.049,42v2.854l-3.291.847a16.349,16.349,0,0,1-2,4.8l1.731,2.93-4.033,4.033-2.93-1.731a16.349,16.349,0,0,1-4.8,2l-.847,3.291H24.171l-.847-3.291a16.349,16.349,0,0,1-4.8-2l-2.93,1.731-4.033-4.033,1.731-2.93a16.349,16.349,0,0,1-2-4.8L8,44.854V42h6.659a12.366,12.366,0,0,0,24.732,0Z" transform="translate(-0.341 -1.999)" fill="#ffc729"/>
      <path id="Trazado_1032262" data-name="Trazado 1032262" d="M34.025,42h5.707A12.366,12.366,0,0,1,15,42h5.707a6.659,6.659,0,0,0,13.317,0Z" transform="translate(-0.683 -1.999)" fill="#fcd770"/>
      <path id="Trazado_1032263" data-name="Trazado 1032263" d="M3.9,38H51.464v3.8H2V38Z" transform="translate(-0.049 -1.804)" fill="#aab2bd"/>
      <path id="Trazado_1032264" data-name="Trazado 1032264" d="M4,8H49.659V36.537H4Z" transform="translate(-0.146 -0.341)" fill="#e6e9ed"/>
      <g id="Grupo_1199902" data-name="Grupo 1199902" transform="translate(7.659 13.366)">
        <path id="Trazado_1032265" data-name="Trazado 1032265" d="M29.573,28.549,26.8,31.317A13.3,13.3,0,0,1,23,22.528V18h3.8v4.528A9.483,9.483,0,0,0,29.573,28.549Z" transform="translate(-8.731 -14.195)" fill="#b4dd7f"/>
        <path id="Trazado_1032266" data-name="Trazado 1032266" d="M27.976,14v3.8H14.335a3.809,3.809,0,0,0-2.692,1.113l-.79.79A2.85,2.85,0,0,1,8,16.854l1.741-1.741A3.809,3.809,0,0,1,12.433,14Z" transform="translate(-8 -14)" fill="#b4dd7f"/>
        <path id="Trazado_1032267" data-name="Trazado 1032267" d="M15,18h3.8V31.317H15Z" transform="translate(-8.341 -14.195)" fill="#b4dd7f"/>
      </g>
      <path id="Trazado_1032268" data-name="Trazado 1032268" d="M50.7,12.329,47.366,9,35,21.366,38.329,24.7l3.329,3.329,9.512-9.512,2.854-2.854Z" transform="translate(-1.658 -0.39)" fill="#ff826e"/>
      <path id="Trazado_1032269" data-name="Trazado 1032269" d="M50.866,12.5,38.5,24.866,41.829,28.2l9.512-9.512L54.2,15.829Z" transform="translate(-1.829 -0.561)" fill="#fcd770"/>
      <path id="Trazado_1032270" data-name="Trazado 1032270" d="M61.464,6.709a4.709,4.709,0,0,1-1.379,3.329l-2.426,2.426L51,5.8l2.426-2.426a4.709,4.709,0,0,1,8.038,3.329Z" transform="translate(-2.438 -0.049)" fill="#ccd1d9"/>
      <path id="Trazado_1032271" data-name="Trazado 1032271" d="M50.854,6l6.659,6.659-2.854,2.854-3.329-3.329L48,8.854l.951-.951Z" transform="translate(-2.292 -0.244)" fill="#ffeaa7"/>
      <path id="Trazado_1032272" data-name="Trazado 1032272" d="M41.561,28.659,33,30.561,34.9,22l3.329,3.329Z" transform="translate(-1.56 -1.024)" fill="#cf9e76"/>
      <path id="Trazado_1032273" data-name="Trazado 1032273" d="M58.319,10.662a5.66,5.66,0,0,0-8-8l-4.05,4.05H2.9V35.244H1v5.707H6.707v2.64l3.463.89A16.951,16.951,0,0,0,11.84,48.5l-1.823,3.082L15.1,56.665l3.08-1.822A16.981,16.981,0,0,0,22.2,56.513l.891,3.463h7.183l.89-3.463a16.941,16.941,0,0,0,4.023-1.669l3.08,1.822,5.081-5.079-1.822-3.081A17.024,17.024,0,0,0,43.2,44.483l3.462-.891v-2.64h5.707V35.244h-1.9V18.516ZM47.053,8.61,48.562,7.1l5.314,5.314-1.509,1.509ZM45.708,9.955l1.984,1.984L36.671,22.96l-1.984-1.984ZM33.895,22.874,38.1,27.082l-5.411,1.2ZM40,26.29l-1.984-1.984L49.037,13.284l1.984,1.984ZM51.66,4a3.757,3.757,0,1,1,5.314,5.314L55.22,11.07,49.907,5.756Zm-6.9,38.114-3.14.807-.131.561A15.124,15.124,0,0,1,39.612,48l-.3.49,1.65,2.794-2.993,2.993-2.795-1.651-.49.3A15.071,15.071,0,0,1,30.165,54.8l-.558.13L28.8,58.074H24.568l-.808-3.139L23.2,54.8a15.1,15.1,0,0,1-4.516-1.874l-.49-.3L15.4,54.278l-2.993-2.993,1.65-2.794-.3-.49a15.124,15.124,0,0,1-1.874-4.517l-.131-.561L8.61,42.117V40.952h4.8a13.3,13.3,0,0,0,26.538,0h4.8ZM19.139,40.952a7.6,7.6,0,0,0,15.088,0h3.823a11.406,11.406,0,0,1-22.734,0Zm1.922,0H32.305a5.7,5.7,0,0,1-11.244,0Zm29.4-1.9H2.9v-1.9H50.464Zm-1.9-3.8H4.8V8.61H44.362L32.474,20.5,30.187,30.79,40.477,28.5l8.085-8.085Z"/>
      <path id="Trazado_1032274" data-name="Trazado 1032274" d="M26.976,22.282V18.707h1.9V13h-16.5a4.726,4.726,0,0,0-3.364,1.393L7,16.411V16.8a3.809,3.809,0,0,0,3.8,3.8H11.2l1.066-1.067a2.826,2.826,0,0,1,1.394-.761V32.025h5.707V18.707h1.9v3.575a14.159,14.159,0,0,0,4.084,9.464l.673.673L30.142,28.3l-.673-.673a8.6,8.6,0,0,1-2.493-5.347ZM10.92,18.2l-.476.476a1.907,1.907,0,0,1-1.508-1.508l1.426-1.427a2.835,2.835,0,0,1,2.019-.836H26.976v1.9H14.284A4.726,4.726,0,0,0,10.92,18.2Zm6.544,11.925h-1.9V18.707h1.9Zm8.591-.424a12.284,12.284,0,0,1-2.883-7.416V18.707h1.9v3.575a10.083,10.083,0,0,0,2.411,5.985Z" transform="translate(-0.293 -0.585)"/>
      <path id="Trazado_1032275" data-name="Trazado 1032275" d="M48.707,27H46.8v5.707H43v1.9h5.707Z" transform="translate(-2.048 -1.268)"/>
      <path id="Trazado_1032276" data-name="Trazado 1032276" d="M39,33h1.9v1.9H39Z" transform="translate(-1.853 -1.56)"/>
    </g>
  </g>
</svg>
